<svg width="31" height="20" viewBox="0 0 31 20" fill="none" xmlns="http://www.w3.org/2000/svg">
<g clip-path="url(#clip0_8_142)">
<path d="M11.67 0C11.88 0.48 11.99 0.85 11.99 1.09C11.99 1.22 11.94 1.44 11.83 1.74C9.47999 2.92 7.96999 3.8 7.29999 4.36C5.87999 5.49 4.83999 6.63 4.16999 7.79C3.71999 8.6 3.48999 9.43 3.48999 10.29C3.48999 11.15 3.69999 11.81 4.12999 12.35C4.39999 12.73 4.71999 12.91 5.08999 12.91C5.21999 12.91 5.89999 12.87 7.12999 12.79C7.25999 12.76 7.40999 12.75 7.56999 12.75C8.55999 12.75 9.36999 13.06 10.02 13.69C10.66 14.31 10.98 15.12 10.98 16.1C10.98 17.14 10.57 18.03 9.75999 18.79C8.93999 19.55 7.98999 19.93 6.88999 19.93C5.78999 19.93 4.67999 19.65 3.61999 19.09C2.55999 18.53 1.69999 17.63 1.00999 16.4C0.32999 15.17 -0.0100098 13.94 -0.0100098 12.7C-0.0100098 10.93 0.47999 9.13 1.46999 7.3C2.45999 5.47 3.70999 4.08 5.23999 3.14C7.81999 1.58 9.95999 0.54 11.67 0ZM30.79 0.12C30.82 0.44 30.83 0.72 30.83 0.99C30.83 1.2 30.78 1.48 30.67 1.82C27.68 3.21 25.55 4.67 24.28 6.2C23.01 7.73 22.38 9.15 22.38 10.46C22.38 10.89 22.46 11.3 22.62 11.69C22.78 12.08 23.02 12.45 23.34 12.79C23.77 12.92 24.08 12.99 24.26 12.99C24.39 12.99 24.75 12.92 25.34 12.79C25.66 12.71 26.01 12.67 26.38 12.67C27.48 12.67 28.32 12.96 28.93 13.53C29.53 14.1 29.83 14.89 29.83 15.88C29.83 17.06 29.45 18.04 28.69 18.83C27.93 19.62 26.97 20.01 25.82 20.01C23.9 20.01 22.28 19.34 20.97 17.99C19.66 16.64 19.01 14.72 19.01 12.24C19.01 10.42 19.64 8.57 20.89 6.69C22.15 4.81 23.71 3.33 25.58 2.26C28.17 0.8 29.84 0.08 30.59 0.08L30.79 0.12Z" fill="#BBB573"/>
</g>
<defs>
<clipPath id="clip0_8_142">
<rect width="30.83" height="20" fill="white"/>
</clipPath>
</defs>
</svg>
