<svg width="262" height="172" viewBox="0 0 262 172" fill="none" xmlns="http://www.w3.org/2000/svg">
<g opacity="0.44">
<path d="M30.59 142.785C30.05 142.785 29.73 142.755 29.64 142.695C29.55 142.635 29.47 142.604 29.42 142.604H29.33C29.27 142.604 29.21 142.635 29.15 142.695C29.09 142.755 28.76 142.785 28.16 142.785C27.62 142.785 26.97 142.755 26.22 142.695C25.47 142.635 24.83 142.544 24.29 142.424C22.43 142.001 20.6 141.318 18.8 140.383C17 139.448 15.5 138.353 14.3 137.086C13.1 135.82 12.14 134.04 11.42 131.749C10.94 130.12 10.7 128.612 10.7 127.225C10.7 126.743 10.74 126.28 10.84 125.818C10.93 125.366 11.02 124.853 11.11 124.28C11.2 123.707 11.27 123.154 11.34 122.601C11.4 122.059 11.46 121.516 11.52 120.973C10.92 122.119 10.59 122.692 10.53 122.692L10.44 122.33C10.62 121.787 10.83 121.365 11.07 121.064C11.31 120.762 11.46 120.521 11.52 120.34C11.52 120.099 11.48 119.888 11.38 119.707C11.29 119.526 11.24 119.284 11.24 118.983C11.24 118.561 11.36 118.108 11.6 117.626C11.96 116.781 12.44 115.907 13.04 115.002L13.49 114.459C13.61 114.459 14 114.007 14.66 113.102C14.9 112.68 15.12 112.349 15.34 112.107C15.55 111.866 15.73 111.746 15.88 111.746C16.03 111.746 16.2 111.595 16.37 111.293C16.55 110.992 16.82 110.66 17.18 110.298H17.27V110.479L16.91 111.022C16.49 111.625 16.28 111.987 16.28 112.107L16.55 111.926C16.67 111.866 17.06 111.354 17.72 110.389C18.68 109.062 19.25 108.368 19.43 108.308C19.73 108.006 19.88 107.825 19.88 107.765C19.88 107.644 19.85 107.584 19.79 107.584L19.07 107.946L19.16 107.765C19.22 107.644 19.28 107.574 19.34 107.534C19.4 107.504 19.56 107.473 19.83 107.443C20.1 107.413 20.44 107.102 20.86 106.499C21.28 105.895 21.56 105.594 21.71 105.594C21.86 105.594 21.96 105.564 22.03 105.503V105.413C22.03 105.292 21.91 105.232 21.67 105.232H21.58C21.4 105.232 21.31 105.202 21.31 105.142C21.31 105.021 21.37 104.9 21.49 104.78C21.61 104.659 21.73 104.569 21.85 104.508C21.97 104.448 22.06 104.418 22.12 104.418C22.18 104.418 22.21 104.448 22.21 104.508C22.33 104.508 22.93 103.935 24.01 102.789C25.09 101.643 26.02 100.829 26.8 100.347L27.79 99.4421C27.79 99.3818 27.76 99.3517 27.7 99.3517C27.52 99.3517 27.34 99.4823 27.16 99.7537C26.98 100.025 26.77 100.196 26.53 100.256C26.35 100.256 26.26 100.196 26.26 100.075C26.32 99.8945 26.62 99.5326 27.16 98.9898C28.42 97.9043 29.71 96.8789 31.03 95.9139L32.11 95.4617C32.47 95.4617 33.16 95.0092 34.18 94.1046C34.96 93.4411 35.35 93.0793 35.35 93.019C35.29 93.019 35 93.2 34.5 93.5619C33.99 93.9237 33.61 94.1649 33.38 94.2856C33.2 94.2856 33.11 94.2252 33.11 94.1046C33.17 93.9236 34.1 93.1698 35.9 91.8429C37.52 90.7573 38.63 90.0638 39.23 89.7623C39.41 89.7623 39.56 89.7019 39.68 89.5813C39.8 89.4606 39.86 89.34 39.86 89.2194C39.86 89.0988 39.98 88.9179 40.22 88.6767C40.88 88.1942 41.42 87.9529 41.84 87.9529C41.96 87.9529 42.05 87.9429 42.11 87.9027C42.17 87.8725 42.2 87.8022 42.2 87.6715C42.32 87.2493 43.16 86.6462 44.72 85.8622C45.26 85.6209 45.92 85.2189 46.7 84.6459C47.48 84.073 48.5 83.4597 49.76 82.7862L57.05 78.8058C60.41 77.1171 62.16 76.2727 62.32 76.2727C62.48 76.2727 62.6 76.2426 62.72 76.1823L65.24 74.9157C66.44 74.4333 67.86 73.8503 69.52 73.1567C71.17 72.4631 72.74 71.8399 74.24 71.2971C76.28 70.4528 77.3 69.9702 77.3 69.8496C77.3 69.729 77.33 69.6687 77.39 69.6687L77.66 69.7592C77.96 69.7592 78.8 69.5481 80.18 69.1259C82.4 68.4022 84.2 68.0403 85.58 68.0403C86.78 68.0403 87.62 68.3419 88.1 68.945C88.4 69.3672 88.55 69.6687 88.55 69.8496C88.49 70.0305 88.33 70.1412 88.06 70.1613C87.79 70.1914 87.58 70.3724 87.43 70.7041C87.28 71.0358 86.85 71.2368 86.12 71.2871C84.98 71.4077 83.39 71.7394 81.35 72.2822C78.29 73.1265 75.98 73.8804 74.42 74.5438C74.12 74.6644 73.93 74.7248 73.84 74.7248C73.75 74.7248 73.19 74.9359 72.17 75.3581C70.13 76.1421 67.64 77.1975 64.7 78.5243L60.02 80.7859C56.48 82.4746 53.09 84.3444 49.85 86.3949C43.85 89.7723 38.09 93.8734 32.57 98.6983C28.55 102.076 25.55 105.061 23.57 107.654C23.33 107.896 23.13 108.127 22.98 108.338C22.83 108.549 22.72 108.69 22.67 108.74C22.61 108.8 22.37 109.102 21.95 109.645C20.03 112.057 18.56 114.198 17.54 116.068C15.8 119.144 14.93 121.043 14.93 121.767V122.31C14.39 124.481 14.09 126.532 14.03 128.462C14.03 130.452 14.18 131.93 14.48 132.895C15.86 136.573 20.24 138.413 27.62 138.413C31.82 138.413 36.71 137.327 42.29 135.156C47.69 133.166 53.15 130.422 58.67 126.924L61.01 125.567L62 125.205C61.88 125.446 60.83 126.14 58.85 127.286C56.75 128.612 55.5 129.366 55.12 129.547C54.73 129.728 54.14 130.09 53.36 130.633C52.88 130.995 51.83 131.568 50.21 132.352C45.23 134.643 41.93 136.061 40.31 136.604L37.88 137.599C37.94 137.599 37.97 137.629 37.97 137.689C37.97 137.87 37.88 137.961 37.7 137.961C37.64 137.961 37.56 137.93 37.47 137.87C37.38 137.81 37.21 137.78 36.98 137.78C36.56 137.78 35.81 137.9 34.73 138.142C32.15 138.745 29.3 139.046 26.18 139.046C23.9 139.046 22.04 138.805 20.6 138.322L19.16 137.961C19.16 138.021 19.55 138.232 20.33 138.594C20.81 138.775 21.53 138.926 22.49 139.046C24.59 139.468 26.39 139.679 27.89 139.679C28.55 139.679 28.89 139.639 28.93 139.549C28.96 139.458 29.07 139.418 29.24 139.418L30.05 139.509C32.09 139.509 34.64 139.116 37.7 138.332C39.68 137.79 40.67 137.428 40.67 137.247C40.55 137.187 40.49 137.126 40.49 137.066C40.49 136.885 40.67 136.795 41.03 136.795C41.09 136.855 41.12 136.915 41.12 136.975C41.12 137.036 41.21 137.066 41.39 137.066C42.35 137.066 43.85 136.583 45.89 135.618C47.81 134.834 48.77 134.352 48.77 134.171L48.68 133.9C48.68 133.839 48.72 133.769 48.82 133.669C48.91 133.578 48.98 133.528 49.04 133.528C49.16 133.528 49.25 133.588 49.31 133.709C49.37 133.829 49.46 133.89 49.58 133.89C49.88 133.89 50.3 133.739 50.84 133.437C53 132.352 55.64 130.874 58.76 129.004C62.66 126.592 66.62 123.848 70.64 120.772C72.38 119.505 75.83 116.49 80.99 111.725C84.89 108.167 88.04 104.88 90.44 101.865C92.3 99.6935 93.23 98.4871 93.23 98.2459L92.33 99.2411C91.85 99.8442 91.37 100.387 90.89 100.87C90.11 101.774 89.57 102.226 89.27 102.226V102.046C89.15 102.046 88.61 102.498 87.65 103.402C86.69 104.307 86.12 104.76 85.94 104.76C85.94 104.699 86.39 104.066 87.29 102.86C87.71 102.438 88.04 102.066 88.28 101.734C88.52 101.402 88.65 101.191 88.69 101.101C88.72 101.01 89.21 100.327 90.17 99.0602L91.7 97.0699C92.36 96.1049 92.69 95.5622 92.69 95.4415L91.79 96.5271L91.34 96.8889H91.16L91.52 96.0748C92.36 94.8083 93.05 93.8131 93.59 93.0893C93.89 92.6672 94.08 92.4059 94.17 92.3154C94.26 92.225 94.56 91.7223 95.07 90.8277C95.58 89.923 96.18 88.8677 96.87 87.6615C97.56 86.4552 98.19 85.3093 98.76 84.2237C99.33 83.1381 99.71 82.3842 99.88 81.9621C100.36 80.8161 101.17 78.3735 102.31 74.6343C102.67 72.8249 102.85 71.0157 102.85 69.2064C102.85 68.6033 102.82 68.0605 102.76 67.578C102.1 61.8485 99.25 57.9885 94.21 55.9983C92.05 55.1539 89.14 54.4905 85.48 54.008C81.64 53.7668 78.28 53.6462 75.4 53.6462C73.54 53.6462 72.28 53.6763 71.62 53.7366L68.47 54.008C64.81 54.2493 60.43 54.7921 55.33 55.6364C53.71 55.938 52.78 56.0888 52.54 56.0888C52.3 56.0888 52.06 56.139 51.82 56.2295C51.58 56.32 50.95 56.4607 49.93 56.6315C48.49 56.9331 46.39 57.3251 43.63 57.8076C42.31 57.9886 40.54 58.3806 38.32 58.9837L28.78 61.0643L26.71 66.1305C24.43 71.6791 22.48 76.9261 20.86 81.8716L19.87 84.4951C18.49 88.1741 17.74 90.6769 17.62 92.0038C17.62 92.1847 17.67 92.3857 17.76 92.5867C17.85 92.7978 17.98 93.0089 18.17 93.22C18.35 93.4311 18.47 93.6623 18.53 93.8935C18.53 94.1348 18.42 94.2554 18.22 94.2554C18.02 94.2554 17.9 94.2855 17.9 94.3458V94.5268L17.99 96.0647C17.99 96.4869 17.93 96.8186 17.81 97.0599C17.51 97.482 17.15 97.6931 16.73 97.6931C16.61 97.6931 16.47 97.6328 16.33 97.5121C16.18 97.3915 16.01 97.3212 15.84 97.281C15.66 97.2508 15.45 97.1504 15.21 96.9694C14.61 96.4869 14.31 96.1854 14.31 96.0647C14.31 95.9441 14.23 95.8134 14.09 95.6526C13.94 95.5018 13.71 95.3208 13.41 95.1097C13.11 94.8987 12.78 94.4665 12.42 93.8031C11.76 92.7175 11.43 91.6922 11.43 90.7272C11.43 90.5462 11.46 90.3854 11.52 90.2347C11.58 90.0839 11.61 89.9532 11.61 89.8225C11.61 89.0988 11.22 88.3449 10.44 87.5608C10.14 87.199 9.66 86.5557 9 85.6109C8.34 84.676 7.68 83.701 7.02 82.6656C6.36 81.6403 5.85 80.8262 5.49 80.2231C4.95 79.1978 4.32 77.8408 3.6 76.1521C2.88 74.4634 2.34 73.0261 1.98 71.85C1.62 70.674 1.2 70.0407 0.72 69.9502C0.24 69.8597 0 68.9752 0 67.2764C0 66.2511 0.08 64.9746 0.23 63.4266C0.38 61.8887 0.52 60.7326 0.63 59.9486C0.81 58.7424 1.11 58.079 1.53 57.9584C1.95 57.8378 2.34 57.2347 2.7 56.1491C5.64 47.5246 9.72 40.6191 14.94 35.4323C15.72 34.6483 16.26 34.1658 16.56 33.9849L16.74 33.8944C16.74 33.9547 16.53 34.2261 16.11 34.7086C14.55 36.2767 13.2 37.8447 12.06 39.4128L11.16 40.5889C11.28 40.5889 11.61 40.227 12.15 39.5033C13.53 37.694 15.51 35.6132 18.09 33.2611C19.47 31.9946 20.16 31.2709 20.16 31.09H20.07C20.01 31.09 19.98 31.0598 19.98 30.9995C19.98 30.5773 22.11 28.8886 26.37 25.9334C27.15 25.4509 27.75 25.2096 28.17 25.2096C28.59 25.2096 28.83 25.1795 28.89 25.1192L28.62 24.9383C28.44 24.878 28.35 24.8177 28.35 24.7573L28.44 24.5764C28.5 24.5161 28.71 24.3653 29.07 24.1241C30.51 23.1591 31.71 22.4353 32.67 21.9529L33.66 21.591H33.93C33.93 21.5307 33.9 21.5005 33.84 21.5005C33.84 21.3799 35.22 20.5054 37.98 18.877C41.22 17.1883 43.12 16.2535 43.7 16.0726C44.27 15.8917 45.3 14.6553 46.8 12.3635C51.24 5.60867 54.06 1.95986 55.26 1.41706C55.74 1.17582 56.05 0.994906 56.21 0.874284C56.36 0.753663 56.49 0.693359 56.61 0.693359C56.67 0.693359 56.73 0.813966 56.79 1.05521C56.85 1.29645 57.24 1.43715 57.96 1.46731C58.68 1.49746 59.31 1.66834 59.85 1.96989C61.59 3.29673 62.49 4.44268 62.55 5.40765C62.55 5.7092 62.46 5.94038 62.28 6.0811C62.1 6.23188 61.98 6.44297 61.92 6.71437C61.86 6.98577 61.35 7.63914 60.39 8.66442C59.43 9.6897 58.95 10.2928 58.95 10.4737H59.04C59.34 10.4737 59.73 10.4435 60.21 10.3832C60.69 10.3229 61.23 10.2928 61.83 10.2928C63.81 10.2928 65.55 10.5943 67.05 11.1974C68.55 11.8005 69.6 12.464 70.2 13.1877C70.92 14.1527 71.28 15.6303 71.28 17.6205C71.28 19.1283 70.8 20.6964 69.84 22.3248C69.36 23.1691 68.49 24.3452 67.23 25.853C65.97 27.3607 64.77 28.6574 63.63 29.743L51.03 41.4132C46.41 45.5143 43.98 47.5649 43.74 47.5649C43.5 47.5649 43.26 47.6855 43.02 47.9267C42.9 48.2886 42.31 48.8314 41.26 49.5551C40.21 50.2788 39.23 51.0025 38.34 51.7263L35.37 54.1688L38.97 53.4451C44.91 52.1786 48.96 51.3644 51.12 51.0026C56.64 49.917 61.77 49.2837 66.51 49.1027C66.87 49.1027 67.39 49.0726 68.09 49.0123C68.78 48.952 69.51 48.9218 70.29 48.9218L76.68 49.0123C83.04 49.3742 86.85 49.7662 88.11 50.1884C88.59 50.2487 89.25 50.4296 90.09 50.7311C91.71 51.1533 93.45 51.8771 95.31 52.9024C97.95 54.3498 100.12 56.1088 101.84 58.1895C103.55 60.2703 104.4 61.5871 104.4 62.1299L104.58 62.4917C106.2 65.7485 107.01 69.337 107.01 73.2572C106.95 73.4381 106.9 73.7498 106.87 74.2021C106.84 74.6544 106.83 75.1269 106.83 75.6094C106.77 76.8759 106.66 77.5493 106.51 77.6397C106.36 77.7302 106.27 77.8207 106.24 77.9111C106.21 78.0016 106.2 78.2027 106.2 78.4942C106.2 79.8211 105.69 81.7811 104.67 84.3745C101.49 91.9133 97.02 98.9999 91.26 105.634C90.84 106.117 90.57 106.478 90.45 106.72L87.39 109.796C86.97 110.218 86.76 110.479 86.76 110.569C86.76 110.66 86.73 110.72 86.67 110.75C86.61 110.781 86.49 110.791 86.31 110.791C86.13 110.791 85.98 111.002 85.86 111.424C85.8 111.545 85.62 111.776 85.32 112.107C85.02 112.439 84.69 112.761 84.33 113.052C83.43 113.716 82.98 114.108 82.98 114.228C81.9 115.314 79.56 117.455 75.96 120.651C74.88 121.556 73.38 122.732 71.46 124.18C70.62 124.903 70.02 125.325 69.66 125.446H69.39C69.21 125.506 69.12 125.627 69.12 125.808C68.46 126.471 66.45 127.889 63.09 130.06C62.13 130.603 61.5 131.025 61.2 131.326C54.84 135.186 49.71 137.81 45.81 139.197C44.31 139.8 42.99 140.283 41.85 140.644L39.87 141.187L39.69 141.097L39.6 141.278C39.6 141.579 37.92 141.941 34.56 142.363L30.6 142.725L30.59 142.785ZM12.41 86.1537C12.53 86.1537 12.8 85.3696 13.22 83.8015C13.88 81.2684 15.23 77.0467 17.27 71.1363C17.93 69.0857 18.53 67.4573 19.07 66.2511L19.88 64.0799L19.97 63.899C19.97 63.7181 19.76 63.6276 19.34 63.6276C17.42 63.1451 16.43 61.577 16.37 58.9233C16.37 58.4408 16.46 58.1996 16.64 58.1996L17.09 58.29C18.11 58.29 20.27 57.3251 23.57 55.3952C27.65 46.3486 32.15 37.5734 37.07 29.0695C39.05 25.5715 40.28 23.521 40.76 22.9179L43.46 18.7564C40.94 20.0229 37.73 21.8926 33.83 24.3653C30.59 26.4762 27.77 28.4363 25.37 30.2456C19.31 34.7689 14.36 40.2572 10.52 46.7104C6.98 52.5002 4.88 58.5314 4.22 64.8037L4.13 66.7034V67.6986C4.13 68.9651 4.85 71.2569 6.29 74.574C7.43 77.4086 8.75 80.1226 10.25 82.7159C11.57 85.0077 12.29 86.1537 12.41 86.1537ZM8.81 43.9964C9.05 43.9964 9.29 43.725 9.53 43.1822C9.77 42.6394 9.89 42.3379 9.89 42.2776L9.71 42.4585C9.53 42.6395 9.36 42.8506 9.22 43.0918C9.07 43.333 8.96 43.5341 8.9 43.6748C8.84 43.8256 8.81 43.9361 8.81 43.9964ZM14.66 92.4862C14.72 92.4862 14.75 92.4561 14.75 92.3958L14.66 92.2148C14.6 92.1545 14.49 92.0541 14.34 91.9033C14.19 91.7525 14.08 91.6721 14.03 91.6721C14.03 91.7324 14.12 91.8832 14.3 92.1244C14.48 92.3656 14.6 92.4862 14.66 92.4862ZM16.19 91.0388C16.37 91.0388 16.5 90.4658 16.59 89.3199C16.68 88.174 16.8 87.5609 16.95 87.4704C17.1 87.3799 17.44 86.6964 17.98 85.4299L18.07 84.6157V84.3443C18.07 84.1031 18.13 83.9221 18.25 83.8015C18.73 82.8365 19.27 81.2986 19.87 79.1877C20.53 77.499 21.14 76.132 21.71 75.0766C22.28 74.0212 22.75 72.9858 23.11 71.9505C23.11 71.7696 23.17 71.5282 23.29 71.2267C23.59 70.4426 23.86 69.8396 24.1 69.4174C24.22 69.2365 24.28 69.1159 24.28 69.0556C24.28 68.9953 24.33 68.8646 24.42 68.6535C24.51 68.4424 24.61 68.1911 24.73 67.8795C25.15 67.1558 25.63 65.7385 26.17 63.6276C26.35 63.326 26.45 63.1351 26.48 63.0446C26.51 62.9542 26.53 62.8837 26.53 62.8133C26.53 62.743 26.29 62.7229 25.81 62.7229C25.69 62.7229 25.63 62.7833 25.63 62.9039V63.1753C25.63 63.7181 25.27 64.291 24.55 64.8941C24.31 65.1354 24.04 65.7083 23.74 66.6129C23.68 66.9748 23.57 67.377 23.43 67.8293C23.28 68.2816 23.14 68.7037 23.02 69.0957C22.9 69.4877 22.84 69.719 22.84 69.7793H22.93C22.99 69.7793 23.12 69.6888 23.33 69.5079C23.54 69.3269 23.67 69.2365 23.74 69.2365V69.327C23.2 70.3523 22.76 70.9051 22.44 71.0056C22.11 71.096 21.95 71.2267 21.95 71.4077V71.4981C21.95 71.7393 21.81 71.9405 21.54 72.0812C21.27 72.232 21.13 72.433 21.13 72.6641L21.22 73.1164C21.22 73.418 21.13 73.599 20.95 73.6593C20.77 74.0211 20.48 74.8554 20.09 76.1521C19.7 77.4488 19.38 78.0921 19.15 78.0921C18.92 78.0921 18.79 77.9715 18.79 77.7303C18.79 77.2478 19.15 76.132 19.87 74.383C19.99 73.9005 20.05 73.5085 20.05 73.207V73.026C20.05 72.9054 20.08 72.8451 20.14 72.8451C20.44 72.6642 20.99 71.5283 21.81 69.4476C22.62 67.3669 23.13 66.221 23.34 66.0099C23.55 65.7988 23.79 65.1856 24.06 64.1503C24.33 63.125 24.55 62.552 24.73 62.4314C24.91 62.3107 25 62.2204 25 62.1601C25 62.0998 24.94 62.0695 24.82 62.0695C24.64 62.0695 24.23 62.1901 23.6 62.4314C22.97 62.6726 22.55 62.8837 22.34 63.0646C22.13 63.2456 21.94 63.5471 21.76 63.9693C21.58 64.3915 21.46 64.7232 21.4 64.9644C21.34 65.2057 21.31 65.3565 21.31 65.4168H21.4C21.46 65.4168 21.49 65.3766 21.49 65.2761C21.49 65.1756 21.54 65.0851 21.63 64.9644C21.72 64.8438 21.82 64.7232 21.95 64.6026L22.13 64.3312V64.5122C22.13 64.5725 22.04 64.874 21.86 65.4168C21.68 65.9596 21.5 66.3818 21.32 66.6834C21.14 66.9849 21.02 67.1658 20.96 67.2261C20.9 67.2261 20.87 67.1659 20.87 67.0452L21.14 65.9596C21.02 65.9596 20.7 66.6733 20.2 68.0806C19.69 69.4979 19.35 70.3623 19.16 70.6538V70.8348H19.25C19.49 70.5935 19.73 70.1411 19.97 69.4777C20.21 68.8143 20.36 68.4826 20.42 68.4826C20.48 68.4826 20.51 68.5429 20.51 68.6636C20.51 68.9651 20.03 70.3523 19.07 72.825C18.89 73.0059 18.74 73.0964 18.62 73.0964H18.53C18.47 73.0964 18.35 73.3075 18.17 73.7297C17.99 74.1519 17.81 74.6745 17.63 75.3078C17.45 75.941 17.34 76.4336 17.32 76.8055C17.29 77.1673 17.24 77.4388 17.18 77.6197L17.09 77.8006H16.91C16.85 77.8006 16.79 77.861 16.73 77.9816C16.67 78.1022 16.59 78.3133 16.51 78.6149C16.42 78.9164 16.3 79.3083 16.15 79.7908C16 80.2733 15.82 80.9066 15.61 81.6906C15.4 82.4747 15.22 83.1984 15.07 83.8619C14.92 84.5253 14.85 84.9776 14.85 85.2188L14.94 85.4902C14.94 85.7315 14.88 85.8722 14.76 85.9024C14.64 85.9325 14.55 86.033 14.49 86.2139C14.25 86.7567 14.13 87.2694 14.13 87.7519C14.13 88.0534 14.28 88.4153 14.58 88.8374C14.88 89.2596 15.06 89.4707 15.12 89.4707C15.18 89.4707 15.22 89.4406 15.26 89.3803C15.29 89.32 15.31 89.2596 15.31 89.1993C15.31 89.0184 15.2 88.928 14.99 88.928C14.78 88.928 14.68 88.6867 14.68 88.2042C14.68 88.0835 14.71 87.9932 14.77 87.9329C14.83 87.8726 14.91 87.7921 14.99 87.7016C15.08 87.6111 15.15 87.5107 15.22 87.39L15.31 87.2996C15.37 87.2996 15.4 87.4805 15.4 87.8423V88.2042C15.4 88.4454 15.43 88.566 15.49 88.566C15.55 88.566 15.68 88.1339 15.9 87.2493C16.11 86.3748 16.36 85.4601 16.67 84.4851C16.97 83.5201 17.22 82.6656 17.44 81.9117C17.65 81.1579 17.8 80.7056 17.89 80.5548C17.98 80.404 18.12 80.0622 18.3 79.5194C18.3 79.1575 18.36 78.9365 18.48 78.836C18.6 78.7455 18.69 78.6952 18.75 78.6952C18.87 78.6952 18.93 78.7857 18.93 78.9666V79.4189C18.93 79.7808 18.63 80.7156 18.03 82.2234C17.85 82.5853 17.76 82.8466 17.76 82.9974C17.76 83.1482 17.64 83.4397 17.4 83.8518C17.16 84.274 16.89 85.2389 16.59 86.7467C16.47 87.7117 16.29 88.5862 16.05 89.3702C15.93 89.6115 15.87 89.8527 15.87 90.0939C15.87 90.2748 15.91 90.476 16.01 90.677C16.1 90.8881 16.17 90.9885 16.23 90.9885L16.19 91.0388ZM18.62 138.895C18.74 138.895 18.8 138.865 18.8 138.805C18.8 138.745 18.77 138.694 18.71 138.664C18.65 138.634 18.56 138.584 18.44 138.534L18.26 138.443C18.2 138.443 18.17 138.473 18.17 138.534L18.26 138.714C18.38 138.835 18.5 138.895 18.62 138.895ZM18.71 72.5838C18.89 72.5838 18.98 72.3123 18.98 71.7695C18.98 71.6489 18.95 71.5887 18.89 71.5887C18.83 71.5887 18.77 71.7093 18.71 71.9505C18.65 72.1917 18.62 72.3726 18.62 72.4932L18.71 72.5838ZM23.3 140.614L23.03 140.524C22.91 140.463 22.73 140.403 22.49 140.343C22.25 140.282 22.02 140.212 21.82 140.122C21.61 140.031 21.41 139.991 21.23 139.991C21.11 139.991 21.02 140.021 20.96 140.081C20.96 140.202 21.15 140.323 21.54 140.443C21.93 140.564 22.48 140.624 23.21 140.624H23.3V140.614ZM21.05 30.7884C21.11 30.7884 21.24 30.718 21.46 30.5572C21.67 30.4064 21.95 30.1652 22.31 29.8335C22.67 29.5018 23.13 29.1098 23.71 28.6574C24.28 28.2051 24.82 27.7729 25.33 27.3407C25.84 26.9185 26.36 26.5264 26.9 26.1646L25.37 27.0692C22.49 29.1801 21.05 30.4165 21.05 30.7784V30.7884ZM22.4 105.966L22.58 105.785C22.64 105.724 22.73 105.654 22.85 105.564C22.97 105.473 23.04 105.393 23.08 105.332C23.11 105.272 23.12 105.212 23.12 105.151H23.03L22.67 105.513C22.49 105.694 22.4 105.815 22.4 105.875V105.966ZM23.48 104.699C23.54 104.699 23.63 104.659 23.75 104.569C23.87 104.478 23.99 104.378 24.11 104.257C24.23 104.136 24.32 104.016 24.38 103.895L24.47 103.805V103.714C24.41 103.714 24.23 103.865 23.93 104.166C23.63 104.468 23.48 104.649 23.48 104.709V104.699ZM25.46 141.338C25.46 141.278 25.34 141.157 25.1 140.976C24.86 140.795 24.66 140.685 24.52 140.665C24.37 140.634 24.26 140.624 24.21 140.624C24.09 140.624 24.03 140.654 24.03 140.715C24.03 141.137 24.48 141.348 25.38 141.348H25.47L25.46 141.338ZM24.83 103.252C24.95 103.252 25.11 103.151 25.32 102.93C25.53 102.709 25.63 102.588 25.63 102.528H25.54C25.36 102.528 25.21 102.649 25.09 102.89L24.82 103.252H24.83ZM26.27 62.1801C26.57 62.1801 26.78 62.1198 26.9 61.9992C26.9 61.8183 26.81 61.7278 26.63 61.7278C26.51 61.7278 26.34 61.768 26.14 61.8685C25.93 61.959 25.83 62.0394 25.83 62.0997C25.83 62.16 25.98 62.1901 26.28 62.1901L26.27 62.1801ZM25.91 102.166C26.03 102.166 26.85 101.483 28.38 100.126C29.91 98.7686 30.84 98.065 31.17 98.0047C31.5 97.9444 32.19 97.4117 33.24 96.4165C34.29 95.4214 34.82 94.8384 34.82 94.6575C34.52 94.6575 32.99 95.8335 30.23 98.1857C27.47 100.538 26.03 101.865 25.91 102.166ZM26.72 53.4954C26.84 53.4954 26.99 53.4351 27.17 53.3145C27.59 53.1335 27.8 52.9827 27.8 52.8621C27.8 52.8018 27.71 52.7415 27.53 52.6812C27.35 52.6209 27.26 52.5606 27.26 52.5003C27.26 52.4399 27.31 52.3796 27.4 52.3193C27.49 52.259 27.74 52.2288 28.17 52.2288C29.13 52.2288 29.88 51.4147 30.42 49.7863C30.48 49.4244 30.87 48.761 31.59 47.796C31.71 47.5548 31.8 47.2834 31.86 46.9818C32.22 45.5947 32.58 44.9011 32.94 44.9011C33.06 44.9011 33.18 44.8609 33.3 44.7604C33.42 44.6699 33.49 44.5493 33.52 44.3985C33.55 44.2477 33.57 44.1472 33.57 44.0869C33.57 44.0266 33.51 43.9964 33.39 43.9964C33.27 43.9964 33.21 43.9663 33.21 43.906C33.21 43.5441 33.48 42.941 34.02 42.0967C35.46 39.5033 36.27 38.2066 36.45 38.2066H36.54C36.72 38.2066 36.88 38.086 37.03 37.8447C37.18 37.6035 37.25 37.2417 37.25 36.7592C37.43 36.0355 37.64 35.5831 37.88 35.4022C38.18 34.98 38.33 34.6785 38.33 34.4975L38.6 33.8643C38.72 33.5627 38.93 33.2008 39.23 32.7787C39.89 31.874 40.22 31.3613 40.22 31.2407C40.22 31.1201 40.38 30.899 40.72 30.5672C41.05 30.2355 41.21 29.9842 41.21 29.8033V29.6224C41.21 29.3811 41.36 29.1097 41.66 28.8082L42.56 27.3607H42.65C42.71 27.3607 42.74 27.4813 42.74 27.7226L42.65 28.2654C42.65 28.386 42.68 28.4463 42.74 28.4463C42.8 28.4463 42.92 28.3558 43.1 28.1749L43.46 27.9036C43.52 27.9036 43.55 27.9337 43.55 27.994L43.46 28.4463C43.46 28.8685 43.37 29.0796 43.19 29.0796C43.01 29.0796 42.89 29.2807 42.83 29.6626C42.77 30.0546 42.57 30.4366 42.24 30.7884C41.91 31.1503 41.67 31.5121 41.52 31.874C41.37 32.2358 41.07 32.6178 40.62 32.9998C40.17 33.3918 39.95 33.8542 39.95 34.407C39.95 34.588 40.01 34.7086 40.13 34.7689C40.37 34.7689 40.97 33.9246 41.93 32.2359C42.71 30.8487 43.52 29.4917 44.36 28.1649L45.17 26.7174C45.17 26.5968 45.05 26.5365 44.81 26.5365C44.57 26.5365 44.33 26.5667 44.09 26.627C43.85 26.6873 43.68 26.7677 43.59 26.8581C43.5 26.9486 43.44 26.9989 43.41 26.9989H43.19C43.19 26.9386 43.26 26.7577 43.41 26.4561C43.56 26.1545 43.78 25.8228 44.09 25.4609C44.57 24.7372 44.81 24.2547 44.81 24.0135L44.72 23.8325C44.54 23.8325 44.43 23.8728 44.41 23.9733C44.38 24.0637 44.3 24.1743 44.19 24.2849C44.07 24.4055 43.93 24.5563 43.78 24.7372C43.63 24.9182 43.49 25.0086 43.37 25.0086L43.28 24.8277C43.28 24.5865 43.42 24.2447 43.69 23.7823C43.96 23.3199 44.1 22.9882 44.1 22.7369H43.92C43.68 22.7369 43.56 22.8776 43.56 23.149C43.56 23.4204 43.47 23.6517 43.29 23.8225C43.11 24.0035 43.02 24.1844 43.02 24.3653C43.02 24.5462 42.78 24.8779 42.3 25.3604C41.82 25.8429 41.58 26.2048 41.58 26.446C41.58 26.6873 41.49 26.9587 41.31 27.2602C40.83 28.1046 40.5 28.5469 40.32 28.577C40.14 28.6072 40.02 28.6574 39.96 28.7178V28.9891C39.96 29.17 39.87 29.4616 39.69 29.8536C39.51 30.2456 39.3 30.5974 39.06 30.899C38.82 31.2005 38.64 31.3513 38.52 31.3513C38.34 31.5322 38.13 31.9745 37.89 32.6681C37.65 33.3617 37.29 34.1055 36.81 34.8895L34.92 38.0558C34.14 39.3224 33.69 39.9556 33.57 39.9556V39.8652C33.57 39.8048 33.69 39.5334 33.93 39.051C34.17 38.5685 34.29 38.2368 34.29 38.0558C34.23 38.0558 34.14 38.1161 34.02 38.2368C33.72 38.7193 33.51 39.1716 33.39 39.5937V40.1366C33.39 40.6191 33.15 41.3327 32.67 42.2675C32.19 43.2024 31.83 43.6648 31.59 43.6648H31.5C31.38 43.6648 31.32 43.8959 31.32 44.3483C31.32 44.8006 31.27 45.1021 31.18 45.2529C31.09 45.4037 30.96 45.6349 30.77 45.9264C29.93 47.6151 29.39 48.4594 29.15 48.4594C29.15 48.3991 29.12 48.369 29.06 48.369C29 48.369 28.94 48.3891 28.88 48.4192C28.82 48.4494 28.74 48.5499 28.66 48.7308C28.57 48.9118 28.52 49.0324 28.52 49.0927C28.52 49.153 28.55 49.1832 28.61 49.1832L28.88 49.0927C28.94 49.0927 28.97 49.1229 28.97 49.1832L28.88 49.545C28.28 50.9925 27.8 51.7163 27.44 51.7163C27.32 51.7163 27.18 51.8268 27.03 52.0279C26.88 52.2389 26.74 52.4802 26.62 52.7516C26.5 53.023 26.44 53.2843 26.44 53.5256H26.71L26.72 53.4954ZM28.25 99.0903L28.61 98.8189C28.85 98.638 29.16 98.3665 29.56 98.0047C29.95 97.6428 30.17 97.4317 30.23 97.3714C29.99 97.3714 29.54 97.6429 28.88 98.1857C28.4 98.6078 28.16 98.8792 28.16 98.9998C28.16 99.0601 28.19 99.0903 28.25 99.0903ZM31.31 141.519C32.33 141.519 32.84 141.338 32.84 140.976C32.78 140.795 32.63 140.705 32.39 140.705L30.86 140.976C30.74 141.036 30.64 141.067 30.55 141.067C30.46 141.067 30.35 141.097 30.23 141.157C30.11 141.217 29.99 141.258 29.87 141.288C29.75 141.318 29.6 141.348 29.42 141.378C29.24 141.408 29.03 141.449 28.79 141.509H31.31V141.519ZM29.87 24.3653C29.99 24.3653 30.11 24.305 30.23 24.1844C30.35 24.0638 30.41 23.9733 30.41 23.913L30.23 23.8225C29.99 23.8225 29.85 23.8828 29.83 24.0035C29.8 24.1241 29.78 24.2145 29.78 24.2748C29.78 24.3351 29.81 24.3653 29.87 24.3653ZM32.39 49.153C32.87 49.153 33.41 48.4594 34.01 47.0723L35.45 43.8155C35.69 43.3933 35.88 43.1119 36.03 42.9611C36.18 42.8103 36.34 42.549 36.52 42.1972C36.88 41.4734 37.06 41.0513 37.06 40.9306C37.06 40.8703 37.01 40.8301 36.92 40.7899C36.83 40.7597 36.78 40.7196 36.78 40.6593V40.5688C36.78 40.3879 36.92 40.2472 37.19 40.1567C37.46 40.0662 38.04 39.2118 38.95 37.5834C39.61 36.4375 39.94 35.5932 39.94 35.0504C39.94 34.9297 39.91 34.8694 39.85 34.8694C39.73 34.8694 39.58 35.0504 39.4 35.4122C39.22 35.7741 39.05 35.9952 38.91 36.0857C38.76 36.1761 38.65 36.2163 38.59 36.2163C38.47 36.2163 38.38 36.156 38.32 36.0354C38.26 35.9148 38.2 35.8545 38.14 35.8545L37.96 35.945C37.96 36.1259 38.02 36.2465 38.14 36.3068C38.26 36.3672 38.32 36.4275 38.32 36.4878C38.32 36.6084 38.23 36.729 38.05 36.8496C37.99 37.0305 37.9 37.2115 37.78 37.3925C37.66 37.5734 37.56 37.7443 37.46 37.895C37.37 38.0458 37.26 38.1865 37.15 38.3071C37.03 38.4278 36.86 38.5182 36.66 38.5786C36.45 38.6389 36.33 38.9706 36.3 39.5737C36.27 40.1768 36.1 40.5387 35.81 40.6593C35.75 40.6593 35.67 40.6994 35.59 40.7899C35.5 40.8804 35.45 41.001 35.45 41.1518C35.45 41.3026 35.42 41.3729 35.36 41.3729L35.18 41.2825C35 41.2825 34.82 41.4131 34.64 41.6946C34.46 41.966 34.37 42.167 34.37 42.2776L35.09 42.0062V42.0967C35.09 42.2776 34.97 42.6093 34.73 43.0918L34.28 43.906C33.98 44.5091 33.83 44.9413 33.83 45.2127C33.83 45.4841 33.62 45.7153 33.2 45.8862C32.78 46.0671 32.57 46.5195 32.57 47.2432L32.66 48.1478L32.75 48.3287C32.75 48.4494 32.64 48.5097 32.44 48.5097C32.24 48.5097 32.09 48.5499 32.03 48.6403C31.97 48.7308 31.94 48.8113 31.94 48.8716C31.94 48.9922 32.09 49.0826 32.39 49.1429V49.153ZM32.12 42.1871C32.18 42.1871 32.24 42.1268 32.3 42.0062C32.36 41.8856 32.42 41.765 32.48 41.6443C32.54 41.5237 32.57 41.4332 32.57 41.3729V41.2825C32.51 41.2825 32.43 41.3428 32.34 41.4634C32.25 41.584 32.17 41.7046 32.12 41.8253C32.06 41.9459 32.03 42.0364 32.03 42.0967C32.03 42.157 32.06 42.1871 32.12 42.1871ZM32.3 49.8768C32.48 49.7561 32.57 49.6656 32.57 49.6053C32.57 49.545 32.48 49.4847 32.3 49.4244C32.18 49.4847 32.09 49.5752 32.03 49.6958C32.03 49.8165 32.06 49.8768 32.12 49.8768H32.3ZM33.47 141.157C33.59 141.157 33.83 141.127 34.19 141.067C34.55 141.006 34.94 140.946 35.36 140.886C35.78 140.825 36.17 140.735 36.53 140.614L38.06 140.252C37.64 140.252 37.22 140.262 36.8 140.293C36.38 140.323 36.02 140.363 35.72 140.433C35.42 140.494 35.24 140.554 35.18 140.614C35.12 140.675 35.06 140.705 35 140.705C34.88 140.705 34.8 140.644 34.78 140.524C34.75 140.403 34.7 140.343 34.64 140.343C34.58 140.343 34.43 140.443 34.19 140.665C33.95 140.876 33.74 141.006 33.56 141.067H33.38C33.38 141.127 33.41 141.157 33.47 141.157ZM33.74 43.6346C33.8 43.6346 33.9 43.5441 34.06 43.3632C34.21 43.1822 34.28 43.0013 34.28 42.8204C34.28 42.7601 34.25 42.7299 34.19 42.7299C34.07 42.7299 33.97 42.8103 33.87 42.9511C33.78 43.1018 33.73 43.3029 33.73 43.5341V43.6245L33.74 43.6346ZM35.63 94.2052C35.75 94.2052 35.88 94.1749 36.04 94.1146C36.19 94.0543 36.32 93.9638 36.45 93.8432C36.57 93.7226 36.63 93.6322 36.63 93.5719V93.4814C36.63 93.3607 36.77 93.1799 37.04 92.9387C37.31 92.6974 37.53 92.5768 37.72 92.5768H37.81L37.54 93.0291H37.63L37.81 92.9387C37.99 92.818 38.11 92.6974 38.17 92.5768L38.26 92.3958V92.3054C38.26 91.8832 38.65 91.6117 39.43 91.4911C39.73 91.4911 40.24 91.2499 40.96 90.7674C41.38 90.4659 41.59 90.1944 41.59 89.9532C41.59 89.8929 41.56 89.8627 41.5 89.8627L41.32 89.9532V90.1342H41.05C40.51 90.1342 38.95 91.1595 36.37 93.2101C35.77 93.6926 35.44 93.994 35.38 94.1146C35.38 94.1749 35.47 94.2052 35.65 94.2052H35.63ZM36.08 46.9818C36.2 46.9818 36.6 46.7707 37.29 46.3486C37.98 45.9264 38.8 45.2931 39.76 44.4488C42.46 42.2776 43.81 41.0714 43.81 40.8301V40.6492C43.81 40.5889 43.87 40.4682 43.99 40.2873C44.11 40.1064 44.29 40.016 44.53 40.016C44.59 40.016 44.62 40.0461 44.62 40.1064L44.44 40.4683H44.53C44.59 40.4683 44.72 40.3878 44.94 40.2371C45.15 40.0863 45.28 39.835 45.34 39.4731C45.4 39.1113 46.03 38.478 47.23 37.5734C49.63 35.7641 50.98 34.7086 51.28 34.407C53.08 32.9596 54.16 32.1454 54.52 31.9645C55.12 31.482 55.42 31.1804 55.42 31.0598V30.9693C55.42 30.909 55.52 30.7582 55.73 30.517C55.94 30.2758 56.19 30.1552 56.5 30.1552H56.59C56.77 30.1552 57.07 29.9943 57.49 29.6526C57.91 29.3209 58.12 29.0997 58.12 28.969C58.12 28.8384 58.18 28.7579 58.3 28.6976C58.78 28.4564 59.09 28.2453 59.24 28.0644C59.39 27.8834 59.56 27.7025 59.73 27.5216C59.97 27.0391 60.75 26.1344 62.07 24.8076C65.85 21.1889 67.77 18.3242 67.83 16.2133C67.83 15.6705 67.98 15.188 68.28 14.7659L68.37 14.404C68.37 14.223 68.17 13.9516 67.79 13.5898C67.4 13.2279 66.72 12.8962 65.76 12.5946C65.04 12.4137 64.29 12.3233 63.51 12.3233C62.43 12.3233 61.35 12.4137 60.27 12.5946C57.81 13.1374 56.37 13.6199 55.95 14.0421C55.83 14.223 55.71 14.3939 55.59 14.5447C55.47 14.6955 55.41 14.806 55.41 14.8563C55.41 14.9066 55.24 15.188 54.92 15.6705C54.59 16.153 54.18 16.7561 53.7 17.4798C52.56 19.0479 51.99 19.9224 51.99 20.1034C51.99 20.2843 51.96 20.3747 51.9 20.3747L51.72 20.2843C51.36 20.2843 50.79 20.9779 50.01 22.365C49.89 22.5459 49.77 22.6364 49.65 22.6364C49.53 22.6364 49.47 22.7168 49.47 22.8676C49.47 23.0184 48.69 24.3955 47.13 26.9888C43.29 33.0199 40.41 37.9051 38.49 41.6443C37.35 43.7552 36.72 44.871 36.6 44.9916C36.24 45.4741 36.06 46.047 36.06 46.7104V46.9818H36.08ZM38.78 139.981C39.02 139.981 39.32 139.961 39.68 139.931C40.04 139.901 40.22 139.79 40.22 139.619C40.22 139.498 40.07 139.438 39.77 139.438C38.99 139.438 38.6 139.529 38.6 139.71V139.891C38.6 139.951 38.66 139.981 38.78 139.981ZM42.83 138.986C43.13 138.926 43.62 138.745 44.31 138.443C45 138.142 45.4 137.991 45.52 137.991H45.79C45.97 137.991 46.18 137.87 46.42 137.629L46.51 137.177C46.45 137.177 46.34 137.247 46.2 137.398C46.05 137.548 45.64 137.629 44.98 137.629C44.8 137.689 44.69 137.719 44.67 137.719C44.64 137.719 44.5 137.81 44.26 137.991L43.27 138.081C42.31 138.383 41.83 138.624 41.83 138.805C41.83 138.926 42.16 138.986 42.82 138.986H42.83ZM43.46 88.5962C43.58 88.5962 43.74 88.536 43.95 88.4153C44.16 88.2947 44.38 88.1339 44.62 87.9128C44.86 87.7017 44.98 87.571 44.98 87.5107L44.89 87.4202C44.77 87.4202 44.48 87.5911 44.04 87.9128C43.59 88.2445 43.36 88.4455 43.36 88.4957C43.36 88.546 43.39 88.5861 43.45 88.5861L43.46 88.5962ZM44.54 86.787C44.6 86.7266 44.75 86.6461 44.99 86.5557C45.23 86.4652 45.38 86.3647 45.44 86.2441H45.26C45.14 86.2441 44.97 86.3045 44.77 86.4251C44.56 86.5457 44.42 86.6663 44.36 86.787H44.54ZM45.26 87.2392C45.5 87.1789 45.78 87.1387 46.11 87.1086C46.44 87.0784 46.77 86.8974 47.1 86.5657C47.43 86.234 47.69 86.0631 47.87 86.0631C48.05 86.0631 48.24 85.9627 48.46 85.7516C48.67 85.5405 49.1 85.3395 49.76 85.1686C50.6 84.7465 51.12 84.3744 51.34 84.0427C51.55 83.711 51.71 83.5401 51.83 83.5401C51.89 83.5401 51.92 83.5704 51.92 83.6307L51.83 83.9021H51.92C52.28 83.9021 53.21 83.3593 54.71 82.2737C56.45 80.9469 57.66 80.2231 58.35 80.1025C59.04 79.9819 59.61 79.7306 60.06 79.3285C60.51 78.9365 60.83 78.7455 61 78.7455L60.82 79.1978C60.82 79.2581 60.88 79.2882 61 79.2882C61.18 79.2882 61.27 79.1375 61.27 78.836C61.27 78.7757 61.37 78.6751 61.58 78.5243C61.79 78.3735 62.01 78.2731 62.26 78.2027C62.98 77.9011 63.38 77.7102 63.47 77.6197C63.56 77.5293 63.81 77.3684 64.24 77.1272C64.66 76.886 64.87 76.6749 64.87 76.4939V76.4034C64.87 76.2828 64.93 76.2225 65.05 76.2225C65.23 76.2225 65.33 76.2828 65.36 76.4034C65.39 76.524 65.43 76.5844 65.5 76.5844C65.74 76.5844 66.19 76.4235 66.85 76.0818C67.51 75.7501 68.02 75.5892 68.38 75.5892L68.83 75.6797L68.92 75.5892L68.83 75.3178C68.83 75.1369 68.9 75.0363 69.05 75.0062C69.2 74.976 69.3 74.9158 69.36 74.8253C69.42 74.7348 69.46 74.6142 69.5 74.4635C69.53 74.3127 70.23 73.9608 71.61 73.418L73.59 72.5133H73.5C72.9 72.5133 70.44 73.4783 66.12 75.4083C61.44 77.4588 59.04 78.6349 58.92 78.9365V79.0269C58.92 79.0872 58.84 79.1777 58.7 79.2983C58.55 79.4189 58.38 79.5094 58.2 79.5697C58.02 79.63 57.9 79.6601 57.84 79.6601H57.39L56.85 79.7507C55.95 80.1126 55.5 80.404 55.5 80.6051C55.5 80.8061 55.38 80.9166 55.14 80.9166C54.9 80.9166 54.51 81.1277 53.97 81.5499C52.95 82.3942 50.7 83.8115 47.22 85.8018L45.24 87.2493L45.26 87.2392ZM46.79 85.6109L47.06 85.3394L46.79 85.249C46.61 85.249 46.52 85.3395 46.52 85.5204C46.52 85.5807 46.55 85.6109 46.61 85.6109H46.79ZM48.77 136.724C49.07 136.724 49.22 136.664 49.22 136.543C49.4 136.483 49.52 136.423 49.58 136.362C49.64 136.302 49.7 136.181 49.76 136C49.82 135.82 49.91 135.689 50.03 135.598C50.15 135.508 50.3 135.468 50.48 135.468C50.72 135.468 50.87 135.498 50.93 135.558C51.17 135.558 51.38 135.528 51.56 135.468C52.1 135.287 52.43 135.015 52.55 134.654C52.55 134.473 52.52 134.352 52.46 134.292C52.22 134.292 51.68 134.533 50.84 135.015C49.16 135.739 48.32 136.252 48.32 136.553V136.644C48.38 136.704 48.44 136.734 48.5 136.734H48.77V136.724ZM48.5 84.3443L48.77 84.2539C49.01 84.1333 49.34 83.9523 49.76 83.7111C50.18 83.4698 50.53 83.2587 50.8 83.0778C51.07 82.8969 51.21 82.7762 51.21 82.7159C51.09 82.7159 50.64 82.9472 49.86 83.3995C49.08 83.8518 48.63 84.1734 48.51 84.3443H48.5ZM50.03 55.757C50.15 55.6967 50.31 55.5761 50.52 55.3952C50.73 55.2142 51.18 55.1238 51.87 55.1238C52.56 55.1238 52.92 55.0836 52.95 54.9831C52.98 54.8926 53.05 54.8222 53.17 54.7619H54.43C55.09 54.581 56.77 54.3398 59.47 54.0382C63.91 53.4954 67.42 53.1335 70 52.9526C70.84 52.9526 71.26 52.8621 71.26 52.6812C71.26 52.5003 71.2 52.4098 71.08 52.4098C70.96 52.4098 70.9 52.3796 70.9 52.3193V52.1786C70.9 52.1786 70.93 52.1384 70.99 52.1384L71.44 52.5003C71.74 52.6812 72.49 52.7717 73.69 52.7717C76.09 52.7717 77.29 52.6209 77.29 52.3193C77.29 52.259 77.32 52.1786 77.38 52.0882C77.44 51.9977 77.52 51.9072 77.6 51.8167C77.69 51.7263 77.88 51.6459 78.19 51.5856L81.88 51.9474C82.54 51.9474 82.93 51.8871 83.05 51.7665V51.676C83.05 51.4951 82.81 51.3946 82.33 51.3644C81.85 51.3342 81.22 51.294 80.44 51.2337C78.1 51.0528 76.15 50.9624 74.59 50.9624C73.03 50.9624 72.28 51.083 72.16 51.3242C72.16 51.6258 73.09 51.9575 74.95 52.3193C73.21 52.3193 72.25 52.3495 72.07 52.4098H71.62C71.62 51.7463 71.59 51.3845 71.53 51.3242C71.47 51.2639 71.2 51.2036 70.72 51.1433L70.36 51.0528C70.24 51.0528 70.09 51.0729 69.91 51.103C69.73 51.1332 69.59 51.1835 69.5 51.2438C69.41 51.3041 69.24 51.3343 69.01 51.3343L67.57 51.1533C67.39 51.2136 67.3 51.3644 67.3 51.6056C67.3 51.7866 67.31 51.9273 67.34 52.0178C67.37 52.1083 67.48 52.1485 67.66 52.1485H68.65C69.55 52.1485 70 52.2088 70 52.3294C70 52.45 69.34 52.5103 68.02 52.5103C67.78 52.5706 67.6 52.641 67.48 52.7314C67.36 52.8219 67.15 52.8722 66.85 52.8722C65.95 52.8722 65.32 52.9024 64.96 52.9627C64.6 53.023 64.27 53.0531 63.97 53.0531C63.67 53.0531 63.46 53.023 63.34 52.9627C63.16 52.9627 63.07 53.0029 63.07 53.0933C63.07 53.1838 63.05 53.224 63.02 53.224H62.8C62.68 53.1637 62.47 53.1335 62.17 53.1335C61.33 53.1335 59.65 53.3446 57.13 53.7668L53.62 54.3096C50.8 54.7317 49.36 55.1238 49.3 55.4857C49.3 55.6063 49.36 55.6967 49.48 55.757H50.02H50.03ZM52.64 36.4878C53.06 36.2465 54.41 35.1207 56.69 33.0903C58.97 31.0698 60.11 29.9742 60.11 29.7932L59.84 29.9742C59.66 30.0345 59.48 30.1551 59.3 30.3361C58.82 30.6979 58.46 30.8789 58.22 30.8789C57.8 31.0598 56.7 31.9042 54.94 33.4119C53.17 34.9197 52.28 35.8244 52.28 36.1259C52.34 36.1862 52.4 36.2566 52.46 36.347C52.52 36.4375 52.58 36.4878 52.64 36.4878ZM52.91 134.824C53.03 134.824 53.15 134.764 53.27 134.644C53.27 134.342 53.25 134.161 53.22 134.101C53.19 134.04 53.09 133.92 52.91 133.739C52.91 133.92 52.85 134.131 52.73 134.372C52.73 134.674 52.79 134.824 52.91 134.824ZM53.9 134.191C54.02 134.191 54.09 134.05 54.12 133.789C54.15 133.518 54.18 133.377 54.21 133.377H54.34V133.467C54.4 133.528 54.46 133.558 54.52 133.558C54.88 133.558 55.9 133.116 57.58 132.251C59.26 131.377 60.19 130.784 60.37 130.492C60.55 130.191 60.67 130.04 60.73 130.04H61C61.36 130.04 61.96 129.658 62.8 128.914C63.64 128.16 64.06 127.698 64.06 127.507C63.94 127.507 63.46 127.718 62.62 128.14C61.78 128.562 60.91 129.075 60.01 129.678C59.59 129.859 59.14 130.16 58.66 130.583H58.57C57.91 130.944 57.58 131.246 57.58 131.487L57.67 131.759L57.22 131.668C57.16 131.668 57.01 131.708 56.77 131.799C56.53 131.889 56.28 132.04 56 132.251C55.73 132.462 55.58 132.673 55.55 132.884C55.52 133.096 55.38 133.206 55.14 133.206L54.6 133.116C54.42 133.116 54.22 133.216 54.02 133.427C53.81 133.638 53.7 133.89 53.7 134.201H53.88L53.9 134.191ZM56.06 35.5831C56.12 35.5831 56.21 35.5429 56.33 35.4524C56.45 35.3619 56.63 35.2212 56.87 35.0403C57.11 34.8594 57.3 34.6985 57.46 34.5377C57.61 34.3869 57.68 34.2864 57.68 34.2261L57.5 34.3165C57.32 34.4372 57.11 34.608 56.87 34.8191C56.63 35.0302 56.45 35.2212 56.33 35.4022L56.06 35.5831ZM60.2 52.3193C60.32 52.3193 60.39 52.2892 60.42 52.2288C60.45 52.1685 60.46 52.1082 60.46 52.0479C60.46 51.9876 60.43 51.9575 60.37 51.9575C60.19 51.9575 59.96 51.9977 59.7 52.0882C59.43 52.1786 59.29 52.259 59.29 52.3193H60.19H60.2ZM64.7 52.5908C64.88 52.5908 65.13 52.5304 65.47 52.4098C65.8 52.2891 66.04 52.2188 66.19 52.1786C66.34 52.1484 66.44 52.1384 66.5 52.1384C66.62 52.1384 66.68 52.1685 66.68 52.2288H66.77C66.83 52.2288 66.87 52.1987 66.91 52.1384C66.94 52.0781 66.96 51.9273 66.96 51.6861C66.96 51.4448 66.81 51.3242 66.51 51.3242C66.33 51.3242 66.06 51.3543 65.7 51.4146C65.34 51.475 64.62 51.5956 63.54 51.7766C62.46 51.9575 61.92 52.0781 61.92 52.1384H62.1C63.24 52.1384 63.85 52.2188 63.94 52.3696C64.03 52.5204 64.12 52.5908 64.21 52.5908H64.7ZM65.51 127.135L66.23 126.592C66.23 126.471 66.2 126.411 66.14 126.411C66.02 126.411 65.88 126.481 65.73 126.632C65.58 126.783 65.51 126.914 65.51 127.044V127.135ZM66.32 126.23C67.16 126.23 68.39 125.416 70.01 123.788C70.19 123.546 70.43 123.305 70.73 123.064L71.09 122.702L71 122.521C70.76 122.521 70.37 122.732 69.83 123.154C69.53 123.396 69.17 123.637 68.75 123.878C67.01 125.024 66.14 125.778 66.14 126.14C66.14 126.2 66.2 126.23 66.32 126.23ZM70.55 74.393L70.82 74.3026C71 74.3026 71.24 74.2624 71.54 74.1618C71.84 74.0714 72.15 73.9709 72.48 73.8503C72.81 73.7297 73.14 73.619 73.47 73.5286C73.8 73.4381 74.08 73.3175 74.33 73.1667C74.57 73.016 74.69 72.9155 74.69 72.8552V72.7646C74.39 72.7646 73.65 73.0059 72.48 73.4883C71.31 73.9708 70.66 74.2724 70.55 74.393ZM71.72 122.159C71.84 122.159 72.35 121.827 73.25 121.164C75.23 119.656 77.51 117.726 80.09 115.374C82.91 112.901 84.32 111.484 84.32 111.122V111.032L83.87 111.303C83.57 111.545 83.21 111.846 82.79 112.208C77.39 117.093 74.09 119.988 72.89 120.893C72.05 121.556 71.63 121.948 71.63 122.069C71.63 122.129 71.66 122.159 71.72 122.159ZM74.15 72.4028C74.33 72.4028 74.78 72.2218 75.5 71.86V71.7695C75.38 71.7695 75.24 71.7996 75.09 71.86C74.94 71.9203 74.74 72.0107 74.51 72.1314C74.27 72.252 74.15 72.3425 74.15 72.4028ZM78.11 71.1363C78.23 71.1363 78.44 71.096 78.74 71.0056C79.04 70.9151 79.19 70.8347 79.19 70.7744L79.01 70.684C78.65 70.684 78.39 70.7442 78.24 70.8648C78.09 70.9855 78.02 71.0759 78.02 71.1363H78.11ZM80.63 52.9526C80.93 52.9526 81.08 52.8923 81.08 52.7717C81.08 52.5907 80.3 52.5003 78.74 52.5003H78.29C78.29 52.5606 78.38 52.6209 78.56 52.6812C79.22 52.8621 79.91 52.9526 80.63 52.9526ZM78.56 71.6791C78.74 71.6791 78.83 71.649 78.83 71.5887L78.74 71.4981H78.29V71.5887C78.29 71.649 78.38 71.6791 78.56 71.6791ZM85.22 52.3193C85.58 52.3193 85.76 52.2288 85.76 52.0479L85.58 51.9575C85.4 51.8972 85.14 51.8369 84.81 51.7766C84.48 51.7162 84.22 51.6861 84.04 51.6861C83.8 51.6861 83.68 51.7464 83.68 51.867C83.68 52.1685 84.19 52.3193 85.21 52.3193H85.22ZM84.77 110.67C84.89 110.67 85.76 109.856 87.38 108.227C87.98 107.443 88.28 107.021 88.28 106.961C88.1 106.961 87.56 107.413 86.66 108.318C85.4 109.705 84.77 110.489 84.77 110.67ZM88.01 53.7668L88.1 53.5859C88.1 53.5256 87.99 53.4653 87.79 53.4049C87.58 53.3446 86.87 53.2843 85.68 53.224L88.02 53.7668H88.01ZM96.38 56.1189L96.29 55.938C95.93 55.3348 94.13 54.4001 90.89 53.1335C88.91 52.4098 87.5 52.0479 86.66 52.0479C86.42 52.0479 86.3 52.0781 86.3 52.1384C86.3 52.5003 86.84 52.7114 87.92 52.7717C88.7 52.8923 89.85 53.224 91.38 53.7668C92.91 54.3096 94.15 54.8524 95.11 55.3952C95.83 55.8777 96.22 56.1189 96.28 56.1189H96.37H96.38ZM89.45 105.604C89.51 105.604 89.6 105.534 89.72 105.373C89.84 105.222 90 105.041 90.22 104.83C90.44 104.619 90.65 104.408 90.89 104.197C91.13 103.986 91.25 103.835 91.25 103.744V103.513C91.01 103.513 90.71 103.724 90.35 104.146C89.75 104.87 89.45 105.322 89.45 105.503V105.594V105.604ZM91.7 103.071C92.12 102.649 92.48 102.186 92.78 101.674C93.08 101.161 93.23 100.88 93.23 100.809C93.17 100.809 92.84 101.231 92.24 102.076L91.61 103.071H91.7Z" fill="black"/>
<path d="M121.76 114.922H120.41C119.51 114.922 118.55 114.681 117.53 114.198C113.75 112.329 111.26 109.826 110.06 106.69C109.52 105.182 109.13 104.247 108.89 103.885C108.17 102.136 107.81 99.9951 107.81 97.4621C107.81 93.3006 109.1 87.0282 111.68 78.645C113.54 72.7949 115.4 67.7891 117.26 63.6277L117.53 62.9944C117.65 62.0898 119.63 58.049 123.47 50.872C124.19 49.4848 125.9 46.4995 128.6 41.9159L129.5 40.197C129.98 39.1717 132.09 35.9451 135.84 30.5171C139.59 25.0891 144.04 19.3898 149.2 13.419C154.36 7.44824 159.31 3.16621 164.05 0.572849C164.59 0.331606 165.16 0.210938 165.76 0.210938C167.44 0.210938 168.7 0.814094 169.54 2.02031C170.08 2.86466 170.5 3.54814 170.8 4.05073C171.1 4.56337 171.25 5.15642 171.25 5.80979C171.25 6.77476 170.98 7.98101 170.44 9.42847C168.82 13.7708 164.77 21.8223 158.29 33.5829C155.77 38.1062 152.77 43.0819 149.29 48.5098L147.31 51.5857C145.63 53.9981 144.43 55.8074 143.71 57.0136C140.83 61.2957 137.42 65.9597 133.5 70.9956C129.57 76.0316 126.4 79.8111 124.01 82.3441C122.75 83.5503 121.41 84.5355 120 85.2793C118.59 86.0332 117.44 86.4051 116.54 86.4051L115.82 86.3145C115.46 86.4352 114.92 88.1239 114.2 91.3807C113.24 95.4818 112.76 98.6783 112.76 100.97C112.76 104.167 113.42 106.639 114.74 108.388C115.04 108.871 115.34 109.203 115.64 109.383C116.36 109.806 117.53 110.017 119.15 110.017C120.23 109.956 121.7 109.494 123.56 108.609C125.42 107.735 127.34 106.639 129.32 105.302C131.06 104.036 133.31 102.046 136.07 99.3317C138.83 96.6177 141.29 93.964 143.45 91.3706C145.91 88.4757 147.32 86.9679 147.68 86.8473C148.28 86.6664 149.12 85.8523 150.2 84.4048C150.56 83.862 151.34 82.9874 152.54 81.7812C153.44 80.8765 154.7 79.3788 156.32 77.2981C157.94 75.2174 159.35 73.2472 160.55 71.3675C161.75 69.4979 162.53 68.5632 162.89 68.5632C163.01 68.5632 163.07 68.6838 163.07 68.925C163.07 69.1663 162.92 69.5582 162.62 70.101C162.32 70.6438 162.17 70.9756 162.17 71.0962C162.17 71.1565 162.2 71.1867 162.26 71.1867L162.71 71.0057C162.89 71.0057 162.98 71.1867 162.98 71.5485C162.92 71.9104 162.77 72.423 162.53 73.0865C162.29 73.7499 161.97 74.4334 161.58 75.117C161.19 75.8105 160.78 76.3733 160.37 76.7955C159.95 77.2177 159.65 77.4288 159.47 77.4288C159.35 77.4288 159.29 77.3383 159.29 77.1574C159.29 76.8558 159.65 76.0718 160.37 74.8053L159.56 75.529C158.96 76.1321 158.12 77.3082 157.04 79.0572C156.2 80.384 154.76 82.3743 152.72 85.028C147.56 91.6019 143.99 95.8838 142.01 97.8741C140.93 98.8391 140.28 99.583 140.08 100.096C139.87 100.608 139.67 100.99 139.49 101.221L139.31 101.583V101.674L140.21 100.95C141.65 99.8041 142.64 98.9597 143.18 98.4169C146 95.3411 148.19 92.8081 149.75 90.8178C154.91 83.7615 157.73 80.2333 158.21 80.2333C158.21 80.4745 157.61 81.4395 156.41 83.1282C155.21 84.8169 154.28 86.2944 153.62 87.561C153.14 88.2847 152.24 89.491 150.92 91.1797C147.56 95.5824 145.1 98.628 143.54 100.317L139.31 104.478C136.61 107.072 134.27 109.062 132.29 110.449C129.53 112.319 127.76 113.374 126.98 113.615C126.74 113.676 126.45 113.786 126.13 113.937C125.8 114.088 125.48 114.228 125.19 114.339C124.53 114.64 123.39 114.821 121.77 114.882L121.76 114.922ZM110.06 94.2053L110.15 94.0243C110.63 92.3356 110.87 91.4007 110.87 91.2198L110.78 91.1294C110.72 91.1294 110.59 91.5214 110.37 92.3055C110.16 93.0895 110.06 93.7228 110.06 94.2053ZM110.96 90.5865C111.02 90.5262 111.13 90.1945 111.28 89.5914C111.43 88.9883 111.61 88.2647 111.82 87.4203C112.03 86.576 112.2 85.9427 112.31 85.5205V85.0681H112.22C112.04 85.6109 111.95 85.9226 111.95 86.0131C111.95 86.1035 111.89 86.3649 111.77 86.7871C111.65 87.2092 111.53 87.6615 111.41 88.144C111.05 89.2899 110.87 90.0739 110.87 90.4961V90.5865H110.96ZM113.39 78.1023C113.45 78.1023 113.53 78.0017 113.61 77.7906C113.7 77.5796 113.85 77.278 114.06 76.886C114.27 76.4939 114.45 76.102 114.6 75.71C114.75 75.318 114.87 74.9863 114.96 74.7149C115.05 74.4435 115.2 74.0413 115.41 73.4985C115.62 72.9557 115.82 72.4129 115.99 71.8701L118.15 66.6231L119.86 62.6426C120.52 61.0746 121.3 59.4461 122.2 57.7574C123.34 55.4656 124.03 54.0182 124.27 53.4151C124.39 53.1738 124.63 52.7215 124.99 52.0581C125.35 51.3947 125.76 50.671 126.2 49.8869C126.65 49.1029 127.01 48.4394 127.28 47.8966C127.55 47.3538 127.7 47.0221 127.73 46.9015C127.76 46.7809 127.98 46.4492 128.41 45.9064C128.71 45.6048 128.98 45.2128 129.22 44.7304C129.22 44.6097 129.31 44.4288 129.49 44.1875C129.91 43.5844 130.18 43.2829 130.3 43.2829C130.42 43.2829 130.52 43.2226 130.61 43.102C130.7 42.9813 130.8 42.8506 130.93 42.6999C131.05 42.5491 131.11 42.4486 131.11 42.3883C131.05 42.3883 130.94 42.4788 130.8 42.6597C130.65 42.8406 130.54 42.931 130.48 42.931C130.42 42.931 130.39 42.8406 130.39 42.6597C130.39 42.2375 130.45 41.9761 130.57 41.8857C130.69 41.7952 130.85 41.6042 131.07 41.3027C131.28 41.0011 131.5 40.6694 131.74 40.3075C132.16 39.3426 133.16 37.8248 134.76 35.744C136.35 33.6633 137.17 32.5174 137.23 32.3063C137.29 32.0952 137.53 31.7233 137.95 31.1805L138.4 30.1854C138.1 30.3663 136.72 32.2963 134.26 35.9752C130.48 41.5841 127.09 47.2533 124.09 52.9828C120.73 59.3155 117.94 65.4068 115.72 71.257C114.88 73.3679 114.07 75.6295 113.29 78.0419L113.38 78.1325L113.39 78.1023ZM115.1 76.2929C115.16 76.2929 115.88 74.5138 117.26 70.9555L118.79 66.7035C118.67 66.8241 118.43 67.3268 118.07 68.2013C117.71 69.0758 117.3 70.0909 116.85 71.2268C116.4 72.3727 116.01 73.4182 115.68 74.3429C115.35 75.2778 115.17 75.8206 115.14 75.9713C115.11 76.1221 115.09 76.2326 115.09 76.2829L115.1 76.2929ZM117.44 81.3591L118.52 80.4544C122.48 76.9564 127.82 70.5635 134.54 61.2756L139.85 54.0383C140.51 53.2543 141.35 52.048 142.37 50.4196C143.39 48.7912 144.35 47.4041 145.25 46.2582L146.87 44.1775C147.89 42.6094 149.63 39.7446 152.09 35.5832C155.81 29.4918 159.05 23.702 161.81 18.2137C162.95 15.741 163.82 13.9919 164.42 12.9667C164.66 12.4842 164.84 12.062 164.96 11.7001L165.14 11.1574L165.05 10.9764V10.7453C165.05 10.6548 165.11 10.5844 165.23 10.5241C166.01 9.55911 166.64 7.38794 167.12 4.01054L166.22 4.64381C165.62 5.00568 165.08 5.42786 164.6 5.91035C163.94 6.57376 163.13 7.32765 162.17 8.172C157.73 12.0922 153.23 17.1884 148.67 23.4607C145.19 28.2253 142.58 31.8741 140.84 34.4071C140.3 35.1912 139.97 35.6134 139.85 35.6737L137.87 38.4781C136.19 40.8905 134.42 43.6347 132.56 46.7105C128 54.6715 125.6 59.1949 125.36 60.2805C125.36 60.6424 125.1 61.4264 124.59 62.6326C124.08 63.8388 123.2 65.7386 121.94 68.332C121.64 69.116 121.13 70.4127 120.41 72.222C119.69 74.0314 119.03 75.8105 118.43 77.5595C117.59 79.791 117.17 81.0274 117.17 81.2686C117.17 81.329 117.26 81.3591 117.44 81.3591ZM119.06 66.2512L119.15 66.1608C119.21 66.1005 119.24 65.9195 119.24 65.6179V65.5275C119.18 65.5275 119.1 65.5677 119.02 65.6582C118.94 65.7486 118.88 65.8592 118.88 65.9798C118.94 66.1607 119 66.2512 119.06 66.2512ZM119.51 64.9847C119.51 64.9244 119.54 64.8841 119.6 64.854C119.66 64.8238 119.75 64.663 119.87 64.3514C119.99 64.0499 120.12 63.7383 120.28 63.3965C120.43 63.0648 120.53 62.8436 120.59 62.723V62.6326C120.47 62.6326 120.29 62.9039 120.05 63.4467C119.69 64.2911 119.51 64.7435 119.51 64.8038V64.9847ZM121.76 60.1899C121.82 60.1899 121.88 60.1196 121.94 59.9588C122 59.808 122.09 59.6472 122.21 59.4562L122.39 59.0039L122.21 59.1848C122.03 59.3657 121.92 59.4863 121.9 59.5466C121.87 59.6069 121.82 59.818 121.76 60.1799V60.1899ZM124.37 54.762C124.49 54.762 124.79 54.2192 125.27 53.1336C124.61 53.7971 124.28 54.2795 124.28 54.5811C124.28 54.7017 124.31 54.762 124.37 54.762ZM125.45 52.9527C125.51 52.9527 125.63 52.8019 125.81 52.5004C125.99 52.1988 126.18 51.8369 126.39 51.4148C126.6 50.9926 126.75 50.681 126.84 50.4599C126.93 50.2488 126.98 50.1181 126.98 50.0578H126.89C126.59 50.3593 126.27 50.8619 125.95 51.5454C125.62 52.239 125.46 52.7115 125.46 52.9527H125.45ZM127.43 49.6054L128.15 48.3389C129.05 46.8915 129.5 46.017 129.5 45.7154C129.32 45.7154 129.23 45.8059 129.23 45.9868C129.23 46.1678 128.96 46.5899 128.42 47.2534C127.76 48.2786 127.43 49.0325 127.43 49.515V49.6054ZM129.77 45.3536C129.83 45.3536 129.89 45.2631 129.95 45.0821C130.01 44.9012 130.04 44.7806 130.04 44.7203V44.6298C129.98 44.6298 129.9 44.67 129.82 44.7605C129.73 44.8509 129.68 44.9615 129.68 45.0821C129.68 45.2631 129.71 45.3536 129.77 45.3536ZM131.39 42.0063L131.84 41.373L132.11 40.8303C132.05 40.8303 131.9 40.9509 131.66 41.1921C131.42 41.4333 131.3 41.6444 131.3 41.8254L131.39 42.0063ZM138.68 34.3167C138.74 34.3167 138.92 34.1659 139.22 33.8644C139.52 33.5628 139.67 33.3818 139.67 33.3215C139.67 33.1406 139.64 33.0502 139.58 33.0502C139.46 33.0502 139.28 33.2613 139.04 33.6834L138.68 34.2262V34.3167ZM158.03 31.3313C158.09 31.3313 158.17 31.261 158.25 31.1001C158.34 30.9494 158.44 30.7584 158.57 30.5171C158.69 30.2759 158.75 30.1251 158.75 30.0648V29.9743C158.63 29.9743 158.45 30.2155 158.21 30.698L158.03 31.3313Z" fill="black"/>
<path d="M161.81 90.7672C161.21 90.7672 160.46 90.6466 159.56 90.4054C158.66 90.1641 157.76 89.4103 156.86 88.1437C156.44 87.6612 156.23 87.2692 156.23 86.9676C156.23 86.6661 155.96 86.2439 155.42 85.7011C154.4 84.133 153.89 81.8111 153.89 78.7353C153.89 76.6244 154.16 74.6643 154.7 72.855C156.86 67.1255 160.31 61.999 165.05 57.4757L166.76 55.9378C166.58 55.6362 166.35 55.3045 166.08 54.9426C165.81 54.5808 165.67 54.2793 165.67 54.038C165.67 53.9777 165.68 53.9173 165.72 53.857C165.75 53.7967 165.91 53.7666 166.21 53.7666C167.11 53.8872 167.79 54.0883 168.24 54.3496C168.69 54.621 169.06 54.7617 169.36 54.7617C169.54 54.7617 169.78 54.7215 170.08 54.631C170.38 54.5406 170.74 54.4903 171.16 54.4903C172.06 54.4903 173.03 54.9427 174.08 55.8473C175.13 56.752 175.67 57.4958 175.7 58.0687C175.73 58.6417 177.69 58.9231 181.6 58.9231C187.36 58.9231 193.33 58.2597 199.51 56.9329C200.71 56.9329 201.34 56.953 201.4 56.9731C201.46 57.0033 201.59 57.0133 201.8 57.0133C202.01 57.0133 202.17 57.0435 202.29 57.1038C202.41 57.1641 202.5 57.1942 202.56 57.1942C202.62 57.1942 202.68 57.2244 202.74 57.2847H202.83L203.01 57.4657C202.77 57.526 202.6 57.5561 202.52 57.5561C202.44 57.5561 201.87 57.7069 200.85 58.0084L203.19 57.6466C203.25 57.7069 203.28 57.7572 203.28 57.7773C203.28 57.8074 203.29 57.8376 203.33 57.8677C203.36 57.8979 203.39 57.928 203.42 57.9582C203.45 57.9883 203.48 58.0386 203.51 58.0989C203.54 58.1592 203.57 58.2296 203.6 58.32C203.63 58.4105 203.65 58.5211 203.65 58.6418V59.3655L203.47 60.2701L203.29 60.632H203.2L203.02 60.9034H202.93V60.9938C195.85 62.4413 189.61 63.1651 184.21 63.1651C182.47 63.1651 180.85 63.1047 179.35 62.9841C178.81 62.8635 178.36 62.8032 178 62.8032H177.46L178.36 65.0649C179.14 66.9948 179.53 69.0755 179.53 71.307C179.53 72.9354 179.41 74.2923 179.17 75.3779C178.99 76.0413 178.69 76.8556 178.27 77.8205C176.89 80.8964 174.85 83.6707 172.15 86.1434C171.01 87.1687 169.99 87.9226 169.09 88.4051C168.19 88.8876 166.54 89.4605 164.14 90.1239C163.6 90.3048 163.19 90.4556 162.92 90.5762C162.65 90.6968 162.27 90.7572 161.8 90.7572L161.81 90.7672ZM159.92 85.9725C160.88 85.9725 162.35 85.5804 164.33 84.7964C167.03 83.6505 169.47 81.811 171.67 79.278C173.86 76.7449 175.25 73.9707 175.85 70.9552C176.03 69.9902 176.12 69.0554 176.12 68.1507C176.12 66.3414 175.73 64.6829 174.95 63.1751C174.53 62.3911 174.08 61.999 173.6 61.999H173.33C172.79 61.999 172.46 61.9287 172.34 61.7678C172.22 61.6171 172.1 61.5266 171.98 61.4964C171.86 61.4663 171.69 61.4362 171.49 61.406C171.28 61.3758 171.11 61.2351 171 60.9938C170.88 60.7526 170.82 60.5415 170.82 60.3606L170.91 59.9083C170.91 59.848 170.88 59.8177 170.82 59.8177C170.58 59.8177 169.81 60.4712 168.53 61.7578C167.24 63.0545 166.58 63.7681 166.55 63.8888C166.52 64.0094 166.41 64.1601 166.23 64.341C165.21 65.6076 164.37 66.7535 163.71 67.7788C161.55 71.2768 160.14 73.8702 159.48 75.5589C158.4 78.1522 157.86 80.6551 157.86 83.0675C157.86 84.515 157.98 85.3594 158.22 85.6006C158.46 85.8418 159.03 85.9624 159.93 85.9624L159.92 85.9725ZM198.71 58.5613C198.89 58.5613 199.12 58.5311 199.39 58.4708C199.66 58.4105 199.9 58.3502 200.11 58.2898C200.32 58.2295 200.45 58.1693 200.52 58.109C199.98 58.109 199.53 58.1492 199.17 58.2397C198.81 58.3301 198.63 58.4406 198.63 58.5613H198.72H198.71Z" fill="black"/>
<path d="M171.35 171.735C170.15 171.735 169.1 171.463 168.2 170.921C167.06 170.438 166.43 170.197 166.31 170.197C165.89 170.137 165.38 169.724 164.78 168.981C164.18 168.227 163.66 167.362 163.21 166.397C162.76 165.432 162.53 164.648 162.53 164.045C162.53 163.442 162.37 162.698 162.04 161.824C161.71 160.949 161.55 160.356 161.55 160.065C161.55 159.884 161.6 159.753 161.69 159.663C161.78 159.572 161.83 159.462 161.83 159.351C161.83 159.24 161.78 159.09 161.69 158.939C161.6 158.788 161.55 158.587 161.55 158.356C161.55 157.15 162.15 154.797 163.35 151.299C163.95 149.55 164.37 148.676 164.61 148.676C164.67 148.676 164.72 148.706 164.75 148.766C164.78 148.827 164.83 148.857 164.88 148.857L164.79 147.862H164.88C165.06 147.862 165.78 146.686 167.04 144.334C172.86 133.84 182.7 121.838 196.56 108.328C201.54 103.564 206.94 98.8191 212.76 94.0747C218.58 89.3403 223.65 85.6111 227.97 82.9072C228.51 82.5453 228.94 82.2236 229.27 81.9522C229.6 81.6808 229.86 80.9772 230.04 79.8212C231 75.5391 231.48 71.1666 231.48 66.7036C231.48 63.5071 231.24 60.2504 230.76 56.9333L229.41 59.2855C228.33 61.2757 227.58 62.5724 227.16 63.1755C226.5 64.3214 225.96 65.1054 225.54 65.5276C224.94 66.191 223.68 67.759 221.76 70.2318C216.24 77.2881 213.08 81.4496 212.27 82.7161C211.46 83.9827 211.02 84.7064 210.97 84.8873H211.06L211.51 84.7064C211.57 84.7064 211.6 84.7365 211.6 84.7968L211.24 85.5206C210.04 87.0887 208.51 88.7773 206.65 90.5866C205.33 91.9738 204.25 92.9086 203.41 93.3911C202.03 94.2355 200.59 94.6577 199.09 94.6577C198.13 94.6577 197.56 94.3862 197.38 93.8434C197.32 93.6022 197.11 93.4816 196.75 93.4816H196.57C195.67 93.4816 194.9 92.6272 194.27 90.9084C193.64 89.1895 193.33 87.4304 193.33 85.611C193.33 83.5605 193.93 80.8164 195.13 77.3787C196.15 74.3632 197.44 71.4079 199 68.5129C199.9 66.8242 201.4 64.5224 203.5 61.5973C205.6 58.6722 207.49 56.2498 209.17 54.3098C211.93 51.2339 214.12 49.5754 215.74 49.3341C217.6 49.0326 218.71 48.8818 219.07 48.8818C219.37 48.8818 219.67 48.9622 219.97 49.113C220.27 49.2638 220.69 49.4648 221.23 49.696C223.81 51.0832 225.34 52.41 225.82 53.6765L226.36 54.943C226.84 54.4002 227.32 53.8273 227.8 53.2242C228.28 52.6211 228.61 52.2793 228.79 52.1788C228.97 52.0883 229.09 52.0481 229.15 52.0481C229.21 52.0481 229.24 52.1084 229.24 52.229C229.24 52.3497 229.27 52.41 229.33 52.41C229.51 52.41 229.99 52.018 230.77 51.2339C231.13 50.8117 231.46 50.48 231.76 50.2388C232.06 49.9976 232.27 49.877 232.39 49.877C232.45 49.877 232.48 49.9373 232.48 50.0579C232.48 50.2991 232.34 50.5303 232.07 50.7414C231.8 50.9525 231.66 51.1234 231.66 51.244C231.66 51.3043 231.72 51.3345 231.84 51.3345C232.32 51.3948 232.75 51.5958 233.14 51.9174C233.53 52.2491 233.73 52.5909 233.73 52.9629V53.1438C233.73 53.4453 233.88 53.5961 234.18 53.5961C234.84 53.5961 235.35 55.2847 235.71 58.6621C236.07 62.0395 236.25 65.1758 236.25 68.0707C236.25 70.4832 236.1 72.6844 235.8 74.6747L235.44 77.2982L236.25 76.9363C236.73 76.7554 237.33 76.4841 238.05 76.1222C239.61 75.3382 240.52 74.9461 240.79 74.9461C241.06 74.9461 241.52 74.8255 242.19 74.5843C243.27 74.1621 244.47 73.6494 245.79 73.0463C247.95 72.1417 250.14 71.4481 252.36 70.9656C253.98 70.6038 255.33 70.4228 256.41 70.4228C257.25 70.4228 258.21 70.6339 259.29 71.0561C260.37 71.4783 260.91 71.8401 260.91 72.1416L260.82 72.3226C260.82 72.3829 261.01 72.5839 261.4 72.9056C261.79 73.2373 261.99 73.4886 261.99 73.6695C261.99 73.9108 261.36 74.0314 260.1 74.0314L257.94 73.9409C255.54 73.9409 251.22 75.5089 244.98 78.6451C237.9 82.1431 234.12 84.435 233.64 85.5206C233.52 85.7619 233.37 86.2142 233.19 86.8776C229.11 102.016 223.83 115.947 217.35 128.673C212.19 138.745 206.43 146.917 200.07 153.189C198.69 154.576 196.77 156.356 194.31 158.527C190.17 162.085 186.72 164.709 183.96 166.397L181.89 167.754C177.57 170.408 174.06 171.735 171.36 171.735H171.35ZM170.45 168.297C170.69 168.297 171.08 168.237 171.62 168.116C173.18 167.935 174.83 167.423 176.57 166.578C177.59 166.096 179.08 165.282 181.02 164.136C182.97 162.99 184.02 162.417 184.17 162.417C184.32 162.417 185.51 161.572 187.73 159.884C189.65 158.557 192.11 156.446 195.11 153.551C196.67 151.983 197.45 151.169 197.45 151.109C197.39 151.109 195.95 152.405 193.13 154.999C191.39 156.567 189.56 158.044 187.64 159.431C184.04 162.085 181.91 163.412 181.25 163.412C181.13 163.412 181.07 163.291 181.07 163.05C181.07 162.749 181.18 162.578 181.38 162.547C181.59 162.517 182.09 162.256 182.86 161.773C184.78 160.688 186.61 159.482 188.35 158.155C189.19 157.491 190.39 156.436 191.95 154.989C195.73 151.49 198.4 148.837 199.96 147.027C203.08 143.348 204.64 141.449 204.64 141.328L204.37 141.599C203.35 142.625 202.36 143.741 201.4 144.947L198.97 147.661C197.17 149.591 196.03 150.676 195.55 150.917V150.686C195.55 150.686 195.6 150.566 195.69 150.415C195.78 150.264 195.86 150.123 195.91 150.013V149.742C195.73 149.742 195.01 150.375 193.75 151.641C191.71 153.692 190.45 154.717 189.97 154.717H189.88C189.88 154.416 191.23 152.968 193.93 150.375C196.39 147.962 198.34 145.922 199.78 144.263C201.22 142.605 202.78 140.534 204.46 138.061C208.96 131.487 213.43 123.285 217.87 113.454C220.09 108.449 221.72 104.709 222.78 102.237C223.83 99.764 224.56 97.8341 224.99 96.4469C225.05 96.085 225.5 94.6678 226.34 92.195L226.43 92.014L227.69 88.5763C227.69 88.3953 227.66 88.305 227.6 88.305L227.24 88.4858C226.88 88.6668 226.7 88.8779 226.7 89.1191C226.52 89.5413 225.75 90.2449 224.4 91.24C223.05 92.2352 222.2 92.7277 221.84 92.7277C221.78 92.7277 221.72 92.6674 221.66 92.5468C221.6 92.4262 221.54 92.3658 221.48 92.3658V92.7277C221.48 93.1498 221.31 93.4716 220.99 93.6827C220.66 93.8937 220.39 94.0746 220.18 94.2254C219.97 94.3762 219.83 94.4868 219.77 94.537C219.71 94.5974 218.18 95.8337 215.18 98.2461C213.98 99.2714 212.88 100.176 211.89 100.96C210.9 101.744 210.25 102.287 209.96 102.589L207.26 105.031C206.06 106.177 204.68 107.413 203.12 108.74C200.18 111.394 197.14 114.319 193.99 117.515C190.84 120.712 188.07 123.637 185.66 126.291C184.34 127.919 183.46 128.914 183 129.276C182.55 129.638 181.97 130.301 181.24 131.266C180.22 132.533 179.38 133.618 178.72 134.523L176.74 137.056C174.94 139.348 173.05 142.363 171.07 146.103C169.33 149.48 168.04 152.345 167.2 154.697C166.12 158.195 165.58 160.999 165.58 163.11C165.58 164.256 165.79 164.97 166.21 165.231C166.63 165.503 167.44 165.663 168.64 165.734C170.08 165.854 170.8 166.035 170.8 166.277C170.8 166.397 170.5 166.548 169.9 166.729C169.6 166.789 169.42 166.85 169.36 166.91V167H169.45C169.69 167 170.14 166.91 170.8 166.729C172.18 166.427 173.29 166.035 174.13 165.553L175.12 165.191C175.18 165.191 175.21 165.221 175.21 165.282C175.21 165.402 175.09 165.583 174.85 165.824C174.19 166.608 172.96 167.272 171.16 167.815C170.44 167.996 170.08 168.116 170.08 168.176C170.08 168.237 170.2 168.267 170.44 168.267L170.45 168.297ZM173.24 137.539L174.68 135.458C175.52 134.312 177.74 131.538 181.34 127.135C182.6 125.688 183.47 124.723 183.95 124.24C185.63 122.551 187.13 120.953 188.45 119.445C191.15 116.55 194.63 113.073 198.89 109.002C203.15 104.931 207.17 101.262 210.95 98.0049C215.39 94.3862 219.32 91.3406 222.74 88.8678L227.87 85.2492C228.83 84.5858 229.31 84.043 229.31 83.6208C229.31 83.3796 229.19 83.259 228.95 83.259C228.77 83.259 228.47 83.3796 228.05 83.6208C227.09 84.1636 226.25 84.7969 225.53 85.5206C225.41 85.9428 225.15 86.1739 224.76 86.2041C224.37 86.2342 223.55 86.6766 222.29 87.5209C219.29 89.5112 216.74 91.5014 214.64 93.4916C214.16 93.9741 213.89 94.2154 213.83 94.2154L214.01 93.8535V93.763C213.95 93.763 213.86 93.7932 213.74 93.8535C213.62 93.9138 213.56 94.0646 213.56 94.3059V94.3963C213.56 94.5169 213.48 94.6676 213.34 94.8486C213.19 95.0295 212.99 95.12 212.75 95.12H212.57C212.33 95.12 212.1 95.301 211.89 95.6628C211.68 96.0247 211.51 96.2057 211.4 96.2057L211.22 96.1151C211.04 96.1151 210.73 96.3162 210.27 96.6982C209.82 97.0902 209.58 97.4419 209.55 97.7435C209.52 98.0451 209.34 98.3165 209.01 98.5578C208.68 98.799 208.36 98.9196 208.07 98.9196C207.78 98.9196 207.62 99.0402 207.62 99.2815C207.62 99.5227 205.58 101.493 201.5 105.202C197.42 108.911 195.2 110.771 194.84 110.771L194.75 110.68C194.87 110.801 194.93 110.921 194.93 111.042C194.93 111.102 194.88 111.223 194.79 111.404C194.7 111.585 194.6 111.736 194.48 111.856C194.36 111.977 194.24 112.037 194.12 112.037H194.03C193.85 112.037 193.46 112.309 192.86 112.851C191.24 114.299 189.83 115.776 188.63 117.284C188.15 117.948 187.03 119.244 185.25 121.174C183.48 123.104 181.79 125.064 180.17 127.055C176.45 131.518 174.59 134.02 174.59 134.563V134.654C174.59 135.016 174.38 135.468 173.96 136.011C173.42 136.795 173.15 137.277 173.15 137.458C173.15 137.518 173.18 137.549 173.24 137.549V137.539ZM180.35 167.392C180.53 167.392 180.62 167.242 180.62 166.94C180.62 166.639 180.59 166.488 180.53 166.488L180.35 166.759C180.23 166.94 180.17 167.121 180.17 167.302C180.17 167.362 180.23 167.392 180.35 167.392ZM181.97 166.307C182.09 166.307 182.21 166.267 182.33 166.176C182.45 166.086 182.51 165.975 182.51 165.864L182.42 165.684C182.3 165.684 182.18 165.724 182.06 165.814C181.94 165.905 181.88 166.005 181.88 166.136L181.97 166.317V166.307ZM183.41 165.493C183.65 165.493 183.92 165.372 184.22 165.131C184.52 164.889 184.67 164.739 184.67 164.678L184.58 164.588C184.46 164.588 184.33 164.628 184.17 164.729C184.02 164.819 183.86 164.92 183.68 165.04C183.5 165.161 183.41 165.251 183.41 165.312V165.493ZM185.03 164.407C185.27 164.407 185.74 164.136 186.43 163.593C187.12 163.05 187.91 162.507 188.82 161.964C189.12 161.783 189.45 161.562 189.81 161.281C190.17 161.01 190.35 160.818 190.35 160.698H190.26C190.2 160.698 189.84 160.889 189.18 161.281C188.52 161.673 188.01 162.055 187.65 162.407C187.59 162.407 187.11 162.708 186.21 163.311C185.79 163.553 185.37 163.884 184.95 164.307C184.95 164.367 184.98 164.397 185.04 164.397L185.03 164.407ZM190.97 160.155C191.21 160.035 191.72 159.642 192.5 158.979C193.16 158.195 193.49 157.773 193.49 157.713H193.4C193.22 157.713 192.77 158.074 192.05 158.798C191.33 159.522 190.97 159.944 190.97 160.065V160.155ZM193.94 157.441C194.06 157.441 194.29 157.32 194.62 157.079C194.95 156.838 195.34 156.496 195.79 156.034C196.24 155.582 196.47 155.32 196.47 155.27V155.179C196.35 155.179 195.96 155.451 195.3 155.994C194.34 156.717 193.86 157.17 193.86 157.351C193.86 157.411 193.89 157.441 193.95 157.441H193.94ZM198.26 153.461C198.5 153.461 198.9 153.129 199.48 152.465C200.05 151.802 200.33 151.41 200.33 151.289C200.27 151.289 199.88 151.631 199.16 152.325C198.44 153.018 198.08 153.39 198.08 153.451H198.26V153.461ZM199.61 148.937C199.79 148.937 200.36 148.334 201.32 147.128C200.06 148.153 199.43 148.756 199.43 148.937H199.61ZM199.79 86.2443C199.85 86.2443 200 86.174 200.24 86.0131C200.48 85.8624 201.53 84.8572 203.39 82.9875C204.41 81.7813 205.76 80.3338 207.44 78.6451C208.34 77.7404 209.54 76.3835 211.04 74.5742C212.12 73.1267 213.02 72.0412 213.74 71.3174C214.04 71.0762 215.15 69.8398 217.07 67.6083C218.51 65.7989 219.56 64.5626 220.22 63.8992C221.12 63.1152 221.57 62.2104 221.57 61.1852C221.57 59.798 221.45 58.1395 221.21 56.2096C221.09 55.5461 220.97 55.2145 220.85 55.2145C220.55 55.2145 219.8 55.8175 218.6 57.0238C212.72 62.9342 207.74 69.689 203.66 77.2881C201.74 80.7862 200.48 83.5605 199.88 85.611L199.7 86.2443H199.79ZM200.6 149.209C200.72 149.209 201.68 148.214 203.48 146.223C204.32 145.258 204.74 144.685 204.74 144.504H204.65C204.53 144.504 204.11 144.897 203.39 145.681C201.53 147.912 200.6 149.088 200.6 149.209ZM203.12 147.671C203.24 147.671 203.31 147.631 203.35 147.54C203.38 147.45 203.42 147.339 203.49 147.229L203.4 146.776C203.34 146.776 203.26 146.846 203.18 146.997C203.09 147.148 203.04 147.279 203.04 147.409C203.04 147.59 203.07 147.681 203.13 147.681L203.12 147.671ZM205.82 144.143L205.73 143.69C205.73 143.449 205.8 143.238 205.95 143.057C206.1 142.876 206.23 142.786 206.36 142.786C206.42 142.786 206.48 142.846 206.54 142.967C206.6 143.087 206.66 143.147 206.72 143.147C206.78 143.147 206.84 143.067 206.9 142.926C206.96 142.776 206.99 142.665 206.99 142.605L206.9 142.514L206.72 142.605C206.6 142.605 206.54 142.575 206.54 142.514C206.54 142.454 206.59 142.343 206.68 142.203C206.77 142.052 206.9 141.971 207.09 141.971H207.18C207.24 141.971 207.33 141.941 207.45 141.881C207.57 141.821 207.7 141.71 207.86 141.569C208.01 141.419 208.08 141.308 208.08 141.258L207.63 141.348C207.51 141.348 207.48 141.288 207.54 141.167C207.54 141.047 207.55 140.926 207.59 140.805C207.62 140.685 207.68 140.564 207.77 140.444C207.86 140.323 207.91 140.232 207.91 140.172L207.1 141.077C205.9 142.524 205.3 143.429 205.3 143.791C205.3 143.911 205.33 143.972 205.39 143.972L205.84 144.153L205.82 144.143ZM206.54 138.986C206.6 138.986 206.7 138.906 206.86 138.755C207.01 138.604 207.08 138.443 207.08 138.252L206.99 138.162C206.87 138.162 206.76 138.282 206.67 138.524C206.58 138.765 206.53 138.916 206.53 138.976L206.54 138.986ZM208.52 139.348C208.94 138.926 209.24 138.695 209.42 138.664C209.6 138.634 209.69 138.463 209.69 138.172C209.69 137.88 209.81 137.719 210.05 137.719H210.14C210.26 137.719 210.33 137.579 210.37 137.307C210.4 137.036 210.64 136.674 211.09 136.222C211.54 135.769 211.76 135.317 211.76 134.865C211.76 134.412 211.92 134.111 212.25 133.96C212.58 133.809 212.74 133.578 212.74 133.287C212.74 132.995 212.86 132.593 213.1 132.111L213.37 131.749L213.28 131.568C213.16 131.568 212.89 131.899 212.47 132.563L211.57 134.191C209.47 137.508 208.42 139.227 208.42 139.348H208.51H208.52ZM210.32 133.015C210.38 133.015 210.48 132.935 210.63 132.794C210.78 132.643 210.86 132.503 210.86 132.382L210.68 132.291C210.62 132.291 210.54 132.392 210.46 132.603C210.37 132.814 210.32 132.945 210.32 133.005V133.015ZM213.83 130.754C213.89 130.754 213.98 130.723 214.1 130.663C214.22 130.603 214.28 130.512 214.28 130.392C214.28 130.332 214.19 130.271 214.01 130.211C213.83 130.271 213.74 130.392 213.74 130.573L213.83 130.754ZM214.64 126.23C214.7 126.23 214.8 126.14 214.96 125.959C215.11 125.778 215.18 125.567 215.18 125.326C215.18 125.205 215.15 125.145 215.09 125.145C215.03 125.205 214.92 125.326 214.77 125.507C214.62 125.687 214.55 125.899 214.55 126.14V126.23H214.64ZM218.24 95.2909C218.3 95.2909 218.48 95.1402 218.78 94.8386L219.05 94.3862C218.87 94.3862 218.67 94.5068 218.47 94.7481C218.26 94.9893 218.18 95.1402 218.25 95.2005V95.2909H218.24ZM218.51 121.978C218.63 121.978 218.87 121.556 219.23 120.712C219.53 120.169 219.68 119.807 219.68 119.626L219.59 119.536L219.05 120.531C218.69 121.134 218.51 121.586 218.51 121.888V121.978ZM220.13 118.631C220.19 118.631 220.4 118.269 220.76 117.546C221.12 116.822 221.3 116.339 221.3 116.098C221.24 116.098 221.03 116.45 220.67 117.133C220.31 117.827 220.13 118.33 220.13 118.631ZM220.31 67.156C220.37 67.156 220.55 66.9851 220.85 66.6534C221.15 66.3217 221.49 65.8995 221.88 65.3869C222.27 64.8742 222.52 64.5224 222.65 64.3414C222.77 64.1605 222.83 64.0399 222.83 63.9796L222.74 64.07C222.26 64.3716 221.73 64.9144 221.16 65.6984C220.59 66.4824 220.31 66.965 220.31 67.1459V67.156ZM221.57 69.0558L221.75 68.9652C221.87 68.9049 222 68.7843 222.16 68.6034C222.31 68.4224 222.38 68.3018 222.38 68.2415H222.29C222.11 68.2415 221.96 68.3522 221.84 68.5532C221.72 68.7643 221.64 68.8849 221.62 68.915C221.59 68.9452 221.57 68.9955 221.57 69.0457V69.0558ZM222.29 113.746L222.83 112.751C223.07 112.329 223.25 111.876 223.37 111.394L223.55 110.761C223.49 110.761 223.41 110.841 223.33 110.982C223.24 111.133 223.13 111.394 223.01 111.756C222.53 112.902 222.29 113.565 222.29 113.746ZM223.91 110.308L224.63 108.77C224.63 108.71 224.61 108.68 224.59 108.68H224.45L224.09 109.404L223.82 110.308H223.91ZM241.82 76.2026C241.88 76.2026 241.97 76.1624 242.09 76.0618C242.21 75.9714 242.27 75.901 242.27 75.8307C242.27 75.7603 242.24 75.7402 242.18 75.7402C242.12 75.7402 242.01 75.7704 241.87 75.8307C241.72 75.891 241.63 75.9413 241.6 75.9714C241.57 76.0016 241.55 76.0518 241.55 76.1122C241.55 76.1725 241.64 76.2026 241.82 76.2026ZM242.72 75.6598C242.84 75.6598 243.2 75.529 243.8 75.2476C244.4 74.9762 244.7 74.7853 244.7 74.6646H244.43C244.25 74.7249 244.04 74.8154 243.8 74.9361C243.56 75.0567 243.31 75.1773 243.03 75.2979C242.76 75.4185 242.62 75.509 242.62 75.5693C242.62 75.6296 242.65 75.6598 242.71 75.6598H242.72ZM245.69 74.3932C245.75 74.3932 245.94 74.3128 246.27 74.162C246.6 74.0113 247.15 73.8203 247.94 73.5791C248.72 73.3378 249.56 73.0664 250.46 72.7648C252.26 72.222 253.7 71.9507 254.78 71.9507L258.56 72.1316C259.16 72.1316 259.46 72.0713 259.46 71.9507C259.16 71.5888 258.17 71.4079 256.49 71.4079C256.01 71.4079 255.37 71.438 254.55 71.4983C253.74 71.5586 252.93 71.6994 252.12 71.9004C251.31 72.1115 250.41 72.3829 249.42 72.7146C248.43 73.0464 247.56 73.368 246.81 73.6595C246.06 73.961 245.64 74.142 245.55 74.2023C245.46 74.2626 245.41 74.3228 245.41 74.3832H245.68L245.69 74.3932Z" fill="black"/>
</g>
</svg>
