<svg width="411" height="188" viewBox="0 0 411 188" fill="none" xmlns="http://www.w3.org/2000/svg">
<g clip-path="url(#clip0_8_128)">
<g opacity="0.44">
<path d="M6.79 182.28C6.21 182.28 5.53 181.97 4.75 181.35C3.97 180.73 3.47 180.42 3.27 180.42C3.07 180.42 2.8 180.3 2.47 180.05C0.83 178.98 0 178.16 0 177.58L0.49 175.61C1.31 172.32 2.3 168.86 3.45 165.24C5.18 159.48 6.41 155.98 7.15 154.75L7.64 153.39C8.05 152.07 9.28 149.11 11.34 144.5L12.33 142.53C14.8 136.61 17.84 130.02 21.46 122.78C24.34 117.02 26.89 112.25 29.11 108.46L29.85 106.98C27.22 107.47 24.28 108.26 21.03 109.32C17.78 110.39 14.86 111.46 12.27 112.53C9.68 113.6 8.28 114.32 8.07 114.69C7.86 115.06 7.6 115.25 7.27 115.25C6.94 115.25 6.78 115.13 6.78 114.88V114.63C6.7 114.63 6.55 114.73 6.35 114.94C6.14 115.15 5.96 115.25 5.79 115.25C5.54 115.25 5.42 115.02 5.42 114.57C5.42 114.12 5.23 113.89 4.86 113.89C4.49 113.89 4.02 112.7 3.44 110.31C3.44 109.98 3.48 109.67 3.56 109.38C3.64 109.09 4.46 108.66 6.03 108.08C8.09 107.09 11.13 105.94 15.16 104.62C19.19 103.3 22.89 102.23 26.27 101.41C29.15 100.75 31.33 100.14 32.81 99.5598C33.71 99.1498 34.76 98.1398 35.96 96.5398C37.15 94.9398 38.08 93.3098 38.74 91.6698C38.9 91.0998 39.11 90.8098 39.36 90.8098C39.61 90.8098 39.73 90.6498 39.73 90.3198C39.73 89.9898 39.85 89.8298 40.1 89.8298H40.59C40.75 89.8298 40.92 89.7098 41.08 89.4598C41.08 89.3798 41.02 89.2998 40.89 89.2098C40.77 89.1298 40.7 89.0098 40.7 88.8398C40.7 88.5898 40.78 88.3498 40.95 88.0998C41.28 87.4398 41.44 87.0298 41.44 86.8698C41.44 86.7098 41.56 86.4598 41.81 86.1298C42.06 85.7998 42.34 85.3898 42.67 84.8998C43.49 84.0798 43.9 83.3998 43.9 82.8598C43.9 82.3198 44.52 81.3598 45.75 79.9598C45.91 79.7998 46.08 79.5698 46.24 79.2798C46.4 78.9898 46.57 78.7198 46.73 78.4798C46.89 78.2298 47.14 77.7998 47.47 77.1798C47.8 76.5598 48.17 75.9698 48.58 75.3898C49.4 73.7498 49.81 72.7998 49.81 72.5498C49.81 72.2998 50.01 72.0998 50.43 71.9298C50.76 71.9298 50.92 71.7698 50.92 71.4398C50.92 71.1098 51.12 70.7598 51.54 70.3898C51.95 70.0198 53 68.5798 54.69 66.0698C56.38 63.5598 57.22 62.1998 57.22 61.9998C57.22 61.7998 57.34 61.5698 57.59 61.3198C58.25 60.6598 58.8 60.3298 59.26 60.3298C59.72 60.3298 60.23 59.9198 60.8 59.0998C61.13 58.6098 61.66 57.8498 62.4 56.8198C63.14 55.7898 63.88 54.6798 64.62 53.4898C65.36 52.2998 66.02 51.2898 66.59 50.4698C67.16 49.6498 67.45 49.1098 67.45 48.8698C67.45 48.6298 67.82 48.2098 68.56 47.6398C69.55 46.4098 71.19 44.2298 73.5 41.0998C79.26 33.1998 83.62 27.5198 86.58 24.0698C86.99 23.6598 87.44 23.1298 87.94 22.4698C90.98 18.6898 94.81 14.4498 99.42 9.75977C103.04 6.05977 105.75 3.54977 107.57 2.22977C109.79 0.749766 111.68 0.00976562 113.25 0.00976562C114.65 0.00976562 115.8 0.549766 116.71 1.60977C117.61 2.67977 118.19 3.20977 118.44 3.20977C118.69 3.20977 119.12 3.51977 119.74 4.13977C120.36 4.75977 120.91 5.43976 121.41 6.17977C122.07 7.40977 122.4 9.01976 122.4 10.9898C122.4 12.5498 122.23 14.1398 121.91 15.7398C121.58 17.3398 121.42 18.5998 121.42 19.4998C121.42 20.0798 120.84 22.5898 119.69 27.0298C119.11 29.0898 118.54 31.3098 117.96 33.6898L117.71 34.1798C116.23 40.4298 114.62 46.3198 112.9 51.8298C106.4 76.1798 102.7 90.3798 101.79 94.4098L96.73 115.27C95.66 119.88 95.04 122.35 94.88 122.67C94.71 123 94.63 123.41 94.63 123.9C94.63 124.39 94.26 126.49 93.52 130.19C92.45 134.8 91.75 138.42 91.42 141.05C91.09 143.68 90.93 146.32 90.93 148.95C90.93 151.58 91.05 153.81 91.3 155.61C91.55 157.42 91.79 158.32 92.04 158.32C92.29 158.32 92.47 158.42 92.6 158.63C92.72 158.84 92.87 159.12 93.03 159.49C93.19 159.86 93.4 160.29 93.65 160.79C93.9 161.29 94.02 161.82 94.02 162.39C94.02 162.88 93.9 163.25 93.65 163.5C93.4 163.75 92.74 163.87 91.68 163.87C90.86 163.79 89.85 163.33 88.66 162.51C87.47 161.69 86.33 160.7 85.27 159.55C84.78 158.98 84.47 158.52 84.34 158.19C84.22 157.86 84.15 157.41 84.15 156.83V156.58C84.15 156.17 83.9 155.26 83.41 153.86C82.92 152.46 82.67 150.45 82.67 147.81C82.67 140.74 84.64 128.76 88.59 111.9L89.45 107.83C90.68 101.91 91.42 98.7598 91.67 98.3898C91.92 98.0198 92.04 97.7098 92.04 97.4598C92.04 97.2098 91.09 97.0498 89.2 96.9698C87.64 96.9698 85.99 97.0098 84.26 97.0898C82.53 97.1698 81.22 97.2598 80.31 97.3398C77.92 97.7498 76.24 97.9598 75.25 97.9598C74.43 97.9598 74.02 97.8198 74.02 97.5298C74.02 97.2398 73.9 97.0998 73.65 97.0998C73.48 97.0998 73.4 97.2198 73.4 97.4698C73.4 98.1298 72.04 98.6198 69.33 98.9498L67.23 99.3198C64.76 99.8098 62.42 100.18 60.2 100.43C58.8 100.43 56.48 100.8 53.23 101.54C49.98 102.28 47.94 102.65 47.12 102.65C46.71 102.65 45.56 102.86 43.66 103.27C42.26 103.6 41.38 103.99 41.01 104.44C40.64 104.89 40.29 105.49 39.96 106.23C36.01 113.47 32.31 120.59 28.85 127.58C25.39 134.57 22.97 139.8 21.57 143.25C20.75 145.39 19.18 149.09 16.88 154.36C16.55 155.02 16.39 155.72 16.39 156.46C16.22 156.87 16.1 157.18 16.02 157.39C15.94 157.6 15.85 157.7 15.77 157.7H15.65C15.32 157.7 15.16 157.99 15.16 158.56C15.16 159.47 14.83 160.72 14.17 162.32C13.51 163.92 12.69 166.66 11.7 170.53C10.79 173.66 10.14 175.67 9.73 176.58L9.11 178.8C8.7 181.1 7.92 182.26 6.77 182.26L6.79 182.28ZM17.03 140.57C17.28 140.57 18.88 137.48 21.84 131.31C26.12 122.75 29.24 116.87 31.22 113.66C31.3 113.5 31.41 113.27 31.53 112.98C31.65 112.69 31.82 112.55 32.02 112.55C32.22 112.55 32.33 112.26 32.33 111.69C32.33 111.12 32.52 110.81 32.89 110.76C33.26 110.72 33.45 110.43 33.45 109.9C33.45 109.37 34.15 108.03 35.55 105.89C35.8 105.56 35.92 105.36 35.92 105.27L34.93 105.52C34.27 105.69 33.16 107.33 31.6 110.46C25.84 121.49 22.47 128.27 21.48 130.82C21.15 131.4 20.88 131.87 20.68 132.24C20.47 132.61 20.29 132.8 20.12 132.8C20.04 132.8 20 132.72 20 132.55L20.12 131.93L20.49 130.7L20.37 130.58L19.88 131.44C19.55 131.93 19.39 132.26 19.39 132.43C19.39 132.68 19.49 132.84 19.7 132.92C19.9 133 20.05 133.13 20.13 133.29C20.13 133.54 20.01 133.95 19.76 134.52C19.51 135.1 19.12 135.92 18.59 136.99C18.05 138.06 17.66 138.86 17.42 139.4C17.17 139.94 17.05 140.29 17.05 140.45V140.57H17.03ZM18.51 134.89L18.88 134.52C19.04 134.27 19.13 134.03 19.13 133.78C19.13 133.7 19.09 133.66 19.01 133.66C18.93 133.66 18.8 133.72 18.64 133.85C18.47 133.97 18.39 134.2 18.39 134.53C18.39 134.78 18.43 134.9 18.51 134.9V134.89ZM20.85 129.83C21.1 129.67 21.22 129.54 21.22 129.46L20.85 129.34C20.6 129.34 20.48 129.46 20.48 129.71C20.48 129.79 20.52 129.83 20.6 129.83H20.85ZM21.34 128.6C21.5 128.6 22 127.74 22.82 126.01C23.15 125.44 23.5 124.76 23.87 123.97C24.24 123.19 24.55 122.51 24.8 121.93C25.05 121.36 25.46 120.55 26.03 119.52C26.6 118.49 27.14 117.44 27.63 116.37C29.11 113.65 30.22 111.56 30.96 110.08C31.7 108.6 32.19 107.61 32.44 107.12C32.69 106.63 32.81 106.3 32.81 106.13C32.56 106.13 30.57 109.71 26.82 116.87C23.08 124.03 21.2 127.9 21.2 128.47C21.2 128.55 21.24 128.59 21.32 128.59L21.34 128.6ZM26.03 127.61C26.11 127.61 26.23 127.49 26.4 127.24C26.56 126.99 26.85 126.46 27.26 125.64C29.23 122.02 30.35 120.21 30.59 120.21C30.83 120.21 30.96 120.09 30.96 119.84C30.96 119.59 30.84 119.47 30.59 119.47C30.51 119.47 30.26 119.8 29.85 120.46C28.53 122.52 27.57 124.2 26.95 125.52C26.33 126.84 26.02 127.54 26.02 127.62L26.03 127.61ZM26.89 123.29C26.97 123.29 27.09 123.21 27.26 123.04C27.42 122.88 27.51 122.67 27.51 122.42C27.51 122.17 27.47 122.05 27.39 122.05C27.31 122.05 27.18 122.17 27.02 122.42C26.85 122.67 26.77 122.91 26.77 123.16C26.77 123.24 26.81 123.28 26.89 123.28V123.29ZM30.84 119.22C30.92 119.22 31.04 119.16 31.21 119.03C31.37 118.91 31.62 118.58 31.95 118.04C32.28 117.51 32.48 117.11 32.57 116.87C32.65 116.62 32.69 116.46 32.69 116.38H32.2C32.03 116.38 31.83 116.52 31.58 116.81C31.33 117.1 31.11 117.43 30.9 117.8C30.69 118.17 30.59 118.48 30.59 118.73C30.59 119.06 30.67 119.22 30.84 119.22ZM32.44 115.39C32.52 115.39 32.67 115.33 32.87 115.2C33.07 115.08 33.32 114.81 33.61 114.4C33.9 113.99 34.17 113.56 34.41 113.1C34.66 112.65 34.86 112.22 35.03 111.8C35.19 111.39 35.46 110.77 35.83 109.95C36.2 109.13 36.61 108.31 37.06 107.48C37.51 106.66 37.88 105.98 38.17 105.44C38.46 104.91 38.6 104.6 38.6 104.51H38.48C38.15 104.51 37.7 105.05 37.12 106.11C37.12 106.28 37.04 106.44 36.87 106.6C36.21 107.92 35.39 109.4 34.4 111.04L32.3 115.11C32.3 115.28 32.34 115.36 32.42 115.36L32.44 115.39ZM37.25 98.3598C37.58 98.3598 38.19 97.4998 39.1 95.7698L43.05 88.6098C45.02 85.3998 46.26 83.5498 46.75 83.0598C46.83 83.0598 46.91 82.9398 47 82.6898C47.25 82.1198 47.37 81.6998 47.37 81.4598C47.37 81.3798 47.33 81.3398 47.25 81.3398C47.08 81.3398 46.45 82.2498 45.34 84.0598C44.23 85.8698 43.43 87.1298 42.93 87.8198C42.44 88.5198 41.16 90.7198 39.1 94.4198C37.78 96.6398 37.13 97.9198 37.13 98.2498C37.13 98.3298 37.17 98.3698 37.25 98.3698V98.3598ZM38.98 98.1098C39.23 98.1098 39.43 98.0298 39.6 97.8598L40.28 97.1798C40.57 96.8898 40.84 96.5398 41.08 96.1298C41.57 95.3098 42.19 94.3998 42.93 93.4198L44.78 90.2098C45.44 88.8898 48.73 83.7098 54.65 74.6598C56.62 71.6198 57.71 69.9098 57.92 69.5398C58.12 69.1698 58.58 68.8798 59.28 68.6798C59.98 68.4798 60.78 67.6298 61.69 66.1498C66.54 58.7498 69.75 54.0198 71.32 51.9598C72.47 50.6398 73.05 49.8798 73.05 49.6798C73.05 49.4798 73.4 49.0198 74.1 48.3198C74.8 47.6198 75.4 46.8598 75.89 46.0398C76.22 44.9698 76.59 44.3298 77 44.1298C77.41 43.9298 77.62 43.7198 77.62 43.5098C77.62 43.2998 77.78 42.9798 78.11 42.5198C78.44 42.0698 78.83 41.5798 79.28 41.0398C79.73 40.5098 80.25 39.8698 80.82 39.1298L82.92 35.7998C83.17 35.3898 83.39 35.0598 83.6 34.8098C83.8 34.5598 84.13 34.1098 84.59 33.4498C85.04 32.7898 86.3 31.2298 88.35 28.7598C95.26 20.5298 100.73 14.4898 104.76 10.6198C107.89 7.73977 110.48 5.63977 112.53 4.32977C113.19 3.91977 113.52 3.66977 113.52 3.58977H113.4C113.07 3.58977 112.25 3.93977 110.93 4.63977C109.61 5.33977 108.87 5.68977 108.71 5.68977C108.63 5.68977 108.59 5.56977 108.59 5.31977C108.59 4.32977 108.75 3.83977 109.08 3.83977L108.83 4.45977C108.83 4.53977 108.87 4.57977 108.95 4.57977L112.28 2.84977C112.69 2.59977 113.08 2.41977 113.45 2.28977C113.82 2.15977 114.01 1.97977 114.01 1.72977C114.01 1.56977 113.76 1.47977 113.27 1.47977C112.86 1.47977 112.24 1.68977 111.42 2.09977C110.6 2.50977 109.77 2.98977 108.95 3.51977C108.13 4.05977 107.45 4.56977 106.91 5.05977C106.37 5.54977 106.11 5.91977 106.11 6.16977V6.28977C106.11 6.45977 106.03 6.63977 105.86 6.84977C105.69 7.05977 105.41 7.15977 105 7.15977H104.63C104.3 7.15977 102.37 9.00977 98.83 12.7098C94.96 16.7398 92.25 19.6998 90.68 21.5998C89.03 23.8198 88.11 24.9298 87.9 24.9298C87.69 24.9298 87.43 25.1398 87.1 25.5498C86.77 25.9598 86.38 26.4798 85.93 27.0898C85.48 27.7098 84.65 28.7798 83.46 30.2998C82.27 31.8198 81.01 33.4898 79.7 35.2998C76.82 39.1698 75.38 41.3098 75.38 41.7198V42.0898L75.01 41.8398C74.84 41.9198 74.64 42.1298 74.39 42.4598C74.14 42.7898 73.79 43.2398 73.34 43.8198C72.89 44.3998 72.41 45.0098 71.92 45.6698C71.01 46.9898 70.56 47.7298 70.56 47.8898H70.93C71.18 47.8898 71.3 48.0098 71.3 48.2598C71.3 48.5898 71.18 48.7498 70.93 48.7498C70.68 48.7498 70.52 48.7898 70.44 48.8698C69.53 48.8698 68.22 50.3098 66.49 53.1898C63.28 58.2898 61.26 61.2498 60.44 62.0798C60.19 62.4898 59.9 62.6998 59.58 62.6998C59.26 62.6998 58.88 62.9098 58.47 63.3198C57.15 64.6398 56.5 65.4598 56.5 65.7898C56.5 66.1198 55.72 67.3898 54.16 69.6198C53.5 70.6098 52.93 71.4698 52.43 72.2098C51.94 72.9498 51.59 73.3198 51.38 73.3198C51.17 73.3198 50.45 74.4298 49.22 76.6498C48.23 78.4598 47.74 79.6898 47.74 80.3498C47.74 80.5198 47.78 80.5998 47.86 80.5998C48.19 80.5998 48.76 79.7798 49.59 78.1298C50.99 75.5798 51.81 74.2998 52.06 74.2998C52.14 74.2998 52.18 74.3198 52.18 74.3598V74.5498C52.18 74.7198 51.64 75.7798 50.58 77.7598C50 78.6698 49.24 79.8998 48.3 81.4598C47.35 83.0198 46.43 84.5498 45.52 86.0298C44.61 87.5098 43.85 88.7698 43.24 89.7898C42.62 90.8198 42.23 91.3498 42.07 91.3898C41.9 91.4298 41.82 91.6198 41.82 91.9498C41.82 92.2798 41.28 93.3498 40.22 95.1598L38.74 97.9998C38.74 98.0798 38.82 98.1198 38.99 98.1198L38.98 98.1098ZM42.68 97.1198C43.01 97.1198 43.25 96.8698 43.42 96.3798L45.64 92.3098C47.04 90.0098 47.74 88.7298 47.74 88.4798V88.3598C47.57 88.3598 46.67 89.6998 45.03 92.3698C43.38 95.0398 42.56 96.5898 42.56 96.9998C42.56 97.0798 42.6 97.1198 42.68 97.1198ZM44.28 96.7498L52.3 95.3898C57.81 94.3998 65.83 93.1298 76.36 91.5598C78.75 91.3098 81.09 91.1898 83.39 91.1898C87.26 91.1898 89.89 91.4398 91.29 91.9298L92.77 92.4198C92.85 92.3398 93.26 90.8998 94 88.0998C98.03 71.8098 100.66 61.6098 101.9 57.4898C104.12 49.4298 106.22 41.9798 108.19 35.1498C109.01 32.0198 109.42 30.2598 109.42 29.8398C109.42 28.3598 110.2 25.5998 111.76 21.5698C113.57 17.0498 114.48 12.6798 114.48 8.48977C114.48 7.49977 114.4 7.00977 114.23 7.00977C114.15 7.00977 113.88 7.23977 113.43 7.68977C112.98 8.13977 112.67 8.36977 112.5 8.36977H112.38V8.24977L112.5 7.75977L112.38 7.87977C112.3 7.87977 112.15 7.93976 111.95 8.06977C111.74 8.18976 111.52 8.35977 111.27 8.55977C111.02 8.76977 110.8 8.98977 110.59 9.23977C110.38 9.48977 110.16 9.72976 109.91 9.97976C110.24 9.72976 110.57 9.46977 110.9 9.17977C111.23 8.88977 111.47 8.74977 111.64 8.74977L111.76 8.86977C111.76 8.94977 111.27 9.48977 110.28 10.4698C107.81 12.5298 106.49 13.5598 106.33 13.5598L105.71 13.6798C105.13 14.0098 104.85 14.3198 104.85 14.6098C104.85 14.8998 104.73 15.0398 104.48 15.0398C104.23 15.0398 103.94 15.2098 103.62 15.5298C102.55 16.4398 102.02 17.0498 102.02 17.3798C102.02 17.7098 101.94 18.0198 101.77 18.3098C101.6 18.5998 101.4 18.7398 101.15 18.7398L100.78 18.6198L100.9 19.2398C100.9 19.4898 100.73 19.6298 100.41 19.6698C100.08 19.7098 99.81 19.8098 99.61 19.9798C99.4 20.1498 99.3 20.3098 99.3 20.4698V20.5898L99.79 20.4698C99.79 20.5498 99.67 20.7598 99.42 21.0898C99.17 21.4198 98.88 21.5798 98.56 21.5798H98.44C98.27 21.5798 97.78 21.9898 96.96 22.8098C96.14 23.6298 95.64 24.2498 95.48 24.6598C95.81 24.4098 96.12 24.1298 96.41 23.7998C96.7 23.4698 96.94 23.2298 97.15 23.0598C97.35 22.8998 97.5 22.8098 97.58 22.8098H97.7C97.7 23.0598 97.08 23.8798 95.85 25.2798C95.27 25.8598 94.76 26.3898 94.31 26.8798C93.86 27.3698 93.47 27.6798 93.14 27.8098C92.81 27.9298 92.65 28.1198 92.65 28.3698C92.65 28.6198 90.26 31.8698 85.49 38.1198C83.27 40.9998 79.57 46.1398 74.38 53.5498C73.31 55.1098 72.41 56.4098 71.67 57.4398C70.93 58.4698 70.56 59.0698 70.56 59.2298C70.56 59.3898 70.05 60.1398 69.02 61.4498C67.99 62.7698 67.43 63.4198 67.35 63.4198C67.18 63.4198 67.1 63.3798 67.1 63.2998L67.59 61.9398C67.84 61.4498 68.08 60.7098 68.33 59.7198C68.33 58.7298 69.19 57.2498 70.92 55.2798C71.58 54.5398 72.03 54.1698 72.28 54.1698C72.53 54.1698 73.22 53.3898 74.38 51.8298C75.53 50.2698 76.11 49.3198 76.11 48.9898C76.11 48.8298 75.9 48.7398 75.49 48.7398C75.08 48.7398 73.74 50.2998 71.48 53.4298C69.22 56.5598 66.77 60.1798 64.14 64.2898C63.07 66.0198 62.25 67.2898 61.67 68.1198C61.09 68.9398 60.66 69.4998 60.37 69.7898C60.08 70.0798 59.77 70.2198 59.44 70.2198C59.11 70.2198 58.64 70.6298 58.02 71.4498C57.4 72.2698 56.48 73.6298 55.24 75.5198C53.35 78.3998 51.76 80.9498 50.49 83.1698C49.21 85.3898 48.58 86.5898 48.58 86.7498C48.66 86.7498 50.1 84.6098 52.9 80.3298C56.44 74.5698 58.45 71.6898 58.95 71.6898H59.2C59.45 71.6898 60 71.2198 60.87 70.2698C61.73 69.3298 62.17 68.7298 62.17 68.4798C62.17 68.2298 62.56 67.5798 63.34 66.5098C64.12 65.4398 64.59 64.9098 64.76 64.9098C64.84 64.9098 64.88 64.9498 64.88 65.0298C64.88 65.4398 64.12 66.8198 62.6 69.1598C61.08 71.4998 60.07 72.7198 59.58 72.7998C59.09 72.8798 58.67 73.1298 58.35 73.5398C57.53 74.4498 57.12 75.2698 57.12 76.0098V76.3798C57.12 77.0398 56.26 78.6798 54.53 81.3198C53.79 82.5498 53.17 83.4598 52.68 84.0398C52.43 84.3698 52.25 84.5498 52.12 84.5998C52 84.6398 51.89 84.6598 51.81 84.6598C51.4 84.7398 51.15 85.0698 51.07 85.6498C50.99 86.2298 50.74 86.8798 50.33 87.6198C49.26 89.6798 48.56 90.7098 48.23 90.7098C47.9 90.7098 47.74 90.9198 47.74 91.3298C47.74 91.7398 47.51 92.5598 47.06 93.7998C46.61 95.0298 46.26 95.6498 46.01 95.6498C45.76 95.6498 45.62 95.4598 45.58 95.0898C45.54 94.7198 45.48 94.5298 45.39 94.5298L44.28 96.7498ZM51.93 83.7898L52.05 83.5398C52.21 83.3798 52.42 83.1298 52.67 82.7998C52.92 82.4698 53.16 82.0998 53.41 81.6898C53.66 81.2798 53.98 80.7598 54.4 80.1498C54.81 79.5298 55.2 78.9398 55.57 78.3598C55.94 77.7898 56.25 77.2898 56.5 76.8798C56.75 76.4698 56.87 76.2198 56.87 76.1398C56.79 76.1398 56.54 76.4098 56.13 76.9398C55.72 77.4798 55.24 78.1298 54.71 78.9098C54.17 79.6898 53.68 80.4698 53.23 81.2498C52.78 82.0298 52.45 82.6298 52.24 83.0398C52.03 83.4498 51.93 83.6998 51.93 83.7798V83.7898ZM76.12 47.8798C76.37 47.7198 76.49 47.5098 76.49 47.2598C76.49 47.1798 76.45 47.1398 76.37 47.1398C76.29 47.1398 76.16 47.1998 76 47.3298C75.83 47.4498 75.75 47.5998 75.75 47.7598C75.75 47.8398 75.79 47.8798 75.87 47.8798H76.12ZM77.35 47.0198C77.6 46.9398 77.72 46.7298 77.72 46.3998V45.9098C77.72 45.6598 77.78 45.4998 77.91 45.4198C78.03 45.3398 78.14 45.2998 78.22 45.2998L77.97 45.7898C77.97 45.8698 78.01 45.9098 78.09 45.9098L79.94 43.6898C80.68 42.7898 81.42 41.7998 82.16 40.7298C82.24 40.4798 82.53 40.0298 83.02 39.3698C85.41 36.2398 86.76 34.3498 87.09 33.6898C87.42 33.0298 87.58 32.5398 87.58 32.2098V31.9598C87.5 31.9598 87.23 32.4498 86.78 33.4398C86.33 34.4298 86.02 34.9198 85.85 34.9198C85.77 34.9198 85.68 34.8398 85.6 34.6698C85.52 34.5098 85.43 34.4198 85.35 34.4198V34.9098C85.35 35.3198 85.21 35.5298 84.92 35.5298C84.63 35.5298 84.49 35.7598 84.49 36.2098C84.49 36.6598 84 37.3798 83.01 38.3698C81.78 39.5998 80.44 41.1898 79 43.1198C77.56 45.0498 76.84 46.1898 76.84 46.5098C76.84 46.8298 77 46.9998 77.33 46.9998L77.35 47.0198ZM85.62 150.07C85.7 150.07 85.82 148.92 85.99 146.61C86.15 143.57 86.61 140.19 87.35 136.49C89.08 126.12 91.63 114.32 95 101.07L95.25 100.21C95.25 99.8798 95.04 99.7198 94.63 99.7198C93.89 99.7198 93.46 99.7998 93.33 99.9698C93.21 100.14 93.14 100.55 93.14 101.2C93.14 102.43 93.04 103.53 92.83 104.47C92.62 105.42 92.34 105.89 91.97 105.89C91.6 105.89 90.88 108.6 89.81 114.04C89.4 116.92 88.41 121.61 86.85 128.11C86.27 130.25 85.99 131.69 85.99 132.43C85.99 132.68 86.11 132.86 86.36 132.99C86.61 133.12 86.77 133.38 86.85 133.79C86.85 134.28 86.75 134.7 86.54 135.02C86.33 135.35 86.19 135.51 86.11 135.51C86.03 135.51 85.99 135.2 85.99 134.58C85.99 133.96 85.95 133.65 85.87 133.65C85.62 133.65 85.33 134.68 85.01 136.74C84.68 138.47 84.47 140.32 84.39 142.29V145.25C84.47 145.25 84.51 145.21 84.51 145.13C84.59 144.39 84.76 144.02 85 144.02C85.08 144.02 85.2 144.19 85.37 144.51V147.72C85.37 149.28 85.45 150.06 85.62 150.06V150.07ZM88.34 155.5C88.34 155.42 88.32 155.13 88.28 154.64C88.24 154.15 88.16 153.55 88.03 152.85C87.91 152.15 87.84 151.51 87.84 150.94C87.84 149.71 87.92 148.43 88.09 147.11L88.46 142.42C88.46 141.27 88.62 140.69 88.95 140.69C89.03 140.69 89.07 140.9 89.07 141.31C89.07 141.72 89.11 141.93 89.19 141.93C89.27 141.93 90.09 138.23 91.66 130.82L93.14 123.91C94.04 119.14 94.5 116.55 94.5 116.14C94.5 115.98 94.42 115.89 94.25 115.89C93.84 115.89 93.51 117.49 93.26 120.7L93.01 121.56C92.84 121.73 92.68 122.55 92.52 124.03C92.44 125.02 92.27 125.86 92.03 126.56C91.78 127.26 91.54 127.61 91.29 127.61V126.13L91.41 125.14C91.41 124.98 91.37 124.89 91.29 124.89L91.04 125.01C90.96 125.01 90.92 124.93 90.92 124.76C90.92 124.68 90.96 124.53 91.04 124.33C91.12 124.13 91.24 124.02 91.41 124.02H91.53C91.69 124.02 91.8 123.98 91.84 123.9C91.88 123.82 91.88 123.71 91.84 123.59C91.8 123.47 91.74 123.36 91.65 123.28C91.57 123.2 91.53 123.12 91.53 123.03L91.9 120.69C92.47 118.55 92.76 117.11 92.76 116.37C92.76 116.12 92.72 116 92.64 116C92.47 116 92.35 116.08 92.27 116.25C92.19 116.42 92.06 116.95 91.9 117.85L91.04 122.42C90.55 125.22 90.13 127.28 89.81 128.59C89.07 131.72 88.41 135.46 87.84 139.82C87.35 143.69 87.1 146.77 87.1 149.08C87.1 150.07 87.22 151.22 87.47 152.54C87.88 154.51 88.17 155.5 88.33 155.5H88.34ZM88.22 93.5498C88.63 93.5498 88.84 93.5098 88.84 93.4298L88.72 93.3098C87.98 93.3098 87.61 93.3498 87.61 93.4298C87.61 93.5098 87.81 93.5498 88.23 93.5498H88.22ZM88.71 30.8598C88.87 30.8598 89.12 30.6098 89.45 30.1198C89.78 29.6298 89.98 29.2998 90.07 29.1298H89.95C89.87 29.1298 89.74 29.2098 89.58 29.3798C89.41 29.5498 89.23 29.7498 89.02 29.9998C88.81 30.2498 88.71 30.4498 88.71 30.6198V30.8698V30.8598ZM90.56 28.5198C90.72 28.4398 91.03 28.1498 91.49 27.6598C91.94 27.1698 92.43 26.6098 92.97 25.9898C93.5 25.3698 94.02 24.7798 94.51 24.1998C95 23.6298 95.33 23.2098 95.5 22.9698C95.66 22.7198 95.75 22.5598 95.75 22.4798L95.38 22.7298C95.13 22.9798 94.72 23.4098 94.15 24.0298C93.57 24.6498 93 25.3298 92.42 26.0698C91.84 26.8098 91.39 27.3898 91.06 27.7998L90.57 28.5398L90.56 28.5198ZM92.04 105.03L92.29 104.41C92.45 104.08 92.54 103.75 92.54 103.42V103.17C92.46 103.17 92.37 103.29 92.29 103.54C92.21 103.79 92.12 104.01 92.04 104.22C91.96 104.43 91.92 104.61 91.92 104.78C91.92 104.95 91.96 105.03 92.04 105.03ZM94.75 115.27C94.91 115.27 96.02 110.83 98.08 101.94C98.9 98.2398 100.38 92.0698 102.52 83.4298C102.68 82.5298 102.97 81.3298 103.38 79.8498C103.79 78.3698 104.16 76.9298 104.49 75.5298L106.96 65.5298L106.71 65.6498C106.22 66.6398 105.97 67.3598 105.97 67.8098C105.97 68.2598 105.85 68.6098 105.6 68.8598C105.27 69.4398 105.02 70.2998 104.86 71.4498L104.37 73.0498C103.3 77.2498 102.6 80.3298 102.27 82.3098L101.9 83.1698C101.65 83.1698 101.53 82.9698 101.53 82.5498C101.53 81.9798 101.94 79.7898 102.76 76.0098C102.84 76.0098 102.88 75.9698 102.88 75.8898C103.13 74.6598 103.35 73.6698 103.56 72.9298C103.76 72.1898 103.91 71.6098 103.99 71.1998L104.11 70.0898L103.86 70.2098V70.3298C103.69 70.4998 103.47 70.9698 103.18 71.7498C102.89 72.5298 102.62 73.4198 102.38 74.3998C102.13 75.3898 101.97 76.2898 101.89 77.1098C101.81 77.5198 101.7 77.9698 101.58 78.4698C101.46 78.9698 101.33 79.3798 101.21 79.6998C101.09 80.0298 100.96 80.4198 100.84 80.8698C100.72 81.3198 100.61 81.7598 100.53 82.1698C100.45 82.5798 100.39 83.0998 100.34 83.7098C100.3 84.3298 100.24 84.8998 100.15 85.4398C100.07 85.9798 100.03 86.3698 100.03 86.6098C100.03 86.8498 100.07 87.0198 100.15 87.0998H100.27C100.43 87.0998 100.64 86.6898 100.89 85.8698C100.89 85.5398 100.93 85.3098 101.01 85.1898C101.09 85.0698 101.26 84.8398 101.5 84.5098C101.58 84.5098 101.62 84.5898 101.62 84.7598C101.62 85.0898 101.45 85.7298 101.13 86.6698C100.8 87.6198 100.62 88.3998 100.57 89.0098C100.53 89.6298 100.28 89.9598 99.83 89.9998C99.38 90.0398 99.03 90.2698 98.78 90.6798C98.2 91.4198 97.92 92.0398 97.92 92.5298C97.92 92.7798 97.96 92.9798 98.04 93.1498C98.04 93.7298 97.87 94.2398 97.55 94.6898C97.22 95.1398 96.99 95.6198 96.87 96.1098C96.75 96.5998 96.68 97.0598 96.68 97.4698C96.68 98.4598 96.6 99.0098 96.43 99.1398C96.26 99.2598 96.14 99.6098 96.06 100.19C95.81 101.92 95.69 103.36 95.69 104.51C95.69 104.92 95.79 105.13 96 105.13C96.21 105.13 96.31 105.38 96.31 105.87L95.94 108.46C95.86 108.46 95.77 108.27 95.69 107.9C95.61 107.53 95.44 107.34 95.2 107.34C95.12 107.34 94.99 107.4 94.83 107.53C94.66 107.65 94.58 107.88 94.58 108.21L94.7 108.46C94.7 108.54 94.66 108.58 94.58 108.58L94.46 108.46C94.21 108.46 94.09 108.89 94.09 109.76C94.09 110.63 93.84 111.47 93.35 112.29C92.69 113.69 92.36 114.59 92.36 115.01L92.61 115.26C93.02 115.1 93.31 114.52 93.47 113.53C93.88 112.13 94.33 111.02 94.83 110.2L95.2 109.83C95.28 109.83 95.32 109.87 95.32 109.95C95.32 110.12 95.18 110.88 94.89 112.23C94.6 113.59 94.46 114.39 94.46 114.64V115.07C94.46 115.19 94.54 115.26 94.71 115.26L94.75 115.27ZM96.11 96.3898C96.27 96.3898 96.56 95.3598 96.97 93.2998L97.71 89.8398C98.2 87.2898 98.53 85.9298 98.7 85.7698C98.95 84.5398 99.27 83.1198 99.69 81.5098C100.1 79.9098 100.43 78.4498 100.68 77.1298C101.42 73.9198 102.78 68.9798 104.75 62.3198L105.86 57.2598C105.78 57.2598 105.43 58.0998 104.81 59.7898C104.19 61.4798 103.7 62.5898 103.33 63.1198C102.96 63.6598 102.77 64.1498 102.77 64.5998C102.77 65.0498 102.19 67.1498 101.04 70.8898C99.89 74.6298 99.31 76.6898 99.31 77.0598C99.31 77.4298 99.14 77.8598 98.82 78.3598C98.16 79.4298 97.67 80.9898 97.34 83.0498C97.17 84.0398 97.01 84.6098 96.85 84.7798C96.69 84.9498 96.6 85.0698 96.6 85.1498V85.3998L96.72 85.8898C96.72 86.1398 96.6 86.3198 96.35 86.4498C96.1 86.5798 95.98 86.7198 95.98 86.8798L96.23 88.3598C96.23 88.6098 96.17 88.7898 96.04 88.9198C95.91 89.0498 95.77 89.4798 95.61 90.2198C95.61 90.3898 95.4 90.8798 94.99 91.6998C94.58 92.1098 94.37 92.3998 94.37 92.5598C94.37 92.9698 94.66 93.6698 95.23 94.6598L96.09 96.3898H96.11ZM97.71 20.2498L98.33 19.6298L99.32 18.6398C99.57 18.3898 99.69 18.2298 99.69 18.1498V18.0298C99.52 18.0298 98.99 18.6098 98.09 19.7598L97.72 20.2498H97.71ZM98.94 89.8498L99.93 87.8798L99.81 87.6298C99.73 87.6298 99.69 87.7098 99.69 87.8798C99.69 88.0498 99.67 88.1298 99.63 88.1298H99.2C99.03 88.1298 98.95 88.7098 98.95 89.8598L98.94 89.8498ZM104.37 68.2498C104.7 68.2498 105.15 67.1198 105.73 64.8598C106.3 62.5998 106.59 61.2998 106.59 60.9698V60.8498C106.51 60.8498 106.32 61.0598 106.03 61.4698C105.74 61.8798 105.6 62.4198 105.6 63.0698C105.6 63.3998 105.37 64.1198 104.92 65.2298C104.47 66.3398 104.24 67.1398 104.24 67.6398C104.24 68.0498 104.28 68.2598 104.36 68.2598L104.37 68.2498ZM107.08 59.1198C107.16 59.1198 107.22 59.0598 107.27 58.9298C107.31 58.8098 107.33 58.6998 107.33 58.6198C107.33 58.4598 107.29 58.3298 107.21 58.2498C107.04 58.2498 106.96 58.4198 106.96 58.7398L107.08 59.1098V59.1198ZM107.08 65.0398C107.16 65.0398 107.22 64.9798 107.27 64.8498C107.31 64.7298 107.33 64.6198 107.33 64.5398C107.33 64.3798 107.29 64.2498 107.21 64.1698C107.04 64.1698 106.96 64.3398 106.96 64.6598L107.08 65.0298V65.0398ZM107.33 57.6398C107.58 57.3898 107.7 56.9798 107.7 56.4098C107.7 55.8398 107.66 55.5498 107.58 55.5498C107.5 55.5498 107.39 55.7998 107.27 56.2898C107.15 56.7798 107.08 57.1498 107.08 57.3998C107.08 57.5698 107.12 57.6498 107.2 57.6498H107.32L107.33 57.6398ZM107.45 63.8098C107.53 63.7298 107.7 63.3198 107.94 62.5798L109.17 58.0098C109.58 56.1198 109.99 54.5098 110.4 53.1998C110.65 52.4598 110.77 51.9698 110.77 51.7198V51.5998C110.52 51.5998 110.32 51.8898 110.15 52.4598C109.98 53.0398 109.82 53.6098 109.66 54.1898L109.41 55.0498C108.83 57.3498 108.42 58.8398 108.18 59.4898C107.6 61.7898 107.32 63.1898 107.32 63.6898V63.8098H107.44H107.45ZM107.82 54.9198C107.9 54.9198 108.07 54.6698 108.31 54.1798C108.56 53.6898 108.68 53.2798 108.68 52.9498C108.68 52.8698 108.64 52.8298 108.56 52.8298C108.39 52.8298 108.23 53.0998 108.07 53.6298C107.9 54.1698 107.82 54.5598 107.82 54.7998V54.9198ZM108.81 51.8298L109.06 51.5798C109.14 51.4198 109.22 51.2098 109.31 50.9598C109.39 50.7098 109.43 50.5098 109.43 50.3398C109.43 50.0098 109.39 49.8498 109.31 49.8498L109.19 50.0998C109.02 50.2698 108.94 50.4098 108.94 50.5298C108.94 50.6498 108.9 51.0898 108.82 51.8298H108.81ZM109.92 48.6198C110 48.6198 110.11 48.4298 110.23 48.0598C110.35 47.6898 110.42 47.3398 110.42 47.0098C110.42 46.7598 110.34 46.6398 110.17 46.6398C110 46.6398 109.86 46.7598 109.74 47.0098C109.62 47.2598 109.6 47.5898 109.68 47.9998C109.68 48.4098 109.76 48.6198 109.93 48.6198H109.92ZM110.54 45.8998C110.87 45.5698 111.51 43.8798 112.45 40.8398C113.39 37.7998 113.87 35.9498 113.87 35.2898C113.79 35.2898 113.66 35.4298 113.5 35.7198C113.33 36.0098 113.13 36.4598 112.88 37.0798C112.63 37.6998 112.43 38.2698 112.26 38.8098C112.09 39.3498 111.89 39.9798 111.64 40.7198C111.39 41.4598 111.15 42.2198 110.9 42.9998C110.65 43.7798 110.47 44.3998 110.34 44.8498C110.22 45.2998 110.15 45.6098 110.15 45.7798L110.4 45.8998H110.52H110.54ZM110.91 51.0798C110.99 51.0798 111.05 51.0198 111.1 50.8898C111.14 50.7698 111.16 50.6198 111.16 50.4598C111.16 50.2998 111.08 50.2098 110.91 50.2098V51.0698V51.0798ZM111.16 49.3498C111.24 49.3498 111.45 49.0198 111.78 48.3598L112.15 46.8798L112.03 46.6298C111.95 46.6298 111.84 46.7698 111.72 47.0598C111.6 47.3498 111.47 47.6998 111.35 48.1098C111.23 48.5198 111.16 48.8898 111.16 49.2198V49.3398V49.3498ZM112.27 45.7698C112.43 45.7698 112.74 45.0698 113.2 43.6698C113.65 42.2698 113.88 41.4098 113.88 41.0798C113.71 41.0798 113.41 41.6998 112.95 42.9298C112.5 44.1598 112.27 45.0698 112.27 45.6398V45.7598V45.7698Z" fill="#BBB573"/>
<path d="M122.18 159.94C121.03 159.94 119.88 159.74 118.72 159.32C116.09 158.58 114.36 157.51 113.54 156.11C113.29 155.62 112.68 154.88 111.69 153.89C110.7 152.9 110.21 152.16 110.21 151.67L110.33 150.56C110.33 150.07 110.25 149.7 110.08 149.45C109.92 149.2 109.83 149 109.83 148.83C109.83 148.75 109.89 148.63 110.02 148.46C110.14 148.3 110.21 148.13 110.21 147.97C110.21 147.72 110.09 147.44 109.84 147.11C109.59 146.78 109.47 146.29 109.47 145.63C109.47 145.06 109.59 144.6 109.84 144.27C110.09 143.94 110.25 143.78 110.33 143.78L110.21 146.25C110.29 146.25 110.46 146.13 110.7 145.88C110.94 145.63 111.07 145.24 111.07 144.71C111.07 144.18 111.19 143.91 111.44 143.91C111.77 143.91 111.93 144.28 111.93 145.02L111.81 146.62C111.81 147.2 111.93 147.48 112.18 147.48C112.43 147.48 112.92 146.95 113.66 145.88C116.62 141.6 121.27 136.25 127.61 129.84C137.07 120.13 145.34 112.98 152.42 108.37C152.58 108.29 152.71 108.17 152.79 108C154.02 107.26 154.93 106.62 155.5 106.09C156.07 105.56 156.53 104.84 156.86 103.93L158.22 98.7499C159.04 95.2899 159.45 92.4999 159.45 90.3599C159.45 89.2899 159.28 88.6299 158.96 88.3899C158.63 88.1399 158.47 87.7699 158.47 87.2799C158.47 86.2099 158.14 85.1799 157.48 84.1899C156.82 83.1999 156.16 82.7099 155.51 82.7099C154.69 82.7099 153.33 83.2499 151.44 84.3099C146.5 87.0199 142.02 90.8099 137.99 95.6599C136.92 96.8899 136.39 97.6299 136.39 97.8799C136.39 98.1299 136.08 98.6599 135.46 99.4799C134.84 100.3 134.41 100.71 134.16 100.71V100.59C134.08 100.67 134.04 100.8 134.04 100.96C134.04 101.12 133.05 102.69 131.08 105.65C122.28 118.4 117.71 127.91 117.38 134.16C117.21 136.38 116.76 137.49 116.02 137.49H115.77C115.44 137.49 115.19 137.61 115.03 137.86C114.86 138.11 114.66 138.23 114.41 138.23C113.67 138.23 112.6 137.57 111.2 136.26L109.47 134.66L109.22 128.61C109.22 126.39 109.34 124.58 109.59 123.18C110.66 116.11 112.72 107.14 115.76 96.2799C116.42 94.3099 116.75 92.6199 116.75 91.2199C116.75 90.3999 116.95 89.6999 117.37 89.1199C117.7 88.8699 118.19 87.7599 118.85 85.7899C121.81 76.3299 125.1 68.0599 128.72 60.9799C131.02 56.6199 132.67 53.5799 133.66 51.8499C134.81 49.7899 136.42 47.1999 138.47 44.0799C141.93 38.9799 145.17 34.5399 148.22 30.7499L149.33 29.3899C153.2 24.6199 157.72 19.5199 162.91 14.0899C166.53 10.3099 168.61 8.40986 169.14 8.40986C169.67 8.40986 170.13 8.32986 170.5 8.15986C170.87 7.99986 171.06 7.82986 171.06 7.66986C171.06 7.41986 170.87 7.29986 170.5 7.29986C170.13 7.29986 169.94 7.21986 169.94 7.04986C169.94 6.71986 170.84 6.01986 172.66 4.94986C174.06 4.20986 175.31 3.67986 176.42 3.34986C177.53 3.01986 178.87 2.85986 180.43 2.85986C181.33 2.85986 182.28 3.28986 183.27 4.15986C184.26 5.01986 184.89 5.80986 185.18 6.49986C185.47 7.19986 185.61 8.08986 185.61 9.14986C185.61 12.8499 183.1 19.0199 178.08 27.6599C173.97 34.8199 166.23 45.9699 154.88 61.0999C143.53 76.2399 134.6 86.4799 128.1 91.8299C126.54 92.9799 125.76 93.7999 125.76 94.2999C125.59 94.6299 125.1 96.1899 124.28 98.9899L123.17 102.94C123.33 102.94 123.91 102.16 124.9 100.6C126.79 98.0499 128.36 96.1199 129.59 94.7999C130.16 94.2299 130.78 93.4399 131.44 92.4599C137.03 85.3899 142.96 80.9399 149.21 79.1299C150.03 78.9699 150.94 78.8799 151.93 78.8799C154.73 78.8799 156.78 79.2899 158.1 80.1099C158.35 80.3599 158.67 80.5599 159.09 80.7299C160.82 81.6399 162.13 82.5999 163.04 83.6299C163.94 84.6599 164.64 85.7699 165.14 86.9599C165.63 88.1499 165.92 89.4499 166 90.8499V99.7399C170.61 97.9299 174.39 97.0199 177.35 97.0199C180.31 97.0199 183.03 97.7599 185.25 99.2399C187.14 100.39 188.09 101.67 188.09 103.07C188.09 104.8 187.39 105.95 185.99 106.53C185.25 106.86 184.67 107.02 184.26 107.02C183.85 107.02 183.64 106.08 183.64 104.18C183.64 102.86 183.54 101.98 183.33 101.53C183.12 101.08 182.32 100.85 180.92 100.85C177.63 100.85 173.68 101.92 169.07 104.06C167.75 104.64 166.52 105.29 165.37 106.03C164.22 106.77 163.64 107.26 163.64 107.51C163.64 108.5 161.91 112.78 158.46 120.34C156.98 123.38 155.09 126.88 152.78 130.83C150.48 134.78 148.58 137.74 147.1 139.72C146.44 140.63 144.71 142.81 141.92 146.26C136.49 153.01 131.76 157.12 127.73 158.6C125.84 159.51 123.99 159.96 122.18 159.96V159.94ZM112.55 121.19C112.63 121.19 112.94 120.62 113.48 119.46C114.01 118.31 114.36 117.36 114.53 116.62C114.69 115.88 114.98 114.56 115.39 112.67C116.46 107.9 117.16 105.02 117.49 104.03L118.85 99.2199C119.26 97.3299 119.67 95.8099 120.08 94.6499L120.2 94.0299L119.95 93.9099C119.29 93.9099 118.96 94.3599 118.96 95.2699C118.88 95.5999 118.79 95.9499 118.71 96.3199C118.63 96.6899 118.54 96.9799 118.46 97.1799C118.38 97.3899 118.29 97.6099 118.21 97.8599C118.13 98.1099 118 98.3999 117.84 98.7199C117.26 99.7899 116.15 103.95 114.51 111.18C114.26 112.09 114.02 113.28 113.77 114.76L112.54 121.18L112.55 121.19ZM115.64 114.77L116.26 113.78C116.34 113.53 116.45 113.25 116.57 112.92C116.69 112.59 116.76 112.3 116.76 112.06C116.76 111.65 116.72 111.44 116.64 111.44C116.47 111.44 116.15 112.55 115.65 114.77H115.64ZM117 153.64C119.47 153.64 122.63 152.41 126.5 149.94C128.23 148.79 129.59 147.76 130.57 146.85C131.89 145.53 133.63 143.54 135.81 140.86C137.99 138.19 139.78 135.78 141.18 133.64C143.15 130.76 144.27 129.32 144.51 129.32C144.67 129.32 144.76 129.49 144.76 129.81C144.76 130.06 144.66 130.26 144.45 130.43C144.24 130.6 144.14 130.8 144.14 131.05V131.17C144.3 131.17 144.71 130.6 145.37 129.44C150.39 120.72 152.9 115.82 152.9 114.75C152.9 114.59 152.86 114.5 152.78 114.5C152.61 114.5 152.47 114.62 152.35 114.87C152.23 115.12 150.72 116.35 147.85 118.57C145.88 120.13 143.2 122.56 139.83 125.85C130.94 134.49 125.1 140.58 122.31 144.11C118.11 149.46 116.02 152.5 116.02 153.24C116.02 153.49 116.35 153.61 117.01 153.61L117 153.64ZM116.88 110.45C116.96 110.45 117.07 110.29 117.19 109.96C117.31 109.63 117.38 109.22 117.38 108.73V108.36C117.3 108.36 117.19 108.59 117.07 109.04C116.95 109.49 116.88 109.93 116.88 110.34V110.46V110.45ZM120.95 157.84C121.28 157.84 121.61 157.8 121.94 157.72C122.27 157.64 123.17 157.6 124.66 157.6L123.3 156.98C123.3 156.73 124.02 156.26 125.46 155.56C126.9 154.86 127.74 154.51 127.99 154.51C128.24 154.51 128.65 154.22 129.22 153.65L131.56 151.43C135.92 147.07 139.83 142.3 143.28 137.11L145.01 134.52H145.13C145.38 134.52 145.5 134.64 145.5 134.89C145.5 135.22 145.09 135.96 144.27 137.11L142.67 139.58C143 139.58 144.27 137.94 146.5 134.64L149.34 129.83C149.67 129.34 149.83 128.89 149.83 128.47C149.83 128.31 149.79 128.22 149.71 128.22C149.46 128.22 149.24 128.43 149.03 128.84C148.82 129.25 148.68 129.46 148.6 129.46V129.21C148.6 129.05 148.52 128.96 148.35 128.96C148.1 128.96 147.61 129.45 146.87 130.44C146.13 131.43 145.72 131.92 145.64 131.92C145.64 131.67 146.21 130.6 147.37 128.71C148.93 126.08 150.87 122.5 153.17 117.97C154.57 115.34 155.27 113.86 155.27 113.53L155.15 113.41C155.07 113.41 153.96 115.47 151.82 119.58C148.69 125.42 146.72 128.75 145.9 129.58C145.65 129.83 145.45 130.2 145.28 130.69C144.79 131.43 144.37 131.84 144.05 131.92C143.72 132 143.56 132.13 143.56 132.29H143.68C143.76 132.37 143.8 132.5 143.8 132.66C143.8 132.99 143.31 133.89 142.32 135.38L140.22 138.59C138.57 141.06 137.46 142.58 136.89 143.16C135.16 145.05 134.3 146.08 134.3 146.25C134.3 146.74 132.45 148.39 128.75 151.19C126.28 153 124.14 154.23 122.33 154.89C120.52 155.55 119.24 155.88 118.5 155.88L118.01 155.76C117.84 155.76 117.76 155.93 117.76 156.25C117.76 156.74 118.11 157.14 118.81 157.42C119.51 157.71 120.23 157.85 120.97 157.85L120.95 157.84ZM117.86 106.38C117.94 106.38 118 106.32 118.05 106.19C118.09 106.07 118.11 105.92 118.11 105.76C118.11 105.6 118.07 105.51 117.99 105.51C117.91 105.51 117.87 105.68 117.87 106V106.37L117.86 106.38ZM118.35 104.9C118.43 104.9 118.55 104.61 118.72 104.04L119.09 102.31C119.09 102.23 119.05 102.19 118.97 102.19C118.89 102.19 118.76 102.48 118.6 103.05L118.23 104.78C118.23 104.86 118.27 104.9 118.35 104.9ZM119.21 101.07L119.7 100.21C120.03 99.7199 120.19 99.0999 120.19 98.3599C120.19 97.9499 120.15 97.7399 120.07 97.7399L119.95 98.2299C119.87 98.4799 119.76 98.7699 119.64 99.0899C119.52 99.4199 119.43 99.7299 119.39 100.02C119.35 100.31 119.29 100.66 119.2 101.07H119.21ZM120.57 97.3699C120.73 97.3699 120.82 97.3299 120.82 97.2499C120.82 97.1699 120.78 97.0499 120.7 96.8799C120.62 96.7199 120.53 96.6299 120.45 96.6299C120.28 96.6299 120.2 96.7499 120.2 96.9999C120.2 97.2499 120.32 97.3699 120.57 97.3699ZM120.57 90.9499C121.06 90.9499 122.13 88.4799 123.78 83.5499C124.27 82.0699 124.79 80.6699 125.32 79.3499C125.85 78.0299 126.25 76.9599 126.49 76.1399C127.56 73.5899 129.9 68.5699 133.52 61.0799C134.01 60.0099 134.26 59.3899 134.26 59.2299C134.26 59.0699 136.11 55.8999 139.81 49.7299C140.63 48.4099 141.33 47.3199 141.91 46.4599C142.48 45.5999 143.27 44.0999 144.25 41.9599C145.24 39.8199 146.76 37.3099 148.82 34.4299C150.46 32.1299 151.29 30.8899 151.29 30.7299L146.72 36.5299C143.43 40.8899 139.93 45.9899 136.23 51.8299C135.32 53.3899 133.84 56.1899 131.79 60.2199C127.26 69.2699 125 74.4499 125 75.7699L125.12 76.2599C125.12 76.5099 125.04 76.6299 124.87 76.6299C124.7 76.6299 124.62 76.6699 124.62 76.7499V77.4899C124.62 77.8999 124.33 78.6399 123.76 79.7099C122.36 82.6699 121.66 84.8499 121.66 86.2499L121.78 86.8699C121.78 87.2799 121.68 87.5499 121.47 87.6699C121.26 87.7899 121.08 88.0599 120.91 88.4699C120.58 89.3799 120.42 90.0299 120.42 90.4399C120.42 90.6899 120.46 90.8499 120.54 90.9299L120.57 90.9499ZM122.67 88.9799C122.92 88.9799 123.33 88.4499 123.9 87.3799C124.15 86.8899 125.26 84.1699 127.23 79.2299C127.97 77.2599 129.04 74.6599 130.44 71.4599C132.5 66.6099 133.53 63.8499 133.53 63.1899C133.53 63.1099 133.49 63.0699 133.41 63.0699C133.24 63.0699 132.3 64.9999 130.57 68.8699L127.61 75.5299C127.44 75.9399 127.22 76.4799 126.93 77.1299C126.64 77.7899 126.42 78.4099 126.25 78.9799C125.43 80.9499 124.65 83.0099 123.91 85.1499C123.5 86.7999 123.13 87.9099 122.8 88.4799L122.68 88.9699L122.67 88.9799ZM123.16 76.7599C123.24 76.7599 123.78 75.5699 124.76 73.1799L125.13 72.1899L128.22 65.6499L129.58 62.1899C129.58 62.0299 129.54 61.9399 129.46 61.9399C129.29 61.9399 128.18 64.2199 126.13 68.7899C124.07 73.3599 123.04 75.9699 123.04 76.6299C123.04 76.7099 123.08 76.7499 123.16 76.7499V76.7599ZM125.75 156.85C125.91 156.85 126.18 156.75 126.55 156.54C126.92 156.34 127.11 156.11 127.11 155.86L126.62 155.74C126.37 155.82 126.13 155.95 125.88 156.11C125.63 156.28 125.51 156.44 125.51 156.6C125.51 156.76 125.59 156.85 125.76 156.85H125.75ZM128.22 155.86C128.55 155.86 128.75 155.7 128.84 155.37H128.72C128.64 155.37 128.49 155.41 128.29 155.49C128.08 155.57 127.98 155.66 127.98 155.74C127.98 155.82 128.06 155.86 128.23 155.86H128.22ZM129.33 155C129.41 155 129.72 154.92 130.26 154.75C130.79 154.59 131.06 154.34 131.06 154.01V153.89C130.89 153.89 130.57 154.06 130.07 154.38C129.58 154.71 129.33 154.92 129.33 155ZM129.7 82.3099C130.03 82.3099 131.51 80.8299 134.14 77.8699L140.68 70.0999C142.41 67.7999 143.52 66.4799 144.01 66.1499C144.17 65.9899 144.34 65.7999 144.5 65.5899C144.66 65.3899 144.83 65.2399 144.99 65.1599C145.15 64.6699 147.71 61.2899 152.64 55.0399C154.37 52.8199 155.48 51.3399 155.97 50.5999C156.46 49.8599 156.9 49.2399 157.27 48.7499C157.64 48.2599 158.11 47.5999 158.69 46.7799L161.65 42.8299C163.54 40.2799 165.74 37.0499 168.25 33.1399C170.76 29.2299 172.63 26.1699 173.87 23.9499C173.95 23.6999 174.16 23.3299 174.49 22.8399C174.98 21.8499 175.56 20.8199 176.22 19.7499C179.1 14.3999 180.54 10.4099 180.54 7.77986C180.54 7.11986 180.46 6.78986 180.29 6.78986L179.67 7.03986C177.04 8.35986 172.76 12.4699 166.84 19.3799C165.93 20.5299 163.98 22.7699 160.98 26.1099C157.98 29.4399 153.59 34.9799 147.84 42.7099L145.87 45.4199C144.96 46.6499 144.51 47.3499 144.51 47.5199L145 47.3999L145.12 47.5199C145.12 47.7699 144.71 48.5099 143.89 49.7399C143.23 50.5599 142.45 51.8399 141.55 53.5699C139 58.3399 137.72 61.0399 137.72 61.6499C137.72 62.2599 137.55 62.7399 137.23 63.0699C136.32 64.6299 135.21 67.2699 133.9 70.9699L132.54 74.6699C130.98 78.9499 130.09 81.2499 129.89 81.5799C129.68 81.9099 129.58 82.1199 129.58 82.1999L129.7 82.3199V82.3099ZM130.69 59.7299C130.85 59.7299 131.18 59.2799 131.68 58.3699L132.05 57.2599H131.93C131.85 57.2599 131.62 57.6499 131.25 58.4299C130.88 59.2099 130.69 59.6399 130.69 59.7299ZM131.31 153.89C132.46 153.07 133.98 151.79 135.88 150.06C139.5 146.44 142.87 142.41 146 137.97C147.32 136.08 147.97 134.88 147.97 134.39C147.97 134.23 148.13 134.1 148.46 134.02C148.79 133.94 148.95 133.71 148.95 133.34C148.95 132.97 149.15 132.54 149.57 132.04C149.98 131.55 150.47 130.77 151.05 129.7C153.35 125.67 154.51 123.41 154.51 122.91H154.39C154.22 122.91 153.44 124.19 152.05 126.74C150.73 129.04 150.08 130.3 150.08 130.5C150.08 130.7 149.87 130.93 149.46 131.18C149.13 131.18 148.97 131.39 148.97 131.8C148.97 132.21 148.87 132.42 148.66 132.42C148.45 132.42 148.35 132.5 148.35 132.67V132.79C148.35 133.2 148.02 133.74 147.36 134.39C146.54 135.38 146.13 136.06 146.13 136.43C146.13 136.8 145.72 137.36 144.9 138.1C144.08 138.84 143.67 139.31 143.67 139.52C143.67 139.73 143.59 139.91 143.42 140.08C142.84 140.66 142.47 140.94 142.31 140.94H142.19C142.11 140.86 142.15 140.74 142.31 140.57C142.31 140.49 142.27 140.45 142.19 140.45C142.11 140.45 141.98 140.62 141.82 140.94C141.16 141.93 140.81 142.54 140.77 142.79C140.73 143.04 140.65 143.33 140.52 143.65C140.4 143.98 140.21 144.27 139.96 144.51C139.71 144.75 139.51 145.02 139.34 145.31C139.17 145.6 139.07 145.85 139.03 146.05C138.99 146.26 138.84 146.52 138.6 146.85C137.78 147.76 137.14 148.21 136.69 148.21C136.24 148.21 136.01 148.38 136.01 148.7C136.01 149.02 135.56 149.52 134.65 150.18C134.24 150.51 133.95 150.67 133.79 150.67C133.63 150.67 133.54 150.79 133.54 151.04C133.54 151.29 132.8 152.23 131.32 153.88L131.31 153.89ZM142.66 47.7599C142.82 47.7599 144.22 46.0299 146.86 42.5799C147.27 41.9199 147.52 41.5699 147.6 41.5299C147.68 41.4899 147.76 41.2999 147.85 40.9699C147.68 40.9699 146.78 42.0599 145.14 44.2399C143.49 46.4199 142.67 47.5899 142.67 47.7599H142.66ZM145.38 134.02H145.13C144.88 134.02 144.76 133.98 144.76 133.9C144.76 133.74 144.95 133.49 145.32 133.16C145.69 132.83 146.06 132.5 146.43 132.17C146.8 131.84 147.07 131.68 147.23 131.68C147.31 131.68 147.35 131.76 147.35 131.93L147.1 132.79C146.69 133.45 146.38 133.78 146.17 133.78C145.96 133.78 145.7 133.86 145.37 134.03L145.38 134.02ZM146.24 139.08C146.32 139.08 146.4 139.04 146.49 138.96C146.57 138.88 146.69 138.63 146.86 138.22L146.74 138.1L146.49 138.35C146.32 138.52 146.24 138.72 146.24 138.97V139.09V139.08ZM149.94 127.6C150.02 127.6 150.14 127.5 150.31 127.29C150.47 127.09 150.64 126.82 150.8 126.49C150.96 126.16 151.05 125.87 151.05 125.63V125.51L150.43 126.25C150.02 126.74 149.81 127.16 149.81 127.48L149.93 127.6H149.94ZM150.19 38.1299C150.27 38.1299 150.35 38.0099 150.44 37.7599L150.56 37.3899C150.56 37.3099 150.52 37.2699 150.44 37.2699L150.32 37.3899C150.15 37.4699 150.07 37.6399 150.07 37.8799C150.07 38.0499 150.11 38.1299 150.19 38.1299ZM151.18 125.01C151.26 125.01 151.51 124.64 151.92 123.9L152.41 122.79C152.24 122.79 152 123.12 151.67 123.78C151.34 124.44 151.18 124.85 151.18 125.01Z" fill="#BBB573"/>
<path d="M184.5 122.05C183.68 122.05 182.65 121.89 181.41 121.56C180.18 121.23 178.94 120.2 177.71 118.47C177.14 117.81 176.85 117.28 176.85 116.87C176.85 116.46 176.48 115.88 175.74 115.14C174.34 113 173.64 109.83 173.64 105.64C173.64 102.76 174.01 100.09 174.75 97.6196C177.71 89.7996 182.44 82.8096 188.94 76.6396L191.28 74.5396C191.03 74.1296 190.72 73.6796 190.35 73.1796C189.98 72.6796 189.79 72.2796 189.79 71.9496C189.79 71.8696 189.81 71.7896 189.85 71.6996C189.89 71.6196 190.12 71.5796 190.53 71.5796C191.76 71.7496 192.69 72.0096 193.31 72.3796C193.93 72.7496 194.44 72.9396 194.85 72.9396C195.1 72.9396 195.42 72.8796 195.84 72.7496C196.25 72.6296 196.74 72.5596 197.32 72.5596C198.55 72.5596 199.89 73.1796 201.33 74.4096C202.77 75.6396 203.51 76.6496 203.55 77.4296C203.59 78.2096 206.28 78.5996 211.63 78.5996C219.53 78.5996 227.71 77.6996 236.19 75.8796C237.83 75.8796 238.7 75.8996 238.78 75.9396C238.86 75.9796 239.05 75.9996 239.34 75.9996C239.63 75.9996 239.85 76.0396 240.02 76.1196C240.18 76.1996 240.31 76.2396 240.39 76.2396C240.47 76.2396 240.55 76.2796 240.64 76.3596H240.76L241.01 76.6096C240.68 76.6896 240.45 76.7296 240.33 76.7296C240.21 76.7296 239.44 76.9396 238.05 77.3496L241.26 76.8596C241.34 76.9396 241.38 76.9996 241.38 77.0496C241.38 77.0996 241.4 77.1296 241.44 77.1696C241.48 77.2096 241.52 77.2496 241.56 77.2896C241.6 77.3296 241.64 77.3896 241.68 77.4796C241.72 77.5596 241.76 77.6696 241.8 77.7896C241.84 77.9096 241.86 78.0596 241.86 78.2196V79.2096L241.61 80.4396L241.36 80.9296H241.24L240.99 81.2996H240.87V81.4196C231.16 83.3896 222.61 84.3796 215.2 84.3796C212.81 84.3796 210.59 84.2996 208.54 84.1296C207.8 83.9696 207.18 83.8796 206.69 83.8796H205.95L207.18 86.9696C208.25 89.5996 208.78 92.4396 208.78 95.4896C208.78 97.7096 208.61 99.5596 208.29 101.04C208.04 101.95 207.63 103.06 207.06 104.37C205.17 108.57 202.37 112.35 198.67 115.72C197.11 117.12 195.71 118.15 194.47 118.81C193.24 119.47 190.97 120.25 187.68 121.15C186.94 121.4 186.38 121.6 186.01 121.77C185.64 121.94 185.12 122.02 184.47 122.02L184.5 122.05ZM181.91 115.51C183.23 115.51 185.24 114.98 187.96 113.91C191.66 112.35 195.01 109.84 198.02 106.38C201.02 102.92 202.94 99.1396 203.76 95.0296C204.01 93.7096 204.13 92.4396 204.13 91.1996C204.13 88.7296 203.59 86.4696 202.53 84.4096C201.95 83.3396 201.34 82.8096 200.68 82.8096H200.31C199.57 82.8096 199.12 82.7096 198.95 82.4996C198.78 82.2996 198.62 82.1696 198.46 82.1296C198.29 82.0896 198.07 82.0496 197.78 82.0096C197.49 81.9696 197.27 81.7796 197.1 81.4496C196.93 81.1196 196.85 80.8296 196.85 80.5896L196.97 79.9696C196.97 79.8896 196.93 79.8496 196.85 79.8496C196.52 79.8496 195.47 80.7396 193.7 82.4996C191.93 84.2696 191.03 85.2396 190.99 85.3996C190.95 85.5696 190.8 85.7696 190.56 86.0196C189.16 87.7496 188.01 89.3096 187.1 90.7096C184.14 95.4796 182.2 99.0196 181.3 101.32C179.82 104.86 179.08 108.27 179.08 111.56C179.08 113.53 179.25 114.69 179.57 115.02C179.9 115.35 180.68 115.51 181.91 115.51ZM235.1 78.1196C235.35 78.1196 235.66 78.0796 236.03 77.9996C236.4 77.9196 236.73 77.8396 237.02 77.7496C237.31 77.6696 237.49 77.5896 237.58 77.4996C236.84 77.4996 236.22 77.5596 235.73 77.6896C235.24 77.8096 234.99 77.9596 234.99 78.1196H235.11H235.1Z" fill="#BBB573"/>
<path d="M266.69 125.51C265.87 125.51 264.94 125.28 263.91 124.83C262.88 124.38 262.37 124.03 262.37 123.78C262.12 123.53 261.88 123.41 261.63 123.41C260.81 123.41 259.76 122.32 258.48 120.14C257.2 117.96 256.57 115.27 256.57 112.06C256.57 109.51 256.98 106.59 257.8 103.3C258.29 101.82 258.54 100.87 258.54 100.46C258.46 100.46 257.94 101.06 257 102.25C256.05 103.44 254.9 104.95 253.54 106.75C252.18 108.56 250.84 110.39 249.53 112.24C248.21 114.09 247.08 115.72 246.14 117.11C245.19 118.51 244.37 119.54 243.67 120.2C242.97 120.86 242.09 121.48 241.02 122.05C239.95 122.63 238.92 122.91 237.93 122.91C235.79 122.66 234.39 122.21 233.73 121.55C233.4 121.22 233.09 121.06 232.8 121.06C232.51 121.06 232.16 120.86 231.75 120.44C230.11 118.22 229.28 116.2 229.28 114.39C229.28 113.65 229.36 112.87 229.53 112.05C230.52 103.82 234.51 92.9599 241.5 79.4699C242.49 77.4999 243.43 76.2599 244.34 75.7699C244.75 75.5199 245.28 75.3999 245.94 75.3999C246.43 75.3999 246.68 75.5699 246.68 75.8899C246.68 76.2099 246.93 76.3799 247.42 76.3799C247.91 76.3799 248.49 76.7099 249.15 77.3699C249.56 77.6999 249.83 77.9699 249.95 78.1699C250.07 78.3799 250.14 79.0599 250.14 80.2099C249.97 81.6899 249.4 83.3399 248.41 85.1499L247.05 88.3599C247.05 88.6099 246.27 90.3799 244.71 93.6699C243.39 96.2199 241.83 99.9199 240.02 104.78C238.37 109.22 237.22 113.38 236.56 117.24L236.31 118.35C237.46 117.03 238.45 116.09 239.27 115.51C240.83 114.19 243.59 111.07 247.54 106.13L254.45 97.9799C255.19 96.9899 255.93 96.0899 256.67 95.2699C258.31 93.4599 260.29 91.1599 262.59 88.3599C263.82 86.8799 264.81 85.3199 265.55 83.6699C267.85 79.0599 269.56 75.9599 270.67 74.3499C271.78 72.7399 272.79 71.9399 273.69 71.9399C274.18 71.9399 274.49 72.0199 274.62 72.1899C274.74 72.3599 275.09 72.5999 275.67 72.9299C276.24 72.9299 276.7 73.4699 277.03 74.5299C277.28 75.0199 277.4 75.5199 277.4 76.0099L276.91 77.8599C276.5 79.2599 275.96 80.3699 275.31 81.1899C271.85 86.3699 268.69 93.2799 265.81 101.92C263.84 108.09 262.85 112.95 262.85 116.48C262.85 117.3 262.91 118.13 263.04 118.95C263.16 119.77 263.31 120.23 263.47 120.31C263.96 120.56 264.46 120.68 264.95 120.68C265.2 120.68 265.42 120.56 265.63 120.31C265.83 120.06 266.39 119.86 267.3 119.69C269.36 119.2 272.03 117.72 275.32 115.25C276.96 113.93 279.52 111.51 282.97 107.97C287.74 103.2 291.69 98.6699 294.82 94.3899C295.89 92.9899 297.21 91.0999 298.77 88.7099L299.51 87.7199C299.59 87.7199 299.65 87.7799 299.7 87.9099C299.74 88.0299 299.8 88.1799 299.89 88.3399V89.8199C299.89 91.1399 299.81 92.2499 299.64 93.1499C299.31 94.7099 297.91 97.3099 295.44 100.92L290.38 107.71C289.8 108.37 289.39 108.9 289.15 109.31C288.49 110.13 286.06 112.73 281.87 117.08L280.14 119.05C279.56 119.71 278.58 120.51 277.18 121.46C275.78 122.41 274.61 123.11 273.66 123.56C272.71 124.01 272.16 124.32 271.99 124.49C271.82 124.66 271.45 124.82 270.88 124.98C269.65 125.31 268.25 125.47 266.68 125.47L266.69 125.51Z" fill="#BBB573"/>
<path d="M300.87 187.58H300.25C299.84 187.5 299.36 187.37 298.83 187.21C298.29 187.04 297.84 186.84 297.47 186.59C297.1 186.34 296.67 186.05 296.17 185.73C295.68 185.4 295.26 185.09 294.94 184.8C294.61 184.51 294.28 184.29 293.95 184.12C293.62 183.95 293.38 183.85 293.21 183.81C293.05 183.77 292.74 183.48 292.28 182.95C291.83 182.41 291.31 181.74 290.74 180.91C288.6 178.28 287.53 173.55 287.53 166.72C287.53 162.93 287.82 158.6 288.39 153.7C288.97 148.81 289.75 144.05 290.73 139.45C298.05 106.05 311.34 71.3696 330.59 35.4196L326.27 35.5396L313.81 36.6496C311.92 36.8996 310.91 37.0596 310.79 37.1396C310.67 37.2196 310.52 37.2596 310.36 37.2596L308.76 37.3796C307.94 37.5496 306.87 37.6696 305.55 37.7496C304.23 37.8296 302.55 37.9596 300.49 38.1196L289.51 39.2296C272.97 40.7096 261 41.8996 253.6 42.8096C252.37 42.9796 250.76 43.0996 248.79 43.1796C245.83 43.4296 242.87 43.5496 239.9 43.5496C239.41 43.3896 238.91 43.0596 238.42 42.5596C237.93 42.0596 237.68 41.6796 237.68 41.3896C237.68 41.0996 237.66 40.9396 237.62 40.8996C237.58 40.8596 237.46 40.8196 237.25 40.7796C237.05 40.7396 236.94 40.3496 236.94 39.6096C236.94 38.9496 237.02 38.5396 237.19 38.3796C237.36 38.2196 237.52 37.9496 237.68 37.5796C237.85 37.2096 237.95 36.9596 237.99 36.8396C238.03 36.7196 238.5 36.6496 239.41 36.6496C241.55 36.6496 242.93 36.6296 243.54 36.5896C244.16 36.5496 244.8 36.3196 245.45 35.9096C246.11 35.4996 246.89 35.2896 247.79 35.2896H249.02C249.6 35.3696 250.21 35.6996 250.87 36.2796C251.04 36.5296 251.2 36.6696 251.36 36.7096C251.53 36.7496 251.9 36.7696 252.47 36.7696C253.13 36.7696 254.32 36.6896 256.05 36.5196L271.97 35.2896C272.96 35.2896 273.45 35.3296 273.45 35.4096C273.45 35.4896 273.35 35.5496 273.14 35.5996C272.94 35.6396 272.69 35.6596 272.4 35.6596C272.11 35.6596 271.8 35.6996 271.47 35.7796C271.14 35.8596 270.9 35.8996 270.73 35.8996L270.36 36.0196H270.98C274.27 36.0196 282.7 35.3996 296.28 34.1696L304.8 33.4296C313.6 32.6896 318.85 32.2596 320.53 32.1296C322.22 32.0096 323.76 31.8596 325.16 31.6996C329.36 31.4496 331.91 31.2496 332.81 31.0796L337.25 23.3096C341.12 16.1496 343.67 11.7496 344.9 10.1096C345.89 8.54957 346.38 7.55957 346.38 7.14957C346.71 5.58957 347.74 4.80957 349.47 4.80957C350.13 4.80957 350.91 5.01957 351.81 5.42957C353.62 6.33957 354.53 6.98957 354.53 7.39957C354.53 7.47957 354.61 7.58957 354.78 7.70957C354.94 7.82957 355.19 7.89957 355.52 7.89957C356.18 8.06957 356.71 8.49957 357.12 9.19957C357.53 9.89957 357.74 10.6996 357.74 11.6096C357.74 12.4296 357.49 13.0496 357 13.4596C356.75 13.6296 356.46 14.0396 356.14 14.6896C356.06 15.1796 355.56 16.1696 354.66 17.6496C353.75 19.1296 352.73 20.5696 351.57 21.9696C350.25 23.6996 348.44 26.4096 346.14 30.1196C350.34 29.7896 354.39 29.4796 358.3 29.1896C362.21 28.8996 365.15 28.6796 367.12 28.5096C369.09 28.3496 371.56 28.2196 374.52 28.1396H398.46C399.45 28.2196 400.23 28.2796 400.8 28.3296C401.37 28.3696 401.95 28.4696 402.53 28.6396C405.74 29.3796 407.79 30.1996 408.7 31.1096C408.95 31.5996 409.07 32.0996 409.07 32.5896C409.07 33.0796 409.23 33.4296 409.56 33.6396C409.89 33.8496 410.05 34.2396 410.05 34.8096C410.05 35.2196 409.97 35.6296 409.8 36.0396C409.63 36.4496 409.26 36.8796 408.69 37.3396C408.11 37.7896 407.52 38.1996 406.9 38.5696C406.28 38.9396 405.83 39.1296 405.54 39.1296C405.25 39.1296 404.86 39.2096 404.37 39.3796C402.89 39.7896 401.49 40.0796 400.17 40.2396C398.85 40.4096 397.66 40.4896 396.59 40.4896L395.85 40.3696C393.38 40.3696 392.04 40.2896 391.84 40.1196C391.63 39.9596 391.45 39.8296 391.28 39.7496C390.46 39.7496 390.05 39.6696 390.05 39.4996C390.05 39.3296 390.3 39.2096 390.79 39.1296C391.78 38.9696 392.83 38.7196 393.94 38.3896C395.05 38.0596 396.02 37.7696 396.84 37.5296C397.66 37.2796 398.07 37.0996 398.07 36.9696C398.07 36.8396 398.34 36.6596 398.87 36.4096C399.4 36.1596 400.06 35.9196 400.84 35.6696C401.62 35.4196 402.4 35.1996 403.18 34.9896C403.96 34.7896 404.35 34.5996 404.35 34.4296C404.35 34.3496 404.21 34.2396 403.92 34.1196C403.63 33.9996 402.23 33.8296 399.72 33.6296C397.21 33.4296 394.25 33.2196 390.83 33.0096C387.42 32.8096 384.1 32.6596 380.9 32.5796L375.22 32.6996C369.46 32.8696 363.95 33.0696 358.68 33.3196C355.47 33.5696 353.17 33.6896 351.77 33.6896L343.75 34.1796C340.13 40.7596 336.92 46.8496 334.12 52.4396C331.57 57.2096 329.39 61.7796 327.58 66.1396C325.19 72.0596 323.05 76.7996 321.16 80.3296C319.1 84.4396 316.33 91.4396 312.83 101.31C309.33 111.18 306.47 120.07 304.25 127.97L302.89 132.91C300.5 140.81 298.78 148.67 297.71 156.48C296.97 161.83 296.6 166.56 296.6 170.67C296.6 173.55 296.8 175.81 297.22 177.46C297.55 179.6 297.96 180.79 298.45 181.04C298.61 181.04 299.48 180.55 301.04 179.56L302.77 178.57L303.76 178.2C304.01 178.2 304.25 178.49 304.5 179.06C304.91 179.96 305.24 181.32 305.49 183.13C305.49 183.87 305.45 184.28 305.37 184.36C304.96 184.77 304.71 185.24 304.63 185.78C304.55 186.31 304.07 186.75 303.21 187.08C302.35 187.41 301.54 187.57 300.8 187.57L300.87 187.58ZM281.49 37.2696L287.41 36.7796C288.48 36.6196 289.86 36.4696 291.54 36.3496C293.23 36.2296 294.81 36.0996 296.29 35.9796C297.77 35.8596 299.27 35.7096 300.79 35.5496C302.31 35.3896 303.59 35.2596 304.62 35.1796C305.65 35.0996 306.49 35.0396 307.15 34.9896C307.81 34.9496 308.3 34.9096 308.63 34.8696C308.96 34.8296 309.2 34.7696 309.37 34.6796L309.49 34.5596C309.49 34.4796 309.47 34.4196 309.43 34.3696C309.39 34.3296 309.33 34.3096 309.24 34.3096L308.99 34.5596C308.74 34.6396 308.21 34.6796 307.39 34.6796C302.95 34.9296 297.85 35.3396 292.09 35.9096C289.38 36.2396 286.54 36.5296 283.57 36.7696C282.42 36.8496 281.45 36.9596 280.67 37.0796C279.89 37.1996 279.46 37.2696 279.37 37.2696H281.47H281.49ZM289.88 169.81C290.13 169.81 290.7 166.19 291.61 158.95C292.68 150.48 293.91 143.77 295.31 138.83L296.05 135.5L297.53 129.7L298.64 126.49C299.87 121.8 300.9 118.34 301.73 116.12C301.89 115.13 302.22 113.98 302.72 112.66L303.09 111.3C303.25 110.4 303.56 109.39 304.02 108.28C304.47 107.17 304.95 105.92 305.44 104.52L307.29 98.9696C307.54 97.8996 309.26 93.3396 312.47 85.2696C315.02 78.6896 317.61 72.4796 320.24 66.6296C325.5 55.3596 328.92 48.3196 330.48 45.5296C331.63 43.4696 332.21 42.3196 332.21 42.0696C332.21 41.9896 332.17 41.9496 332.09 41.9496C332.01 41.9496 331.8 42.1796 331.47 42.6296C331.14 43.0796 330.81 43.5196 330.48 43.9296C329.57 44.8396 328.38 46.5996 326.9 49.2396C325.67 51.4596 324.49 53.7296 323.38 56.0296C322.27 58.3296 321.59 59.8196 321.34 60.4696C321.34 61.1296 321.24 61.4596 321.03 61.4596C320.82 61.4596 320.7 61.5196 320.66 61.6496C320.62 61.7696 320.6 61.9196 320.6 62.0796V62.1996C320.6 63.0196 319.16 66.1096 316.28 71.4596C315.29 73.2696 314.8 74.2996 314.8 74.5496C314.8 74.7996 314.43 75.4996 313.69 76.6496C312.78 78.2096 311.22 81.8796 309 87.6296C306.78 93.3896 304.68 99.1096 302.71 104.78C301.89 107.33 301.15 109.45 300.49 111.14C299.83 112.83 299.36 113.67 299.07 113.67C298.78 113.67 297.98 116.22 296.66 121.32C295.51 125.35 294.85 127.76 294.69 128.54C294.52 129.32 294.44 129.92 294.44 130.33C294.36 130.74 294.38 130.95 294.5 130.95C294.62 130.95 294.69 130.99 294.69 131.07C294.69 131.73 294.44 132.3 293.95 132.8C293.78 132.88 293.58 133.34 293.33 134.16C292.51 136.96 292.01 139.06 291.85 140.45C291.85 141.27 291.89 141.81 291.97 142.05C292.22 142.63 292.34 143.04 292.34 143.28C292.34 143.36 292.3 143.4 292.22 143.4L291.85 143.28C291.6 143.36 291.36 144.19 291.11 145.75C290.54 148.38 290.04 152.41 289.63 157.84C289.55 159.16 289.51 160.55 289.51 162.04C289.68 163.36 289.76 165.08 289.76 167.22C289.76 168.95 289.8 169.81 289.88 169.81ZM293.34 170.18C293.51 170.18 293.59 169.32 293.59 167.59L293.47 165.99C293.47 164.92 293.51 163.95 293.59 163.09C293.67 162.23 293.73 161.73 293.78 161.61C293.82 161.49 293.84 161.26 293.84 160.93C293.84 160.68 293.82 160.42 293.78 160.13C293.74 159.84 293.68 159.7 293.59 159.7C293.5 159.7 293.4 160.81 293.28 163.03C293.16 165.25 293.09 166.94 293.09 168.09C293.09 169.49 293.17 170.19 293.34 170.19V170.18ZM294.2 154.01L294.57 153.02C294.49 152.86 294.4 152.77 294.32 152.77L294.07 153.51C294.07 153.84 294.11 154 294.19 154L294.2 154.01ZM294.57 151.3C294.9 151.3 295.47 149.04 296.3 144.51C296.71 142.45 297.04 140.99 297.29 140.13C297.54 139.27 297.85 138.73 298.22 138.53C298.59 138.33 298.78 138.14 298.78 137.97C298.78 137.8 298.68 137.58 298.47 137.29C298.26 137 298.16 136.73 298.16 136.49C298.16 136.08 298.36 135.52 298.78 134.82C299.19 134.12 299.48 133.28 299.64 132.29C299.8 131.3 300.91 127.44 302.97 120.69C303.3 119.95 303.46 119.33 303.46 118.84C303.46 118.68 303.42 118.57 303.34 118.53C303.26 118.49 303.22 118.14 303.22 117.48C303.47 117.07 303.79 116.86 304.21 116.86C304.63 116.86 305.24 114.76 306.06 110.57C306.22 109.58 306.51 108.8 306.92 108.23C307.33 107.66 307.91 106.13 308.65 103.66C310.21 98.6396 311.45 95.3096 312.35 93.6596C312.68 92.9196 313.05 91.8896 313.46 90.5696C313.62 89.4196 313.85 88.6996 314.14 88.4096C314.43 88.1196 314.74 87.2396 315.07 85.7596C315.4 84.2796 315.69 83.5396 315.93 83.5396L316.18 83.6596C316.26 83.6596 316.3 83.6196 316.3 83.5396L316.18 83.1696C316.18 82.7596 316.26 82.2396 316.43 81.6296C316.59 81.0096 316.84 80.4396 317.17 79.8996C317.5 79.3696 317.83 78.9596 318.16 78.6696C318.49 78.3796 318.78 77.4196 319.02 75.7696C319.1 75.0296 319.21 74.4096 319.33 73.9196C319.45 73.4296 319.56 73.1796 319.64 73.1796C319.72 73.1796 319.84 73.0796 320.01 72.8696C320.17 72.6696 320.32 72.3996 320.44 72.0696C320.56 71.7396 320.69 71.4696 320.81 71.2696C320.93 71.0696 321.04 70.9396 321.12 70.8996C321.2 70.8596 321.35 70.6496 321.55 70.2796C321.75 69.9096 321.96 69.4196 322.17 68.7996C322.37 68.1796 322.56 67.6096 322.73 67.0696C322.89 66.5396 323.02 66.0996 323.1 65.7696C323.1 65.6096 323.06 65.5196 322.98 65.5196C322.81 65.5196 322.44 66.0996 321.87 67.2496C320.14 70.4596 318 75.1496 315.45 81.3196C314.87 82.8796 314.42 84.0796 314.09 84.8996C313.76 85.7196 313.6 86.3396 313.6 86.7496C313.6 87.0796 313.68 87.3096 313.85 87.4296C314.01 87.5496 314.1 87.6596 314.1 87.7396C314.1 87.8196 313.96 87.8596 313.67 87.8596C313.38 87.8596 313.03 88.2496 312.62 89.0296C312.21 89.8096 311.59 91.1896 310.77 93.1596C307.64 101.14 304.64 110.19 301.76 120.31C301.27 122.12 300.73 123.89 300.16 125.62C298.6 130.97 297.69 134.28 297.44 135.55C297.19 136.83 296.9 138.16 296.58 139.56C295.92 142.36 295.47 144.62 295.22 146.35C294.97 147.5 294.81 148.49 294.73 149.31L294.61 151.28L294.57 151.3ZM310.86 34.7996C311.11 34.7996 311.23 34.7196 311.23 34.5496C311.23 34.3796 311.11 34.2996 310.86 34.2996C310.69 34.2996 310.61 34.3796 310.61 34.5496C310.61 34.6296 310.69 34.7196 310.86 34.7996ZM312.46 34.5496C312.79 34.5496 312.95 34.4696 312.95 34.2996C312.95 34.1296 312.87 34.0496 312.7 34.0496C312.29 34.0496 312.08 34.1696 312.08 34.4196C312.08 34.4996 312.2 34.5396 312.45 34.5396L312.46 34.5496ZM316.78 34.2996C316.94 34.2996 317.15 34.2196 317.4 34.0496L317.89 33.9296C317.89 33.8496 317.68 33.8096 317.27 33.8096C316.78 33.8096 316.53 33.8896 316.53 34.0596C316.53 34.2296 316.61 34.3096 316.78 34.3096V34.2996ZM318.63 34.0496C319.29 34.0496 320.4 33.9696 321.96 33.7996C323.52 33.6396 324.76 33.5096 325.66 33.4296C326.07 33.4296 326.28 33.3896 326.28 33.3096L318.26 33.9296C318.26 34.0096 318.38 34.0496 318.63 34.0496ZM359.73 31.4596C359.73 31.3796 359.48 31.2996 358.99 31.2096H358.37C358.37 31.1296 358.49 31.0496 358.74 30.9596C358.9 30.9596 359.21 30.9796 359.67 31.0196C360.12 31.0596 360.64 31.1196 361.21 31.2096C361.78 31.2896 362.32 31.3296 362.81 31.3296C363.71 31.3296 364.45 31.2096 365.03 30.9596C365.19 30.9596 365.67 30.9196 366.45 30.8396C367.23 30.7596 368.05 30.6796 368.92 30.5896C369.78 30.5096 370.38 30.4696 370.71 30.4696C371.04 30.4696 371.24 30.4296 371.33 30.3496H371.45C371.45 30.1896 370.87 30.0996 369.72 30.0996C368.65 30.0996 367.13 30.1796 365.15 30.3496C364.33 30.3496 363.4 30.3896 362.37 30.4696C361.34 30.5496 360.44 30.6096 359.65 30.6596C358.87 30.6996 358.25 30.7396 357.8 30.7796C357.35 30.8196 356.98 30.8596 356.69 30.8996C356.4 30.9396 356.2 30.9596 356.07 30.9596C355.94 30.9596 355.84 30.9996 355.76 31.0796C355.76 31.1596 356.09 31.1996 356.75 31.1996L357.61 31.0796V31.1996C357.61 31.3696 357.98 31.4496 358.72 31.4496H359.71L359.73 31.4596ZM374.79 30.3496L384.42 29.9796C384.42 29.8996 383.93 29.8596 382.94 29.8596C378.99 29.8596 376.4 29.8796 375.17 29.9196C373.94 29.9596 373.15 29.9996 372.83 30.0396C372.5 30.0796 372.34 30.1396 372.34 30.2296C372.34 30.3196 373.16 30.3496 374.81 30.3496H374.79ZM390.09 30.4696C390.09 30.3896 389.99 30.3296 389.78 30.2796C389.57 30.2396 389.47 30.1796 389.47 30.0896L389.84 29.9696L389.35 29.8496H386.14L385.65 29.9696C385.73 30.0496 386.31 30.0896 387.38 30.0896C388.45 30.0896 388.98 30.1696 388.98 30.3396L390.09 30.4596V30.4696ZM405.76 31.9496L405.88 31.8296C405.88 31.7496 405.67 31.6696 405.26 31.5796C403.45 30.9196 401.19 30.4696 398.47 30.2196C396.74 29.9696 395.22 29.8496 393.9 29.8496C392.09 29.8496 391.18 29.9696 391.18 30.2196C391.18 30.3896 391.71 30.4696 392.78 30.4696L394.14 30.3496C394.47 30.4296 394.67 30.4896 394.76 30.5396C394.84 30.5796 395.07 30.6396 395.44 30.7296C395.81 30.8096 396.26 30.8496 396.8 30.8496C397.34 30.8496 398.14 30.8896 399.21 30.9696C401.93 31.2196 403.65 31.4396 404.39 31.6496C405.13 31.8596 405.58 31.9596 405.75 31.9596L405.76 31.9496Z" fill="#BBB573"/>
</g>
</g>
<defs>
<clipPath id="clip0_8_128">
<rect width="410.09" height="187.58" fill="white"/>
</clipPath>
</defs>
</svg>
