<svg width="405" height="135" viewBox="0 0 405 135" fill="none" xmlns="http://www.w3.org/2000/svg">
<g opacity="0.44">
<path d="M18.54 127.718H15.66C10.62 127.055 6.81 124.974 4.23 121.476L3.78 120.933C3.42 120.632 3 120.028 2.52 119.124C1.26 116.892 0.54 114.751 0.36 112.701C0.12 111.494 0 109.564 0 106.911C0 103.714 0.9 98.9498 2.7 92.6172C3.48 90.0238 3.97 88.305 4.18 87.4606C4.39 86.6163 4.64 85.7418 4.95 84.8371C5.13 84.234 6.78 80.4044 9.9 73.348C10.8 71.3577 11.58 69.7595 12.24 68.5533L14.67 64.3918C15.39 63.1856 16.02 62.0397 16.56 60.9541C17.7 58.9035 18.42 57.8783 18.72 57.8783C18.78 57.8783 18.81 57.9084 18.81 57.9687L17.82 60.1399C16.8 62.0096 16.08 63.3967 15.66 64.3014L15.21 65.8392C15.27 65.8995 15.3 65.99 15.3 66.1106C15.3 66.2313 15.25 66.4122 15.16 66.6535C15.07 66.8947 14.95 67.1359 14.8 67.3772C14.65 67.6184 14.51 67.739 14.39 67.739C14.27 67.739 14.17 67.7691 14.08 67.8295C13.99 67.8898 13.94 67.9501 13.94 68.0104C13.94 68.1311 13.97 68.1914 14.03 68.1914L14.48 68.0104L14.3 68.2819C14.18 68.4628 14.12 68.6135 14.12 68.7341L13.94 69.4578C13.34 70.6037 12.92 71.3576 12.68 71.7195C12.44 72.0814 12.26 72.2924 12.14 72.3528L11.96 72.4433C11.6 72.8052 11.42 73.2274 11.42 73.7098C11.48 73.7098 11.63 73.4685 11.87 72.986L12.14 72.5337C12.2 72.5337 12.23 72.5639 12.23 72.6242C12.23 72.9257 11.33 75.0969 9.53 79.1377C5.69 88.0034 3.29 96.0248 2.33 103.202C2.03 105.132 1.88 106.7 1.88 107.906C2.12 107.906 2.48 106.187 2.96 102.749C3.14 102.388 3.3 102.207 3.46 102.207C3.62 102.207 3.71 102.146 3.77 102.026L3.59 100.759V100.528C3.59 100.437 3.69 100.397 3.91 100.397C4.13 100.397 4.22 100.337 4.22 100.216C4.22 100.096 4.34 100.035 4.58 100.035C4.82 100.035 4.94 99.9449 4.94 99.764V99.2213L4.76 99.1307H4.67C4.55 99.1307 4.43 99.0805 4.31 98.99C4.19 98.8995 4.13 98.7086 4.13 98.407C4.13 96.0549 5.84 90.4762 9.26 81.6708C10.34 78.7759 11.72 75.5191 13.4 71.9005L14.48 69.6388C15.32 67.6486 16.64 65.0552 18.44 61.8587L18.98 60.8636C19.22 60.2605 19.61 59.4162 20.15 58.3306C20.27 57.9687 20.37 57.6873 20.46 57.4762C20.55 57.2651 20.6 57.0439 20.6 56.8027C20.72 55.898 22.16 53.4856 24.92 49.5654C26.9 46.8514 28.97 44.4088 31.13 42.2376L32.93 40.6997C33.05 40.6997 33.14 40.75 33.2 40.8404C33.26 40.9309 33.29 41.0113 33.29 41.0716C33.29 41.3128 33.12 41.5239 32.8 41.7049C32.47 41.8858 32.02 42.3382 31.45 43.062C30.88 43.7857 30.46 44.4491 30.19 45.0522C29.92 45.6553 29.68 45.9569 29.47 45.9569C29.26 45.9569 29.16 46.1076 29.16 46.4092C29.16 46.7107 29.07 46.9519 28.89 47.1329C28.77 47.1329 28.6 47.2233 28.4 47.4043C28.19 47.5852 27.99 47.7963 27.82 48.0375C27.4 48.7613 27.19 49.1835 27.19 49.3041C27.25 49.3041 27.28 49.3342 27.28 49.3945V49.4849C27.22 49.5452 27.13 49.5955 27.01 49.6156C26.89 49.6458 26.79 49.676 26.7 49.7062C26.61 49.7363 26.56 49.877 26.56 50.1182C26.56 50.3595 26.5 50.5705 26.38 50.7515C25.84 51.2943 25.51 51.6562 25.39 51.8371V52.199C25.39 52.4402 25.25 52.6613 24.98 52.8724C24.71 53.0835 24.58 53.2544 24.58 53.375V53.4655C24.58 53.7068 24.52 53.8274 24.4 53.8274C24.28 53.8274 23.93 54.2797 23.36 55.1843C22.79 56.089 22.51 56.6619 22.51 56.9032L21.97 57.627C21.73 57.9285 21.61 58.23 21.61 58.5315C21.61 58.7125 21.64 58.803 21.7 58.803C21.88 58.803 22.39 58.0491 23.23 56.5413C23.71 55.7573 24.23 54.9331 24.81 54.0586C25.38 53.184 25.86 52.4503 26.25 51.8371C26.64 51.234 27.07 50.6008 27.56 49.9373C29.72 46.9218 30.98 45.0823 31.34 44.4189C31.64 44.0571 31.85 43.7555 31.97 43.5142L32.15 42.881L32.06 42.7905H32.24C32.54 42.7905 33.35 41.916 34.67 40.167C37.01 37.2118 40.01 33.7339 43.67 29.7131C47.33 25.7025 50.39 22.5864 52.85 20.3448C53.93 19.3798 54.47 18.7968 54.47 18.5857C54.47 18.3747 54.83 17.9123 55.55 17.1885C55.85 16.9473 56.09 16.7061 56.27 16.4648L56.36 16.103C56.42 15.9221 56.84 15.4396 57.62 14.6556L58.43 13.5699H58.34L54.38 17.5505C53.9 17.9727 53.6 18.2038 53.48 18.2239C53.36 18.2541 53.09 18.4853 52.67 18.9075C51.95 19.6915 50.45 21.0787 48.17 23.0689C47.27 23.853 45.86 25.3305 43.94 27.5017C43.46 27.9842 43.11 28.3159 42.9 28.4968C42.69 28.6777 42.48 28.9191 42.27 29.2206C42.06 29.5222 41.89 29.7935 41.78 30.0348C41.54 30.5775 41.24 30.849 40.88 30.849C40.64 30.849 40.52 30.7886 40.52 30.668L40.61 30.5776C41.21 29.492 42.71 27.6224 45.11 24.9687L47.09 22.6165H47C45.38 24.2449 43.28 26.5066 40.7 29.4015C38.6 31.6933 37.16 33.3217 36.38 34.2866L35.39 35.8246C35.51 35.9452 35.58 36.0458 35.61 36.1363C35.64 36.2267 35.66 36.3372 35.66 36.4579L35.57 36.6388C35.45 37.061 34.65 38.046 33.18 39.5739C31.71 41.1118 30.85 41.8858 30.61 41.8858C30.55 41.8858 30.52 41.8557 30.52 41.7954C30.52 41.5542 30.79 41.0716 31.33 40.3479L32.41 38.8099L30.88 40.5289C29.86 41.6748 29.14 42.6095 28.72 43.3332C28.48 43.876 28.18 44.3887 27.82 44.8712C26.8 46.198 26.2 46.8917 26.02 46.952H25.93C25.93 46.8314 25.98 46.6805 26.07 46.4996C26.16 46.3187 27.01 44.9617 28.63 42.4287C29.41 41.2828 30.1 40.3479 30.7 39.6242C31.3 38.9005 31.96 38.026 32.68 37.0007C37.6 30.7887 44.14 23.8228 52.3 16.103L56.26 12.1225C58.36 9.95133 61 7.72989 64.18 5.46824C67.36 3.20658 69.94 1.6586 71.92 0.814254C73.54 0.271457 76.39 0 80.47 0C80.95 0 81.46 0.120607 82 0.36185C84.82 1.80931 86.32 3.92023 86.5 6.69453C86.5 11.3988 85.06 17.4298 82.18 24.7877C81.28 27.0796 79.96 29.8236 78.22 33.0201C76.72 35.7944 74.99 38.5487 73.04 41.2928C71.09 44.037 69.6 45.9468 68.59 47.0324C67.15 48.5401 65.98 49.4348 65.08 49.6961C64.18 49.9675 63.34 50.1081 62.56 50.1081C62.14 50.1081 61.88 50.0378 61.79 49.877C61.7 49.7262 61.53 49.6458 61.3 49.6458C60.4 49.6458 59.53 48.5602 58.69 46.389C58.57 46.0875 58.47 45.8865 58.37 45.8061C58.28 45.7156 58.23 45.615 58.23 45.4944V45.404C58.23 45.2834 58.35 45.1024 58.59 44.8611C59.13 44.3787 59.61 44.1374 60.03 44.1374C60.27 44.1374 60.49 44.1777 60.71 44.2782C60.92 44.3686 61.08 44.4089 61.2 44.4089C63.06 44.4089 65.76 42.1773 69.3 37.7143C72.84 33.2513 75.93 27.9139 78.57 21.7019C80.55 16.9374 81.75 12.8361 82.17 9.3984C82.29 8.67467 82.35 7.04629 82.35 4.51324C82.29 3.78951 82.2 3.30709 82.08 3.06584C81.96 2.8246 81.72 2.704 81.36 2.704C80.46 2.82462 78.99 3.39753 76.95 4.42281C76.35 4.78468 75.21 5.38783 73.53 6.23218C71.13 7.31778 67.5 9.70004 62.64 13.379C60.72 14.8868 58.47 16.7865 55.89 19.0783L54.27 20.6162C52.53 22.1843 50.34 24.3254 47.7 27.0393C46.2 28.6677 45.33 29.482 45.09 29.482V29.2106C44.91 29.2106 43.95 30.1453 42.21 32.0149C40.17 34.1861 39 35.513 38.7 35.9955C38.4 36.478 38.17 36.7996 38.02 36.9504C37.87 37.1012 37.13 38.0762 35.82 39.8856C37.38 38.1969 38.22 37.3525 38.34 37.3525V37.4429C38.34 37.7445 37.11 39.6142 34.65 43.0519L33.12 45.3135C32.88 45.7357 32.49 46.3086 31.95 47.0324C30.33 49.0829 29.43 50.44 29.25 51.1034C29.13 51.4652 28.98 51.6763 28.8 51.7367C28.62 51.7367 28.51 51.6763 28.48 51.5557C28.45 51.435 28.4 51.3747 28.34 51.3747V51.7367C28.34 52.0382 27.74 53.1238 26.54 54.9934C25.22 57.1043 24.38 58.4913 24.02 59.1548L22.4 61.9592C19.76 66.5429 17.78 70.3123 16.46 73.2675C15.5 75.4387 14.81 76.8862 14.39 77.6099C12.95 80.5049 11.3 84.8171 9.44 90.5466C8.48 93.3812 7.73 95.7635 7.19 97.6934C6.95 98.6584 6.74 99.4725 6.56 100.136C6.38 100.799 6.29 101.242 6.29 101.453C6.29 101.664 6.2 101.925 6.02 102.217C5.9 102.76 5.84 103.212 5.84 103.574C5.78 104.539 5.66 105.443 5.48 106.288C5.3 107.132 5.13 107.635 4.99 107.785C4.84 107.936 4.75 108.137 4.72 108.368C4.69 108.61 4.68 109.755 4.68 111.806C4.8 117.234 5.97 120.461 8.19 121.486C8.97 121.968 9.96 122.391 11.16 122.752C12.36 123.114 13.53 123.295 14.67 123.295C18.81 123.295 23.01 122.692 27.27 121.486C29.67 120.642 33.75 118.41 39.51 114.792C43.35 112.379 46.71 109.876 49.59 107.283L51.84 105.292C53.1 104.207 54.27 103.121 55.35 102.036C58.17 99.2011 59.73 97.5125 60.03 96.9697C60.33 96.4269 61.5 95.1301 63.54 93.0795L64.17 92.6273H64.26L63.99 93.2605L68.4 88.7372C68.88 88.1341 69.3 87.6214 69.66 87.1993C70.02 86.7771 70.2 86.5258 70.2 86.4253C70.2 86.3247 70.36 86.0836 70.69 85.6614C71.02 85.2393 71.42 84.7769 71.9 84.2542C72.38 83.7415 72.81 83.3092 73.21 82.9373C73.6 82.5755 73.87 82.3644 74.02 82.3041C74.17 82.2437 74.93 81.4597 76.32 79.952C77.7 78.4442 79.23 76.6952 80.91 74.705C81.33 74.2225 81.82 73.6494 82.39 72.986C82.96 72.3226 83.5 71.7196 84.01 71.1768C84.52 70.634 85.1 69.9906 85.77 69.2367C86.43 68.4828 86.98 67.8195 87.44 67.2465C87.89 66.6735 88.29 66.2111 88.65 65.8493C89.01 65.4874 89.25 65.2763 89.37 65.216C89.49 65.1557 89.96 64.6733 90.77 63.7686C91.58 62.864 92.46 61.8085 93.43 60.6023C94.39 59.3961 95.2 58.3406 95.86 57.4359C96.7 56.29 97.21 55.7171 97.39 55.7171C97.51 55.7171 97.57 55.8076 97.57 55.9885V56.079C97.57 56.4408 97.03 57.3153 95.95 58.7025C94.57 60.5721 93.88 61.6276 93.88 61.8688C93.88 62.1101 93.07 63.1956 91.45 65.1256L89.02 68.4728C89.02 68.9553 88.84 69.1966 88.48 69.1966L88.21 69.106L88.3 69.287C88.3 69.6489 87.43 70.8852 85.69 72.9961C84.91 73.9611 84.08 74.9563 83.22 75.9816C82.35 77.0068 81.67 77.8511 81.19 78.5145C80.29 79.6604 78.09 82.1834 74.58 86.0735C71.07 89.9635 69.04 92.0844 68.5 92.4563H68.23C68.23 92.2754 68.53 91.8231 69.13 91.0994C69.37 90.8581 69.49 90.7074 69.49 90.6471C69.43 90.6471 69.07 90.9788 68.41 91.6422C67.51 92.4866 67.06 93.0294 67.06 93.2706C67.06 93.3309 67.1 93.3812 67.2 93.4113C67.29 93.4415 67.34 93.4918 67.34 93.5521H66.98C66.5 93.5521 64.67 95.2106 61.49 98.5277C59.15 101 56.45 103.503 53.39 106.036L51.14 108.117C51.26 108.117 52.52 107.152 54.92 105.222C56 104.257 56.9 103.413 57.62 102.689C58.16 102.267 58.49 102.016 58.61 101.915C58.73 101.825 59.57 101 61.13 99.4223L63.74 96.7084C65.18 95.2609 65.95 94.507 66.04 94.4467C66.13 94.3864 66.26 94.2959 66.45 94.1753C66.45 94.2959 65.82 95.0498 64.56 96.4369C63.6 97.4622 62.82 98.3066 62.22 98.97C61.62 99.6334 61.17 100.136 60.87 100.458C60.57 100.789 60.4 100.99 60.37 101.041C60.34 101.101 60.29 101.252 60.24 101.493C60.24 101.975 58.92 103.453 56.28 105.926C54.12 107.976 52.44 109.514 51.24 110.54C49.08 112.349 46.08 114.641 42.24 117.415C37.62 120.611 35.2 122.22 35 122.25C34.79 122.28 34.65 122.31 34.59 122.34C34.53 122.371 34.5 122.411 34.5 122.471C34.5 122.833 33.39 123.496 31.17 124.461C30.27 124.883 29.56 125.155 29.06 125.275C28.55 125.396 27.96 125.547 27.3 125.728C25.62 126.271 24.57 126.693 24.15 126.994C23.91 127.115 22.05 127.356 18.57 127.718H18.54ZM4.86 102.116C4.92 102.116 5.04 101.905 5.22 101.483C5.4 100.82 5.49 100.186 5.49 99.5831V99.4926C5.43 99.4926 5.28 99.8545 5.04 100.578L4.86 101.754V102.116ZM5.76 95.5121C5.82 95.5121 5.88 95.4418 5.94 95.291C6 95.1402 6.06 95.0498 6.12 95.0196C6.18 94.9894 6.24 94.9693 6.3 94.9693L6.39 95.0598C6.63 95.0598 6.99 94.2456 7.47 92.6172V92.5268C7.41 92.5268 7.27 92.758 7.07 93.2003C6.86 93.6526 6.71 93.9541 6.62 94.1048C6.53 94.2556 6.45 94.3261 6.4 94.3261V94.2355L6.22 94.4165C6.1 94.5371 5.99 94.6879 5.9 94.8688C5.81 95.0497 5.76 95.2006 5.76 95.3212V95.5021V95.5121ZM7.2 90.3555C7.32 90.3555 7.38 90.1746 7.38 89.8127C7.38 89.5112 7.35 89.3604 7.29 89.3604C7.23 89.3604 7.15 89.4711 7.07 89.6721C6.98 89.8832 6.93 90.0541 6.93 90.1747C6.93 90.2953 7.02 90.3555 7.2 90.3555ZM7.56 88.8176C7.62 88.8176 7.7 88.7775 7.78 88.677C7.87 88.5865 7.92 88.4558 7.92 88.2749C7.92 88.1543 7.89 88.0939 7.83 88.0939C7.71 88.0939 7.59 88.2145 7.47 88.4557C7.47 88.697 7.5 88.8176 7.56 88.8176ZM8.28 86.9179C8.34 86.8576 8.44 86.7369 8.59 86.5559C8.74 86.375 8.86 86.2142 8.95 86.0534C9.04 85.9026 9.09 85.8021 9.09 85.7418C9.09 85.6212 9 85.5608 8.82 85.5608C8.64 85.5608 8.46 85.7117 8.28 86.0132C8.1 86.3148 8.01 86.6164 8.01 86.9179H8.28ZM8.91 87.732L9.18 87.2798C9.36 86.9782 9.45 86.7369 9.45 86.5559C9.45 86.3147 9.36 86.1941 9.18 86.1941C9.06 86.3147 9 86.4353 9 86.5559C9 86.6766 8.97 86.8575 8.91 87.0988C8.85 87.34 8.82 87.5511 8.82 87.732H8.91ZM9.36 84.7467C9.48 84.7467 9.6 84.6764 9.72 84.5256C9.84 84.3748 9.9 84.2039 9.9 84.023V83.7516H10.17C10.35 83.7516 10.47 83.6912 10.53 83.5706V83.3897L10.17 83.5706C10.11 83.5706 10.08 83.5405 10.08 83.4802L10.17 83.1183C10.35 82.3946 10.44 81.912 10.44 81.6708L10.26 81.3994C10.02 81.3994 9.9 81.6105 9.9 82.0326L10.08 82.7565C10.08 82.8168 10.05 82.8469 9.99 82.8469L9.63 82.6659C9.57 82.6659 9.54 82.6962 9.54 82.7565L9.63 82.8469C9.69 82.9675 9.72 83.1182 9.72 83.2992C9.72 83.6007 9.63 83.9324 9.45 84.2943L9.09 84.5657L8.91 84.4753C8.91 84.6562 9.03 84.7467 9.27 84.7467H9.36ZM11.07 81.6708C11.13 81.6708 11.21 81.5803 11.29 81.3994C11.38 81.2184 11.43 81.0677 11.43 80.9471C11.43 80.8868 11.4 80.8567 11.34 80.8567L10.98 81.0375L11.07 80.4948C11.07 80.3742 10.98 80.3138 10.8 80.3138C10.56 80.3138 10.44 80.4043 10.44 80.5852C10.44 80.7662 10.53 80.9874 10.71 81.2588C10.89 81.5302 11.01 81.6708 11.07 81.6708ZM11.25 79.771C11.43 79.771 11.68 79.3488 12.02 78.5044C12.35 77.6601 12.66 77.0872 12.97 76.7856C13.27 76.4841 13.42 76.2127 13.42 75.9715C13.42 75.6699 13.33 75.5191 13.15 75.5191C12.55 75.5191 12.25 75.881 12.25 76.6048C12.25 76.7254 12.28 76.8158 12.34 76.8761C12.4 76.9364 12.43 76.9967 12.43 77.0571C12.43 77.238 12.34 77.3586 12.16 77.4189C11.98 77.4792 11.8 77.6602 11.62 77.9617C11.26 78.6855 11.08 79.1981 11.08 79.4997C11.08 79.6806 11.14 79.771 11.26 79.771H11.25ZM12.24 71.9005C12.3 71.9005 12.52 71.5286 12.92 70.7747C13.31 70.0208 13.5 69.5584 13.5 69.3674C13.26 69.3674 12.99 69.7595 12.69 70.5435C12.39 71.3276 12.24 71.7799 12.24 71.9005ZM13.68 74.6144C13.92 74.6144 14.13 74.313 14.31 73.7098C14.37 73.4083 14.46 73.1269 14.58 72.8454C14.7 72.574 14.82 72.3629 14.94 72.2121C15.06 72.0614 15.15 71.9909 15.21 71.9909L15.3 72.2623C15.36 72.2623 15.4 72.2522 15.44 72.2221C15.47 72.1919 15.54 72.0613 15.66 71.8201C15.78 71.5789 15.84 71.3979 15.84 71.2773C15.84 71.0963 15.78 70.9757 15.66 70.9154C15.54 70.8551 15.48 70.7947 15.48 70.7344C15.48 70.6138 15.58 70.433 15.8 70.1917C16.01 69.9505 16.11 69.7695 16.11 69.6489L15.93 69.4679C15.75 69.4679 15.27 70.0711 14.49 71.2773C14.31 71.6391 14.22 71.991 14.22 72.3126C14.22 72.6343 14.04 73.0363 13.68 73.4886C13.32 73.9409 13.14 74.2326 13.14 74.3532C13.14 74.5341 13.29 74.6245 13.59 74.6245H13.68V74.6144ZM14.76 66.7439C14.82 66.7439 14.88 66.6534 14.94 66.4725C15 66.2916 15.03 66.171 15.03 66.1106V66.0202C14.97 66.0202 14.89 66.0404 14.81 66.0605C14.72 66.0906 14.67 66.2312 14.67 66.4725L14.76 66.7439ZM15.84 64.7537C15.84 64.3918 15.99 64.03 16.29 63.6681C16.59 63.3063 16.8 63.1253 16.92 63.1253C16.98 63.1253 17.01 63.1855 17.01 63.3061C17.01 63.3665 16.84 63.6278 16.52 64.0802C16.19 64.5325 15.96 64.7537 15.85 64.7537H15.84ZM16.29 69.1865C17.01 68.4628 17.37 67.8698 17.37 67.4174C17.37 66.9651 17.49 66.7439 17.73 66.7439H17.91V66.563C17.91 66.3821 18.01 66.191 18.22 65.98C18.43 65.7689 18.54 65.6382 18.54 65.5678L18.27 65.6584C18.21 65.6584 18.18 65.598 18.18 65.4774C18.18 65.1155 18.28 64.9345 18.49 64.9345C18.7 64.9345 18.86 64.8442 18.98 64.6632C19.1 64.4823 19.16 64.3315 19.16 64.2108V63.7586C19.16 63.5776 19.26 63.3966 19.47 63.2157C19.68 63.0348 19.79 62.9142 19.79 62.8539C19.79 62.5523 19.88 62.3111 20.06 62.1302C20.42 61.7683 20.72 61.2255 20.96 60.5018L21.41 59.5067C21.41 59.3257 21.35 59.2352 21.23 59.2352C20.99 59.3559 20.87 59.5569 20.87 59.8182C20.87 60.0796 20.81 60.2304 20.69 60.2304H20.6C20.42 60.2304 20.22 60.3811 20.02 60.6826C19.81 60.9842 19.55 61.3964 19.25 61.899C18.95 62.4116 18.74 62.8438 18.62 63.2057C18.5 63.5675 18.44 63.8087 18.44 63.9294L18.53 64.1103C18.53 64.1707 18.47 64.2008 18.35 64.2008C18.11 64.442 17.79 64.8944 17.41 65.5579C17.02 66.2213 16.83 66.6736 16.83 66.9148L16.92 67.1862L16.83 67.2767C16.77 67.3973 16.66 67.5179 16.51 67.6385C16.36 67.7591 16.29 68.0607 16.29 68.5432V69.1765V69.1865ZM20.97 54.531L21.06 54.0787C21.3 53.5359 21.69 52.8725 22.23 52.0884C22.47 51.7266 22.62 51.5456 22.68 51.5456C22.74 51.5456 22.77 51.5757 22.77 51.636L22.86 51.7266C22.86 51.8472 22.65 52.1789 22.23 52.7217C22.05 52.963 21.87 53.2544 21.69 53.5761C21.51 53.9078 21.27 54.2294 20.97 54.531ZM23.04 51.2742L22.95 51.1838C22.95 51.0631 23.26 50.5102 23.89 49.5051C24.52 48.5099 25.04 47.8063 25.46 47.3741C25.64 47.3741 25.73 47.4345 25.73 47.5551C25.73 47.736 25.52 48.0376 25.1 48.4598C24.68 48.8819 24.29 49.4548 23.93 50.1786C23.57 50.9023 23.27 51.2641 23.03 51.2641L23.04 51.2742ZM38.97 33.0001C38.85 33.0001 38.79 32.8795 38.79 32.6383C38.79 32.397 39 32.1256 39.42 31.824C39.84 31.5224 40.08 31.3717 40.14 31.3717H40.23C40.23 31.4923 40.05 31.7938 39.69 32.2763C39.33 32.7588 39.09 33.0001 38.97 33.0001ZM41.67 33.181C41.61 33.181 41.58 33.1508 41.58 33.0905C41.58 33.0302 41.67 32.9096 41.85 32.7287C42.57 32.005 43.02 31.643 43.2 31.643H43.29C43.29 31.7033 43.11 31.9447 42.75 32.3668C42.21 32.9096 41.85 33.181 41.67 33.181ZM45.36 28.6577C45.42 28.6577 45.61 28.5069 45.95 28.2054C46.28 27.9038 46.67 27.5319 47.12 27.0796C47.57 26.6273 47.99 26.1749 48.38 25.7226C48.77 25.2703 48.99 24.9486 49.06 24.7676C49.12 24.7073 48.98 24.8279 48.65 25.1295C48.32 25.431 47.88 25.8532 47.35 26.396C46.81 26.9388 46.36 27.4214 46 27.8435C45.64 28.2657 45.43 28.537 45.37 28.6577H45.36ZM47.88 21.9631L48.24 21.6918C48.48 21.4506 48.84 21.1088 49.32 20.6464C49.8 20.1941 50.19 19.8222 50.49 19.5206C50.79 19.2191 50.94 19.0381 50.94 18.9778C50.82 18.9778 50.64 19.0984 50.4 19.3396C50.16 19.5809 49.84 19.8825 49.46 20.2443C49.07 20.6062 48.72 20.958 48.42 21.2897C48.12 21.6215 47.94 21.8526 47.88 21.9631ZM48.06 108.087C48.06 108.027 48.1 107.936 48.2 107.815C48.29 107.695 48.47 107.514 48.74 107.273C49.01 107.032 49.23 106.84 49.42 106.69C49.6 106.539 49.72 106.469 49.78 106.469C49.78 106.589 49.54 106.891 49.06 107.373C48.58 107.856 48.25 108.097 48.07 108.097L48.06 108.087ZM49.95 23.9535C50.01 23.9535 50.13 23.863 50.31 23.6821C50.49 23.5011 50.68 23.2901 50.89 23.0488C51.1 22.8076 51.26 22.6165 51.38 22.4657C51.5 22.3149 51.56 22.2145 51.56 22.1542L50.66 23.0589L49.94 23.9636L49.95 23.9535ZM51.21 18.8874C51.27 18.8874 51.39 18.7969 51.57 18.6159C51.75 18.435 51.87 18.254 51.93 18.0731L52.11 17.8018C52.05 17.8018 51.93 17.8922 51.75 18.0731C51.57 18.254 51.42 18.435 51.3 18.6159L51.21 18.8874ZM61.47 97.3215C61.59 97.3215 61.8 97.1607 62.1 96.8189C62.4 96.4872 62.55 96.266 62.55 96.1454C62.49 96.1454 62.37 96.2058 62.19 96.3264C62.01 96.447 61.84 96.6179 61.7 96.8189C61.55 97.03 61.47 97.2009 61.47 97.3215ZM65.34 93.6123C65.4 93.6123 65.49 93.5218 65.61 93.3409C65.73 93.16 65.82 93.0294 65.88 92.9389C65.94 92.8485 65.97 92.7679 65.97 92.7076L65.79 92.6172C65.73 92.6172 65.62 92.6776 65.47 92.7982C65.32 92.9188 65.25 93.0997 65.25 93.3409C65.25 93.5218 65.28 93.6123 65.34 93.6123ZM72.99 84.9276L73.17 84.7467C73.23 84.6864 73.31 84.5858 73.39 84.435C73.48 84.2843 73.53 84.1838 73.53 84.1134L73.44 84.2039C73.32 84.2642 73.22 84.3547 73.12 84.4753C73.03 84.5959 72.98 84.6864 72.98 84.7467V84.9276H72.99ZM73.08 86.6465L73.26 86.4655C73.32 86.4052 73.4 86.3349 73.48 86.2444C73.57 86.1539 73.63 86.0836 73.66 86.0132C73.69 85.9529 73.71 85.8926 73.71 85.8322H73.62L73.53 85.9227C73.41 86.0433 73.31 86.164 73.22 86.2846C73.13 86.4053 73.08 86.4857 73.08 86.5158V86.6465ZM73.98 85.5608C74.04 85.5608 74.16 85.4703 74.34 85.2894C74.52 85.1085 74.74 84.8673 75.01 84.5657C75.28 84.2642 75.5 83.9928 75.69 83.7516C75.87 83.5103 75.96 83.3595 75.96 83.2992C75.9 83.2992 75.66 83.5204 75.24 83.9727C74.82 84.425 74.5 84.7868 74.3 85.0582C74.09 85.3296 73.98 85.5005 73.98 85.5608ZM76.32 81.6708C76.44 81.6708 76.56 81.6306 76.68 81.53C76.8 81.4396 76.92 81.319 77.04 81.1682C77.16 81.0174 77.22 80.917 77.22 80.8567C77.22 80.7963 77.2 80.7661 77.18 80.7661H77.04C76.92 80.7661 76.72 80.8868 76.46 81.1281C76.19 81.3693 76.05 81.52 76.05 81.5804C76.05 81.6407 76.11 81.6708 76.23 81.6708H76.32ZM81.63 75.7001L83.16 74.1621C85.26 71.8703 86.62 70.2922 87.25 69.4077C87.88 68.5331 88.2 68.0708 88.2 68.0104L87.84 68.4627C83.64 73.167 81.57 75.5795 81.63 75.7001Z" fill="#BBB573"/>
<path d="M92.69 86.9177C92.09 86.9177 91.34 86.797 90.44 86.5557C89.54 86.3145 88.64 85.5606 87.74 84.2941C87.32 83.8116 87.11 83.4196 87.11 83.1181C87.11 82.8165 86.84 82.3943 86.3 81.8515C85.28 80.2835 84.77 77.9614 84.77 74.8856C84.77 72.7747 85.04 70.8146 85.58 69.0053C87.74 63.2758 91.19 58.1493 95.93 53.626L97.64 52.0882C97.46 51.7867 97.23 51.455 96.96 51.0931C96.69 50.7312 96.55 50.4297 96.55 50.1884C96.55 50.1281 96.56 50.0677 96.6 50.0074C96.63 49.9471 96.79 49.917 97.09 49.917C97.99 50.0376 98.67 50.2286 99.12 50.5C99.57 50.7714 99.94 50.902 100.24 50.902C100.42 50.902 100.66 50.8518 100.96 50.7613C101.26 50.6708 101.62 50.6306 102.04 50.6306C102.94 50.6306 103.91 51.0831 104.96 51.9877C106.01 52.8924 106.55 53.6362 106.58 54.2091C106.61 54.7821 108.57 55.0736 112.48 55.0736C118.24 55.0736 124.21 54.4102 130.39 53.0833C131.59 53.0833 132.22 53.1034 132.28 53.1235C132.34 53.1536 132.47 53.1738 132.68 53.1738C132.89 53.1738 133.05 53.2039 133.17 53.2642C133.29 53.3245 133.38 53.3547 133.44 53.3547C133.5 53.3547 133.56 53.3849 133.62 53.4452H133.71L133.89 53.626C133.65 53.6864 133.48 53.7166 133.4 53.7166C133.32 53.7166 132.75 53.8673 131.73 54.1689L134.07 53.807C134.13 53.8673 134.16 53.9176 134.16 53.9478C134.16 53.9779 134.17 54.008 134.21 54.0382C134.24 54.0684 134.27 54.0985 134.3 54.1286C134.33 54.1588 134.36 54.2091 134.39 54.2593C134.42 54.3196 134.45 54.4001 134.48 54.4906C134.51 54.5811 134.53 54.6916 134.53 54.8021V55.5258L134.35 56.4305L134.17 56.7924H134.08L133.9 57.0638H133.81V57.1542C126.73 58.6017 120.49 59.3255 115.09 59.3255C113.35 59.3255 111.73 59.2652 110.23 59.1446C109.69 59.024 109.24 58.9636 108.88 58.9636H108.34L109.24 61.2253C110.02 63.1552 110.41 65.2359 110.41 67.4674C110.41 69.0958 110.29 70.4528 110.05 71.5384C109.87 72.2018 109.57 73.0159 109.15 73.9809C107.77 77.0568 105.73 79.8311 103.03 82.3038C101.89 83.3291 100.87 84.083 99.97 84.5655C99.07 85.048 97.42 85.621 95.02 86.2844C94.48 86.4653 94.07 86.6161 93.8 86.7367C93.53 86.8573 93.15 86.9177 92.68 86.9177H92.69ZM90.8 82.123C91.76 82.123 93.23 81.7309 95.21 80.9469C97.91 79.801 100.35 77.9615 102.55 75.4284C104.74 72.8954 106.13 70.1211 106.73 67.1055C106.91 66.1406 107 65.2058 107 64.3012C107 62.4918 106.61 60.8332 105.83 59.3255C105.41 58.5414 104.96 58.1493 104.48 58.1493H104.21C103.67 58.1493 103.34 58.079 103.22 57.9282C103.1 57.7775 102.98 57.687 102.86 57.6568C102.74 57.6267 102.57 57.5965 102.37 57.5664C102.16 57.5362 101.99 57.4055 101.88 57.1643C101.76 56.923 101.7 56.712 101.7 56.531L101.79 56.0787C101.79 56.0184 101.76 55.9883 101.7 55.9883C101.46 55.9883 100.69 56.6416 99.41 57.9383C98.12 59.235 97.46 59.9486 97.43 60.0592C97.4 60.1798 97.29 60.3307 97.11 60.5116C96.09 61.7781 95.25 62.924 94.59 63.9492C92.43 67.4473 91.02 70.0406 90.36 71.7293C89.28 74.3227 88.74 76.8257 88.74 79.2381C88.74 80.6856 88.86 81.5298 89.1 81.771C89.34 82.0123 89.91 82.133 90.81 82.133L90.8 82.123ZM129.59 54.7117C129.77 54.7117 130 54.6816 130.27 54.6213C130.54 54.561 130.78 54.5006 130.99 54.4403C131.2 54.38 131.33 54.3196 131.4 54.2593C130.86 54.2593 130.41 54.3096 130.05 54.4001C129.69 54.4905 129.51 54.6011 129.51 54.7117H129.6H129.59Z" fill="#BBB573"/>
<path d="M125.81 94.6069C125.57 94.6069 125.08 94.2752 124.33 93.6118C123.58 92.9483 123.18 92.3754 123.12 91.8929C123.06 91.4104 122.85 91.1089 122.49 90.9883C121.77 90.747 121.41 89.9329 121.41 88.5457C121.41 87.1586 121.8 85.1984 122.58 82.6653C123.18 80.4942 125.14 75.3376 128.48 67.1956C131.81 59.0537 136.29 50.5197 141.93 41.5938C142.11 41.9556 142.38 42.2471 142.74 42.4481C143.1 42.6592 143.28 42.9809 143.28 43.3931C143.28 43.8052 143.34 44.0866 143.46 44.2072C143.58 44.3278 143.65 44.4183 143.68 44.4786C143.71 44.5389 143.73 44.5993 143.73 44.6596L143.64 44.75C143.64 44.9913 143.78 45.2024 144.05 45.3833C144.32 45.5642 144.54 45.8054 144.73 46.107C145.03 46.7704 145.18 47.3132 145.18 47.7354C145.18 47.9766 144.92 48.4592 144.41 49.1829C143.9 49.9066 143.07 51.354 141.94 53.5252C139.24 58.5913 137.2 62.7528 135.82 66.0096C133.72 70.8344 132.67 73.3674 132.67 73.6087C132.85 73.6087 134.26 71.9502 136.9 68.6331C141.04 63.5067 143.29 60.9434 143.65 60.9434C143.71 60.8831 144.04 60.5816 144.64 60.0388C145.24 59.496 146.38 58.2596 148.06 56.3297C148.48 55.7869 149.05 55.214 149.77 54.6109C151.33 53.3444 152.44 52.7111 153.1 52.7111C153.94 52.7111 154.9 53.0729 155.98 53.7966C156.4 54.0982 156.62 54.3394 156.65 54.5203C156.68 54.7013 157.08 55.2743 157.87 56.2393C158.35 56.7218 158.68 57.1741 158.86 57.5962C159.28 58.5612 159.7 61.7878 160.12 67.2761C160.6 73.6087 161.41 77.4384 162.55 78.7652C162.79 79.0668 163.39 79.2176 164.35 79.2176C164.95 79.2176 165.49 79.1573 165.97 79.0367C168.07 78.4939 171.76 75.2975 177.04 69.4473C179.08 67.0952 180.25 65.9192 180.55 65.9192C180.61 65.9192 180.64 65.8889 180.64 65.8286V65.6477C180.64 65.3462 181.24 64.4717 182.44 63.0242C182.14 63.748 181.81 64.4415 181.45 65.1049L182.8 63.3861C183.16 64.4717 183.34 65.1954 183.34 65.5573C183.34 66.0398 183.22 66.6327 182.98 67.3263C182.74 68.0199 182.06 69.1557 180.95 70.7238C179.84 72.2919 179.21 73.3474 179.06 73.8901C178.91 74.4329 178.67 74.8753 178.34 75.207C178.01 75.5387 177.83 75.8302 177.8 76.0614C177.77 76.3026 177.33 76.9058 176.5 77.8707C174.46 80.3435 172.54 82.3337 170.74 83.8414C169.6 84.8667 168.8 85.3794 168.35 85.3794C167.9 85.3794 167.58 85.4598 167.4 85.6106C167.22 85.7613 167.04 85.8317 166.86 85.8317C166.5 85.8317 165.96 85.6708 165.24 85.3291C164.52 84.9974 163.74 84.4546 162.9 83.7007C162.06 82.9468 161.17 81.8411 160.25 80.3936C159.32 78.9462 158.57 77.5189 158 76.1016C157.43 74.6843 156.98 73.1966 156.65 71.6184C156.32 70.0504 156 67.6681 155.71 64.4716C155.53 62.7226 155.36 61.235 155.22 59.9886C155.07 58.7522 154.96 58.0787 154.9 57.9581L154.63 58.1391C154.39 58.2597 154.12 58.4405 153.82 58.6818C150.04 61.7576 145.43 66.7233 140.01 73.5685C134.58 80.4138 130.81 86.0126 128.71 90.3449C127.45 93.1795 126.49 94.5968 125.83 94.5968L125.81 94.6069Z" fill="#BBB573"/>
<path d="M182.15 134.955H181.7C181.4 134.895 181.05 134.804 180.66 134.684C180.27 134.563 179.94 134.412 179.67 134.231C179.4 134.05 179.09 133.839 178.73 133.598C178.37 133.357 178.07 133.126 177.83 132.915C177.59 132.703 177.35 132.533 177.11 132.412C176.87 132.291 176.69 132.211 176.57 132.181C176.45 132.151 176.23 131.94 175.9 131.548C175.57 131.156 175.2 130.653 174.78 130.06C173.22 128.13 172.44 124.662 172.44 119.656C172.44 116.882 172.65 113.706 173.07 110.107C173.49 106.519 174.06 103.041 174.78 99.6633C180.12 75.1771 189.81 49.7562 203.85 23.4004L200.7 23.4908L191.61 24.3051C190.23 24.486 189.5 24.6066 189.41 24.6669C189.32 24.7272 189.21 24.7573 189.09 24.7573L187.92 24.8479C187.32 24.9685 186.54 25.0589 185.58 25.1192C184.62 25.1795 183.39 25.27 181.89 25.3906L173.88 26.2049C161.82 27.2905 153.09 28.165 147.69 28.8284C146.79 28.949 145.62 29.0395 144.18 29.0998C142.02 29.2807 139.86 29.3712 137.7 29.3712C137.34 29.2506 136.98 29.0092 136.62 28.6474C136.26 28.2855 136.08 28.0041 136.08 27.793C136.08 27.5819 136.07 27.4613 136.04 27.4312C136.01 27.401 135.92 27.3709 135.77 27.3407C135.62 27.3106 135.54 27.0191 135.54 26.4763C135.54 25.9938 135.6 25.6922 135.72 25.5716C135.84 25.451 135.96 25.2599 136.08 24.9885C136.2 24.7171 136.28 24.5363 136.3 24.4458C136.33 24.3553 136.68 24.3151 137.34 24.3151C138.9 24.3151 139.91 24.305 140.36 24.2648C140.81 24.2347 141.28 24.0738 141.76 23.7723C142.24 23.4707 142.81 23.32 143.47 23.32H144.37C144.79 23.3803 145.24 23.6215 145.72 24.0437C145.84 24.2246 145.96 24.3351 146.08 24.3553C146.2 24.3854 146.47 24.3955 146.89 24.3955C147.37 24.3955 148.24 24.3353 149.5 24.2146L161.11 23.3099C161.83 23.3099 162.19 23.3401 162.19 23.4004C162.19 23.4607 162.12 23.511 161.97 23.5311C161.82 23.5612 161.64 23.5713 161.43 23.5713C161.22 23.5713 161 23.6014 160.76 23.6617C160.52 23.722 160.34 23.7522 160.22 23.7522L159.95 23.8427H160.4C162.8 23.8427 168.95 23.3903 178.85 22.4856L185.06 21.9429C191.48 21.4001 195.3 21.0885 196.54 20.998C197.77 20.9075 198.89 20.8071 199.91 20.6864C202.97 20.5055 204.83 20.3547 205.49 20.234L208.73 14.5348C211.55 9.28772 213.41 6.0611 214.31 4.85488C215.03 3.70898 215.39 2.98521 215.39 2.68366C215.63 1.53776 216.38 0.964844 217.64 0.964844C218.12 0.964844 218.69 1.11557 219.35 1.41713C220.67 2.08054 221.33 2.56297 221.33 2.86452C221.33 2.92483 221.39 3.00535 221.51 3.09582C221.63 3.18628 221.81 3.2265 222.05 3.2265C222.53 3.34712 222.92 3.66873 223.22 4.18137C223.52 4.69401 223.67 5.28706 223.67 5.94043C223.67 6.54354 223.49 6.99584 223.13 7.2974C222.95 7.41802 222.74 7.7196 222.5 8.20208C222.44 8.56395 222.08 9.28771 221.42 10.3733C220.76 11.4589 220.01 12.5144 219.17 13.5396C218.21 14.8062 216.89 16.7964 215.21 19.5103C218.27 19.2691 221.22 19.0479 224.07 18.8368C226.92 18.6257 229.06 18.4649 230.51 18.3342C231.95 18.2136 233.75 18.1233 235.91 18.0629H253.37C254.09 18.1233 254.66 18.1734 255.08 18.2036C255.5 18.2337 255.92 18.3142 256.34 18.4349C258.68 18.9777 260.18 19.5807 260.84 20.2441C261.02 20.606 261.11 20.9679 261.11 21.3298C261.11 21.6916 261.23 21.9529 261.47 22.1037C261.71 22.2544 261.83 22.546 261.83 22.9582C261.83 23.2597 261.77 23.5612 261.65 23.8627C261.53 24.1643 261.26 24.486 260.84 24.8077C260.42 25.1394 259.99 25.4409 259.54 25.7123C259.09 25.9837 258.76 26.1143 258.55 26.1143C258.34 26.1143 258.06 26.1747 257.69 26.2953C256.61 26.5969 255.59 26.8079 254.63 26.9286C253.67 27.0492 252.8 27.1096 252.02 27.1096L251.48 27.019C249.68 27.019 248.7 26.9588 248.56 26.8381C248.41 26.7175 248.27 26.627 248.15 26.5667C247.55 26.5667 247.25 26.5064 247.25 26.3857C247.25 26.2651 247.43 26.1746 247.79 26.1143C248.51 25.9937 249.27 25.8128 250.08 25.5716C250.89 25.3304 251.59 25.1193 252.19 24.9383C252.79 24.7574 253.09 24.6267 253.09 24.5362C253.09 24.4458 253.28 24.305 253.67 24.1241C254.06 23.9431 254.54 23.7623 255.11 23.5814C255.68 23.4004 256.25 23.2396 256.82 23.0788C257.39 22.928 257.67 22.7973 257.67 22.6767C257.67 22.6164 257.56 22.536 257.36 22.4455C257.15 22.355 256.13 22.2344 254.3 22.0837C252.47 21.9329 250.31 21.782 247.82 21.6313C245.33 21.4805 242.92 21.38 240.58 21.3097L236.44 21.4001C232.24 21.5207 228.22 21.6714 224.38 21.8524C222.04 22.0333 220.36 22.1238 219.34 22.1238L213.49 22.4856C210.85 27.3105 208.51 31.7736 206.47 35.8747C204.61 39.3727 203.02 42.7199 201.7 45.9164C199.96 50.2588 198.4 53.7266 197.02 56.32C195.52 59.3355 193.49 64.462 190.94 71.6993C188.39 78.9366 186.3 85.4501 184.68 91.2399L183.69 94.8585C181.95 100.648 180.69 106.408 179.91 112.138C179.37 116.058 179.1 119.526 179.1 122.541C179.1 124.652 179.25 126.311 179.55 127.517C179.79 129.085 180.09 129.959 180.45 130.14C180.57 130.14 181.2 129.778 182.34 129.055L183.6 128.331L184.32 128.06C184.5 128.06 184.68 128.271 184.86 128.693C185.16 129.356 185.4 130.351 185.58 131.678C185.58 132.221 185.55 132.523 185.49 132.583C185.19 132.884 185.01 133.226 184.95 133.628C184.89 134.02 184.54 134.332 183.91 134.573C183.28 134.814 182.7 134.935 182.16 134.935L182.15 134.955ZM168.02 24.7674L172.34 24.4056C173.12 24.2849 174.13 24.1744 175.36 24.094C176.59 24.0036 177.75 23.9131 178.82 23.8226C179.9 23.7321 180.99 23.6316 182.11 23.5109C183.22 23.3903 184.15 23.2998 184.9 23.2395C185.65 23.1792 186.26 23.139 186.74 23.0988C187.22 23.0686 187.58 23.0385 187.82 23.0083C188.06 22.9782 188.24 22.938 188.36 22.8777L188.45 22.7872C188.45 22.7269 188.43 22.6867 188.4 22.6465C188.37 22.6163 188.32 22.5962 188.27 22.5962L188.09 22.7772C187.91 22.8375 187.52 22.8676 186.92 22.8676C183.68 23.0485 179.96 23.3501 175.76 23.7723C173.78 24.0135 171.71 24.2246 169.55 24.4056C168.71 24.4659 168.01 24.5463 167.44 24.6367C166.87 24.7272 166.56 24.7674 166.5 24.7674H168.03H168.02ZM174.14 121.928C174.32 121.928 174.74 119.274 175.4 113.967C176.18 107.755 177.08 102.84 178.1 99.2211L178.64 96.7784L179.72 92.5266L180.53 90.1745C181.43 86.7367 182.18 84.2036 182.78 82.5752C182.9 81.8515 183.14 81.0072 183.5 80.0422L183.77 79.0471C183.89 78.3836 184.11 77.6499 184.44 76.8257C184.77 76.0115 185.12 75.0968 185.48 74.0715L186.83 70.0005C187.01 69.2164 188.27 65.8692 190.61 59.9587C192.47 55.1339 194.36 50.5804 196.28 46.2984C200.12 38.0358 202.61 32.8792 203.75 30.8287C204.59 29.3209 205.01 28.4765 205.01 28.2956C205.01 28.2353 204.98 28.2052 204.92 28.2052C204.86 28.2052 204.71 28.376 204.47 28.7078C204.23 29.0395 203.99 29.3611 203.75 29.6626C203.09 30.326 202.22 31.6227 201.14 33.5527C200.24 35.1811 199.38 36.8397 198.57 38.5284C197.76 40.2171 197.27 41.3027 197.09 41.7851C197.09 42.2676 197.01 42.5088 196.87 42.5088C196.73 42.5088 196.63 42.5491 196.6 42.6496C196.57 42.74 196.55 42.8506 196.55 42.9611V43.0517C196.55 43.6548 195.5 45.9164 193.4 49.8366C192.68 51.1635 192.32 51.9174 192.32 52.0983C192.32 52.2792 192.05 52.7918 191.51 53.6361C190.85 54.782 189.71 57.4659 188.09 61.6876C186.47 65.9094 184.94 70.101 183.5 74.2624C182.9 76.132 182.36 77.6901 181.88 78.9164C181.4 80.1528 181.05 80.7659 180.84 80.7659C180.63 80.7659 180.04 82.6356 179.08 86.3749C178.24 89.3301 177.76 91.0992 177.64 91.6722C177.52 92.2451 177.46 92.6873 177.46 92.9889C177.4 93.2904 177.41 93.4413 177.51 93.4413C177.61 93.4413 177.65 93.4714 177.65 93.5317C177.65 94.0142 177.47 94.4364 177.11 94.7983C176.99 94.8586 176.84 95.1903 176.66 95.7934C176.06 97.8439 175.7 99.3818 175.58 100.407C175.58 101.01 175.61 101.402 175.67 101.583C175.85 102.005 175.94 102.307 175.94 102.488C175.94 102.548 175.91 102.578 175.85 102.578L175.58 102.488C175.4 102.548 175.22 103.151 175.04 104.297C174.62 106.227 174.26 109.182 173.96 113.163C173.9 114.128 173.87 115.153 173.87 116.239C173.99 117.204 174.05 118.47 174.05 120.038C174.05 121.305 174.08 121.938 174.14 121.938V121.928ZM176.66 122.199C176.78 122.199 176.84 121.566 176.84 120.3L176.75 119.124C176.75 118.34 176.78 117.636 176.84 116.993C176.9 116.359 176.94 115.997 176.98 115.907C177.01 115.817 177.03 115.646 177.03 115.404C177.03 115.223 177.01 115.032 176.98 114.821C176.95 114.61 176.9 114.51 176.84 114.51C176.78 114.51 176.7 115.324 176.62 116.952C176.53 118.581 176.48 119.817 176.48 120.661C176.48 121.687 176.54 122.199 176.66 122.199ZM177.29 110.348L177.56 109.625C177.5 109.504 177.44 109.444 177.38 109.444L177.2 109.986C177.2 110.228 177.23 110.348 177.29 110.348ZM177.56 108.358C177.8 108.358 178.22 106.699 178.82 103.382C179.12 101.875 179.36 100.809 179.54 100.176C179.72 99.5427 179.95 99.1506 180.22 98.9998C180.49 98.8491 180.63 98.7185 180.63 98.5979C180.63 98.4772 180.55 98.3164 180.41 98.0953C180.26 97.8842 180.18 97.6831 180.18 97.5122C180.18 97.2106 180.33 96.8086 180.63 96.296C180.93 95.7833 181.14 95.1702 181.26 94.4364C181.38 93.7127 182.19 90.878 183.69 85.9325C183.93 85.3897 184.05 84.9374 184.05 84.5755C184.05 84.4549 184.02 84.3846 183.96 84.3444C183.9 84.3142 183.87 84.0629 183.87 83.5704C184.05 83.2688 184.29 83.1181 184.59 83.1181C184.89 83.1181 185.34 81.5801 185.94 78.5042C186.06 77.7805 186.27 77.2076 186.57 76.7854C186.87 76.3632 187.29 75.2475 187.83 73.4382C188.97 69.7593 189.87 67.3166 190.53 66.1104C190.77 65.5676 191.04 64.8137 191.34 63.8488C191.46 63.0044 191.62 62.4818 191.83 62.2707C192.04 62.0596 192.26 61.4162 192.51 60.3206C192.75 59.235 192.96 58.6922 193.14 58.6922L193.32 58.7826C193.38 58.7826 193.41 58.7525 193.41 58.6922L193.32 58.4208C193.32 58.1192 193.38 57.7373 193.5 57.295C193.62 56.8427 193.8 56.4205 194.04 56.0284C194.28 55.6364 194.52 55.335 194.76 55.1239C195 54.9128 195.21 54.2092 195.39 52.9929C195.45 52.4501 195.53 51.9977 195.61 51.6358C195.7 51.274 195.77 51.0931 195.83 51.0931C195.89 51.0931 195.98 51.0226 196.1 50.8618C196.22 50.711 196.32 50.5201 196.41 50.2789C196.5 50.0376 196.59 49.8467 196.68 49.6959C196.77 49.5451 196.84 49.4546 196.9 49.4245C196.96 49.3943 197.06 49.2436 197.22 48.9722C197.37 48.7008 197.52 48.3389 197.67 47.8865C197.82 47.4342 197.95 47.012 198.08 46.62C198.2 46.228 198.29 45.9164 198.35 45.6651C198.35 45.5445 198.32 45.4841 198.26 45.4841C198.14 45.4841 197.87 45.9063 197.45 46.7507C196.19 49.1028 194.63 52.5405 192.77 57.0638C192.35 58.2097 192.02 59.0842 191.78 59.6873C191.54 60.2904 191.42 60.7427 191.42 61.0443C191.42 61.2855 191.48 61.4564 191.6 61.5469C191.72 61.6373 191.78 61.7178 191.78 61.7782C191.78 61.8385 191.67 61.8686 191.47 61.8686C191.27 61.8686 191 62.1601 190.7 62.723C190.4 63.2959 189.95 64.3112 189.35 65.7586C187.07 71.6088 184.88 78.243 182.78 85.6612C182.42 86.9881 182.03 88.2847 181.61 89.5513C180.47 93.4715 179.81 95.904 179.63 96.8287C179.45 97.7636 179.24 98.7486 179 99.7738C178.52 101.824 178.19 103.483 178.01 104.75C177.83 105.594 177.71 106.318 177.65 106.921L177.56 108.368V108.358ZM189.44 22.9582C189.62 22.9582 189.71 22.8978 189.71 22.7772C189.71 22.6566 189.62 22.5962 189.44 22.5962C189.32 22.5962 189.26 22.6566 189.26 22.7772C189.26 22.8375 189.32 22.8979 189.44 22.9582ZM190.61 22.7772C190.85 22.7772 190.97 22.7168 190.97 22.5962C190.97 22.4756 190.91 22.4153 190.79 22.4153C190.49 22.4153 190.34 22.5058 190.34 22.6867C190.34 22.7471 190.43 22.7772 190.61 22.7772ZM193.76 22.5962C193.88 22.5962 194.03 22.5359 194.21 22.4153L194.57 22.3249C194.57 22.2646 194.42 22.2343 194.12 22.2343C193.76 22.2343 193.58 22.2947 193.58 22.4153C193.58 22.5359 193.64 22.5962 193.76 22.5962ZM195.11 22.4153C195.59 22.4153 196.4 22.355 197.54 22.2343C198.68 22.1137 199.58 22.0232 200.24 21.9629C200.54 21.9629 200.69 21.9328 200.69 21.8725L194.84 22.3249C194.84 22.3852 194.93 22.4153 195.11 22.4153ZM225.08 20.5155C225.08 20.4552 224.9 20.3948 224.54 20.3345H224.09C224.09 20.2742 224.18 20.214 224.36 20.1537C224.48 20.1537 224.7 20.1738 225.03 20.1939C225.36 20.2241 225.73 20.2743 226.15 20.3246C226.57 20.3849 226.96 20.415 227.32 20.415C227.98 20.415 228.52 20.3245 228.94 20.1436C229.06 20.1436 229.4 20.1135 229.98 20.0532C230.55 19.9929 231.15 19.9325 231.78 19.8722C232.41 19.8119 232.84 19.7818 233.09 19.7818C233.34 19.7818 233.48 19.7516 233.54 19.6913H233.63C233.63 19.5707 233.21 19.5103 232.37 19.5103C231.59 19.5103 230.48 19.5707 229.04 19.6913C228.44 19.6913 227.76 19.7215 227.02 19.7818C226.27 19.8421 225.61 19.8923 225.04 19.9124C224.47 19.9426 224.02 19.9727 223.69 20.0029C223.36 20.033 223.09 20.0631 222.88 20.0933C222.67 20.1235 222.52 20.1335 222.43 20.1335C222.34 20.1335 222.26 20.1637 222.21 20.224C222.21 20.2843 222.45 20.3145 222.93 20.3145L223.56 20.224V20.3145C223.56 20.4352 223.83 20.4954 224.37 20.4954H225.09L225.08 20.5155ZM236.06 19.7013L243.08 19.43C243.08 19.3697 242.72 19.3394 242 19.3394C239.12 19.3394 237.23 19.3596 236.33 19.3897C235.43 19.4199 234.86 19.45 234.62 19.4802C234.38 19.5103 234.26 19.5606 234.26 19.6108C234.26 19.6611 234.86 19.7013 236.06 19.7013ZM247.22 19.7918C247.22 19.7315 247.14 19.6913 247 19.6511C246.85 19.6209 246.78 19.5807 246.78 19.5204L247.05 19.43L246.69 19.3394H244.35L243.99 19.43C244.05 19.4903 244.47 19.5204 245.25 19.5204C246.03 19.5204 246.42 19.5806 246.42 19.7013L247.23 19.7918H247.22ZM258.65 20.8774L258.74 20.7869C258.74 20.7266 258.59 20.6663 258.29 20.606C256.97 20.1235 255.32 19.7918 253.34 19.6108C252.08 19.4299 250.97 19.3394 250.01 19.3394C248.69 19.3394 248.03 19.4299 248.03 19.6108C248.03 19.7315 248.42 19.7918 249.2 19.7918L250.19 19.7013C250.43 19.7616 250.58 19.8119 250.64 19.842C250.7 19.8722 250.86 19.9224 251.13 19.9827C251.4 20.0431 251.73 20.0733 252.12 20.0733C252.51 20.0733 253.09 20.1034 253.88 20.1637C255.86 20.3447 257.12 20.5155 257.66 20.6663C258.2 20.8171 258.53 20.8874 258.65 20.8874V20.8774Z" fill="#BBB573"/>
<path d="M203.03 90.536C202.73 90.536 202.43 90.4455 202.13 90.2646C201.83 90.0836 201.59 89.9027 201.41 89.7217C200.75 89.1789 200.35 88.9076 200.19 88.9076C200.03 88.9076 199.97 88.7266 199.97 88.3648C199.97 88.0029 200 87.812 200.06 87.7717C200.12 87.7416 200.15 87.7014 200.15 87.6411C200.15 87.5204 200.09 87.3998 199.97 87.2792C199.19 86.6158 198.8 85.7111 198.8 84.5652C198.8 83.4796 199.16 82.1528 199.88 80.5847C200.42 79.3182 200.87 78.6849 201.23 78.6849L201.32 78.7753C201.32 78.9563 201.08 79.5393 200.6 80.5344C200.12 81.5295 199.79 82.5146 199.61 83.4695C199.49 84.0123 199.43 84.4646 199.43 84.8265C199.43 85.309 199.52 85.5502 199.7 85.5502C199.76 85.5502 199.79 85.4799 199.79 85.319C199.79 85.1582 199.85 84.9271 199.97 84.5953C200.09 84.2636 200.21 83.9218 200.33 83.5499C200.63 82.8865 200.78 82.374 200.78 82.0121L200.69 81.4692C200.69 81.1074 201.07 80.4038 201.81 79.3483C202.56 78.2929 202.93 77.6697 202.93 77.4888V77.3982C202.81 77.3982 202.68 77.4586 202.53 77.5792C202.38 77.6998 202.25 77.7601 202.12 77.7601C202.06 77.7601 202.03 77.73 202.03 77.6696C202.03 77.4887 202.11 77.3982 202.25 77.3982C202.39 77.3982 202.69 77.0364 203.1 76.3127C203.28 75.8302 203.67 75.1668 204.27 74.3224C205.29 72.9956 206.16 71.7592 206.88 70.6133L208.41 68.3516C209.97 66.1804 210.84 65.0245 211.02 64.8737C211.2 64.723 211.29 64.5119 211.29 64.2405C211.29 63.9691 211.78 63.1851 212.78 61.8884C213.77 60.5917 214.26 59.9182 214.26 59.8478C214.26 59.486 215.94 57.4053 219.3 53.6057C221.04 51.7361 222.09 50.7711 222.45 50.7108C222.81 50.6505 223.41 50.2886 224.25 49.6251C225.21 48.6602 226.26 48.1777 227.4 48.1777C227.88 48.1777 228.33 48.238 228.75 48.3586C229.53 48.4792 230.11 48.7406 230.51 49.1225C230.9 49.5146 231.3 49.8061 231.72 49.987C232.32 50.4092 232.86 51.0927 233.34 52.0175C233.82 52.9523 234.21 53.5755 234.51 53.877C234.87 54.058 235.21 54.3395 235.54 54.7315C235.87 55.1235 236.15 55.3145 236.4 55.3145C236.65 55.3145 236.89 55.6663 237.16 56.3599C237.43 57.0535 237.57 57.7369 237.57 58.4003C237.57 59.305 237.27 60.6319 236.67 62.3809C236.25 63.3459 235.65 65.0345 234.87 67.4469C234.45 68.7738 233.61 71.0354 232.35 74.2319C230.55 78.5743 229.65 81.8311 229.65 84.0023C229.65 84.907 229.72 85.4397 229.87 85.5905C230.02 85.7412 230.45 85.8116 231.17 85.8116C232.07 85.8116 233.27 85.4799 234.77 84.8165C238.73 83.0674 243.02 80.1725 247.64 76.1317C248.9 75.0461 249.68 74.5033 249.98 74.5033H250.07C250.31 74.5033 251.22 73.7494 252.81 72.2417C254.4 70.7339 255.28 69.98 255.47 69.98C255.53 69.98 255.57 70.0102 255.61 70.0706C255.64 70.1309 255.65 70.1911 255.65 70.2514C255.59 70.4324 255.41 70.7038 255.11 71.0657C254.81 71.4275 254.66 71.6989 254.66 71.8798C254.72 71.8798 254.9 71.7391 255.2 71.4777C255.5 71.2063 255.89 70.8646 256.37 70.4324C257.39 69.4071 258.09 68.8241 258.48 68.6733C258.87 68.5226 259.09 68.3416 259.15 68.1305C259.21 67.9194 259.36 67.6681 259.6 67.3565C260.2 66.6931 260.62 66.3614 260.86 66.3614C261.1 66.3614 261.22 66.4217 261.22 66.5424C261.22 66.7233 261 66.9946 260.54 67.3565C260.09 67.7184 259.77 68.231 259.6 68.8945C259.6 69.0754 259.55 69.2564 259.46 69.4373C259.37 69.6182 259.26 69.7086 259.14 69.7086C259.02 69.7086 258.96 69.8192 258.96 70.0203C258.96 70.2213 258.11 71.2567 256.39 73.0962C254.68 74.9356 253.83 75.9609 253.83 76.1719C253.83 76.383 253.11 77.167 251.67 78.524C250.23 79.881 249.42 80.5646 249.24 80.5646L249.15 80.4741C249.03 80.4741 248.97 80.6249 248.97 80.9264C248.97 81.228 248.4 81.8612 247.26 82.8262C246.12 83.7912 244.77 84.7562 243.21 85.7211C239.25 88.2542 235.95 89.5207 233.31 89.5207C231.33 89.5207 229.77 88.9176 228.63 87.7114C228.09 87.2289 227.79 86.857 227.73 86.5856C227.67 86.3142 227.4 85.9423 226.92 85.4598C225.84 84.3742 225.3 82.8664 225.3 80.9365C225.3 80.1524 225.39 79.2076 225.57 78.0919C225.75 76.9761 225.99 76.182 226.29 75.6895C226.35 75.5085 226.47 75.207 226.65 74.7848C226.83 74.3626 227.01 73.8499 227.19 73.2468C228.87 68.6029 230.94 63.8988 233.4 59.1342C233.1 59.3151 232.77 59.5262 232.41 59.7675C232.05 60.0087 231.42 60.6721 230.52 61.7577C230.16 62.3608 229.86 62.7729 229.62 62.984C229.38 63.1951 229.02 63.3458 228.54 63.4363C228.06 63.5267 226.9 64.4616 225.08 66.2408C223.25 68.0199 222.23 68.9045 222.02 68.9045C221.81 68.9045 221.71 69.0251 221.71 69.2664C221.71 69.5076 221.65 69.7187 221.53 69.8996C221.41 70.0806 221.27 70.2917 221.13 70.5329C220.98 70.7741 220.84 70.8948 220.72 70.8948V70.8043C220.6 70.8043 220.42 71.0154 220.18 71.4376L215.68 77.3179L209.92 84.6457C208.72 86.1534 207.43 87.5103 206.05 88.7166C204.67 89.9228 203.65 90.5259 202.99 90.5259L203.03 90.536ZM206.99 79.861C207.11 79.861 208.1 78.8055 209.96 76.6947C211.52 74.7647 212.75 73.3172 213.65 72.3522C214.73 71.0857 215.39 70.4525 215.63 70.4525C215.81 70.4525 215.9 70.5128 215.9 70.6334V70.8144H215.99L216.08 70.6334C216.14 70.4525 216.17 70.3017 216.17 70.1811C216.17 70.0002 216.14 69.8796 216.08 69.8193V69.7287C216.08 69.6081 216.26 69.2764 216.62 68.7336C218.3 66.8036 219.44 65.5371 220.04 64.934C220.64 64.3309 221.12 64.0294 221.48 64.0294C221.84 64.0294 222.08 63.9992 222.2 63.9389L222.11 63.758C221.99 63.6374 221.93 63.4263 221.93 63.1247C222.05 62.8835 222.8 62.0692 224.18 60.6821C225.8 58.9331 226.73 57.8174 226.97 57.3349C227.21 56.8524 227.51 56.2493 227.87 55.5255L228.86 52.8116C228.8 52.8116 228.56 52.9623 228.14 53.2639C227.72 53.5654 227.24 53.9474 226.7 54.3897C226.16 54.842 225.65 55.2642 225.17 55.6562C224.69 56.0482 224.33 56.3799 224.09 56.6513C223.85 56.9227 223.67 57.0534 223.55 57.0534H223.46C223.4 57.0534 223.37 57.0233 223.37 56.963L223.55 56.4202C223.55 56.3598 223.52 56.3297 223.46 56.3297C223.4 56.3297 223.31 56.3901 223.19 56.5107C223.07 56.6313 223.01 56.8624 223.01 57.1942C223.01 57.5259 221.66 59.1744 218.96 62.1196C217.34 63.9289 215.99 65.5874 214.91 67.0951C213.29 69.3266 212.36 70.5731 212.12 70.8545C211.88 71.1259 211.49 71.6888 210.95 72.5332C208.25 77.0565 206.9 79.4689 206.9 79.7704C206.9 79.8307 206.93 79.861 206.99 79.861ZM208.52 70.7238C208.58 70.6635 208.68 70.5128 208.83 70.2715C208.98 70.0303 209.05 69.8493 209.05 69.7287C209.05 69.6081 208.99 69.5478 208.87 69.5478C208.75 69.5478 208.69 69.6584 208.69 69.8594C208.69 70.0604 208.61 70.1711 208.47 70.1711C208.33 70.1711 208.25 70.2615 208.25 70.4425C208.25 70.6234 208.28 70.7138 208.34 70.7138H208.52V70.7238ZM217.16 70.7238C217.34 70.7238 218.42 69.6081 220.4 67.3766C222.38 65.1451 223.5 64.0294 223.78 64.0294C224.06 64.0294 224.18 63.9691 224.18 63.8484V63.758C224.18 63.6374 224.21 63.4865 224.27 63.3056C224.33 63.1247 224.42 62.9739 224.54 62.8533L224.63 62.6723L224 63.3056C219.44 67.8892 217.16 70.362 217.16 70.7238ZM220.49 69.2764L220.58 69.0954C220.58 68.613 220.52 68.3416 220.4 68.2813C220.28 68.2813 220.16 68.3215 220.04 68.4221C219.92 68.5125 219.86 68.623 219.86 68.7336C219.86 68.7939 219.92 68.9045 220.04 69.0453C220.16 69.196 220.28 69.2764 220.4 69.2764H220.49Z" fill="#BBB573"/>
<path d="M266.48 100.488H265.4C262.76 100.488 260.06 99.6437 257.3 97.955C255.5 96.8694 254.15 95.6631 253.25 94.3363C253.13 94.0347 252.8 93.4919 252.26 92.7079C250.1 89.8733 249.02 86.7975 249.02 83.4804C249.02 82.033 249.2 80.5252 249.56 78.9571C251.42 71.0564 256.13 62.6431 263.69 53.7171C265.07 52.149 266.49 50.6311 267.97 49.1435C269.44 47.6659 270.73 46.4597 271.84 45.5249C272.95 44.59 273.67 44.1176 274 44.1176C274.33 44.1176 274.79 43.8462 275.4 43.3034C276.42 42.3988 277.89 41.5142 279.81 40.6296C281.73 39.7551 283.62 39.1118 285.48 38.6896C286.98 38.388 288.36 38.2373 289.62 38.2373C291.96 38.2373 293.88 38.7801 295.38 39.8657C297.36 41.1322 298.47 42.7606 298.71 44.7508L298.8 46.2888C298.8 46.5904 298.74 46.922 298.62 47.2839C297.9 49.636 297.36 51.2343 297 52.0786C296.64 52.923 296.01 54.0688 295.11 55.5163C294.87 55.9384 294.75 56.1798 294.75 56.2401C294.75 56.3004 294.51 56.7226 294.03 57.5066C290.37 63.4171 287.1 67.3071 284.22 69.1767C283.32 69.6592 282.33 69.9004 281.25 69.9004C281.07 69.9004 280.59 69.8703 279.81 69.81C279.03 69.7497 278.1 69.3275 277.02 68.5435C275.64 67.3976 274.95 66.2516 274.95 65.1057L275.04 63.7487C276.9 63.7487 277.98 63.809 278.28 63.9296C278.58 64.0502 278.94 64.2613 279.36 64.5629C280.14 65.166 280.56 65.4676 280.62 65.4676C280.86 65.4676 281.44 65.0655 282.37 64.2513C283.3 63.4371 284.21 62.4923 285.12 61.4067C287.82 58.3309 290.34 54.5011 292.68 49.9175C293.22 48.8319 293.61 48.0077 293.85 47.4247C294.09 46.8517 294.24 46.3893 294.3 46.0274C294.36 45.6656 294.39 45.2133 294.39 44.6705C294.39 43.5246 294.33 42.7103 294.21 42.2278C293.97 41.2629 292.71 40.7804 290.43 40.7804C288.45 40.7804 286.56 41.4137 284.76 42.6802C284.34 42.9215 283.84 43.2229 283.28 43.5848C282.71 43.9467 282.17 44.2684 281.66 44.5297C281.15 44.8011 280.61 45.1127 280.04 45.4846C279.47 45.8465 279.02 46.148 278.69 46.3893C278.36 46.6305 278.06 46.8315 277.79 46.9722C277.52 47.123 277.34 47.2035 277.25 47.2035C277.16 47.2035 276.38 47.9172 274.91 49.3245C273.44 50.7418 271.85 52.3299 270.14 54.0789C268.43 55.8279 267.05 57.3056 266 58.5118C264.95 59.718 263.78 61.2258 262.49 63.0351C261.2 64.8444 260.06 66.5532 259.07 68.1414C258.08 69.7396 257.5 70.8755 257.31 71.5389C257.25 71.7801 257.11 72.1922 256.91 72.7551C256.7 73.3281 256.44 73.9613 256.14 74.6549C255.84 75.3485 255.52 76.213 255.19 77.2282C254.86 78.2535 254.57 79.1882 254.34 80.0326C254.04 81.2388 253.83 82.2239 253.71 82.9678C253.59 83.7216 253.53 84.7268 253.53 86.0034C253.53 87.5715 253.67 88.848 253.93 89.8432C254.2 90.8383 254.63 91.7933 255.24 92.6879C255.66 93.2307 256.44 93.8137 257.58 94.457C258.72 95.0903 259.88 95.5626 261.05 95.8642C262.22 96.1657 263.49 96.3166 264.87 96.3166C267.33 96.3166 270.03 95.8643 272.97 94.9596C286.23 90.5569 298.65 82.8371 310.23 71.8002C312.15 69.8703 313.65 68.272 314.73 67.0055C315.21 66.2215 316.02 65.166 317.16 63.8392C317.88 62.8742 318.39 62.1405 318.69 61.6278C318.99 61.1152 319.23 60.8538 319.41 60.8538C319.59 60.8538 319.89 60.5522 320.31 59.9491C320.73 59.346 321 59.0445 321.12 59.0445V59.135C321.12 59.4366 320.82 60.1904 320.22 61.3967L321.03 60.5824V61.2157C321.03 61.4569 321.09 61.5775 321.21 61.5775C321.33 61.5775 321.39 61.6981 321.39 61.9394C321.39 62.3616 321.06 63.236 320.4 64.5629C319.56 66.0706 318.46 67.6087 317.11 69.1767C315.76 70.7448 315.01 71.7902 314.86 72.2928C314.71 72.8054 314.06 73.6698 312.93 74.876C309.63 78.3137 306.75 80.9674 304.29 82.8371C302.07 84.6464 299.53 86.4859 296.69 88.3555C293.84 90.2251 292.02 91.4917 291.24 92.1551C289.32 93.5423 286.5 94.9998 282.78 96.5377C279.06 98.0756 275.86 99.121 273.2 99.6638C270.53 100.207 268.3 100.478 266.5 100.478L266.48 100.488ZM250.37 82.4853L250.73 80.5855C250.85 79.5602 251.09 78.5047 251.45 77.4192C251.99 75.7305 253.01 73.3181 254.51 70.1819C255.47 68.4329 255.95 67.4076 255.95 67.106L255.86 67.0156L255.77 67.106C255.17 67.7091 254.15 69.7296 252.71 73.1673C251.63 75.7606 250.97 77.6906 250.73 78.9571C250.61 79.4999 250.49 80.676 250.37 82.4853ZM257.48 64.3016C257.6 64.3016 257.81 64.0906 258.11 63.6684L258.74 62.6731C258.68 62.6731 258.45 62.9044 258.06 63.3567C257.67 63.809 257.48 64.1308 257.48 64.3016ZM259.01 62.04C259.13 62.04 259.37 61.7987 259.73 61.3162C260.09 60.8337 260.27 60.502 260.27 60.3211L259.91 60.7735C259.61 61.075 259.38 61.3364 259.23 61.5374C259.08 61.7485 259.01 61.8891 259.01 61.9494V62.04ZM261.8 58.1498C261.86 58.1498 261.99 58.0595 262.21 57.8785C262.42 57.6976 262.69 57.4162 263.02 57.0141C263.35 56.6221 263.63 56.2199 263.87 55.7977L263.96 55.6169C263.9 55.6169 263.66 55.8581 263.24 56.3406C262.82 56.8231 262.47 57.2151 262.2 57.5167C261.93 57.8182 261.79 58.0292 261.79 58.1498H261.8ZM296.18 87.9133C296.3 87.9133 297.2 87.3403 298.88 86.1943C299.48 85.7119 300.17 85.1892 300.95 84.6062C301.73 84.0333 302.39 83.5106 302.93 83.0181L305.45 81.1183C307.31 79.4899 309.11 77.7107 310.85 75.7807C313.19 73.2477 314.45 71.6193 314.63 70.8956C314.63 70.8352 314.6 70.8051 314.54 70.8051C314.3 70.8051 313.43 71.6192 311.93 73.2476C309.95 75.2379 308.51 76.7155 307.61 77.6805C306.71 78.6455 306.26 79.1883 306.26 79.3089V79.5803L306.08 79.4899C305.9 79.4899 305.57 79.6707 305.09 80.0326C304.85 80.2738 304.04 80.9372 302.66 82.0228C302.36 82.2038 302.09 82.4149 301.85 82.6561C298.67 85.1288 297.08 86.4758 297.08 86.6869C297.08 86.898 296.93 87.1393 296.63 87.4107C296.33 87.6821 296.18 87.853 296.18 87.9133ZM315.44 70.0914C315.68 70.0914 315.98 69.7899 316.34 69.1868C316.52 68.8852 316.75 68.5434 317.02 68.1414C317.29 67.7494 317.43 67.4679 317.43 67.287L316.44 68.463C315.78 69.4279 315.45 69.9406 315.45 70.0009V70.0914H315.44Z" fill="#BBB573"/>
<path d="M321.2 134.955H320.75C320.45 134.895 320.1 134.804 319.72 134.684C319.33 134.563 319 134.412 318.73 134.231C318.46 134.05 318.15 133.839 317.78 133.598C317.42 133.357 317.12 133.126 316.88 132.915C316.64 132.703 316.4 132.533 316.16 132.412C315.92 132.291 315.74 132.211 315.62 132.181C315.5 132.151 315.28 131.94 314.94 131.548C314.61 131.156 314.24 130.653 313.82 130.06C312.26 128.13 311.48 124.662 311.48 119.656C311.48 116.882 311.69 113.706 312.11 110.107C312.53 106.519 313.1 103.041 313.82 99.6633C319.16 75.1771 328.85 49.7562 342.89 23.4004L339.74 23.4908L330.65 24.3051C329.27 24.486 328.54 24.6066 328.44 24.6669C328.35 24.7272 328.24 24.7573 328.13 24.7573L326.96 24.8479C326.36 24.9685 325.58 25.0589 324.62 25.1192C323.66 25.1795 322.43 25.27 320.93 25.3906L312.92 26.2049C300.86 27.2905 292.13 28.165 286.73 28.8284C285.83 28.949 284.66 29.0395 283.22 29.0998C281.06 29.2807 278.9 29.3712 276.74 29.3712C276.38 29.2506 276.02 29.0092 275.66 28.6474C275.3 28.2855 275.12 28.0041 275.12 27.793C275.12 27.5819 275.11 27.4613 275.08 27.4312C275.05 27.401 274.96 27.3709 274.81 27.3407C274.66 27.3106 274.58 27.0191 274.58 26.4763C274.58 25.9938 274.64 25.6922 274.76 25.5716C274.88 25.451 275 25.2599 275.12 24.9885C275.24 24.7171 275.32 24.5363 275.34 24.4458C275.37 24.3553 275.72 24.3151 276.38 24.3151C277.94 24.3151 278.94 24.305 279.39 24.2648C279.84 24.2347 280.31 24.0738 280.79 23.7723C281.27 23.4707 281.84 23.32 282.5 23.32H283.4C283.82 23.3803 284.27 23.6215 284.75 24.0437C284.87 24.2246 284.99 24.3351 285.11 24.3553C285.23 24.3854 285.5 24.3955 285.92 24.3955C286.4 24.3955 287.27 24.3353 288.53 24.2146L300.14 23.3099C300.86 23.3099 301.22 23.3401 301.22 23.4004C301.22 23.4607 301.15 23.511 301 23.5311C300.85 23.5612 300.67 23.5713 300.46 23.5713C300.25 23.5713 300.03 23.6014 299.78 23.6617C299.54 23.722 299.36 23.7522 299.24 23.7522L298.97 23.8427H299.42C301.82 23.8427 307.97 23.3903 317.87 22.4856L324.08 21.9429C330.5 21.4001 334.32 21.0885 335.56 20.998C336.79 20.9075 337.91 20.8071 338.94 20.6864C342 20.5055 343.86 20.3547 344.52 20.234L347.76 14.5348C350.58 9.28772 352.44 6.0611 353.34 4.85488C354.06 3.70898 354.42 2.98521 354.42 2.68366C354.66 1.53776 355.41 0.964844 356.67 0.964844C357.15 0.964844 357.72 1.11557 358.38 1.41713C359.7 2.08054 360.36 2.56297 360.36 2.86452C360.36 2.92483 360.42 3.00535 360.54 3.09582C360.66 3.18628 360.84 3.2265 361.08 3.2265C361.56 3.34712 361.95 3.66873 362.25 4.18137C362.55 4.69401 362.7 5.28706 362.7 5.94043C362.7 6.54354 362.52 6.99584 362.16 7.2974C361.98 7.41802 361.77 7.7196 361.53 8.20208C361.47 8.56395 361.11 9.28771 360.45 10.3733C359.79 11.4589 359.04 12.5144 358.2 13.5396C357.24 14.8062 355.92 16.7964 354.24 19.5103C357.3 19.2691 360.25 19.0479 363.1 18.8368C365.95 18.6257 368.1 18.4649 369.54 18.3342C370.98 18.2136 372.78 18.1233 374.94 18.0629H392.4C393.12 18.1233 393.69 18.1734 394.11 18.2036C394.53 18.2337 394.95 18.3142 395.37 18.4349C397.71 18.9777 399.21 19.5807 399.87 20.2441C400.05 20.606 400.14 20.9679 400.14 21.3298C400.14 21.6916 400.26 21.9529 400.5 22.1037C400.74 22.2544 400.86 22.546 400.86 22.9582C400.86 23.2597 400.8 23.5612 400.68 23.8627C400.56 24.1643 400.29 24.486 399.87 24.8077C399.45 25.1394 399.02 25.4409 398.57 25.7123C398.12 25.9837 397.79 26.1143 397.58 26.1143C397.37 26.1143 397.08 26.1747 396.72 26.2953C395.64 26.5969 394.62 26.8079 393.66 26.9286C392.7 27.0492 391.83 27.1096 391.05 27.1096L390.51 27.019C388.71 27.019 387.73 26.9588 387.59 26.8381C387.44 26.7175 387.3 26.627 387.18 26.5667C386.58 26.5667 386.28 26.5064 386.28 26.3857C386.28 26.2651 386.46 26.1746 386.82 26.1143C387.54 25.9937 388.31 25.8128 389.11 25.5716C389.92 25.3304 390.62 25.1193 391.22 24.9383C391.82 24.7574 392.12 24.6267 392.12 24.5362C392.12 24.4458 392.31 24.305 392.7 24.1241C393.09 23.9431 393.57 23.7623 394.14 23.5814C394.71 23.4004 395.28 23.2396 395.85 23.0788C396.42 22.928 396.7 22.7973 396.7 22.6767C396.7 22.6164 396.59 22.536 396.39 22.4455C396.18 22.355 395.16 22.2344 393.33 22.0837C391.5 21.9329 389.34 21.782 386.85 21.6313C384.36 21.4805 381.95 21.38 379.61 21.3097L375.47 21.4001C371.27 21.5207 367.25 21.6714 363.41 21.8524C361.07 22.0333 359.39 22.1238 358.37 22.1238L352.52 22.4856C349.88 27.3105 347.54 31.7736 345.5 35.8747C343.64 39.3727 342.05 42.7199 340.73 45.9164C338.99 50.2588 337.43 53.7266 336.05 56.32C334.55 59.3355 332.52 64.462 329.98 71.6993C327.43 78.9366 325.34 85.4501 323.72 91.2399L322.73 94.8585C320.99 100.648 319.73 106.408 318.95 112.138C318.41 116.058 318.14 119.526 318.14 122.541C318.14 124.652 318.29 126.311 318.59 127.517C318.83 129.085 319.13 129.959 319.49 130.14C319.61 130.14 320.24 129.778 321.38 129.055L322.64 128.331L323.36 128.06C323.54 128.06 323.72 128.271 323.9 128.693C324.2 129.356 324.44 130.351 324.62 131.678C324.62 132.221 324.59 132.523 324.53 132.583C324.23 132.884 324.05 133.226 323.99 133.628C323.93 134.02 323.58 134.332 322.96 134.573C322.33 134.814 321.74 134.935 321.21 134.935L321.2 134.955ZM307.07 24.7674L311.39 24.4056C312.17 24.2849 313.18 24.1744 314.4 24.094C315.63 24.0036 316.79 23.9131 317.87 23.8226C318.95 23.7321 320.04 23.6316 321.15 23.5109C322.26 23.3903 323.19 23.2998 323.94 23.2395C324.69 23.1792 325.3 23.139 325.78 23.0988C326.26 23.0686 326.62 23.0385 326.86 23.0083C327.1 22.9782 327.28 22.938 327.4 22.8777L327.49 22.7872C327.49 22.7269 327.47 22.6867 327.45 22.6465C327.42 22.6163 327.37 22.5962 327.31 22.5962L327.13 22.7772C326.95 22.8375 326.56 22.8676 325.96 22.8676C322.72 23.0485 319 23.3501 314.8 23.7723C312.82 24.0135 310.75 24.2246 308.59 24.4056C307.75 24.4659 307.05 24.5463 306.48 24.6367C305.91 24.7272 305.6 24.7674 305.53 24.7674H307.06H307.07ZM313.19 121.928C313.37 121.928 313.79 119.274 314.45 113.967C315.23 107.755 316.13 102.84 317.15 99.2211L317.69 96.7784L318.77 92.5266L319.58 90.1745C320.48 86.7367 321.23 84.2036 321.83 82.5752C321.95 81.8515 322.19 81.0072 322.55 80.0422L322.82 79.0471C322.94 78.3836 323.16 77.6499 323.5 76.8257C323.83 76.0115 324.18 75.0968 324.53 74.0715L325.88 70.0005C326.06 69.2164 327.32 65.8692 329.66 59.9587C331.52 55.1339 333.41 50.5804 335.33 46.2984C339.17 38.0358 341.66 32.8792 342.8 30.8287C343.64 29.3209 344.06 28.4765 344.06 28.2956C344.06 28.2353 344.03 28.2052 343.97 28.2052C343.91 28.2052 343.76 28.376 343.52 28.7078C343.28 29.0395 343.04 29.3611 342.8 29.6626C342.14 30.326 341.27 31.6227 340.19 33.5527C339.29 35.1811 338.43 36.8397 337.62 38.5284C336.81 40.2171 336.32 41.3027 336.14 41.7851C336.14 42.2676 336.06 42.5088 335.91 42.5088C335.76 42.5088 335.67 42.5491 335.64 42.6496C335.61 42.74 335.6 42.8506 335.6 42.9611V43.0517C335.6 43.6548 334.55 45.9164 332.45 49.8366C331.73 51.1635 331.37 51.9174 331.37 52.0983C331.37 52.2792 331.1 52.7918 330.56 53.6361C329.9 54.782 328.76 57.4659 327.14 61.6876C325.52 65.9094 323.99 70.101 322.55 74.2624C321.95 76.132 321.41 77.6901 320.93 78.9164C320.45 80.1528 320.1 80.7659 319.89 80.7659C319.68 80.7659 319.09 82.6356 318.14 86.3749C317.3 89.3301 316.82 91.0992 316.7 91.6722C316.58 92.2451 316.52 92.6873 316.52 92.9889C316.46 93.2904 316.48 93.4413 316.57 93.4413C316.66 93.4413 316.71 93.4714 316.71 93.5317C316.71 94.0142 316.53 94.4364 316.17 94.7983C316.05 94.8586 315.9 95.1903 315.72 95.7934C315.12 97.8439 314.76 99.3818 314.64 100.407C314.64 101.01 314.67 101.402 314.73 101.583C314.91 102.005 315 102.307 315 102.488C315 102.548 314.97 102.578 314.91 102.578L314.64 102.488C314.46 102.548 314.28 103.151 314.1 104.297C313.68 106.227 313.32 109.182 313.02 113.163C312.96 114.128 312.93 115.153 312.93 116.239C313.05 117.204 313.11 118.47 313.11 120.038C313.11 121.305 313.14 121.938 313.2 121.938L313.19 121.928ZM315.71 122.199C315.83 122.199 315.89 121.566 315.89 120.3L315.8 119.124C315.8 118.34 315.83 117.636 315.89 116.993C315.95 116.359 315.99 115.997 316.03 115.907C316.06 115.817 316.07 115.646 316.07 115.404C316.07 115.223 316.05 115.032 316.03 114.821C316 114.61 315.95 114.51 315.89 114.51C315.83 114.51 315.75 115.324 315.66 116.952C315.57 118.581 315.52 119.817 315.52 120.661C315.52 121.687 315.58 122.199 315.7 122.199H315.71ZM316.34 110.348L316.61 109.625C316.55 109.504 316.49 109.444 316.43 109.444L316.25 109.986C316.25 110.228 316.28 110.348 316.34 110.348ZM316.61 108.358C316.85 108.358 317.27 106.699 317.87 103.382C318.17 101.875 318.41 100.809 318.59 100.176C318.77 99.5427 319 99.1506 319.27 98.9998C319.54 98.8491 319.68 98.7185 319.68 98.5979C319.68 98.4772 319.6 98.3164 319.45 98.0953C319.3 97.8842 319.22 97.6831 319.22 97.5122C319.22 97.2106 319.37 96.8086 319.67 96.296C319.97 95.7833 320.18 95.1702 320.3 94.4364C320.42 93.7127 321.23 90.878 322.73 85.9325C322.97 85.3897 323.09 84.9374 323.09 84.5755C323.09 84.4549 323.06 84.3846 323 84.3444C322.94 84.3142 322.91 84.0629 322.91 83.5704C323.09 83.2688 323.33 83.1181 323.63 83.1181C323.93 83.1181 324.38 81.5801 324.98 78.5042C325.1 77.7805 325.31 77.2076 325.61 76.7854C325.91 76.3632 326.33 75.2475 326.87 73.4382C328.01 69.7593 328.91 67.3166 329.57 66.1104C329.81 65.5676 330.08 64.8137 330.38 63.8488C330.5 63.0044 330.66 62.4818 330.87 62.2707C331.08 62.0596 331.3 61.4162 331.55 60.3206C331.79 59.235 332 58.6922 332.18 58.6922L332.36 58.7826C332.42 58.7826 332.45 58.7525 332.45 58.6922L332.36 58.4208C332.36 58.1192 332.42 57.7373 332.54 57.295C332.66 56.8427 332.84 56.4205 333.08 56.0284C333.32 55.6364 333.56 55.335 333.8 55.1239C334.04 54.9128 334.25 54.2092 334.43 52.9929C334.49 52.4501 334.57 51.9977 334.65 51.6358C334.73 51.274 334.81 51.0931 334.88 51.0931C334.95 51.0931 335.03 51.0226 335.15 50.8618C335.27 50.711 335.37 50.5201 335.46 50.2789C335.55 50.0376 335.64 49.8467 335.73 49.6959C335.82 49.5451 335.89 49.4546 335.95 49.4245C336.01 49.3943 336.11 49.2436 336.27 48.9722C336.42 48.7008 336.57 48.3389 336.72 47.8865C336.87 47.4342 337 47.012 337.13 46.62C337.25 46.228 337.34 45.9164 337.4 45.6651C337.4 45.5445 337.37 45.4841 337.31 45.4841C337.19 45.4841 336.92 45.9063 336.5 46.7507C335.24 49.1028 333.68 52.5405 331.82 57.0638C331.4 58.2097 331.07 59.0842 330.83 59.6873C330.59 60.2904 330.47 60.7427 330.47 61.0443C330.47 61.2855 330.53 61.4564 330.65 61.5469C330.77 61.6373 330.83 61.7178 330.83 61.7782C330.83 61.8385 330.72 61.8686 330.52 61.8686C330.32 61.8686 330.05 62.1601 329.75 62.723C329.45 63.2959 329 64.3112 328.4 65.7586C326.12 71.6088 323.93 78.243 321.83 85.6612C321.47 86.9881 321.08 88.2847 320.66 89.5513C319.52 93.4715 318.86 95.904 318.68 96.8287C318.5 97.7636 318.29 98.7486 318.05 99.7738C317.57 101.824 317.24 103.483 317.06 104.75C316.88 105.594 316.76 106.318 316.7 106.921L316.61 108.368V108.358ZM328.49 22.9582C328.67 22.9582 328.76 22.8978 328.76 22.7772C328.76 22.6566 328.67 22.5962 328.49 22.5962C328.37 22.5962 328.31 22.6566 328.31 22.7772C328.31 22.8375 328.37 22.8979 328.49 22.9582ZM329.66 22.7772C329.9 22.7772 330.02 22.7168 330.02 22.5962C330.02 22.4756 329.96 22.4153 329.84 22.4153C329.54 22.4153 329.39 22.5058 329.39 22.6867C329.39 22.7471 329.48 22.7772 329.66 22.7772ZM332.81 22.5962C332.93 22.5962 333.08 22.5359 333.26 22.4153L333.62 22.3249C333.62 22.2646 333.47 22.2343 333.17 22.2343C332.81 22.2343 332.63 22.2947 332.63 22.4153C332.63 22.5359 332.69 22.5962 332.81 22.5962ZM334.16 22.4153C334.64 22.4153 335.45 22.355 336.59 22.2343C337.73 22.1137 338.63 22.0232 339.29 21.9629C339.59 21.9629 339.74 21.9328 339.74 21.8725L333.89 22.3249C333.89 22.3852 333.98 22.4153 334.16 22.4153ZM364.13 20.5155C364.13 20.4552 363.95 20.3948 363.59 20.3345H363.14C363.14 20.2742 363.23 20.214 363.41 20.1537C363.53 20.1537 363.75 20.1738 364.08 20.1939C364.41 20.2241 364.78 20.2743 365.2 20.3246C365.62 20.3849 366.01 20.415 366.37 20.415C367.03 20.415 367.57 20.3245 367.99 20.1436C368.11 20.1436 368.45 20.1135 369.03 20.0532C369.6 19.9929 370.2 19.9325 370.83 19.8722C371.46 19.8119 371.89 19.7818 372.14 19.7818C372.39 19.7818 372.53 19.7516 372.59 19.6913H372.68C372.68 19.5707 372.26 19.5103 371.42 19.5103C370.64 19.5103 369.53 19.5707 368.09 19.6913C367.49 19.6913 366.81 19.7215 366.07 19.7818C365.32 19.8421 364.66 19.8923 364.09 19.9124C363.52 19.9426 363.07 19.9727 362.74 20.0029C362.41 20.033 362.14 20.0631 361.93 20.0933C361.72 20.1235 361.57 20.1335 361.48 20.1335C361.39 20.1335 361.31 20.1637 361.25 20.224C361.25 20.2843 361.49 20.3145 361.97 20.3145L362.6 20.224V20.3145C362.6 20.4352 362.87 20.4954 363.41 20.4954H364.13V20.5155ZM375.11 19.7013L382.13 19.43C382.13 19.3697 381.77 19.3394 381.05 19.3394C378.17 19.3394 376.28 19.3596 375.38 19.3897C374.48 19.4199 373.91 19.45 373.67 19.4802C373.43 19.5103 373.31 19.5606 373.31 19.6108C373.31 19.6611 373.91 19.7013 375.11 19.7013ZM386.27 19.7918C386.27 19.7315 386.19 19.6913 386.05 19.6511C385.9 19.6209 385.82 19.5807 385.82 19.5204L386.09 19.43L385.73 19.3394H383.39L383.03 19.43C383.09 19.4903 383.51 19.5204 384.29 19.5204C385.07 19.5204 385.46 19.5806 385.46 19.7013L386.27 19.7918ZM397.7 20.8774L397.79 20.7869C397.79 20.7266 397.64 20.6663 397.34 20.606C396.02 20.1235 394.37 19.7918 392.39 19.6108C391.13 19.4299 390.02 19.3394 389.06 19.3394C387.74 19.3394 387.08 19.4299 387.08 19.6108C387.08 19.7315 387.47 19.7918 388.25 19.7918L389.24 19.7013C389.48 19.7616 389.63 19.8119 389.69 19.842C389.75 19.8722 389.91 19.9224 390.18 19.9827C390.45 20.0431 390.78 20.0733 391.17 20.0733C391.56 20.0733 392.14 20.1034 392.93 20.1637C394.91 20.3447 396.17 20.5155 396.71 20.6663C397.25 20.8171 397.58 20.8874 397.7 20.8874V20.8774Z" fill="#BBB573"/>
<path d="M352.52 108.63C351.8 108.63 351.26 108.6 350.9 108.539C350.18 108.539 349.46 108.328 348.74 107.906C347.84 107.303 347.32 106.901 347.17 106.69C347.02 106.479 346.89 106.167 346.76 105.745C346.4 104.901 346.22 104.267 346.22 103.845C346.22 103.423 346.1 102.93 345.86 102.357C345.62 101.785 345.5 101.312 345.5 100.95L345.59 99.8645C345.83 98.0552 346.16 97.1506 346.58 97.1506C346.76 97.1506 346.88 96.9596 346.94 96.5676C347 96.1756 347.16 95.9343 347.43 95.8438C347.7 95.7533 348 95.4117 348.33 94.7985C348.66 94.1954 348.88 93.532 349 92.8083C349.06 92.3861 349.21 91.994 349.45 91.6322C349.87 90.9084 351.4 89.3102 354.04 86.8374C355.24 85.6312 355.9 85.0282 356.02 85.0282C356.08 85.0282 356.11 85.0583 356.11 85.1186L355.93 86.0233C355.93 86.1439 355.96 86.2042 356.02 86.2042C356.14 86.1439 356.36 85.963 356.7 85.6615C357.03 85.3599 357.4 85.0281 357.82 84.6662C358.24 84.3044 358.61 83.9627 358.94 83.6209C359.27 83.2892 359.44 83.0981 359.44 83.0378C359.44 82.9775 359.35 82.9474 359.17 82.9474H358.63C358.39 82.9474 358.22 82.9072 358.13 82.8167C358.04 82.7263 357.77 82.5353 357.32 82.2338C356.87 81.9322 356.34 81.5703 355.74 81.1481C353.04 79.3991 351.63 78.1326 351.51 77.3486C351.33 77.0471 351.15 76.836 350.97 76.7153C350.55 76.4138 350.1 75.8106 349.62 74.906C348.42 72.7348 347.82 71.1365 347.82 70.1112L347.91 69.8398C347.91 69.5986 347.8 69.2066 347.59 68.6638C347.38 68.1211 347.28 67.4274 347.28 66.5831V65.2261C347.28 62.6327 348.93 59.2855 352.23 55.1844C354.99 51.7467 357.99 48.8517 361.23 46.4996L361.77 46.0473C362.19 45.6855 363.18 44.9617 364.74 43.8761C370.08 40.3178 374.1 38.026 376.8 37.0007L379.5 35.915L380.85 36.0056C382.29 36.1865 383.01 36.6087 383.01 37.2721V37.7244C383.01 37.9053 383.13 38.016 383.37 38.0361C383.61 38.0662 383.92 38.3275 384.32 38.81C384.71 39.2924 384.9 39.8956 384.9 40.6193C384.9 41.0415 384.82 41.3732 384.67 41.6144C384.52 41.8557 384.45 42.0367 384.45 42.1573C384.45 42.2779 384.48 42.3784 384.54 42.4688C384.6 42.5593 384.63 42.6699 384.63 42.7805C384.63 42.8911 384.36 43.2027 383.82 43.6852C383.04 44.228 382.14 44.5898 381.12 44.7707C380.88 44.7707 380.28 44.8913 379.32 45.1326C378.78 45.3135 378.03 45.6151 377.07 46.0373C376.95 46.0373 376.86 46.0674 376.8 46.1277C375.06 46.8514 372.99 47.937 370.59 49.3845C364.23 53.3047 359.13 57.5566 355.29 62.1402C352.59 65.3367 351.24 67.719 351.24 69.2871C351.24 69.7695 351.54 70.3927 352.14 71.1365C352.74 71.8904 353.34 72.5136 353.94 72.9961C355.02 73.9611 357.3 75.288 360.78 76.9767C360.78 77.037 360.81 77.0671 360.87 77.0671C362.37 77.7909 363.24 78.1527 363.48 78.1527C363.78 78.1527 364.08 78.0019 364.38 77.7004L370.32 73.1771C371.64 72.2724 372.3 71.7498 372.3 71.589C372.3 71.4281 372.51 71.3075 372.93 71.1768C373.71 70.8149 375.12 69.85 377.16 68.2819L379.5 66.4725L379.59 66.5631L378.51 67.739C377.67 68.4025 377.04 68.9452 376.62 69.3674C375.84 70.1515 375.45 70.5736 375.45 70.634V70.7244C375.45 70.7847 375.48 70.8149 375.54 70.8149L384.09 64.7537C384.57 64.5124 385.17 64.0903 385.89 63.4872L387.15 62.5825C388.35 61.7381 389.05 61.2557 389.26 61.1351C389.47 61.0144 390.2 60.4717 391.46 59.5067C393.2 58.3005 394.28 57.6973 394.7 57.6973C394.82 57.6973 394.89 57.7375 394.93 57.8381C394.96 57.9285 395.03 57.9687 395.16 57.9687L396.51 57.245C397.35 56.7022 397.87 56.3303 398.08 56.1192C398.29 55.9081 398.59 55.7473 398.98 55.6267C399.37 55.5061 399.56 55.3251 399.56 55.0839L400.46 54.4506C401.54 53.7269 402.35 53.3651 402.89 53.3651C403.67 53.3651 404.06 53.6968 404.06 54.3602C404.06 54.722 403.85 55.0839 403.43 55.4457L402.8 55.8076H402.62L399.29 58.1597C397.55 59.3659 396.6 60.0595 396.46 60.2404C396.31 60.4214 395.93 60.7129 395.34 61.0948C394.74 61.4868 394.09 61.9292 393.4 62.4117C392.71 62.8941 392.12 63.2861 391.65 63.5876C389.67 65.1557 388.05 66.3318 386.79 67.1158L374.55 76.072C370.47 79.0272 368.43 80.6556 368.43 80.9572C368.43 81.1381 368.64 81.4397 369.06 81.8619C371.82 84.214 373.2 87.2295 373.2 90.9085V91.8131C373.08 93.8637 372.81 95.4016 372.39 96.4269C372.15 97.0903 371.88 97.422 371.58 97.422C371.28 97.422 371.13 97.5024 371.13 97.6431C371.13 97.7838 371.02 97.9749 370.82 98.1859C370.62 98.397 370.5 98.5679 370.5 98.6885C370.32 99.0504 369.39 100.066 367.71 101.714C366.03 103.373 363.75 104.931 360.87 106.378C359.31 107.162 357.9 107.735 356.64 108.097C355.38 108.459 354 108.64 352.5 108.64L352.52 108.63ZM350.9 102.388C351.8 102.388 352.85 102.267 354.05 102.026C357.11 101.362 359.06 100.669 359.9 99.945C360.32 99.6435 360.78 99.4423 361.3 99.3619C361.81 99.2715 362.12 99.171 362.24 99.0504C362.36 98.9298 362.48 98.6785 362.6 98.2764C362.72 97.8844 363.47 96.9696 364.85 95.5121C367.43 92.9188 368.9 90.808 369.26 89.1796L369.53 88.3653C368.75 87.8828 367.97 87.4305 367.19 87.0084C366.41 86.5862 365.7 86.2242 365.08 85.9227C364.45 85.6211 364.03 85.41 363.82 85.2894C363.61 85.1688 363.35 85.0784 363.05 85.0181L360.62 87.2798C357.8 89.8731 354.83 92.7982 351.71 96.055C351.05 96.7787 350.42 97.6231 349.82 98.588C348.98 99.8546 348.59 100.789 348.65 101.392C348.65 101.513 348.66 101.634 348.69 101.754C348.72 101.875 348.92 102.016 349.27 102.166C349.63 102.317 350.17 102.398 350.89 102.398L350.9 102.388Z" fill="#BBB573"/>
</g>
</svg>
