<svg  width="54" height="48" viewBox="0 0 46 47" fill="none" xmlns="http://www.w3.org/2000/svg">
<g  clip-path="url(#clip0_8_94)" filter="url(#filter0_d_8_94)">
<path d="M4 23.5328C4 20.358 4 17.1931 4 14.0183C4 7.84668 8.13227 2.51578 14.1275 0.982777C15.1879 0.705848 16.268 0.567383 17.3679 0.567383C23.7992 0.567383 30.2305 0.567383 36.6717 0.567383C43.2021 0.567383 48.8901 5.47299 49.8315 11.9215C49.9405 12.6929 50.0099 13.4545 50 14.2358C50 20.536 50 26.8361 50 33.1363C50 38.6254 46.6902 43.531 41.5868 45.5981C40.0112 46.241 38.3563 46.5674 36.6618 46.5674C30.2008 46.5674 23.7398 46.5674 17.2689 46.5674C10.8078 46.5674 5.09996 41.6123 4.17837 35.233C4.05946 34.4418 4 33.6605 4 32.8693C4 29.7538 4 26.6482 4 23.5328ZM7.56743 23.5229C7.56743 26.6977 7.56743 29.8725 7.56743 33.0374C7.56743 33.5715 7.58725 34.1055 7.67643 34.6297C8.46919 39.5749 12.4925 42.997 17.5067 42.997C23.8389 42.997 30.1611 42.997 36.4933 42.997C37.2068 42.997 37.9203 42.9376 38.6239 42.7893C43.3309 41.731 46.4326 37.8738 46.4326 33.0374C46.4326 26.7274 46.4326 20.4074 46.4326 14.0974C46.4326 13.5831 46.4028 13.0589 46.3335 12.5545C45.6398 7.7181 41.5967 4.16747 36.6816 4.14769C30.2305 4.11802 23.7794 4.1378 17.3382 4.14769C16.05 4.14769 14.8014 4.39495 13.6122 4.88946C9.97544 6.3928 7.60707 9.93354 7.58725 13.9194C7.57734 17.1238 7.58725 20.3283 7.58725 23.5229H7.56743Z" fill="#BBB573"/>
<path d="M26.9802 36.2019C20.1624 36.192 14.5933 30.5941 14.6131 23.7796C14.6329 16.975 20.2318 11.4266 27.0694 11.4463C33.8673 11.4661 39.4166 17.0641 39.3968 23.8686C39.377 30.6633 33.788 36.2118 26.9802 36.2019ZM26.9802 32.6315C31.8854 32.6315 35.8096 28.7446 35.8393 23.8488C35.8591 18.9828 31.9448 15.0365 27.0793 15.0168C22.1344 14.997 18.2003 18.874 18.1805 23.7994C18.1607 28.6753 22.0849 32.6216 26.9802 32.6315Z" fill="#BBB573"/>
<path d="M42.9047 9.43941C42.9047 10.4087 42.1119 11.2098 41.1507 11.2197C40.1796 11.2197 39.3472 10.3988 39.3472 9.42952C39.3472 8.44049 40.1598 7.65915 41.1606 7.66904C42.1417 7.66904 42.9047 8.46027 42.9047 9.4493V9.43941Z" fill="#BBB573"/>
</g>
<defs>
<filter id="filter0_d_8_94"  x="0" y="0.567383" width="54" height="54" filterUnits="userSpaceOnUse" color-interpolation-filters="sRGB">
<feFlood flood-opacity="0" result="BackgroundImageFix"/>
<feColorMatrix in="SourceAlpha" type="matrix" values="0 0 0 0 0 0 0 0 0 0 0 0 0 0 0 0 0 0 127 0" result="hardAlpha"/>
<feOffset dy="4"/>
<feGaussianBlur stdDeviation="2"/>
<feComposite in2="hardAlpha" operator="out"/>
<feColorMatrix type="matrix" values="0 0 0 0 0 0 0 0 0 0 0 0 0 0 0 0 0 0 0.25 0"/>
<feBlend mode="normal" in2="BackgroundImageFix" result="effect1_dropShadow_8_94"/>
<feBlend mode="normal" in="SourceGraphic" in2="effect1_dropShadow_8_94" result="shape"/>
</filter>
<clipPath id="clip0_8_94">
<rect width="46" height="46" fill="white" transform="translate(4 0.567383)"/>
</clipPath>
</defs>
</svg>
