<svg width="316" height="120" viewBox="0 0 316 120" fill="none" xmlns="http://www.w3.org/2000/svg">
<g clip-path="url(#clip0_8_170)">
<g opacity="0.44">
<path d="M3.50789 101.163C3.20934 101.163 3.03519 100.988 2.98544 100.638C2.78641 100.188 2.61226 99.9625 2.46298 99.9625C2.31371 99.9625 2.16444 99.8875 2.01517 99.7374C1.31857 99.3871 0.920509 98.9869 0.820995 98.5366V97.4109L0.895631 96.7355C0.895631 96.2852 0.746359 95.885 0.447815 95.5347C0.298544 95.3346 0.190736 95.1095 0.1161 94.8593C0.0414644 94.6092 0 93.5085 0 91.5573C0.199029 87.8549 0.945388 83.5773 2.23908 78.7242C2.63713 77.1232 2.83616 76.1476 2.83616 75.7974C2.83616 75.5472 2.78641 75.3221 2.68689 75.122C2.48786 74.5716 2.38835 73.8712 2.38835 73.0207C2.38835 71.5698 2.52103 70.3857 2.7947 69.4601C3.06836 68.5345 3.30056 68.0676 3.49959 68.0676C3.64886 68.0676 3.7235 68.5929 3.7235 69.6436C3.7235 71.0444 3.82302 71.7449 4.02204 71.7449C4.12156 71.7449 4.22107 71.5698 4.32059 71.2195C4.66889 69.4684 4.97573 68.5929 5.24939 68.5929C5.52306 68.5929 5.65574 68.4928 5.65574 68.2927L5.58111 67.9175C5.58111 67.217 5.82989 66.1664 6.32746 64.7655L9.16363 56.2102C10.2085 52.8581 11.1539 50.0813 11.9998 47.88L14.612 41.2758C14.7116 40.9256 14.836 40.6504 14.9852 40.4503C15.1345 40.2502 15.2589 40.1501 15.3584 40.1501C15.4579 40.1501 15.5077 39.95 15.5077 39.5498C15.6569 38.5992 16.4531 36.5729 17.896 33.471C18.2443 32.8205 18.4682 32.2452 18.5677 31.7449C18.6673 31.2446 18.8663 30.9944 19.1648 30.9944C19.4634 30.9944 19.6624 30.911 19.7619 30.7359C19.8614 30.5608 19.9112 30.4524 19.9112 30.394C19.9112 30.2439 19.8614 30.1189 19.7619 30.0188C19.6624 29.9187 19.6126 29.7686 19.6126 29.5685C19.6126 29.0182 20.0853 27.6423 21.0307 25.4409C22.2249 22.389 23.3196 19.8624 24.3147 17.8612C25.0113 16.5604 25.3596 15.7349 25.3596 15.3846L25.2103 15.3096C25.1606 15.3096 25.1108 15.3596 25.0611 15.4597C24.8123 15.8099 24.0908 16.1851 22.8966 16.5854C22.3493 16.5854 21.8517 16.4353 21.4039 16.1351C20.9561 15.8349 20.7322 15.5097 20.7322 15.1595C20.7322 14.7593 21.1054 14.334 21.8517 13.8837C22.5981 13.4334 22.9713 13.1332 22.9713 12.9831C22.9713 12.8331 23.8918 11.7824 25.7328 9.83118C26.1308 9.33087 26.927 8.48033 28.1211 7.27958L29.9124 5.17827C30.3602 4.47783 31.6041 4.12761 33.6442 4.12761C35.3359 4.12761 36.5965 4.61125 37.4175 5.58686C38.2384 6.56247 38.6448 7.35463 38.6448 7.95501C38.6448 8.20516 38.595 8.45532 38.4955 8.70547C38.2467 9.30585 38.0892 9.60604 38.0145 9.60604C37.9399 9.60604 37.8404 9.7061 37.716 9.90623C37.5916 10.1063 37.4755 10.3315 37.376 10.5816C36.9282 11.4822 36.6048 12.0409 36.4057 12.266C36.2067 12.4912 35.7672 13.1666 35.1037 14.2923C34.432 15.418 33.7852 16.5604 33.1632 17.7028C32.5412 18.8535 32.1515 19.629 32.0022 20.0292C31.9524 20.2293 31.8529 20.4795 31.7037 20.7797L30.2109 23.4814C28.9173 26.083 28.1046 27.734 27.7811 28.4345C27.4577 29.1349 27.3001 29.5101 27.3001 29.5602C27.3001 29.6102 26.8772 30.6108 26.0313 32.562C24.9864 34.6634 24.464 35.764 24.464 35.8641C24.5137 35.8641 25.4094 34.5133 27.1509 31.8116C30.8827 26.1581 34.6891 21.305 38.5702 17.2525C47.7421 7.90497 55.5042 3.22705 61.8731 3.22705C65.9035 3.22705 68.7148 4.57789 70.307 7.27958C71.4514 8.93061 72.0236 11.132 72.0236 13.8837C72.0236 15.885 71.7002 18.2114 71.0534 20.8631C70.9041 21.5135 70.8046 22.0638 70.7548 22.5141L70.6802 24.3903C70.1329 27.192 68.1426 31.92 64.7093 38.5741C61.6741 43.7274 59.2858 47.3046 57.5443 49.3058L56.3501 50.8068C55.1559 52.2577 52.4939 55.0094 48.364 59.0619C45.2293 62.1639 42.2439 64.7655 39.4077 66.8668C37.8155 68.0676 36.754 68.8097 36.2316 69.0849C35.7091 69.36 35.452 69.5518 35.452 69.6436C35.452 69.7353 35.0291 70.0688 34.1832 70.6192C32.392 71.8199 30.3022 73.0207 27.9138 74.2214C21.0971 77.6235 15.6735 79.3246 11.6432 79.3246H10.3744L9.7773 81.7261C9.429 82.6267 9.23826 83.1437 9.22168 83.2604C9.1968 83.3855 9.17192 83.5106 9.14704 83.6356C9.12216 83.7607 9.00606 84.2277 8.81533 85.0282C7.86994 88.2302 7.29773 90.4566 7.0987 91.7073C6.94943 92.6579 6.87479 93.7336 6.87479 94.9344C6.87479 95.935 6.84992 96.6855 6.80016 97.1858C6.70064 98.0363 6.50161 98.4616 6.20307 98.4616C5.90453 98.4616 5.75526 98.6867 5.75526 99.137C5.75526 99.5873 5.58111 99.9875 5.2328 100.338C4.8845 100.688 4.43669 100.938 3.88936 101.088L3.51618 101.163H3.50789ZM4.47815 80.3753C4.57767 80.3753 4.71035 80.0501 4.8928 79.3997C5.06695 78.7492 5.14988 78.324 5.14988 78.1239C5.05036 78.1239 4.90938 78.4157 4.74352 78.9911C4.56937 79.5664 4.47815 80 4.47815 80.3085V80.3836V80.3753ZM8.06067 69.5685C8.2597 69.5685 8.53337 69.0182 8.88167 67.9175C10.4739 63.7649 11.9417 60.3628 13.2852 57.7111C13.5837 57.0607 14.1559 55.6598 15.0018 53.5085C15.5989 51.7073 15.9721 50.6567 16.1213 50.3565C16.5194 49.556 16.9423 48.4303 17.3902 46.9794C18.4351 44.0776 19.3556 41.7761 20.1517 40.0751L20.8234 38.349C21.2215 37.1983 21.4205 36.4228 21.4205 36.0225V35.9475C21.3707 35.9475 21.1717 36.3477 20.8234 37.1483C20.6244 37.8987 20.2512 38.6242 19.7039 39.3246C19.3556 39.6748 18.8663 40.542 18.2443 41.9179C17.6224 43.2938 17.1994 44.0359 16.9755 44.1276C16.7516 44.2277 16.6355 44.4612 16.6355 44.8364C16.6355 45.2116 16.4862 45.862 16.1877 46.7876C15.8891 47.7132 15.516 48.6554 15.0682 49.606C14.9686 49.9062 14.8691 50.1981 14.7696 50.4732C14.6701 50.7484 14.6203 50.9902 14.6203 51.182C14.6203 51.3738 14.4545 51.4822 14.1311 51.4822C13.8076 51.4822 13.6501 51.5573 13.6501 51.7073L13.7247 52.1576C13.7247 52.6079 13.5506 53.3584 13.2023 54.409C12.1574 57.6611 11.411 59.5039 10.9632 59.9208C10.5154 60.3461 10.2915 60.813 10.2915 61.3133V61.6886C10.2915 62.289 10.2251 62.6975 10.109 62.9227C9.98462 63.1478 9.81047 63.7065 9.58656 64.6071C9.36266 65.5076 9.03923 66.4832 8.6163 67.5339C8.19336 68.5846 7.97775 69.2099 7.97775 69.4101C7.97775 69.5101 8.00262 69.5602 8.05238 69.5602L8.06067 69.5685ZM9.55339 76.698C9.80218 76.698 9.92657 76.6729 9.92657 76.6229C9.92657 76.5229 9.80218 76.4728 9.55339 76.4728C9.30461 76.4728 9.18021 76.5229 9.18021 76.6229C9.18021 76.6729 9.30461 76.698 9.55339 76.698ZM9.55339 73.8462C9.75242 73.496 9.87681 73.1708 9.92657 72.8706C9.97633 72.5704 10.0427 72.3619 10.109 72.2285C10.1837 72.1034 10.2417 72.0367 10.2915 72.0367C10.4407 72.0367 10.6895 71.5864 11.0378 70.6859C11.2866 69.9854 11.411 69.5352 11.411 69.335C11.411 69.0849 11.3115 68.9598 11.1125 68.9598C10.9632 68.9598 10.8554 69.0765 10.7807 69.2933C10.7061 69.5185 10.6066 69.8103 10.4822 70.1605C10.3578 70.5108 10.2417 70.861 10.1422 71.2112C9.64461 72.462 9.39583 73.2875 9.39583 73.6878C9.39583 73.7878 9.42071 73.8378 9.47046 73.8378H9.5451L9.55339 73.8462ZM11.4193 76.698C11.6681 76.698 11.7925 76.6229 11.7925 76.4728C11.7925 76.3227 11.7178 76.2477 11.5686 76.2477C11.5188 76.2477 11.4442 76.2727 11.3447 76.3227C11.2451 76.3728 11.1954 76.4478 11.1954 76.5479C11.1954 76.6479 11.27 76.698 11.4193 76.698ZM12.0164 75.2721C12.5139 75.2721 13.8574 74.8968 16.0467 74.1464C17.9375 73.496 18.8829 73.1207 18.8829 73.0207C18.8829 72.9706 18.8331 72.9456 18.7336 72.9456C18.4351 72.9456 17.5394 73.2375 16.0467 73.8128C14.554 74.3882 13.4759 74.7301 12.7959 74.8218C12.1242 74.9219 11.7925 75.0469 11.7925 75.197C11.7925 75.2471 11.8671 75.2721 12.0164 75.2721ZM12.6881 76.6229C13.0862 76.6229 13.3432 76.5646 13.4759 76.4311C13.6003 76.3061 13.8574 76.2393 14.2555 76.2393C14.6535 76.2393 15.0018 76.1643 15.3004 76.0142C16.1462 75.5639 17.2658 75.0886 18.659 74.5883C20.9478 73.7878 23.1122 72.8622 25.1523 71.8116C25.6996 71.4614 26.247 71.1862 26.7943 70.9861C27.0928 70.936 27.8143 70.5108 28.9587 69.7103C29.4065 69.36 30.0783 68.8847 30.9739 68.2844C33.5613 66.5833 35.6262 65.1074 37.1687 63.8566C38.1638 63.0561 39.5819 61.7803 41.4229 60.0292C42.5176 58.9786 43.0649 58.4282 43.0649 58.3782L41.4975 59.654C41.0995 60.0042 40.7595 60.2794 40.4941 60.4795C40.2204 60.6796 40.0546 60.7797 40.0131 60.7797C40.0131 60.7296 39.9882 60.7046 39.9385 60.7046C39.839 60.7547 39.7395 60.8297 39.6399 60.9298C39.5404 61.0298 39.4409 61.0799 39.3414 61.0799C39.2916 61.0799 39.2668 61.0298 39.2668 60.9298C39.2668 60.7797 39.4907 60.4795 39.9385 60.0292C42.8742 57.5276 46.0089 54.4007 49.3426 50.6484C53.7212 45.6953 57.0301 41.2925 59.2692 37.4401C60.4136 35.4889 60.9858 34.4132 60.9858 34.2131L60.6873 34.2881V34.2131C60.6873 34.063 60.8117 33.7128 61.0604 33.1624L62.9263 29.26L64.2698 25.6577C64.4688 25.1574 64.643 24.7822 64.7922 24.532C65.6381 21.9804 66.1854 19.9041 66.4342 18.3031C66.5337 17.7028 66.5835 15.9016 66.5835 12.8998C66.5835 10.3482 66.4757 8.59707 66.2518 7.64648C66.0279 6.69589 65.6381 6.19557 65.0908 6.14554C64.9415 6.09551 64.7425 6.07049 64.4937 6.07049L63.3742 6.14554C61.7322 6.29564 60.8448 6.46241 60.7287 6.62918C60.6043 6.80429 59.9658 7.14617 58.8214 7.64648C57.9257 8.04673 56.9306 8.54704 55.8359 9.14742C53.3481 10.5983 51.8056 11.674 51.2085 12.3744C51.0592 12.5245 50.8353 12.6496 50.5368 12.7497C50.2382 12.8497 50.089 12.9748 50.089 13.1249V13.2C50.089 13.5001 49.8402 13.8003 49.3426 14.1005C48.5962 14.7009 47.4767 15.7015 45.984 17.1024C45.2874 17.8028 44.6654 18.3782 44.1181 18.8285C43.5708 19.2787 43.2722 19.5039 43.2225 19.5039C42.9239 19.654 42.4512 20.146 41.8044 20.9631C41.1575 21.7887 40.6848 22.2056 40.3863 22.2056L39.9385 22.1305C39.6897 22.1806 39.5653 22.3056 39.5653 22.5058L39.6399 22.5808L40.0878 22.4307C40.1873 22.4307 40.237 22.4807 40.237 22.5808C40.237 22.931 39.8887 23.1562 39.1921 23.2562C38.7443 23.2562 37.6497 24.557 35.9081 27.1587C35.112 28.2093 34.714 28.8097 34.714 28.9598C34.8135 28.9598 35.0125 28.8097 35.3111 28.5095C35.7589 28.0592 35.9828 27.7257 35.9828 27.5006C35.9828 27.2754 36.0408 27.1587 36.1652 27.1587C36.2896 27.1587 36.6877 26.7001 37.3594 25.7745C38.0311 24.8489 38.4458 24.3819 38.5867 24.3819C38.6863 24.3819 38.736 24.457 38.736 24.6071C38.736 24.8072 38.6199 24.9823 38.396 25.1324C38.1721 25.2825 37.8819 25.5827 37.5418 26.033C36.8452 26.9335 36.1735 27.8591 35.5267 28.8097C34.7803 30.2106 33.7105 31.8116 32.3173 33.6127L31.4217 34.9636C31.4217 35.1136 31.0734 35.664 30.3768 36.6146C29.6802 37.5652 29.3319 38.1322 29.3319 38.299C29.3319 38.4657 29.2573 38.6409 29.108 38.7826C28.9587 38.9327 28.8095 39.0077 28.6602 39.0077C28.6104 39.0077 28.569 38.9661 28.5441 38.891C28.5192 38.816 28.4529 38.7743 28.3616 38.7743C28.3119 38.7743 28.2124 38.8493 28.0631 38.9994C27.9138 39.1495 27.8392 39.2496 27.8392 39.2996L27.9138 39.3746L28.3616 39.2245C28.5109 39.2245 28.5855 39.2996 28.5855 39.4497C28.5855 39.6498 28.3368 40.1001 27.8392 40.8005C27.2421 41.7011 26.7694 42.5016 26.4211 43.202C25.9235 44.1026 25.6001 44.5529 25.4508 44.5529C25.3513 44.5529 25.3016 44.4278 25.3016 44.1776C25.3016 43.9775 25.3513 43.7774 25.4508 43.5773L25.2269 43.7274C24.7791 44.3778 24.5552 44.8531 24.5552 45.1533V45.2283C24.605 45.2283 24.6796 45.1533 24.7791 45.0032C24.8786 44.8531 24.9781 44.778 25.0777 44.778C25.1274 44.778 25.1772 44.828 25.2269 44.9281C25.2269 45.2283 25.0777 45.5785 24.7791 45.9788C22.6395 50.2815 21.0805 53.4334 20.1185 55.4347C19.1482 57.4359 18.4765 58.8618 18.1033 59.7123C17.7302 60.5629 17.4316 61.0799 17.2077 61.2466C16.9838 61.4217 16.8677 61.6135 16.8677 61.8053C16.8677 61.9971 16.2457 63.7315 15.0018 66.9836C13.6584 70.4857 12.8871 72.3869 12.6881 72.6871L12.3149 73.4376C12.3149 73.4876 12.3647 73.5126 12.4642 73.5126C13.1608 73.5126 15.0267 72.8873 18.0619 71.6365C20.4005 70.7359 22.2913 69.9104 23.7342 69.1599C24.182 68.9098 24.4806 68.7847 24.6298 68.7847C24.7294 68.7847 24.7791 68.8597 24.7791 69.0098C24.7791 69.1099 24.6879 69.235 24.5137 69.3851C24.3396 69.5352 24.1074 69.6769 23.8088 69.7936C23.5103 69.9187 23.1454 70.1189 22.7225 70.394C22.2995 70.6692 21.8849 70.936 21.4951 71.1778C21.0971 71.428 20.7488 71.6531 20.4502 71.8533C20.1517 72.0534 19.9527 72.1701 19.8531 72.1868C19.7536 72.2118 19.7039 72.2535 19.7039 72.3036C19.7039 72.4036 19.7536 72.4536 19.8531 72.4536C20.0522 72.4536 20.5083 72.2619 21.2381 71.895C21.9595 71.5197 22.7805 70.9944 23.701 70.319C24.6215 69.6436 25.1772 69.3017 25.3845 69.3017C25.484 69.3017 25.5338 69.3517 25.5338 69.4518C25.5338 69.6019 25.2352 69.9271 24.6381 70.4274C23.0957 71.6782 21.7522 72.5787 20.6078 73.1291C16.677 74.8301 14.1891 75.7557 13.1442 75.9058C12.4974 76.0059 12.1739 76.181 12.1739 76.4311C12.1739 76.5312 12.2735 76.5812 12.4725 76.5812H12.6964L12.6881 76.6229ZM12.9866 66.6417C13.0364 66.5916 13.111 66.5083 13.2106 66.3832C13.3101 66.2581 13.393 66.1247 13.4759 65.9663C13.5506 65.8162 13.592 65.6911 13.592 65.591V65.516C13.5423 65.516 13.4179 65.616 13.2188 65.8162C12.9701 66.1664 12.8457 66.4416 12.8457 66.6417H12.9949H12.9866ZM13.6584 65.2158C13.7081 65.2158 13.7579 65.1407 13.8076 64.9907C14.0564 64.4903 14.2555 64.1401 14.4047 63.94C14.7033 63.5397 14.8525 63.2062 14.8525 62.9227C14.8525 62.6392 14.9023 62.5141 15.0018 62.5141H15.0764C15.176 62.4641 15.234 62.4307 15.2589 62.3974C15.2838 62.3723 15.3004 62.3223 15.3004 62.2473C15.3004 62.1722 15.3501 61.9638 15.4496 61.6135H15.5243C15.6735 61.6135 15.7482 61.5135 15.7482 61.3133V61.0132C15.7482 60.5128 16.0467 59.6206 16.6438 58.3532C17.2409 57.0774 17.6638 56.4436 17.9126 56.4436C17.9624 56.4436 18.0287 56.4353 18.0951 56.4103C18.1697 56.3853 18.2277 56.3102 18.2775 56.1851C18.3273 56.0601 18.3521 55.9767 18.3521 55.9267C18.3521 55.8766 18.3273 55.8516 18.2775 55.8516L17.979 56.0017C17.9292 56.0017 17.9043 55.9767 17.9043 55.9267C17.9043 55.6765 19.0736 53.25 21.4122 48.6471C23.6015 44.2944 24.8703 41.8679 25.2186 41.3676C25.3679 41.2175 25.5421 40.9673 25.7411 40.6171C25.9401 40.2669 26.164 39.9166 26.4128 39.5664C28.0548 36.4145 30.0451 33.2875 32.3837 30.1856L33.7271 28.2343C37.7077 22.7309 42.4098 17.6777 47.8333 13.0749C52.61 8.92228 56.8394 6.42071 60.5214 5.57018C61.417 5.32003 61.8648 5.14492 61.8648 5.04485L59.9243 5.34504C57.4862 5.94542 56.2672 6.42071 56.2672 6.77093C56.2672 6.87099 56.2423 6.92103 56.1925 6.92103H55.894C55.8442 6.871 55.7696 6.84598 55.6701 6.84598C55.3218 6.84598 54.2769 7.39632 52.5354 8.49701C49.2514 10.6984 47.5099 12.0993 47.3109 12.6996C47.2113 12.9498 47.0869 13.0749 46.9377 13.0749L46.6391 12.9998C46.3406 12.9998 46.0918 13.1999 45.8928 13.6002C45.7933 13.7503 45.7435 13.9254 45.7435 14.1255L45.8181 14.3507C45.8181 14.4007 45.7684 14.4257 45.6689 14.4257L44.9971 14.2756C44.8976 14.2756 44.8479 14.3257 44.8479 14.4257C44.8479 14.5258 44.9474 14.5758 45.1464 14.5758L45.2957 14.5008L45.221 14.7259C45.1215 14.876 44.8893 14.951 44.5162 14.951C44.143 14.951 43.9605 15.0761 43.9605 15.3263V15.4013C43.9605 15.4514 44.0103 15.4931 44.1098 15.5181C44.2093 15.5431 44.2591 15.5848 44.2591 15.6348C44.2591 15.7349 44.1596 15.885 43.9605 16.0851C43.7615 16.2852 43.6122 16.3853 43.5127 16.3853C43.463 16.3853 43.3966 16.3269 43.3303 16.2018C43.2556 16.0767 43.1893 16.01 43.1478 16.01C43.1064 16.01 43.0732 16.0351 43.0732 16.0851V16.6104C43.0732 16.9606 42.7 17.3859 41.9537 17.8862C41.6054 18.1364 41.34 18.2614 41.1741 18.2614C41.0083 18.2614 40.7097 18.4115 40.3117 18.7117C39.3165 19.5623 38.819 20.2127 38.819 20.6629V20.738H38.7443C38.5453 20.738 38.197 20.9882 37.6994 21.4885C37.0028 22.0388 36.6048 22.4641 36.5052 22.7643C36.4555 22.8143 36.2896 23.0228 36.016 23.398C35.7423 23.7732 35.4023 24.1902 35.0125 24.6404C34.1169 25.8412 33.6193 26.5917 33.5198 26.8918C33.3705 27.7424 33.2213 28.1676 33.072 28.1676L32.8481 28.0926C32.7983 28.0926 32.7734 28.1176 32.7734 28.1676L32.8481 28.3928C32.8481 28.5929 32.7983 28.693 32.6988 28.693H32.6242C32.3256 28.693 32.0022 29.0932 31.6539 29.8937C31.4549 30.2439 31.3305 30.5691 31.2807 30.8693C31.1315 31.4197 30.8744 31.9367 30.5012 32.412C30.128 32.8873 29.7797 33.1207 29.4563 33.1207C29.1329 33.1207 28.7846 33.3459 28.4114 33.7962C28.0382 34.2464 27.8475 34.6967 27.8475 35.147C27.8475 35.3471 27.6484 35.6473 27.2504 36.0476C26.7528 36.748 26.3299 37.4234 25.9816 38.0738C25.285 39.3246 24.8372 39.95 24.6381 39.95C24.5386 39.95 24.4889 39.8499 24.4889 39.6498C24.4889 39.3997 24.7625 38.7743 25.3099 37.7736C27.0514 34.3215 29.8875 29.9437 33.8183 24.6404C35.0125 23.0895 36.3311 21.5802 37.774 20.0959C39.217 18.62 41.2073 16.6855 43.7449 14.284C47.0787 11.082 50.8851 8.35526 55.1642 6.10385L57.4779 4.753C57.4282 4.753 57.2291 4.81971 56.8808 4.94479C56.5325 5.06987 56.0681 5.24498 55.4959 5.47012C54.9237 5.69526 54.2105 6.0288 53.3729 6.47908C51.3827 7.6298 50.1636 8.50535 49.7158 9.10572C49.6163 9.25582 49.4919 9.3809 49.3426 9.48096H48.8948C48.5962 9.48096 47.6509 10.2064 46.0586 11.6573L44.342 13.0832C43.5459 13.7336 42.501 14.7092 41.2073 16.01C35.2364 22.0138 30.3851 28.1927 26.6533 34.5466C26.4045 35.097 25.8572 35.9975 25.0113 37.2483C24.1654 38.4991 23.7425 39.2245 23.7425 39.4247C23.7425 39.6248 23.6015 39.8666 23.3362 40.1334C23.0625 40.4086 22.4737 41.4509 21.5864 43.2437C20.4917 45.1949 19.9444 46.2706 19.9444 46.4707H20.3922L20.6161 46.3957C20.6658 46.3957 20.6907 46.4207 20.6907 46.4707L20.6161 47.1462C20.4668 47.8966 20.3673 48.3803 20.3175 48.6054C20.2678 48.8306 20.1766 49.0057 20.0522 49.1307C19.9278 49.2558 19.7951 49.4726 19.6458 49.7728C19.198 50.4232 18.9741 50.9485 18.9741 51.3488C18.9741 51.749 18.8829 51.9492 18.7087 51.9492C18.5346 51.9492 17.9458 53.0248 16.9589 55.1762C16.5609 56.0767 16.0467 57.2024 15.433 58.5533C14.8111 59.9041 14.5042 60.7297 14.5042 61.0298C14.5042 61.23 14.5457 61.3967 14.6203 61.5135C14.695 61.6385 14.7364 61.772 14.7364 61.9304C14.7364 62.2306 14.5872 62.7059 14.2886 63.3563C14.0896 63.7065 13.9237 64.0484 13.8076 64.3736C13.6832 64.6988 13.6252 64.9156 13.6252 65.0073L13.6998 65.2325L13.6584 65.2158ZM13.733 50.3565L13.8076 50.2064V49.9062C13.8076 49.7561 13.7579 49.6811 13.6584 49.6811C13.6086 49.6811 13.5837 49.8062 13.5837 50.0563C13.6335 50.2564 13.6832 50.3565 13.733 50.3565ZM14.1808 48.3302C14.2306 48.3302 14.3052 48.2969 14.4047 48.2135C14.5042 48.1385 14.5623 48.0634 14.5872 47.9884C14.612 47.9133 14.6286 47.8466 14.6286 47.7966L14.4794 47.7215L14.3301 47.8716C14.2306 48.0217 14.1808 48.1718 14.1808 48.3219V48.3302ZM15.9721 44.5028C16.0716 44.5028 16.1213 44.3528 16.1213 44.0526C16.1213 43.9525 16.0965 43.8775 16.0467 43.8274C15.9472 43.8274 15.8974 43.9525 15.8974 44.2027C15.8974 44.4028 15.9223 44.5028 15.9721 44.5028ZM16.196 53.9588C16.2457 53.9588 16.395 53.7086 16.6438 53.2083L16.8677 52.758C16.818 52.758 16.6853 52.8831 16.4614 53.1332C16.2374 53.3834 16.1213 53.6085 16.1213 53.8087C16.1213 53.9087 16.1462 53.9588 16.196 53.9588ZM17.3902 40.9006C17.5394 40.9006 17.6887 40.5254 17.838 39.7749C17.838 39.6248 17.8214 39.5414 17.7965 39.5164C17.7716 39.4914 17.7302 39.4747 17.6804 39.4747C17.6307 39.4747 17.556 39.6165 17.4565 39.8916C17.357 40.1668 17.3072 40.4336 17.3072 40.6755C17.3072 40.7755 17.3321 40.8506 17.3819 40.9006H17.3902ZM18.8082 76.1726C19.2063 76.1726 21.1468 75.4472 24.6298 73.9963C26.5206 73.1958 28.7348 71.97 31.2724 70.319C31.5212 70.1689 31.6705 70.0938 31.7202 70.0938C31.77 70.0938 32.0022 69.9354 32.4251 69.6102C32.8481 69.285 33.3539 68.8931 33.951 68.4428C35.0457 67.5422 36.4389 66.5166 38.1306 65.3659C39.1755 64.6654 40.4444 63.7149 41.9371 62.5141C44.9225 59.9625 47.0869 58.0113 48.4304 56.6604C49.326 55.7599 49.8236 55.2346 49.9231 55.0845C50.0226 54.9344 50.2217 54.7009 50.5202 54.3673C50.8187 54.0421 51.167 53.6836 51.5651 53.2833C52.411 52.6329 52.8339 52.2077 52.8339 52.0075L52.7593 51.9325C52.5602 51.9325 52.1954 52.2243 51.6729 52.7997C51.1505 53.3751 50.7441 53.6669 50.4456 53.6669H50.2963C50.0973 53.6669 49.7241 53.892 49.1768 54.3423C48.7787 54.6425 48.5797 54.8426 48.5797 54.9427C48.5797 54.9927 48.6045 55.0178 48.6543 55.0178L48.8036 54.9427C48.9528 54.9427 49.0275 55.0178 49.0275 55.1678C49.0275 55.2179 48.986 55.2762 48.9114 55.3596C48.8367 55.4347 48.7372 55.4764 48.6128 55.4764C48.4884 55.4764 48.3723 55.493 48.2728 55.5097C48.1733 55.5347 48.0738 55.5431 47.9743 55.5431H47.5265C47.1284 55.5431 46.7055 55.9433 46.2577 56.7438C45.9591 57.2441 45.8098 57.6194 45.8098 57.8695C45.8098 58.0196 45.8596 58.1197 45.9591 58.1697C46.0586 58.2197 46.1084 58.2698 46.1084 58.3198C46.1084 58.3698 46.0172 58.4282 45.843 58.5033C45.6689 58.5783 45.4947 58.7201 45.3206 58.9202C45.1464 59.1203 45.0303 59.2204 44.9888 59.2204H44.8396V59.0703C44.8396 58.9202 44.7401 58.8451 44.541 58.8451C44.3918 58.8451 44.3171 58.9869 44.3171 59.2621C44.3171 59.5372 44.2176 59.7791 44.0186 59.9708C43.8196 60.171 43.6454 60.271 43.4961 60.271C43.3469 60.271 43.2722 60.221 43.2722 60.1209V59.9708C43.2225 59.9708 43.1478 60.0626 43.0483 60.2377C42.9488 60.4128 42.899 60.5712 42.899 60.7213L42.9737 61.0965C42.8742 61.2466 42.7747 61.3217 42.6751 61.3217C42.5756 61.3217 42.5259 61.2717 42.5259 61.1716C42.5259 61.0715 42.5093 61.0132 42.4927 60.9798C42.4678 60.9548 42.4263 60.9381 42.3766 60.9381C42.1776 60.9881 42.1029 61.1132 42.1527 61.3133L42.2273 61.5385L42.078 61.7636C41.879 62.1138 41.4312 62.5641 40.7346 63.1145C39.5902 64.015 38.9268 64.4653 38.7526 64.4653C38.5785 64.4653 38.3628 64.6154 38.1141 64.9156C37.8653 65.2158 37.6165 65.3659 37.3677 65.3659H37.0692C36.9696 65.3659 36.8287 65.3992 36.6628 65.4743C36.4887 65.5493 36.3228 65.6911 36.1735 65.8912C36.0243 66.0913 35.9496 66.2664 35.9496 66.4165C35.9496 66.5666 35.9081 66.6584 35.8335 66.675C35.7589 66.7 35.6677 66.7167 35.5681 66.7167H35.4189C35.2696 66.7167 35.1037 66.7501 34.9296 66.8251C34.7554 66.9002 34.5979 67.0002 34.4486 67.1253C34.2993 67.2504 34.2247 67.3671 34.2247 67.4589V67.6089C34.2247 67.8091 34.0257 68.0342 33.6276 68.2844C33.2295 68.5345 32.931 68.6596 32.732 68.6596H32.6573C32.4583 68.6596 31.9856 68.9765 31.2393 69.5935C30.4929 70.2189 30.07 70.5441 29.9705 70.5691C29.8709 70.5941 29.6968 70.6609 29.448 70.7526C29.1992 70.8526 28.9753 71.0027 28.7763 71.2029C28.7763 71.353 28.6519 71.428 28.4031 71.428C28.1543 71.428 28.0299 71.5531 28.0299 71.8032C28.0299 72.0534 27.8806 72.1785 27.5821 72.1785C27.0845 72.1785 26.7362 72.2285 26.5372 72.3286C25.8406 72.7788 25.4177 73.0373 25.2684 73.1124C25.1191 73.1874 24.5469 73.4543 23.5518 73.9045C23.303 74.0046 23.1786 74.0963 23.1786 74.163C23.1786 74.2298 23.162 74.2798 23.1371 74.2798H23.021L22.7225 74.2047C22.5732 74.2047 22.4073 74.3048 22.2415 74.5049C22.0673 74.705 21.8766 74.8051 21.6776 74.8051C21.5781 74.7551 21.4039 74.7301 21.1551 74.7301C20.9063 74.7801 20.6576 74.8551 20.4088 74.9552C20.16 75.0553 19.961 75.1553 19.8117 75.2554C19.6624 75.3555 19.5878 75.4305 19.5878 75.4805V75.5556C19.5878 75.6556 19.5629 75.7057 19.5131 75.7057L18.9907 75.5556C18.6921 75.5556 18.5429 75.7307 18.5429 76.0809C18.5429 76.1309 18.5677 76.156 18.6175 76.156H18.7668L18.8082 76.1726ZM18.7336 49.1558C18.7834 49.1558 18.9326 48.9056 19.1814 48.4053L19.4053 47.955L19.3307 47.88L19.0322 48.3302C18.7834 48.6304 18.659 48.8556 18.659 49.0057C18.659 49.1057 18.6838 49.1558 18.7336 49.1558ZM20.4502 35.3471C20.6493 35.3471 20.7985 35.2471 20.898 35.0469C21.0473 34.6467 21.122 33.7211 21.122 32.2702L21.0473 32.1201L20.8234 32.4953C20.6741 32.7455 20.5249 33.0707 20.3756 33.471C20.0273 34.1714 19.8531 34.6717 19.8531 34.9719C19.8531 35.222 20.0522 35.3471 20.4502 35.3471ZM21.1966 31.6698C21.2961 31.6698 21.4205 31.5197 21.5698 31.2195C21.719 30.9194 21.8932 30.5441 22.0922 30.0938C22.7888 28.4928 23.1371 27.4422 23.1371 26.9419C23.0874 26.9419 22.8883 27.3171 22.54 28.0676C22.3908 28.3678 22.2664 28.6596 22.1669 28.9348C22.0673 29.21 21.9678 29.4184 21.8683 29.5769C21.4205 30.7276 21.1966 31.403 21.1966 31.6031V31.6782V31.6698ZM21.5698 35.6473L21.719 35.3471C21.8186 35.197 21.9015 34.9969 21.9844 34.7467C22.059 34.4966 22.1005 34.3215 22.1005 34.2214H22.0259C21.7273 34.8718 21.5781 35.3221 21.5781 35.5723V35.6473H21.5698ZM22.3161 33.7711C22.3659 33.7711 22.4322 33.7128 22.5069 33.5794C22.5815 33.4543 22.6395 33.3292 22.6893 33.2041C22.7391 33.079 22.7639 32.9957 22.7639 32.9456C22.7639 32.8956 22.7391 32.8706 22.6893 32.8706C22.6395 32.8706 22.5483 32.9873 22.4239 33.2041C22.2995 33.4293 22.2415 33.596 22.2415 33.6878C22.2415 33.7378 22.2664 33.7628 22.3161 33.7628V33.7711ZM29.5558 36.6229L29.7797 36.3978C29.929 36.2477 30.0866 36.0392 30.269 35.764C30.4431 35.4889 30.5758 35.2554 30.6753 35.0469C30.7749 34.8468 30.8246 34.7217 30.8246 34.6717C30.7749 34.6717 30.6836 34.7467 30.5675 34.8968C30.4431 35.0469 30.3022 35.2304 30.1612 35.4555C30.0119 35.6807 29.8709 35.9058 29.7548 36.131C29.6304 36.3561 29.5724 36.5229 29.5724 36.6146L29.5558 36.6229ZM53.3647 50.2815L53.5886 50.2064C53.8373 49.9563 53.9617 49.6811 53.9617 49.3809C53.9617 49.0807 54.1608 48.9306 54.5588 48.9306C54.9569 48.9306 55.7364 48.3969 56.914 47.3129C58.0833 46.2373 58.6638 45.5035 58.6638 45.1032L58.5892 44.803C58.5892 44.6529 58.6638 44.5779 58.8131 44.5779C58.9623 44.5779 59.037 44.5529 59.037 44.5028V44.4278C58.9872 44.3778 58.9375 44.3528 58.8877 44.3528C58.7384 44.3528 58.4814 44.5195 58.0999 44.8364C57.7267 45.1616 57.5443 45.4534 57.5443 45.7036C57.196 46.404 56.6486 47.0294 55.9023 47.5798L55.5291 47.7299V47.3546C55.5788 47.2045 55.8276 46.7543 56.2755 46.0038C55.3798 46.9043 54.8657 47.3796 54.7496 47.4297C54.6252 47.4797 54.4344 47.6798 54.1856 48.03C53.5388 48.9306 53.2154 49.556 53.2154 49.9062C53.2154 50.1564 53.2237 50.2815 53.2568 50.2815H53.3729H53.3647ZM57.3204 42.9269C57.3701 42.9269 57.5774 42.7017 57.9589 42.2514C58.3321 41.8012 58.5145 41.526 58.5145 41.4259C58.3653 41.4259 58.1662 41.626 57.9174 42.0263C57.5194 42.5766 57.3204 42.8768 57.3204 42.9269ZM57.6189 44.9531C57.7184 44.9531 57.8179 44.9198 57.9174 44.8447C58.017 44.7697 58.0667 44.6446 58.0667 44.4695C58.0667 44.2944 59.1116 42.6267 61.2014 39.483V39.2579C61.1517 39.2579 61.077 39.3079 60.9775 39.408H60.9029C60.7038 39.5581 60.3307 40.0334 59.7833 40.8339C59.435 41.6344 59.1697 42.0346 59.0038 42.0346C58.838 42.0346 58.5145 42.4265 58.075 43.202C57.6272 43.9775 57.4033 44.4945 57.4033 44.7447C57.4033 44.8948 57.4779 44.9698 57.6272 44.9698L57.6189 44.9531ZM59.037 40.6004C59.236 40.5003 59.3355 40.3753 59.3355 40.2252C59.3355 40.1251 59.236 40.0751 59.037 40.0751C58.8877 40.2252 58.8131 40.3753 58.8131 40.5254C58.8131 40.5754 58.838 40.6004 58.8877 40.6004H59.037ZM61.9478 38.7242L63.2166 37.2983C64.0127 36.2977 64.4605 35.5723 64.56 35.122V34.5216L64.4854 34.4466C64.4356 34.4466 64.3444 34.5216 64.22 34.6717C64.0956 34.8218 64.0376 34.9719 64.0376 35.122L64.1122 35.4222C64.1122 35.5723 64.0376 35.6473 63.8883 35.6473C63.7888 35.6473 63.739 35.6223 63.739 35.5723V35.4972L63.8137 35.2721C63.8137 35.122 63.7722 35.0219 63.6976 34.9719C63.6229 34.9219 63.5815 34.8468 63.5815 34.7467C63.5815 34.5466 63.6395 34.2965 63.7639 33.9963C63.8883 33.6961 63.9547 33.471 63.9547 33.3209C63.9547 33.1708 63.9298 33.0957 63.88 33.0957C63.8303 33.0957 63.7639 33.0624 63.6976 32.9873C63.6229 32.9123 63.5815 32.8456 63.5815 32.7955C63.5815 32.6955 63.6312 32.6454 63.7307 32.6454L63.8054 32.5704L64.1786 32.7205C64.2781 32.7205 64.3278 32.6705 64.3278 32.5704C64.3278 32.4203 64.2366 32.2202 64.0708 31.97C63.8966 31.7199 63.7805 31.5948 63.7307 31.5948L63.5068 32.0451C63.3576 32.6955 63.0424 33.496 62.578 34.4466C62.1053 35.3972 61.6492 36.1726 61.1931 36.773C60.596 37.5235 60.2975 38.0238 60.2975 38.274C60.2975 38.324 60.3473 38.349 60.4468 38.349C60.596 38.349 60.8199 38.274 61.1185 38.1239L61.417 38.0488C61.5663 38.0488 61.6492 38.0905 61.6824 38.1656C61.7073 38.2406 61.7985 38.424 61.9395 38.7242H61.9478ZM61.2014 4.4278C61.5995 4.4278 61.7985 4.40279 61.7985 4.35275L61.6492 4.27771C60.9526 4.27771 60.6043 4.30272 60.6043 4.35275C60.6043 4.40279 60.8034 4.4278 61.2014 4.4278ZM64.8586 31.7449C64.9083 31.7449 64.9332 31.6948 64.9332 31.5948C64.7839 31.1445 64.6098 30.9194 64.4108 30.9194C64.2615 30.9194 64.1869 31.0444 64.1869 31.2946C64.1869 31.3947 64.2283 31.4947 64.303 31.5948C64.3776 31.6948 64.4937 31.7449 64.643 31.7449H64.8669H64.8586ZM65.0825 30.9944C65.2318 30.9944 65.4805 30.5441 65.8288 29.6436C66.0279 29.0932 66.1274 28.6429 66.1274 28.2927C66.1274 28.1927 66.1025 28.1009 66.0527 28.0259C66.003 27.9508 65.9284 27.9175 65.8288 27.9175C65.6796 27.9175 65.5386 28.0426 65.4225 28.2927C65.2981 28.5429 65.2318 28.793 65.2318 29.0432C65.2318 29.0932 65.2401 29.1432 65.2732 29.1933C65.2981 29.2433 65.3147 29.3684 65.3147 29.5685L65.0908 30.8443V30.9944H65.0825ZM66.6498 27.8424L67.3216 26.5666C67.7196 25.6661 67.9186 25.0907 67.9186 24.8406C67.9186 24.6905 67.9021 24.5821 67.8855 24.507C67.8606 24.432 67.7943 24.3903 67.703 24.3903C67.5538 24.3903 67.3796 24.6488 67.1806 25.1741C66.9816 25.6994 66.8074 26.5917 66.6581 27.8424H66.6498ZM69.0382 13.8837C69.0879 13.8837 69.1211 13.8337 69.1543 13.7336C69.1792 13.6336 69.1875 13.5335 69.1875 13.4334C69.1875 13.2833 69.1377 13.2083 69.0382 13.2083C68.9884 13.2083 68.9636 13.3334 68.9636 13.5835L69.0382 13.8837Z" fill="#BBB573"/>
<path d="M65.3809 75.1219C64.8834 75.1219 64.2614 75.0219 63.515 74.8217C62.7687 74.6216 62.0223 73.9962 61.276 72.9456C60.9277 72.5453 60.7535 72.2201 60.7535 71.9699C60.7535 71.7198 60.5296 71.3696 60.0818 70.9193C59.2359 69.6185 58.813 67.6923 58.813 65.1407C58.813 63.3896 59.0369 61.7636 59.4847 60.2626C61.276 55.5097 64.137 51.257 68.0678 47.5047L69.4859 46.2289C69.3366 45.9787 69.1459 45.7035 68.922 45.4033C68.6981 45.1032 68.582 44.853 68.582 44.6529C68.582 44.6028 68.5903 44.5528 68.6235 44.5028C68.6483 44.4528 68.781 44.4277 69.0298 44.4277C69.7762 44.5278 70.3401 44.6946 70.7133 44.9114C71.0864 45.1365 71.3933 45.2533 71.6421 45.2533C71.7913 45.2533 71.9904 45.2199 72.2392 45.1448C72.4879 45.0698 72.7865 45.0281 73.1348 45.0281C73.8811 45.0281 74.6856 45.4033 75.5563 46.1538C76.4271 46.9043 76.8749 47.5213 76.8998 47.9966C76.9246 48.4719 78.55 48.7054 81.7925 48.7054C86.5692 48.7054 91.5201 48.1551 96.6451 47.0544C97.6402 47.0544 98.1627 47.0711 98.2124 47.0877C98.2622 47.1127 98.37 47.1211 98.5442 47.1211C98.7183 47.1211 98.851 47.1461 98.9505 47.1961C99.05 47.2462 99.1246 47.2712 99.1744 47.2712C99.2242 47.2712 99.2739 47.2962 99.3237 47.3462H99.3983L99.5476 47.4963C99.3486 47.5464 99.2076 47.5714 99.1412 47.5714C99.0749 47.5714 98.6022 47.6964 97.7563 47.9466L99.6969 47.6464C99.7466 47.6964 99.7715 47.7381 99.7715 47.7548C99.7715 47.7798 99.7798 47.8048 99.813 47.8299C99.8378 47.8549 99.8627 47.8799 99.8876 47.9049C99.9125 47.9299 99.9374 47.9716 99.9622 48.0216C99.9871 48.0717 100.012 48.1301 100.037 48.2051C100.062 48.2801 100.078 48.3719 100.078 48.4719V49.0723L99.9291 49.8228L99.7798 50.123H99.7052L99.5559 50.3481H99.4812V50.4232C93.6099 51.6239 88.4351 52.2243 83.957 52.2243C82.514 52.2243 81.1706 52.1742 79.9266 52.0742C79.4788 51.9741 79.1057 51.9241 78.8071 51.9241H78.3593L79.1057 53.8003C79.7525 55.4013 80.0759 57.1273 80.0759 58.9785C80.0759 60.3293 79.9764 61.455 79.7774 62.3556C79.6281 62.906 79.3793 63.5814 79.031 64.3819C77.8866 66.9335 76.1949 69.2349 73.9558 71.2862C73.0104 72.1367 72.1645 72.7621 71.4182 73.1624C70.6718 73.5626 69.3035 74.0379 67.3132 74.5882C66.8654 74.7383 66.5254 74.8634 66.3015 74.9635C66.0775 75.0636 65.7624 75.1136 65.3727 75.1136L65.3809 75.1219ZM63.8136 71.1444C64.6097 71.1444 65.8288 70.8192 67.4708 70.1688C69.7098 69.2182 71.7333 67.6923 73.5577 65.591C75.3739 63.4897 76.5266 61.1882 77.0241 58.6866C77.1734 57.8861 77.2481 57.1107 77.2481 56.3602C77.2481 54.8593 76.9246 53.4834 76.2778 52.2326C75.9295 51.5822 75.5563 51.257 75.1582 51.257H74.9343C74.4865 51.257 74.2129 51.1986 74.1133 51.0652C74.0138 50.9401 73.9143 50.8651 73.8148 50.8401C73.7153 50.8151 73.5743 50.79 73.4084 50.765C73.2343 50.74 73.0933 50.6233 73.0021 50.4232C72.9026 50.223 72.8528 50.0479 72.8528 49.8978L72.9275 49.5226C72.9275 49.4726 72.9026 49.4475 72.8528 49.4475C72.6538 49.4475 72.0152 49.9895 70.9538 51.0569C69.884 52.1326 69.3366 52.7246 69.3118 52.8246C69.2869 52.9247 69.1957 53.0498 69.0464 53.1999C68.2005 54.2505 67.5039 55.2011 66.9566 56.0517C65.1653 58.9535 63.996 61.1048 63.4487 62.5057C62.5531 64.657 62.1053 66.7333 62.1053 68.7346C62.1053 69.9353 62.2048 70.6358 62.4038 70.8359C62.6028 71.036 63.0755 71.1361 63.8219 71.1361L63.8136 71.1444ZM95.9817 48.4052C96.1309 48.4052 96.3217 48.3802 96.5456 48.3302C96.7695 48.2801 96.9685 48.2301 97.1427 48.1801C97.3168 48.13 97.4246 48.08 97.4827 48.03C97.0349 48.03 96.6617 48.0633 96.3631 48.1384C96.0646 48.2134 95.9153 48.3052 95.9153 48.4052H95.9899H95.9817Z" fill="#BBB573"/>
<path d="M93.2948 79.0995C92.9963 79.0995 92.7972 79.0912 92.6977 79.0661C92.5982 79.0411 92.4738 78.9577 92.3245 78.8077C92.1753 78.6576 91.9513 78.5075 91.6528 78.3574C91.5035 78.3574 91.3045 78.2323 91.0557 77.9821L90.0854 76.181L90.4586 74.4549C91.1055 71.353 92.5484 67.2004 94.7875 61.9971L99.1164 51.5656C100.012 49.5143 100.858 47.7382 101.654 46.2373C102.45 44.7364 102.973 43.7607 103.221 43.3105C103.619 42.4099 103.993 41.7845 104.341 41.4343C104.54 41.2342 104.639 41.0507 104.639 40.8673C104.639 40.6838 104.722 40.6088 104.905 40.6088C105.087 40.6088 105.187 40.5838 105.237 40.5337L106.729 40.3086C106.928 40.3086 107.102 40.4337 107.252 40.6838C107.5 40.934 107.708 41.0591 107.89 41.0591C108.073 41.0591 108.147 41.1841 108.147 41.4343C108.147 41.6845 108.056 42.0263 107.89 42.4433C107.716 42.8685 107.625 43.152 107.625 43.3105C107.625 43.4689 107.351 43.9859 106.804 44.8865C105.361 47.338 104.341 49.4643 103.744 51.2654L101.729 56.2936C101.032 58.0447 100.568 59.2371 100.352 59.8541C100.128 60.4795 100.012 60.8214 100.012 60.8631C100.112 60.8631 100.393 60.4629 100.874 59.6624C101.347 58.8619 101.654 58.4616 101.803 58.4616V58.5366C101.803 58.6367 101.778 58.7785 101.729 58.9536C101.679 59.1287 101.588 59.2788 101.472 59.4039C101.347 59.5289 101.132 59.8541 100.833 60.3795C100.534 60.9048 100.211 61.4718 99.8627 62.0722C99.1661 63.2729 98.8179 63.9734 98.8179 64.1735C98.8676 64.1735 99.9125 62.5725 101.953 59.3705C103.246 57.3192 104.49 55.5431 105.684 54.0422C108.272 50.7401 110.038 48.6888 110.983 47.8883C111.68 47.288 112.028 46.9377 112.028 46.8377L111.357 47.288C110.511 47.8883 109.839 48.4387 109.342 48.939C107.65 50.64 105.61 53.2167 103.221 56.6688C102.525 57.7695 102.102 58.3199 101.953 58.3199V58.2448C101.953 57.9946 102.4 57.2692 103.296 56.0684C103.993 55.0678 105.535 53.0666 107.923 50.0647C110.163 47.4631 111.854 46.1623 112.999 46.1623C113.596 46.1623 114.243 46.2623 114.939 46.4624C115.387 46.6125 115.661 46.7793 115.76 46.9461C115.86 47.1212 115.943 47.2713 116.017 47.3964C116.092 47.5214 116.175 47.6132 116.283 47.6549C116.581 47.855 116.905 48.2052 117.253 48.7055C117.9 49.7061 118.372 51.5323 118.671 54.1839C119.119 57.0357 119.616 58.5867 120.164 58.8368C120.263 58.8869 120.412 58.9119 120.612 58.9119L121.433 58.8368C122.179 58.7368 123.124 58.3115 124.269 57.561C125.065 56.9607 126.085 56.1351 127.329 55.0845C128.125 54.1839 128.647 53.7337 128.896 53.7337C129.045 53.7337 129.12 53.8337 129.12 54.0338C129.12 54.334 129.004 54.8343 128.78 55.5348C128.556 56.2352 128.266 56.8606 127.926 57.4109C126.632 59.112 125.587 60.2044 124.791 60.6797C123.995 61.155 122.925 61.3884 121.582 61.3884C121.084 61.3884 120.736 61.3134 120.537 61.1633C119.442 60.8131 118.323 59.8124 117.178 58.1614C116.233 56.8606 115.611 55.6849 115.312 54.6342C115.163 54.0338 115.022 52.9248 114.906 51.2988C114.782 49.6728 114.666 48.7972 114.566 48.6722C114.466 48.5471 114.367 48.4887 114.267 48.4887C114.168 48.5387 113.969 48.6388 113.67 48.7889C113.372 48.939 113.223 49.0891 113.223 49.2392L113.297 49.3893H113.073C112.874 49.3893 112.675 49.4893 112.476 49.6895C112.277 49.8896 112.178 50.0897 112.178 50.2898L112.327 50.4399H112.103C112.004 50.4399 111.804 50.54 111.506 50.7401C110.76 51.2905 110.088 51.9909 109.491 52.8414C109.242 53.1916 108.993 53.3918 108.744 53.4418C108.496 53.4918 108.222 53.842 107.923 54.4925C107.923 54.8427 107.799 55.0178 107.55 55.0178C107.301 55.1179 107.177 55.293 107.177 55.5431L107.252 55.6932C107.252 55.8433 107.152 56.0184 106.953 56.2185C106.406 56.8189 105.535 58.1698 104.341 60.2711L104.266 60.4212C103.918 61.0215 103.603 61.5469 103.337 61.9971C103.064 62.4474 102.89 62.7059 102.815 62.781C102.74 62.856 102.666 63.0061 102.591 63.2313C102.516 63.4564 102.425 63.6982 102.334 63.9484C101.588 65.8496 100.816 67.4506 100.02 68.7514C99.672 69.3517 99.3569 69.9021 99.0915 70.4024C98.8178 70.9027 98.6105 71.2529 98.453 71.4531L96.2885 75.3555C95.99 75.8558 95.7661 76.2477 95.6168 76.5229C95.4675 76.7981 95.2436 77.1399 94.9451 77.5402C94.2485 78.5909 93.7011 79.1162 93.3031 79.1162L93.2948 79.0995ZM92.3245 74.8218L92.4738 74.6717C92.5236 74.5717 92.5899 74.4633 92.6562 74.3299C92.7309 74.2048 92.7723 74.1214 92.7723 74.063C92.7226 74.063 92.6231 74.1381 92.4738 74.2882C92.3245 74.4383 92.2499 74.5883 92.2499 74.7384C92.2499 74.7885 92.2748 74.8135 92.3245 74.8135V74.8218ZM92.4738 73.3209C92.7226 73.3209 93.6182 71.2696 95.1607 67.167L96.0563 64.7655C96.3051 63.965 96.4793 63.5398 96.5788 63.4897C96.6783 63.4397 96.728 63.3146 96.728 63.1145C96.728 62.9144 96.8524 62.5642 97.1012 62.0639C97.2007 61.9138 97.3251 61.6636 97.4744 61.3134C97.6237 60.9632 97.7978 60.5879 97.9969 60.1877C98.3949 59.3872 98.5939 58.8619 98.5939 58.6117L98.5193 58.5366H98.2208C98.0217 58.5867 97.8476 58.7868 97.6983 59.137L97.549 59.6624H97.6237C97.6237 59.7124 97.5988 59.7624 97.549 59.8125C97.4993 59.8625 97.4329 59.9542 97.3583 60.0709C97.2837 60.196 97.1759 60.4212 97.0266 60.7464C96.8773 61.0716 96.728 61.4218 96.5788 61.797C96.4295 62.1723 96.2885 62.5141 96.1724 62.806C96.048 63.1062 95.99 63.3063 95.99 63.4064C96.0895 63.4064 96.1641 63.3813 96.2139 63.3313C96.2636 63.2813 96.3134 63.2563 96.3632 63.2563V63.3313L96.2885 63.4814C96.2388 63.5314 96.189 63.5565 96.1393 63.5565H95.99C95.8905 63.5565 95.8158 63.6315 95.7661 63.7816C95.7163 63.9317 95.6002 64.2319 95.4261 64.6822C95.2519 65.1324 95.0363 65.6578 94.7875 66.2581C94.0412 68.1093 93.668 69.16 93.668 69.4101V69.4852L93.8172 69.4101V69.4852C93.8172 69.7353 93.7426 69.8604 93.5933 69.8604L93.4441 69.7854L93.5187 69.9354C93.5685 70.0355 93.5933 70.1606 93.5933 70.3107C93.5933 70.6109 93.5187 70.761 93.3694 70.761H93.2948C93.245 70.761 93.2202 70.786 93.2202 70.836L93.3694 71.1362C93.3694 71.1862 93.2865 71.2279 93.1041 71.2446C92.9299 71.2696 92.847 71.3363 92.847 71.4364L92.9962 71.7366C92.9962 72.0368 92.9133 72.3536 92.7309 72.6705C92.5567 72.9957 92.4738 73.1875 92.4738 73.2292V73.3042V73.3209ZM98.0715 58.3115C98.1212 58.3115 98.171 58.2615 98.2208 58.1614C98.2705 58.0614 98.3369 57.953 98.4032 57.8279C98.4778 57.7028 98.5193 57.6194 98.5193 57.561C98.4198 57.561 98.2954 57.7111 98.1461 58.0113L98.0715 58.3115ZM98.5193 57.3359C98.5691 57.3359 98.6188 57.2609 98.6686 57.1108L98.7432 56.9607C98.7432 56.9106 98.7183 56.8856 98.6686 56.8856C98.6188 56.9357 98.5691 56.9857 98.5193 57.0357C98.4696 57.0857 98.4447 57.1358 98.4447 57.1858C98.4447 57.2859 98.4696 57.3359 98.5193 57.3359Z" fill="#BBB573"/>
<path d="M132.329 114.972H131.956C131.707 114.922 131.417 114.847 131.094 114.747C130.77 114.647 130.497 114.522 130.273 114.372C130.049 114.222 129.792 114.046 129.493 113.846C129.195 113.646 128.946 113.454 128.747 113.288C128.548 113.113 128.349 112.971 128.15 112.871C127.951 112.771 127.801 112.704 127.702 112.687C127.602 112.662 127.42 112.487 127.146 112.162C126.873 111.837 126.566 111.42 126.218 110.928C124.924 109.327 124.277 106.45 124.277 102.297C124.277 99.996 124.451 97.361 124.799 94.3842C125.148 91.4073 125.62 88.5222 126.218 85.7121C130.646 65.3994 138.682 44.3112 150.325 22.4475L147.713 22.5226L140.174 23.198C139.03 23.3481 138.425 23.4482 138.35 23.4982C138.275 23.5482 138.184 23.5732 138.085 23.5732L137.114 23.6483C136.617 23.7483 135.97 23.8234 135.174 23.8734C134.378 23.9235 133.358 23.9985 132.114 24.0986L125.471 24.774C115.47 25.6745 108.23 26.4 103.752 26.9503C103.006 27.0504 102.035 27.1255 100.841 27.1755C99.0501 27.3256 97.2588 27.4006 95.4675 27.4006C95.169 27.3006 94.8704 27.1004 94.5719 26.8002C94.2734 26.5001 94.1241 26.2666 94.1241 26.0915C94.1241 25.9164 94.1158 25.8163 94.0909 25.7913C94.066 25.7663 93.9914 25.7413 93.867 25.7162C93.7426 25.6912 93.6763 25.4577 93.6763 25.0075C93.6763 24.6072 93.726 24.3571 93.8255 24.257C93.9251 24.1569 94.0246 23.9985 94.1241 23.7734C94.2236 23.5482 94.2899 23.3981 94.3065 23.3231C94.3314 23.248 94.6217 23.2147 95.169 23.2147C96.4627 23.2147 97.3003 23.2063 97.6734 23.1813C98.0466 23.1563 98.4364 23.0229 98.8344 22.7644C99.2325 22.5142 99.7052 22.3892 100.253 22.3892H100.999C101.347 22.4392 101.72 22.6393 102.118 22.9895C102.218 23.1396 102.317 23.2314 102.417 23.248C102.516 23.273 102.74 23.2814 103.089 23.2814C103.487 23.2814 104.208 23.2314 105.253 23.1313L114.881 22.3808C115.478 22.3808 115.777 22.4058 115.777 22.4559C115.777 22.5059 115.719 22.5476 115.594 22.5726C115.47 22.5976 115.321 22.606 115.147 22.606C114.972 22.606 114.79 22.631 114.591 22.681C114.392 22.731 114.243 22.7561 114.143 22.7561L113.919 22.8311H114.292C116.283 22.8311 121.383 22.4559 129.593 21.7054L134.743 21.2551C140.067 20.8048 143.234 20.538 144.263 20.463C145.283 20.3879 146.212 20.3045 147.066 20.2045C149.603 20.0544 151.146 19.9293 151.693 19.8292L154.38 15.1013C156.719 10.7486 158.261 8.07188 159.008 7.07125C159.605 6.12066 159.903 5.52029 159.903 5.27013C160.102 4.31954 160.724 3.84424 161.769 3.84424C162.167 3.84424 162.64 3.96932 163.187 4.21947C164.282 4.76982 164.829 5.17007 164.829 5.42022C164.829 5.47025 164.879 5.52862 164.978 5.60367C165.078 5.67872 165.227 5.72041 165.426 5.72041C165.824 5.82047 166.148 6.08731 166.396 6.50423C166.645 6.9295 166.77 7.42147 166.77 7.97182C166.77 8.47213 166.62 8.84736 166.322 9.09752C166.173 9.19758 165.998 9.44774 165.799 9.84799C165.75 10.1482 165.451 10.7486 164.904 11.6491C164.356 12.5497 163.734 13.4252 163.038 14.2758C162.242 15.3264 161.147 16.9774 159.754 19.2289C162.292 19.0287 164.738 18.8453 167.101 18.6618C169.465 18.4867 171.24 18.3533 172.442 18.2449C173.636 18.1448 175.129 18.0698 176.92 18.0198H191.4C191.997 18.0698 192.469 18.1115 192.818 18.1282C193.166 18.1532 193.514 18.2199 193.862 18.32C195.803 18.7702 197.047 19.2705 197.594 19.8209C197.744 20.1211 197.818 20.4213 197.818 20.7215C197.818 21.0216 197.918 21.2384 198.117 21.3635C198.316 21.4886 198.415 21.7304 198.415 22.0723C198.415 22.3225 198.366 22.5726 198.266 22.8228C198.166 23.0729 197.943 23.3398 197.594 23.6149C197.246 23.8901 196.889 24.1403 196.516 24.3654C196.143 24.5905 195.869 24.7073 195.695 24.7073C195.521 24.7073 195.289 24.7573 194.99 24.8574C194.095 25.1075 193.249 25.2826 192.453 25.3827C191.657 25.4828 190.935 25.5328 190.288 25.5328L189.84 25.4577C188.348 25.4577 187.535 25.4077 187.419 25.3077C187.295 25.2076 187.178 25.1325 187.079 25.0825C186.581 25.0825 186.333 25.0325 186.333 24.9324C186.333 24.8324 186.482 24.7573 186.78 24.7073C187.377 24.6072 188.008 24.4571 188.679 24.257C189.351 24.0569 189.932 23.8818 190.429 23.7317C190.927 23.5816 191.176 23.4732 191.176 23.3898C191.176 23.3064 191.333 23.2063 191.657 23.0562C191.98 22.9062 192.378 22.7561 192.851 22.606C193.323 22.4559 193.796 22.3225 194.269 22.1974C194.742 22.0723 194.974 21.9639 194.974 21.8555C194.974 21.8055 194.883 21.7471 194.717 21.6637C194.543 21.5887 193.697 21.4886 192.179 21.3635C190.661 21.2384 188.87 21.1134 186.805 20.9883C184.74 20.8632 182.742 20.7798 180.801 20.7298L177.368 20.8048C173.885 20.9049 170.551 21.03 167.367 21.1801C165.426 21.3302 164.033 21.4052 163.187 21.4052L158.336 21.7054C156.146 25.7079 154.206 29.4102 152.514 32.8123C150.972 35.7142 149.653 38.4909 148.559 41.1425C147.116 44.7448 145.822 47.6216 144.677 49.7729C143.434 52.2745 141.75 56.5272 139.635 62.5309C137.521 68.5347 135.787 73.938 134.444 78.741L133.623 81.7429C132.18 86.5459 131.135 91.3239 130.488 96.0769C130.041 99.3289 129.817 102.206 129.817 104.707C129.817 106.458 129.941 107.834 130.19 108.835C130.389 110.136 130.638 110.861 130.936 111.011C131.036 111.011 131.558 110.711 132.504 110.111L133.548 109.51L134.145 109.285C134.295 109.285 134.444 109.46 134.593 109.81C134.842 110.361 135.041 111.186 135.19 112.287C135.19 112.737 135.166 112.987 135.116 113.037C134.867 113.288 134.718 113.571 134.668 113.896C134.618 114.222 134.328 114.488 133.805 114.688C133.283 114.889 132.802 114.989 132.354 114.989L132.329 114.972ZM120.612 23.5649L124.194 23.2647C124.841 23.1646 125.678 23.0813 126.698 23.0062C127.719 22.9312 128.681 22.8561 129.568 22.7811C130.463 22.706 131.367 22.6226 132.296 22.5226C133.217 22.4225 133.988 22.3475 134.61 22.2974C135.232 22.2474 135.738 22.2141 136.136 22.189C136.534 22.164 136.832 22.139 137.031 22.114C137.23 22.089 137.38 22.0556 137.479 21.9972L137.554 21.9222C137.554 21.8722 137.537 21.8388 137.512 21.8138C137.488 21.7888 137.446 21.7804 137.405 21.7804L137.255 21.9305C137.106 21.9806 136.783 22.0056 136.285 22.0056C133.598 22.1557 130.513 22.4058 127.03 22.7561C125.388 22.9562 123.672 23.1313 121.88 23.2814C121.184 23.3314 120.603 23.3898 120.131 23.4732C119.658 23.5482 119.401 23.5899 119.351 23.5899H120.62L120.612 23.5649ZM125.687 104.165C125.836 104.165 126.184 101.964 126.732 97.5611C127.379 92.4079 128.125 88.3304 128.971 85.3285L129.419 83.3022L130.314 79.775L130.986 77.8238C131.732 74.972 132.354 72.8707 132.852 71.5199C132.951 70.9195 133.15 70.219 133.449 69.4185L133.673 68.593C133.772 68.0427 133.955 67.4256 134.228 66.7502C134.502 66.0748 134.792 65.316 135.091 64.4571L136.21 61.08C136.36 60.4296 137.405 57.6529 139.345 52.7498C140.888 48.7473 142.455 44.9699 144.047 41.4177C147.232 34.5634 149.297 30.2858 150.242 28.5847C150.939 27.3339 151.287 26.6335 151.287 26.4834C151.287 26.4334 151.262 26.4083 151.212 26.4083C151.162 26.4083 151.038 26.5501 150.839 26.8253C150.64 27.1004 150.441 27.3673 150.242 27.6091C149.695 28.1594 148.973 29.2351 148.078 30.8361C147.331 32.1869 146.618 33.5628 145.946 34.9637C145.275 36.3646 144.868 37.2651 144.719 37.6654C144.719 38.0656 144.653 38.2657 144.536 38.2657C144.42 38.2657 144.337 38.2991 144.313 38.3741C144.288 38.4492 144.271 38.5409 144.271 38.641V38.716C144.271 39.2163 143.4 41.0925 141.659 44.3445C141.062 45.4452 140.763 46.0706 140.763 46.2207C140.763 46.3708 140.539 46.7961 140.091 47.4965C139.544 48.4471 138.599 50.6735 137.255 54.1757C135.912 57.6779 134.643 61.1551 133.449 64.6072C132.951 66.1582 132.504 67.4507 132.105 68.4763C131.707 69.5019 131.417 70.0189 131.243 70.0189C131.069 70.0189 130.58 71.5699 129.783 74.6718C129.087 77.1234 128.689 78.591 128.589 79.0579C128.49 79.5332 128.44 79.9001 128.44 80.1419C128.39 80.3921 128.399 80.5172 128.481 80.5172C128.564 80.5172 128.598 80.5422 128.598 80.5922C128.598 80.9925 128.448 81.3427 128.15 81.6429C128.05 81.6929 127.926 81.9681 127.777 82.4684C127.279 84.1694 126.98 85.4452 126.881 86.2958C126.881 86.7961 126.906 87.1213 126.956 87.2714C127.105 87.6216 127.179 87.8717 127.179 88.0218C127.179 88.0719 127.155 88.0969 127.105 88.0969L126.881 88.0218C126.732 88.0719 126.582 88.5722 126.433 89.5228C126.085 91.1238 125.786 93.5753 125.537 96.8774C125.488 97.6779 125.463 98.5284 125.463 99.429C125.562 100.229 125.612 101.28 125.612 102.581C125.612 103.632 125.637 104.157 125.687 104.157V104.165ZM127.777 104.39C127.876 104.39 127.926 103.865 127.926 102.814L127.851 101.839C127.851 101.188 127.876 100.605 127.926 100.079C127.976 99.554 128.009 99.2539 128.042 99.1788C128.067 99.1038 128.083 98.962 128.083 98.7619C128.083 98.6118 128.067 98.4534 128.042 98.2783C128.017 98.1031 127.976 98.0198 127.926 98.0198C127.876 98.0198 127.81 98.6952 127.743 100.046C127.669 101.397 127.627 102.423 127.627 103.123C127.627 103.973 127.677 104.399 127.777 104.399V104.39ZM128.299 94.5593L128.523 93.9589C128.473 93.8588 128.423 93.8088 128.374 93.8088L128.224 94.2591C128.224 94.4592 128.249 94.5593 128.299 94.5593ZM128.523 92.9082C128.722 92.9082 129.07 91.5324 129.568 88.7807C129.817 87.5299 130.016 86.6376 130.165 86.1123C130.314 85.587 130.505 85.2618 130.729 85.1367C130.953 85.0116 131.069 84.9032 131.069 84.7948C131.069 84.6864 131.003 84.5613 130.886 84.3779C130.762 84.2028 130.696 84.0444 130.696 83.8943C130.696 83.6441 130.82 83.3106 131.069 82.8853C131.318 82.46 131.492 81.9514 131.591 81.351C131.691 80.7506 132.363 78.3992 133.606 74.2966C133.805 73.8463 133.905 73.4711 133.905 73.1709C133.905 73.0708 133.88 73.0125 133.83 72.9791C133.781 72.9541 133.756 72.7456 133.756 72.3454C133.905 72.0952 134.104 71.9701 134.353 71.9701C134.602 71.9701 134.975 70.6944 135.472 68.1428C135.572 67.5424 135.746 67.0671 135.995 66.7169C136.244 66.3666 136.592 65.4411 137.04 63.9401C137.985 60.8882 138.731 58.862 139.279 57.8613C139.478 57.411 139.702 56.7857 139.951 55.9852C140.05 55.2847 140.183 54.8511 140.357 54.6677C140.531 54.4926 140.713 53.9589 140.921 53.05C141.12 52.1494 141.294 51.6991 141.443 51.6991L141.593 51.7742C141.642 51.7742 141.667 51.7492 141.667 51.6991L141.593 51.474C141.593 51.2238 141.642 50.9153 141.742 50.5401C141.841 50.1649 141.991 49.8146 142.19 49.4894C142.389 49.1642 142.588 48.9141 142.787 48.739C142.986 48.5639 143.16 47.9802 143.309 46.9795C143.359 46.5292 143.425 46.154 143.492 45.8538C143.566 45.5536 143.624 45.4035 143.674 45.4035C143.724 45.4035 143.798 45.3452 143.898 45.2201C143.997 45.095 144.08 44.9366 144.155 44.7365C144.23 44.5363 144.304 44.3779 144.379 44.2528C144.454 44.1277 144.512 44.0527 144.561 44.0277C144.611 44.0027 144.694 43.8776 144.827 43.6524C144.951 43.4273 145.076 43.1271 145.2 42.7519C145.324 42.3767 145.432 42.0264 145.54 41.7012C145.639 41.376 145.714 41.1175 145.764 40.9174C145.764 40.8173 145.739 40.7673 145.689 40.7673C145.59 40.7673 145.366 41.1175 145.017 41.818C143.973 43.7692 142.679 46.621 141.136 50.3733C140.788 51.3239 140.514 52.0494 140.315 52.5497C140.116 53.05 140.017 53.4252 140.017 53.6754C140.017 53.8755 140.067 54.0089 140.166 54.0923C140.266 54.1674 140.315 54.2341 140.315 54.2757C140.315 54.3174 140.224 54.3508 140.058 54.3508C139.892 54.3508 139.669 54.5926 139.42 55.0679C139.171 55.5432 138.798 56.3771 138.3 57.5778C136.409 62.4309 134.593 67.9343 132.852 74.0881C132.553 75.1888 132.23 76.2645 131.882 77.3152C130.936 80.5672 130.389 82.5851 130.24 83.3606C130.09 84.1361 129.916 84.9533 129.717 85.7954C129.319 87.4965 129.045 88.8724 128.896 89.923C128.747 90.6235 128.647 91.2238 128.598 91.7242L128.523 92.9249V92.9082ZM138.375 22.064C138.524 22.064 138.599 22.0139 138.599 21.9139C138.599 21.8138 138.524 21.7638 138.375 21.7638C138.275 21.7638 138.226 21.8138 138.226 21.9139C138.226 21.9639 138.275 22.0139 138.375 22.064ZM139.345 21.9139C139.544 21.9139 139.644 21.8638 139.644 21.7638C139.644 21.6637 139.594 21.6137 139.494 21.6137C139.246 21.6137 139.121 21.6887 139.121 21.8388C139.121 21.8888 139.196 21.9139 139.345 21.9139ZM141.957 21.7638C142.057 21.7638 142.181 21.7137 142.331 21.6137L142.629 21.5386C142.629 21.4886 142.505 21.4636 142.256 21.4636C141.957 21.4636 141.808 21.5136 141.808 21.6137C141.808 21.7137 141.858 21.7638 141.957 21.7638ZM143.077 21.6137C143.475 21.6137 144.147 21.5636 145.092 21.4636C146.037 21.3635 146.784 21.2885 147.331 21.2384C147.58 21.2384 147.704 21.2134 147.704 21.1634L142.853 21.5386C142.853 21.5887 142.928 21.6137 143.077 21.6137ZM167.931 20.0377C167.931 19.9877 167.781 19.9376 167.483 19.8876H167.11C167.11 19.8376 167.184 19.7875 167.334 19.7375C167.433 19.7375 167.616 19.7542 167.889 19.7709C168.163 19.7959 168.47 19.8376 168.818 19.8876C169.166 19.9376 169.49 19.9626 169.788 19.9626C170.336 19.9626 170.783 19.8876 171.132 19.7375C171.231 19.7375 171.513 19.7125 171.994 19.6625C172.467 19.6124 172.964 19.5624 173.487 19.5124C174.009 19.4623 174.366 19.4373 174.573 19.4373C174.781 19.4373 174.897 19.4123 174.946 19.3623H175.021C175.021 19.2622 174.673 19.2122 173.976 19.2122C173.329 19.2122 172.409 19.2622 171.215 19.3623C170.717 19.3623 170.153 19.3873 169.539 19.4373C168.918 19.4873 168.37 19.529 167.898 19.5457C167.425 19.5707 167.052 19.5957 166.778 19.6208C166.504 19.6458 166.28 19.6708 166.106 19.6958C165.932 19.7208 165.808 19.7292 165.733 19.7292C165.658 19.7292 165.592 19.7542 165.551 19.8042C165.551 19.8542 165.75 19.8793 166.148 19.8793L166.67 19.8042V19.8793C166.67 19.9793 166.894 20.0294 167.342 20.0294H167.939L167.931 20.0377ZM177.036 19.3623L182.858 19.1371C182.858 19.0871 182.559 19.0621 181.962 19.0621C179.574 19.0621 178.007 19.0788 177.26 19.0954C176.514 19.1205 176.041 19.1455 175.842 19.1705C175.643 19.1955 175.544 19.2372 175.544 19.2872C175.544 19.3373 176.041 19.3623 177.036 19.3623ZM186.291 19.4373C186.291 19.3873 186.225 19.3539 186.109 19.3289C185.984 19.3039 185.926 19.2622 185.926 19.2122L186.15 19.1371L185.852 19.0621H183.911L183.613 19.1371C183.662 19.1872 184.011 19.2122 184.657 19.2122C185.304 19.2122 185.628 19.2622 185.628 19.3623L186.299 19.4373H186.291ZM195.77 20.3379L195.844 20.2628C195.844 20.2128 195.72 20.1628 195.471 20.1127C194.377 19.7125 193.008 19.4373 191.366 19.2872C190.321 19.1371 189.401 19.0621 188.605 19.0621C187.51 19.0621 186.963 19.1371 186.963 19.2872C186.963 19.3873 187.286 19.4373 187.933 19.4373L188.754 19.3623C188.953 19.4123 189.077 19.454 189.127 19.4707C189.177 19.4957 189.31 19.5374 189.534 19.5791C189.758 19.6291 190.031 19.6541 190.355 19.6541C190.678 19.6541 191.159 19.6791 191.814 19.7292C193.456 19.8793 194.501 20.021 194.949 20.1461C195.397 20.2712 195.67 20.3379 195.77 20.3379Z" fill="#BBB573"/>
<path d="M148.525 120C147.431 120 146.436 119.725 145.54 119.175C143.699 118.324 142.405 117.424 141.659 116.473C141.112 115.772 140.614 114.822 140.166 113.621C139.569 112.07 139.271 110.294 139.271 108.293C139.271 105.391 141.087 97.411 144.719 84.3529L145.167 82.4016L143.973 82.6268C140.241 83.6274 138.076 84.1277 137.479 84.1277C137.231 84.1277 137.048 84.0777 136.915 83.9776C136.791 83.8775 136.642 83.7858 136.468 83.7191C136.293 83.6441 136.119 83.594 135.945 83.569C135.771 83.544 135.622 83.4856 135.497 83.3772C135.373 83.2772 135.298 83.1521 135.273 83.002C135.249 82.8519 135.174 82.6935 135.05 82.51C134.925 82.3349 134.776 82.1765 134.602 82.0264C134.428 81.8763 134.245 81.7512 134.038 81.6512L134.71 81.2759C135.904 80.6756 137.098 80.0251 138.292 79.3247C139.934 78.4742 142.024 77.2984 144.562 75.7975C146.552 74.5467 147.655 73.7879 147.887 73.5044C148.111 73.2292 148.277 72.8957 148.368 72.4954C152.199 62.5392 154.836 56.3103 156.279 53.8088L157.548 51.4073C163.967 39.4998 168.544 31.2697 171.281 26.7168C173.869 22.214 175.162 19.8125 175.162 19.5123V19.4373C175.162 19.2372 175.444 18.8286 176.025 18.1948C176.597 17.5694 177.094 16.9107 177.517 16.2103C177.94 15.5098 178.247 15.1096 178.446 15.0095C178.645 14.9095 178.803 14.6343 178.927 14.184C179.052 13.7337 179.383 13.3835 179.931 13.1333C180.279 12.9833 180.652 12.9082 181.05 12.9082C181.946 12.9082 182.518 13.2084 182.767 13.8088C183.016 14.209 183.314 14.4091 183.662 14.4091C184.011 14.4091 184.185 14.6093 184.185 15.0095C184.185 15.4598 184.094 15.6849 183.928 15.6849C183.762 15.6849 183.604 15.835 183.48 16.1352C183.356 16.4354 183.19 16.7356 182.999 17.0358C181.307 19.5874 179.665 22.2891 178.073 25.1408C170.261 38.9495 165.783 47.0796 164.639 49.5311L163.22 52.4579C160.683 57.1609 159.414 59.6041 159.414 59.7792C159.414 59.9543 159.315 60.2962 159.115 60.7881C158.12 63.0395 156.951 65.9163 155.608 69.4185L157.026 68.8181C157.722 68.4679 158.17 68.2928 158.369 68.2928C158.469 68.2928 158.518 68.3178 158.518 68.3679C158.518 68.4179 158.568 68.4429 158.668 68.4429C158.867 68.4429 159.812 68.0927 161.504 67.3923C164.24 66.1915 166.654 65.2076 168.744 64.4321C170.833 63.6566 173.072 62.9728 175.461 62.3641C179.591 61.3135 183.074 60.7881 185.91 60.7881C187.004 60.7881 187.85 60.8882 188.447 61.0883C189.293 61.3885 190.313 62.0889 191.507 63.1896C192.154 63.79 192.478 64.2153 192.478 64.4654C192.478 64.7156 192.353 65.0575 192.105 65.4744C191.856 65.8997 191.483 66.2665 190.985 66.5584C190.686 66.7085 190.438 66.7835 190.239 66.7835C190.04 66.7835 189.758 66.6585 189.376 66.4083C189.003 66.1581 188.597 66.0331 188.149 66.0331L187.925 66.1081C187.875 66.1081 187.85 66.0831 187.85 66.0331L187.925 65.7329C187.925 65.4827 187.825 65.3076 187.626 65.2076C187.427 65.1075 187.328 65.0324 187.328 64.9824V64.8323C187.328 64.7823 187.411 64.6906 187.593 64.5655C187.767 64.4404 187.85 64.332 187.85 64.2319C187.85 64.0318 187.527 63.9318 186.88 63.9318C185.935 63.9318 184.342 64.1319 182.103 64.5321C179.864 64.9324 177.675 65.4077 175.535 65.958C173.396 66.5084 171.878 66.9837 170.983 67.3839L170.311 67.6091C169.764 67.8592 169.241 68.0593 168.744 68.2094C167.5 68.6597 165.733 69.4102 163.444 70.4608C157.623 73.2626 154.239 75.0887 153.294 75.9393C153.145 76.0894 152.995 76.3145 152.846 76.6147L151.95 79.0912L153.145 79.3164C157.772 80.5171 161.131 83.8692 163.22 89.3727C164.116 91.6241 164.564 93.9505 164.564 96.352C164.564 100.254 163.37 104.282 160.981 108.435C160.683 108.885 160.442 109.31 160.277 109.71C160.102 110.111 160.019 110.369 160.019 110.503C160.019 110.636 159.771 111.061 159.273 111.82C158.129 113.671 157.009 115.197 155.914 116.398C155.019 117.298 153.775 118.124 152.183 118.874C150.59 119.625 149.371 120 148.525 120ZM141.734 104.616C141.783 104.616 141.85 104.49 141.916 104.24C141.991 103.99 142.082 103.715 142.181 103.415C142.53 102.264 142.795 101.247 142.961 100.371C143.135 99.4956 143.649 97.4027 144.487 94.1006L145.159 91.549C145.656 89.5478 146.029 88.297 146.278 87.7967L147.547 83.4439C147.696 82.9436 147.771 82.5934 147.771 82.3933C147.771 82.1932 147.721 82.0931 147.622 82.0931C147.522 82.0931 147.389 82.2432 147.215 82.5434C147.041 82.8436 146.651 84.1444 146.054 86.4458C145.756 87.2964 145.333 88.7473 144.785 90.7985C144.437 91.9493 144.089 93.3251 143.741 94.9261C143.591 95.3764 143.492 95.6516 143.442 95.7516C143.392 95.8517 143.268 96.302 143.069 97.1025C142.521 99.504 142.198 101.155 142.099 102.056C141.999 102.956 141.916 103.565 141.841 103.898C141.767 104.224 141.725 104.432 141.725 104.532V104.607L141.734 104.616ZM142.032 99.4373C142.132 99.4373 142.181 99.3122 142.181 99.062C142.181 98.912 142.132 98.8369 142.032 98.8369C141.982 98.8369 141.958 98.937 141.958 99.1371C141.958 99.3372 141.982 99.4373 142.032 99.4373ZM142.629 96.9607C142.729 96.9607 142.779 96.8607 142.779 96.6605C142.779 96.4104 142.704 96.2853 142.555 96.2853V96.4354C142.555 96.7856 142.58 96.9607 142.629 96.9607ZM142.853 95.6849C143.002 95.6849 143.276 94.8844 143.674 93.2834L144.047 91.1821V91.032C143.998 91.032 143.923 91.1988 143.823 91.5157C143.724 91.8409 143.616 92.2578 143.483 92.7498C143.359 93.2501 143.235 93.7421 143.11 94.209C142.986 94.6843 142.903 95.0095 142.845 95.1846C142.795 95.3597 142.77 95.5015 142.77 95.5932C142.77 95.6432 142.795 95.6683 142.845 95.6683L142.853 95.6849ZM144.197 90.5067C144.246 90.5067 144.371 90.2315 144.57 89.6812L144.943 88.1802V88.1052C144.893 88.1052 144.761 88.372 144.537 88.8974C144.313 89.4227 144.197 89.9397 144.197 90.4316V90.5067ZM146.361 116.473C146.56 116.473 146.884 116.398 147.331 116.248C150.118 115.247 153.252 111.77 156.735 105.816C159.074 101.714 160.243 97.7112 160.243 93.8088C160.243 91.9576 159.97 90.1315 159.422 88.3303C158.278 84.1777 155.989 81.9764 152.556 81.7262L151.212 81.5011C149.968 85.4035 149.338 87.3797 149.305 87.4298C149.28 87.4798 149.264 87.5799 149.264 87.73V87.805C149.313 87.805 149.562 87.4548 150.01 86.7543C149.96 87.0045 149.894 87.2547 149.827 87.5048C149.753 87.755 149.628 88.2053 149.454 88.8557C149.28 89.5061 149.073 90.2065 148.824 90.957C146.087 100.213 144.719 107.067 144.719 111.52C144.719 112.971 144.868 114.171 145.167 115.122C145.316 115.722 145.465 116.098 145.615 116.248C145.764 116.398 146.013 116.473 146.361 116.473ZM145.465 86.7543L145.54 86.6043C145.59 86.5042 145.664 86.3291 145.764 86.0789C145.863 85.8288 145.93 85.5536 145.946 85.2534C145.971 84.9532 145.988 84.7531 145.988 84.653V84.578C145.888 84.578 145.764 84.8365 145.615 85.3618C145.465 85.8871 145.391 86.3291 145.391 86.671C145.391 86.721 145.416 86.746 145.465 86.746V86.7543ZM147.331 94.4091C147.431 94.4091 147.481 94.259 147.481 93.9589C147.481 93.8088 147.431 93.7337 147.331 93.7337C147.282 93.7838 147.257 93.9088 147.257 94.109C147.257 94.3091 147.282 94.4091 147.331 94.4091ZM150.093 72.4204C150.242 72.4204 150.64 72.1702 151.287 71.6699C151.635 71.4198 151.95 70.8611 152.216 69.9855C152.489 69.11 152.622 68.5513 152.622 68.2928C152.622 68.1927 152.572 68.1427 152.473 68.1427C152.324 68.1427 152.149 68.2428 151.95 68.4429C151.751 68.643 151.652 68.7931 151.652 68.8932L151.727 69.1183C151.727 69.1684 151.718 69.2434 151.693 69.3435C151.668 69.4435 151.594 69.6437 151.469 69.9438C151.345 70.244 151.262 70.3941 151.212 70.3941L151.287 69.7938C151.187 69.7938 151.063 69.9438 150.914 70.244C150.765 70.5442 150.615 70.8361 150.466 71.1112C150.317 71.3864 150.201 71.6532 150.126 71.9034C150.051 72.1536 150.01 72.3036 150.01 72.3537C150.01 72.4037 150.035 72.4287 150.085 72.4287L150.093 72.4204ZM152.556 67.6174C152.606 67.6174 152.705 67.5423 152.854 67.3923C153.004 67.2422 153.078 67.042 153.078 66.7919C153.078 66.7418 153.053 66.7168 153.004 66.7168C152.954 66.7669 152.854 66.8669 152.705 67.017C152.556 67.1671 152.481 67.3422 152.481 67.5424C152.481 67.5924 152.506 67.6174 152.556 67.6174ZM156.885 59.8125C156.934 59.8125 157.109 59.5123 157.407 58.912C157.805 58.1115 158.004 57.5611 158.004 57.2609L157.93 57.1859C157.88 57.1859 157.706 57.4861 157.407 58.0864C157.059 59.0871 156.885 59.6624 156.885 59.8125ZM157.258 69.4185L157.706 69.1934L158.154 68.8181V68.7431H158.079C157.979 68.7431 157.822 68.8432 157.598 69.0433C157.374 69.2434 157.258 69.3685 157.258 69.4185ZM158.303 56.7356C158.402 56.6355 158.585 56.3103 158.867 55.76C159.14 55.2096 159.472 54.5592 159.87 53.8088C160.666 52.1077 161.064 51.2071 161.064 51.1071C160.965 51.1071 160.268 52.3829 158.975 54.9345C158.477 56.0352 158.228 56.6355 158.228 56.7356H158.303ZM161.214 50.7318C161.263 50.7318 161.346 50.6735 161.479 50.5401C161.603 50.415 161.661 50.2816 161.661 50.1231H161.587C161.537 50.1231 161.462 50.1732 161.363 50.2732C161.263 50.3733 161.214 50.5234 161.214 50.7235V50.7318ZM161.512 68.4429C161.612 68.4429 161.836 68.3679 162.184 68.2178C162.532 68.0677 162.914 67.8926 163.345 67.6924C163.768 67.4923 164.1 67.3172 164.348 67.1671L164.647 66.942C164.547 66.942 164.323 67.017 163.975 67.1671C163.627 67.3172 163.229 67.4923 162.781 67.6924C162.333 67.8926 162.01 68.0593 161.811 68.1761C161.612 68.3012 161.512 68.3929 161.512 68.4346V68.4429ZM165.468 66.7168C165.518 66.7168 165.642 66.6918 165.841 66.6418C166.04 66.5918 167.383 66.1165 169.871 65.2159C175.245 63.3647 180.047 62.264 184.276 61.9138L187.411 61.6887L181.44 61.9138C179.052 62.214 176.116 62.9145 172.633 64.0151C170.245 64.7656 168.329 65.466 166.886 66.1165L165.468 66.7168Z" fill="#BBB573"/>
<path d="M187.56 75.1219C187.062 75.1219 186.44 75.0219 185.694 74.8217C184.948 74.6216 184.201 73.9962 183.455 72.9456C183.107 72.5453 182.932 72.2201 182.932 71.9699C182.932 71.7198 182.709 71.3696 182.261 70.9193C181.415 69.6185 180.992 67.6923 180.992 65.1407C180.992 63.3896 181.216 61.7636 181.664 60.2626C183.455 55.5097 186.316 51.257 190.247 47.5047L191.665 46.2289C191.516 45.9787 191.325 45.7035 191.101 45.4033C190.877 45.1032 190.761 44.853 190.761 44.6529C190.761 44.6028 190.769 44.5528 190.802 44.5028C190.827 44.4528 190.96 44.4277 191.209 44.4277C191.955 44.5278 192.519 44.6946 192.892 44.9114C193.265 45.1365 193.572 45.2533 193.821 45.2533C193.97 45.2533 194.169 45.2199 194.418 45.1448C194.667 45.0698 194.965 45.0281 195.314 45.0281C196.06 45.0281 196.865 45.4033 197.735 46.1538C198.606 46.9043 199.054 47.5213 199.079 47.9966C199.104 48.4719 200.729 48.7054 203.972 48.7054C208.748 48.7054 213.699 48.1551 218.824 47.0544C219.819 47.0544 220.342 47.0711 220.391 47.0877C220.441 47.1127 220.549 47.1211 220.723 47.1211C220.897 47.1211 221.03 47.1461 221.138 47.1961C221.237 47.2462 221.312 47.2712 221.362 47.2712C221.411 47.2712 221.461 47.2962 221.511 47.3462H221.586L221.735 47.4963C221.536 47.5464 221.395 47.5714 221.329 47.5714C221.262 47.5714 220.789 47.6964 219.944 47.9466L221.884 47.6464C221.934 47.6964 221.959 47.7381 221.959 47.7548C221.959 47.7798 221.967 47.8048 221.992 47.8299C222.017 47.8549 222.042 47.8799 222.067 47.9049C222.091 47.9299 222.116 47.9716 222.141 48.0216C222.166 48.0717 222.191 48.1301 222.216 48.2051C222.241 48.2801 222.257 48.3719 222.257 48.4719V49.0723L222.108 49.8228L221.959 50.123H221.884L221.735 50.3481H221.66V50.4232C215.789 51.6239 210.614 52.2243 206.136 52.2243C204.693 52.2243 203.35 52.1742 202.106 52.0742C201.658 51.9741 201.285 51.9241 200.986 51.9241H200.538L201.285 53.8003C201.931 55.4013 202.255 57.1273 202.255 58.9785C202.255 60.3293 202.155 61.455 201.956 62.3556C201.807 62.906 201.558 63.5814 201.21 64.3819C200.066 66.9335 198.374 69.2349 196.135 71.2862C195.189 72.1367 194.343 72.7621 193.597 73.1624C192.851 73.5626 191.482 74.0379 189.492 74.5882C189.044 74.7383 188.704 74.8634 188.48 74.9635C188.257 75.0636 187.941 75.1136 187.552 75.1136L187.56 75.1219ZM185.993 71.1444C186.789 71.1444 188.008 70.8192 189.65 70.1688C191.889 69.2182 193.912 67.6923 195.728 65.591C197.545 63.4897 198.697 61.1882 199.203 58.6866C199.352 57.8861 199.427 57.1107 199.427 56.3602C199.427 54.8593 199.104 53.4834 198.457 52.2326C198.108 51.5822 197.735 51.257 197.337 51.257H197.113C196.665 51.257 196.392 51.1986 196.292 51.0652C196.193 50.9401 196.093 50.8651 195.994 50.8401C195.894 50.8151 195.753 50.79 195.587 50.765C195.413 50.74 195.272 50.6233 195.173 50.4232C195.073 50.223 195.023 50.0479 195.023 49.8978L195.098 49.5226C195.098 49.4726 195.073 49.4475 195.023 49.4475C194.824 49.4475 194.186 49.9895 193.124 51.0569C192.055 52.1326 191.507 52.7246 191.482 52.8246C191.458 52.9247 191.366 53.0498 191.217 53.1999C190.371 54.2505 189.675 55.2011 189.127 56.0517C187.336 58.9535 186.167 61.1048 185.619 62.5057C184.724 64.657 184.276 66.7333 184.276 68.7346C184.276 69.9353 184.375 70.6358 184.574 70.8359C184.774 71.036 185.246 71.1361 185.993 71.1361V71.1444ZM218.161 48.4052C218.31 48.4052 218.501 48.3802 218.725 48.3302C218.948 48.2801 219.147 48.2301 219.322 48.1801C219.496 48.13 219.604 48.08 219.662 48.03C219.214 48.03 218.841 48.0633 218.542 48.1384C218.244 48.2134 218.094 48.3052 218.094 48.4052H218.169H218.161Z" fill="#BBB573"/>
<path d="M223.833 95.1595H222.713C221.967 95.1595 221.171 94.9594 220.325 94.5591C217.19 93.0081 215.125 90.9318 214.13 88.3302C213.682 87.0794 213.359 86.3039 213.16 86.0038C212.563 84.5528 212.264 82.7767 212.264 80.6754C212.264 77.2233 213.334 72.02 215.474 65.0657C217.016 60.2126 218.559 56.06 220.101 52.6079L220.325 52.0826C220.425 51.3321 222.067 47.98 225.251 42.0263C225.848 40.8755 227.266 38.399 229.505 34.5966L230.252 33.1707C230.65 32.3202 232.399 29.6435 235.509 25.1407C238.619 20.6379 242.309 15.9099 246.589 10.9568C250.868 6.00375 254.973 2.45153 258.904 0.300188C259.351 0.100063 259.824 0 260.322 0C261.715 0 262.76 0.500313 263.456 1.50094C263.904 2.20138 264.252 2.7684 264.501 3.18532C264.75 3.61059 264.874 4.10256 264.874 4.64457C264.874 5.44507 264.65 6.4457 264.203 7.64645C262.859 11.2487 259.501 17.9279 254.127 27.684C252.037 31.4363 249.549 35.5639 246.663 40.0667L245.021 42.6183C243.628 44.6196 242.633 46.1205 242.036 47.1211C239.647 50.6733 236.82 54.5424 233.561 58.72C230.301 62.8976 227.673 66.0329 225.691 68.1342C224.646 69.1349 223.534 69.952 222.365 70.5691C221.196 71.1945 220.242 71.503 219.496 71.503L218.899 71.428C218.6 71.528 218.152 72.9289 217.555 75.6306C216.759 79.0327 216.361 81.6844 216.361 83.5856C216.361 86.2372 216.908 88.2885 218.003 89.7394C218.252 90.1397 218.501 90.4148 218.749 90.5649C219.347 90.9152 220.317 91.0903 221.66 91.0903C222.556 91.0402 223.775 90.6567 225.317 89.9229C226.86 89.1974 228.452 88.2885 230.094 87.1795C231.537 86.1288 233.403 84.4778 235.692 82.2264C237.981 79.975 240.021 77.7736 241.812 75.6223C243.852 73.2208 245.021 71.97 245.32 71.8699C245.817 71.7198 246.514 71.0444 247.41 69.8437C247.708 69.3934 248.355 68.6679 249.35 67.6673C250.096 66.9168 251.141 65.6744 252.485 63.9483C253.828 62.2222 254.998 60.5879 255.993 59.0286C256.988 57.4776 257.635 56.7021 257.933 56.7021C258.033 56.7021 258.083 56.8022 258.083 57.0023C258.083 57.2024 257.958 57.5276 257.709 57.9779C257.461 58.4282 257.336 58.7034 257.336 58.8034C257.336 58.8534 257.361 58.8785 257.411 58.8785L257.784 58.7284C257.933 58.7284 258.008 58.8785 258.008 59.1787C257.958 59.4788 257.834 59.9041 257.635 60.4545C257.436 61.0048 257.17 61.5718 256.847 62.1388C256.523 62.7142 256.183 63.1812 255.835 63.5314C255.487 63.8816 255.238 64.0567 255.089 64.0567C254.989 64.0567 254.94 63.9817 254.94 63.8316C254.94 63.5814 255.238 62.931 255.835 61.8803L255.163 62.4807C254.666 62.981 253.969 63.9566 253.074 65.4075C252.377 66.5082 251.183 68.1593 249.491 70.3606C245.212 75.814 242.251 79.3663 240.609 81.0173C239.714 81.8178 239.175 82.4349 239.001 82.8601C238.826 83.2854 238.661 83.6022 238.52 83.794L238.37 84.0942V84.1693L239.117 83.5689C240.311 82.6183 241.132 81.9179 241.58 81.4676C243.918 78.916 245.734 76.8147 247.028 75.1636C251.307 69.31 253.646 66.3832 254.044 66.3832C254.044 66.5833 253.546 67.3838 252.551 68.7847C251.556 70.1855 250.785 71.4113 250.237 72.462C249.839 73.0623 249.093 74.063 247.998 75.4638C245.212 79.1161 243.172 81.6427 241.878 83.0436L238.37 86.4957C236.131 88.6471 234.191 90.2981 232.549 91.4488C230.26 92.9998 228.792 93.8753 228.145 94.0755C227.946 94.1255 227.706 94.2172 227.44 94.3423C227.167 94.4674 226.901 94.5841 226.653 94.6758C226.105 94.926 225.16 95.0761 223.816 95.1261L223.833 95.1595ZM214.13 77.9737L214.205 77.8236C214.603 76.4228 214.802 75.6473 214.802 75.4972L214.727 75.4221C214.678 75.4221 214.57 75.7473 214.387 76.3978C214.213 77.0482 214.13 77.5735 214.13 77.9737ZM214.877 74.9719C214.926 74.9218 215.018 74.6467 215.134 74.1463C215.258 73.646 215.407 73.0457 215.582 72.3452C215.756 71.6448 215.897 71.1195 215.996 70.7692V70.394H215.922C215.772 70.8443 215.698 71.1028 215.698 71.1778C215.698 71.2529 215.648 71.4697 215.548 71.8199C215.449 72.1701 215.349 72.5453 215.25 72.9456C214.951 73.8962 214.802 74.5466 214.802 74.8968V74.9719H214.877ZM216.892 64.6154C216.942 64.6154 217.008 64.532 217.083 64.3569C217.157 64.1818 217.282 63.9316 217.456 63.6064C217.63 63.2812 217.779 62.956 217.904 62.6308C218.028 62.3056 218.127 62.0304 218.202 61.8053C218.277 61.5802 218.401 61.2466 218.575 60.7963C218.749 60.3461 218.915 59.8958 219.056 59.4455L220.848 55.0928L222.266 51.7907C222.813 50.4899 223.46 49.139 224.206 47.7382C225.152 45.837 225.724 44.6362 225.923 44.1359C226.022 43.9358 226.221 43.5606 226.52 43.0102C226.818 42.4599 227.15 41.8595 227.523 41.2091C227.896 40.5587 228.195 40.0083 228.419 39.5581C228.643 39.1078 228.767 38.8326 228.792 38.7325C228.817 38.6325 228.999 38.3573 229.356 37.907C229.605 37.6569 229.829 37.3317 230.028 36.9314C230.028 36.8314 230.102 36.6813 230.252 36.4811C230.6 35.9808 230.824 35.7307 230.923 35.7307C231.023 35.7307 231.106 35.6806 231.18 35.5806C231.255 35.4805 231.338 35.3721 231.438 35.247C231.537 35.122 231.587 35.0386 231.587 34.9885C231.537 34.9885 231.446 35.0636 231.33 35.2137C231.205 35.3638 231.114 35.4388 231.073 35.4388C231.031 35.4388 230.998 35.3638 230.998 35.2137C230.998 34.8635 231.048 34.6467 231.147 34.5716C231.247 34.4966 231.379 34.3381 231.562 34.088C231.736 33.8378 231.919 33.5626 232.126 33.2625C232.474 32.462 233.303 31.2028 234.622 29.4768C235.941 27.7507 236.621 26.8001 236.679 26.625C236.728 26.4499 236.927 26.1413 237.276 25.6911L237.649 24.8655C237.4 25.0156 236.256 26.6166 234.216 29.6685C231.081 34.3215 228.27 39.0244 225.782 43.7774C222.995 49.0306 220.682 54.0838 218.841 58.9368C218.144 60.6879 217.472 62.5641 216.825 64.5654L216.9 64.6404L216.892 64.6154ZM218.31 63.1144C218.36 63.1144 218.957 61.6385 220.101 58.6867L221.37 55.1595C221.27 55.2595 221.071 55.6765 220.773 56.4019C220.474 57.1274 220.134 57.9696 219.761 58.9118C219.388 59.8624 219.065 60.7296 218.791 61.4968C218.517 62.2723 218.368 62.7225 218.343 62.8476C218.318 62.9727 218.302 63.0644 218.302 63.1061L218.31 63.1144ZM220.25 67.3171L221.146 66.5666C224.43 63.6648 228.858 58.3615 234.431 50.6567L238.835 44.6529C239.382 44.0025 240.079 43.0019 240.925 41.651C241.77 40.3002 242.567 39.1495 243.313 38.1989L244.656 36.4728C245.502 35.172 246.945 32.7955 248.985 29.3433C252.07 24.2902 254.757 19.4872 257.046 14.9343C257.991 12.8831 258.713 11.4321 259.21 10.5816C259.409 10.1814 259.559 9.83114 259.658 9.53096L259.807 9.08068L259.733 8.93058V8.73879C259.733 8.66375 259.783 8.60538 259.882 8.55535C260.529 7.75485 261.051 5.95372 261.449 3.15197L260.703 3.6773C260.206 3.97749 259.758 4.3277 259.36 4.72795C258.812 5.2783 258.141 5.90369 257.344 6.60413C253.662 9.85616 249.931 14.0838 246.149 19.2871C243.263 23.2395 241.099 26.2664 239.656 28.3677C239.208 29.0181 238.934 29.3684 238.835 29.4184L237.193 31.7448C235.8 33.7461 234.332 36.0225 232.789 38.5741C229.008 45.1782 227.017 48.9306 226.818 49.8311C226.818 50.1313 226.603 50.7817 226.188 51.7824C225.765 52.783 225.027 54.359 223.982 56.5103C223.733 57.1607 223.311 58.2364 222.713 59.7373C222.116 61.2383 221.569 62.7142 221.071 64.1651C220.375 66.0163 220.027 67.0419 220.027 67.242C220.027 67.2921 220.101 67.3171 220.25 67.3171ZM221.594 54.7842L221.669 54.7092C221.718 54.6592 221.743 54.5091 221.743 54.2589V54.1839C221.693 54.1839 221.627 54.2172 221.552 54.2923C221.478 54.3673 221.436 54.459 221.436 54.5591C221.486 54.7092 221.536 54.7842 221.586 54.7842H221.594ZM221.967 53.7336C221.967 53.6836 221.992 53.6502 222.042 53.6252C222.091 53.6002 222.166 53.4668 222.266 53.2083C222.365 52.9581 222.473 52.6996 222.606 52.4161C222.73 52.1409 222.813 51.9575 222.863 51.8574V51.7824C222.763 51.7824 222.614 52.0075 222.415 52.4578C222.116 53.1582 221.967 53.5335 221.967 53.5835V53.7336ZM223.833 49.7561C223.883 49.7561 223.932 49.6977 223.982 49.5643C224.032 49.4392 224.107 49.3058 224.206 49.1474L224.355 48.7722L224.206 48.9222C224.057 49.0723 223.966 49.1724 223.949 49.2224C223.924 49.2725 223.883 49.4476 223.833 49.7478V49.7561ZM225.997 45.2533C226.097 45.2533 226.346 44.803 226.744 43.9024C226.196 44.4528 225.923 44.853 225.923 45.1032C225.923 45.2033 225.948 45.2533 225.997 45.2533ZM226.893 43.7523C226.943 43.7523 227.042 43.6273 227.192 43.3771C227.341 43.127 227.498 42.8268 227.673 42.4765C227.847 42.1263 227.971 41.8678 228.046 41.6844C228.12 41.5093 228.162 41.4009 228.162 41.3508H228.087C227.838 41.601 227.573 42.0179 227.308 42.5849C227.034 43.1603 226.893 43.5522 226.893 43.7523ZM228.535 40.9756L229.132 39.925C229.878 38.7242 230.252 37.9987 230.252 37.7486C230.102 37.7486 230.028 37.8236 230.028 37.9737C230.028 38.1238 229.804 38.474 229.356 39.0244C228.809 39.8749 228.535 40.5003 228.535 40.9006V40.9756ZM230.476 37.4484C230.525 37.4484 230.575 37.3734 230.625 37.2233C230.675 37.0732 230.699 36.9731 230.699 36.9231V36.848C230.65 36.848 230.583 36.8814 230.509 36.9564C230.434 37.0315 230.393 37.1232 230.393 37.2233C230.393 37.3734 230.418 37.4484 230.467 37.4484H230.476ZM231.819 34.6717L232.192 34.1463L232.416 33.6961C232.366 33.6961 232.242 33.7961 232.043 33.9962C231.844 34.1964 231.744 34.3715 231.744 34.5216L231.819 34.6717ZM237.864 28.2927C237.914 28.2927 238.064 28.1676 238.312 27.9174C238.561 27.6673 238.686 27.5172 238.686 27.4672C238.686 27.3171 238.661 27.242 238.611 27.242C238.511 27.242 238.362 27.4171 238.163 27.7674L237.864 28.2176V28.2927ZM253.911 25.8161C253.961 25.8161 254.027 25.7578 254.094 25.6243C254.168 25.4993 254.251 25.3408 254.359 25.1407C254.459 24.9406 254.508 24.8155 254.508 24.7655V24.6904C254.409 24.6904 254.26 24.8906 254.06 25.2908L253.911 25.8161Z" fill="#BBB573"/>
<path d="M258.306 81.0504H257.038C254.799 81.0504 252.833 79.9998 251.141 77.8985C250.893 77.5482 250.669 77.248 250.47 76.9979C250.271 76.7477 250.171 76.5726 250.171 76.4726C250.171 76.2724 250.271 75.597 250.47 74.4463C250.917 71.2943 251.316 69.218 251.664 68.2174L251.813 67.617C251.962 67.1167 252.103 66.583 252.228 65.9994C252.352 65.424 252.618 64.6652 253.007 63.7062C253.157 63.4061 253.555 62.3304 254.201 60.4792C254.699 59.0784 255.371 57.5524 256.217 55.9014L257.112 53.9501C257.809 52.4992 258.356 51.3652 258.754 50.5313C259.152 49.7058 259.749 48.6885 260.546 47.4961C261.242 46.5956 261.673 46.1036 261.847 46.0285C262.022 45.9535 262.262 45.9118 262.552 45.9118C262.801 45.9118 263.05 45.9618 263.299 46.0619C263.548 46.162 263.929 46.3871 264.46 46.7373C264.982 47.0875 265.463 47.4127 265.911 47.7129L265.986 48.6135C265.986 49.1638 265.836 49.7392 265.538 50.3396L263.224 54.8424C262.776 55.7429 262.312 56.6435 261.839 57.5441C261.367 58.4446 260.91 59.2701 260.454 60.0206C260.305 60.2207 259.982 60.8962 259.484 62.0469C259.086 62.9474 258.812 63.5228 258.663 63.773C258.016 65.0237 257.344 66.6998 256.648 68.8011C255.951 70.9024 255.479 72.6785 255.23 74.1294C255.13 74.8299 255.006 75.1801 254.857 75.1801C254.707 75.1801 254.6 75.2134 254.525 75.2885C254.45 75.3635 254.409 75.4553 254.409 75.547C254.409 75.597 254.434 75.622 254.483 75.622L254.782 75.4719C254.931 75.4719 255.006 75.597 255.006 75.8472C255.006 75.9973 254.964 76.1223 254.89 76.2224C254.815 76.3225 254.774 76.4726 254.774 76.6727L254.923 78.3988L255.893 78.1736C257.087 77.9235 259.028 76.6477 261.715 74.3462C264.65 71.7446 267.81 68.4425 271.194 64.44C274.577 60.4375 277.363 56.7102 279.553 53.258C280.349 51.8572 280.83 51.1317 281.012 51.0817C281.186 51.0317 281.444 50.7315 281.792 50.1811L282.389 49.3556V49.4307C282.389 49.6808 282.265 50.031 282.016 50.4813C281.518 51.2318 281.22 51.6237 281.12 51.6487C281.021 51.6737 280.971 51.7655 280.971 51.9072V51.9823C280.971 52.3325 280.424 53.3831 279.329 55.1342C279.08 55.4844 278.956 55.6846 278.956 55.7346H279.03C279.08 55.7346 279.146 55.6762 279.213 55.5512C279.287 55.4261 279.437 55.2009 279.661 54.8757C279.885 54.5505 280.299 53.8751 280.896 52.8495C281.493 51.8238 281.867 51.3152 282.016 51.3152C282.115 51.3152 282.19 51.3902 282.24 51.5403C282.24 51.6404 282.173 51.7821 282.057 51.9572C281.933 52.1323 281.468 52.8244 280.672 54.0252C279.08 56.6268 277.861 58.478 277.015 59.5787C276.816 60.0289 276.717 60.3291 276.717 60.4792V60.5543C276.766 60.5543 276.916 60.4209 277.164 60.1457C277.413 59.8705 277.77 59.4202 278.243 58.7948C278.715 58.1695 279.171 57.519 279.627 56.8436C280.075 56.1682 280.448 55.5845 280.747 55.0759C281.046 54.5755 281.195 54.3004 281.195 54.2503L281.12 54.1002H281.344C281.444 54.1002 281.551 54.0002 281.676 53.8001C281.8 53.5999 281.867 53.3998 281.867 53.1997L281.792 53.0496C281.792 52.8995 281.966 52.5243 282.314 51.9239L282.389 52.6744C282.389 53.4248 281.767 54.9007 280.523 57.1021C279.13 59.5036 277.563 62.0052 275.821 64.6068C274.975 65.8076 273.632 67.5336 271.791 69.785C269.95 72.0365 268.78 73.2872 268.283 73.5374C268.084 73.6375 267.984 73.7625 267.984 73.9126C267.984 74.0627 267.686 74.463 267.089 75.1134C265.596 76.6643 264.078 77.9401 262.536 78.9408C260.446 80.3416 259.028 81.0421 258.282 81.0421L258.306 81.0504ZM268.83 39.5495C268.731 39.5495 268.656 39.5245 268.606 39.4744C268.556 39.4244 268.44 39.3911 268.266 39.3577C268.092 39.3327 267.876 39.3243 267.636 39.3243C267.395 39.3243 267.172 39.291 266.997 39.2159C266.823 39.1409 266.649 38.9908 266.475 38.7657C266.301 38.5405 266.152 38.3487 266.027 38.207C265.903 38.0569 265.828 37.9401 265.803 37.8651C265.778 37.79 265.729 37.715 265.654 37.64C265.579 37.5649 265.513 37.4815 265.463 37.3731C265.314 37.3231 265.239 37.223 265.239 37.0729C265.239 36.9729 265.297 36.7978 265.43 36.5476C265.554 36.2975 265.737 35.8972 265.994 35.3469C266.691 34.0961 267.76 32.5451 269.203 30.6939C272.089 26.9416 273.98 25.0654 274.876 25.0654C275.174 25.0654 275.473 25.4156 275.771 26.1161C275.97 26.4663 276.095 26.7415 276.144 26.9416C276.144 27.1417 276.095 27.3585 275.995 27.5753C275.896 27.8005 275.846 28.0506 275.846 28.3258C275.846 28.601 275.498 29.243 274.801 30.2353C273.308 32.1865 272.089 34.1378 271.144 36.089C269.999 38.3904 269.228 39.5411 268.83 39.5411V39.5495ZM275.622 61.8384L276.07 61.6883L275.323 61.3881C275.174 61.3881 275.1 61.4632 275.1 61.6133C275.149 61.7634 275.323 61.8384 275.622 61.8384Z" fill="#BBB573"/>
<path d="M281.294 75.1219C280.797 75.1219 280.175 75.0219 279.428 74.8217C278.682 74.6216 277.936 73.9962 277.189 72.9456C276.841 72.5453 276.667 72.2201 276.667 71.9699C276.667 71.7198 276.443 71.3696 275.995 70.9193C275.149 69.6185 274.726 67.6923 274.726 65.1407C274.726 63.3896 274.95 61.7636 275.398 60.2626C277.189 55.5097 280.05 51.257 283.981 47.5047L285.399 46.2289C285.25 45.9787 285.059 45.7035 284.835 45.4033C284.611 45.1032 284.495 44.853 284.495 44.6529C284.495 44.6028 284.504 44.5528 284.537 44.5028C284.562 44.4528 284.694 44.4277 284.943 44.4277C285.69 44.5278 286.253 44.6946 286.627 44.9114C287 45.1365 287.307 45.2533 287.555 45.2533C287.705 45.2533 287.904 45.2199 288.152 45.1448C288.401 45.0698 288.7 45.0281 289.048 45.0281C289.794 45.0281 290.599 45.4033 291.47 46.1538C292.34 46.9043 292.788 47.5213 292.813 47.9966C292.838 48.4719 294.463 48.7054 297.706 48.7054C302.483 48.7054 307.433 48.1551 312.558 47.0544C313.554 47.0544 314.076 47.0711 314.126 47.0877C314.176 47.1127 314.283 47.1211 314.457 47.1211C314.632 47.1211 314.764 47.1461 314.872 47.1961C314.972 47.2462 315.046 47.2712 315.096 47.2712C315.146 47.2712 315.196 47.2962 315.245 47.3462H315.32L315.469 47.4963C315.27 47.5464 315.129 47.5714 315.063 47.5714C314.997 47.5714 314.524 47.6964 313.678 47.9466L315.618 47.6464C315.668 47.6964 315.693 47.7381 315.693 47.7548C315.693 47.7798 315.701 47.8048 315.726 47.8299C315.751 47.8549 315.776 47.8799 315.801 47.9049C315.826 47.9299 315.851 47.9716 315.876 48.0216C315.9 48.0717 315.925 48.1301 315.95 48.2051C315.975 48.2801 315.992 48.3719 315.992 48.4719V49.0723L315.842 49.8228L315.693 50.123H315.618L315.469 50.3481H315.395V50.4232C309.523 51.6239 304.348 52.2243 299.87 52.2243C298.427 52.2243 297.084 52.1742 295.84 52.0742C295.392 51.9741 295.019 51.9241 294.72 51.9241H294.273L295.019 53.8003C295.666 55.4013 295.989 57.1273 295.989 58.9785C295.989 60.3293 295.89 61.455 295.691 62.3556C295.541 62.906 295.293 63.5814 294.944 64.3819C293.8 66.9335 292.108 69.2349 289.869 71.2862C288.924 72.1367 288.078 72.7621 287.331 73.1624C286.585 73.5626 285.217 74.0379 283.227 74.5882C282.779 74.7383 282.439 74.8634 282.215 74.9635C281.991 75.0636 281.676 75.1136 281.286 75.1136L281.294 75.1219ZM279.727 71.1444C280.523 71.1444 281.742 70.8192 283.384 70.1688C285.623 69.2182 287.647 67.6923 289.463 65.591C291.279 63.4897 292.432 61.1882 292.937 58.6866C293.087 57.8861 293.161 57.1107 293.161 56.3602C293.161 54.8593 292.838 53.4834 292.191 52.2326C291.843 51.5822 291.47 51.257 291.072 51.257H290.848C290.4 51.257 290.126 51.1986 290.027 51.0652C289.927 50.9401 289.828 50.8651 289.728 50.8401C289.629 50.8151 289.488 50.79 289.322 50.765C289.148 50.74 289.007 50.6233 288.907 50.4232C288.808 50.223 288.758 50.0479 288.758 49.8978L288.833 49.5226C288.833 49.4726 288.808 49.4475 288.758 49.4475C288.559 49.4475 287.92 49.9895 286.859 51.0569C285.789 52.1326 285.242 52.7246 285.217 52.8246C285.192 52.9247 285.101 53.0498 284.951 53.1999C284.106 54.2505 283.409 55.2011 282.862 56.0517C281.07 58.9535 279.901 61.1048 279.354 62.5057C278.458 64.657 278.01 66.7333 278.01 68.7346C278.01 69.9353 278.11 70.6358 278.309 70.8359C278.508 71.036 278.981 71.1361 279.727 71.1361V71.1444ZM311.895 48.4052C312.044 48.4052 312.235 48.3802 312.459 48.3302C312.683 48.2801 312.882 48.2301 313.056 48.1801C313.23 48.13 313.338 48.08 313.396 48.03C312.948 48.03 312.575 48.0633 312.276 48.1384C311.978 48.2134 311.829 48.3052 311.829 48.4052H311.903H311.895Z" fill="#BBB573"/>
</g>
</g>
<defs>
<clipPath id="clip0_8_170">
<rect width="316" height="120" fill="white"/>
</clipPath>
</defs>
</svg>
