<svg width="377" height="121" viewBox="0 0 377 121" fill="none" xmlns="http://www.w3.org/2000/svg">
<g opacity="0.44">
<path d="M2.43 120.8C2.19 120.8 2.04 120.589 1.98 120.167C1.74 119.745 1.44 119.533 1.08 119.533C0.42 119.533 0.09 118.749 0.09 117.181C0.09 116.518 0.18 115.855 0.36 115.191C0.48 114.769 0.55 114.367 0.58 113.975C0.61 113.583 0.61 113.04 0.58 112.346C0.55 111.653 0.47 110.708 0.36 109.502C0.12 107.21 0 104.707 0 101.993C0 95.178 0.45 89.1771 1.35 83.9904C3.93 71.506 10.14 58.3281 19.98 44.4567C24.54 38.0034 27.04 34.7768 27.5 34.7768C27.96 34.7768 29.49 31.701 32.14 25.5493C32.98 23.559 33.67 21.9507 34.21 20.7043C34.75 19.4679 35.02 18.7945 35.02 18.6738L33.31 21.3878C31.57 24.1018 29.68 26.6952 27.64 29.1679C27.28 29.5901 26.99 29.9117 26.78 30.1228C26.57 30.3339 26.22 30.4344 25.75 30.4344H25.3C24.28 30.3138 23.65 30.1027 23.41 29.8012C23.29 29.7409 22.99 29.2282 22.51 28.2632C24.79 25.3683 26.77 22.6845 28.45 20.2118C30.31 17.1962 32.23 14.4521 34.21 11.9793C37.51 7.93852 40.03 5.91811 41.77 5.91811C42.37 5.91811 42.95 6.06889 43.52 6.37044C44.09 6.672 44.48 7.15448 44.69 7.8179C44.9 8.48132 45 9.53676 45 10.9842C45 11.8286 44.98 12.5121 44.96 13.0147C44.93 13.5273 44.54 14.5023 43.79 15.9599C43.04 17.4073 42.67 18.1612 42.67 18.2215L45.64 15.598C47.32 14.0299 48.52 13.0046 49.24 12.5221C49.48 12.4015 49.87 12.1301 50.41 11.7079C52.63 10.0192 53.83 9.17489 54.01 9.17489H54.1C54.22 9.17489 54.35 9.02412 54.51 8.72256C54.66 8.42101 54.79 8.27023 54.91 8.27023C55.03 8.27023 55.66 7.84806 56.8 7.00371C61.06 3.74693 65.74 1.66621 70.84 0.761547C72.76 0.399682 74.5 0.21875 76.06 0.21875C77.74 0.21875 79.22 0.419786 80.52 0.801754C81.81 1.19377 82.93 1.70641 83.9 2.33968C84.86 2.97294 85.85 3.82734 86.87 4.91294C87.65 5.69697 88.19 6.3805 88.49 6.95345C88.79 7.5264 89.12 8.39085 89.48 9.52671C89.78 10.3711 89.99 11.0646 90.11 11.6074C90.23 12.1502 90.3 12.7232 90.33 13.3263C90.36 13.9294 90.38 14.7737 90.38 15.8593C90.38 17.4274 90.33 18.5633 90.24 19.2568C90.15 19.9504 89.89 20.8149 89.47 21.8301C88.87 23.8204 87.79 26.2629 86.23 29.1579C84.67 32.0528 82.97 34.8271 81.15 37.4807C79.32 40.1344 77.23 42.969 74.9 45.9846C72.56 49.0001 70.85 51.0205 69.77 52.0458C69.47 52.287 69.01 52.7595 68.37 53.453C67.74 54.1466 67.09 54.8603 66.43 55.584C61.09 61.3738 56.87 65.7162 53.78 68.6111C50.69 71.506 47.17 74.4613 43.21 77.4768C32.05 85.7394 22.6 90.1119 14.86 90.5944C14.2 90.5944 13.66 90.6145 13.24 90.6346C12.82 90.6647 12.61 90.715 12.61 90.7653C12.61 90.8859 12.73 91.1271 12.97 91.489C13.69 92.5746 14.2 93.238 14.5 93.4792C20.68 98.666 30.82 101.712 44.92 102.616C47.2 102.858 48.44 103.099 48.66 103.34C48.87 103.581 49.51 103.702 50.6 103.702C51.26 103.762 53.81 103.792 58.25 103.792C71.57 103.732 82.04 102.737 89.66 100.807C91.46 100.445 92.45 100.264 92.63 100.264C92.75 100.264 92.81 100.294 92.81 100.355C92.81 100.536 92.45 100.988 91.73 101.712C91.01 102.435 90.52 102.797 90.25 102.797C89.98 102.797 89.84 102.827 89.84 102.888C89.84 102.948 89.9 103.028 90.02 103.119C90.14 103.209 90.2 103.32 90.2 103.431C90.2 104.456 86.72 105.692 79.76 107.14C78.14 107.381 76.31 107.773 74.27 108.316C71.57 109.1 66.56 109.492 59.24 109.492H54.92C49.46 109.492 44.91 109.371 41.28 109.13C37.65 108.889 34.13 108.376 30.71 107.592C23.15 105.964 17.6 103.31 14.06 99.631C12.98 98.6057 12.24 97.9121 11.85 97.5502C11.46 97.1884 11.17 97.0074 11 97.0074C10.46 97.0074 9.32 102.104 7.58 112.296C7.46 113.261 7.25 113.894 6.95 114.196L6.32 116.005C5.9 117.935 5.06 119.292 3.8 120.076C3.02 120.559 2.57 120.8 2.45 120.8H2.43ZM2.07 118.719C2.13 118.719 2.22 118.629 2.34 118.448C2.46 118.267 2.52 117.965 2.52 117.543L2.25 117C2.19 117 2.16 117.091 2.16 117.272C2.16 117.453 2.12 117.664 2.02 117.905C1.93 118.146 1.91 118.327 1.98 118.448C1.98 118.629 2.01 118.719 2.07 118.719ZM4.59 106.416L4.86 104.968C5.04 103.581 5.37 101.953 5.85 100.083C6.21 98.6961 6.57 97.2989 6.93 95.8716C7.29 94.4543 7.57 93.3385 7.78 92.5243C7.99 91.7101 8.1 91.0065 8.1 90.4034C8.1 90.2225 8.05 90.0315 7.96 89.8103C7.87 89.5993 7.76 89.4987 7.64 89.4987C7.46 89.4987 7.07 90.705 6.47 93.1174C5.15 98.2438 4.49 101.289 4.49 102.254V102.797C4.55 102.797 4.64 102.646 4.76 102.345L4.85 101.893C4.91 101.893 4.94 102.074 4.94 102.435C4.94 102.858 4.86 103.069 4.72 103.069C4.58 103.069 4.49 103.762 4.49 105.149C4.49 105.994 4.52 106.416 4.58 106.416H4.59ZM4.59 93.0269C4.59 92.7254 4.86 91.7604 5.4 90.132C5.76 88.8052 5.94 87.8703 5.94 87.3276C5.94 86.9657 5.88 86.6038 5.76 86.242L5.67 85.6087C5.55 85.6087 5.25 87.2673 4.77 90.5843C4.65 91.6096 4.59 92.4238 4.59 93.0269ZM5.4 99.7214H5.31C5.25 99.7214 5.22 99.6913 5.22 99.631C5.22 99.45 5.4 98.6961 5.76 97.3693C6.12 96.0425 6.36 95.379 6.48 95.379C6.48 95.4393 6.44 95.6705 6.34 96.0626C6.25 96.4546 6.14 96.917 6.03 97.4698C5.91 98.0126 5.79 98.5152 5.67 98.9575C5.55 99.4098 5.46 99.6712 5.4 99.7315V99.7214ZM5.49 108.587C5.55 108.587 6.12 106.054 7.2 100.988C7.74 98.3343 8.19 96.4646 8.55 95.379L9.18 92.5746L9.09 92.4841C9.03 92.4841 8.88 92.9063 8.64 93.7506C8.04 95.4997 7.47 97.7613 6.93 100.536C5.97 104.818 5.49 107.411 5.49 108.316V108.587ZM6.93 84.5231C6.99 84.5231 7.05 84.4628 7.11 84.3422C7.17 84.2215 7.59 83.0153 8.37 80.7235L8.46 80.3617C9.42 77.4667 10.77 73.8783 12.51 69.5962C14.91 63.5651 16.95 58.8609 18.63 55.4835C18.81 55.0613 18.9 54.7899 18.9 54.6693L18.18 55.7549L13.68 63.8064C10.5 70.1993 8.16 76.0494 6.66 81.3568C6.42 82.2615 6.3 82.8947 6.3 83.2566C6.3 83.6184 6.36 83.92 6.48 84.1612C6.6 84.4025 6.69 84.5231 6.75 84.5231H6.93ZM7.38 92.1223V91.9413C7.38 91.8207 7.39 91.6699 7.42 91.489C7.45 91.3081 7.52 91.097 7.64 90.8557L7.73 90.5843C7.79 90.5843 7.82 90.6446 7.82 90.7653C7.82 90.8859 7.79 91.0568 7.73 91.2679C7.67 91.4789 7.61 91.68 7.55 91.8509C7.49 92.0318 7.43 92.1223 7.37 92.1223H7.38ZM9.45 67.9678C9.39 67.9678 9.36 67.7869 9.36 67.425C9.36 67.1838 9.4 66.9023 9.5 66.5606C9.59 66.2289 9.69 66.058 9.81 66.058C9.93 66.058 9.99 66.1484 9.99 66.3294L9.45 67.9578V67.9678ZM11.52 84.704L12.6 82.2615C13.26 80.2109 13.86 78.6127 14.4 77.4668C15.06 76.0193 15.39 75.1749 15.39 74.9337C15.39 74.6925 15.84 73.5164 16.74 71.4055L18.9 66.5203C19.38 65.2538 19.78 64.4597 20.12 64.128C20.45 63.7963 20.62 63.5149 20.62 63.2736C20.62 63.2133 20.59 63.1832 20.53 63.1832C20.53 62.761 20.77 61.9468 21.25 60.7406L22.51 57.6647C22.63 57.0013 22.97 56.2173 23.54 55.3126C24.11 54.4079 24.66 53.1716 25.21 51.6035L25.57 50.4274C25.39 50.4274 24.88 51.3924 24.04 53.3224C23.32 54.7698 22.9 55.4935 22.78 55.4935C22.78 55.0111 23.24 53.835 24.18 51.9654C25.11 50.0957 25.58 49.0403 25.58 48.799L25.94 48.1658C26.18 47.7436 26.93 46.0549 28.19 43.0997C28.73 41.7125 29.1 40.7476 29.31 40.2048C29.52 39.662 29.63 39.3303 29.63 39.2096L29.09 39.7524C28.55 40.5365 28.26 40.9888 28.24 41.1094C28.21 41.23 28.15 41.3708 28.06 41.5216C27.97 41.6723 27.86 41.8131 27.75 41.9337C27.27 42.5368 26.86 43.1399 26.54 43.743C26.21 44.3461 26.04 44.7683 26.04 45.0095L26.13 45.2809C26.13 45.3412 26.1 45.3714 26.04 45.3714L25.95 45.2809C25.89 45.2206 25.83 45.1905 25.77 45.1905C25.41 45.1905 25.23 45.6126 25.23 46.457L24.96 47.2712L24.33 48.5377C23.85 49.2614 23.31 50.4073 22.71 51.9754C22.53 52.277 22.38 52.6087 22.26 52.9705C21.42 54.7196 20.92 55.5941 20.78 55.5941C20.64 55.5941 20.48 55.7247 20.33 55.9961C20.18 56.2675 20.07 56.5791 20.02 56.941V57.6647C20.08 57.6647 20.11 57.6949 20.11 57.7552C20.11 57.8155 19.94 58.0165 19.61 58.3382C19.28 58.6699 19.01 59.082 18.8 59.5545C18.59 60.0369 18.49 60.3687 18.49 60.5496L18.76 60.4591L18.85 60.6401C18.85 60.8813 18.74 61.0019 18.54 61.0019C18.34 61.0019 17.58 62.4795 16.29 65.4348C15 68.39 14.35 70.1088 14.35 70.5913C14.35 70.7723 14.33 70.8828 14.3 70.913C14.27 70.9431 14.22 70.9934 14.17 71.0437H14.08C13.96 71.0437 13.84 71.3151 13.72 71.8578C13.6 72.4006 13.48 72.672 13.36 72.672C13.24 72.672 13.18 72.8228 13.18 73.1244C13.18 73.4259 13.23 73.5968 13.32 73.627C13.41 73.6571 13.46 73.7576 13.46 73.9386C13.46 74.4211 13.13 75.567 12.47 77.3763C12.23 77.9191 12.05 78.1905 11.93 78.1905L11.84 78.0095C11.78 77.9492 11.72 77.9191 11.66 77.9191C11.54 77.9191 11.39 78.1201 11.21 78.5021C11.03 78.8941 10.94 79.2158 10.94 79.457C10.94 79.5776 10.97 79.6982 11.03 79.8189C11.09 79.9395 11.12 80.1204 11.12 80.3617C11.12 81.0251 10.85 81.9901 10.31 83.2566C10.07 83.7994 9.95 84.1914 9.95 84.4326C9.95 84.6136 10.04 84.704 10.22 84.704C10.4 84.704 10.55 84.4326 10.67 83.8898C11.03 82.5027 12.11 79.7586 13.91 75.6574L14.81 73.3053C15.35 71.8578 16.91 68.2392 19.49 62.4494C20.15 61.1829 20.51 60.5496 20.57 60.5496C20.63 60.5496 20.66 60.5797 20.66 60.6401C20.66 60.7607 20.45 61.3638 20.03 62.4494C19.19 64.6809 17.93 67.6964 16.25 71.496C15.71 72.7625 14.63 75.567 13.01 79.9093L11.66 83.4375C11.54 83.7994 11.48 84.0105 11.48 84.0708C11.48 84.1311 11.45 84.3422 11.39 84.704H11.57H11.52ZM10.26 81.3568C10.32 81.3568 10.41 81.2161 10.53 80.9547C10.65 80.6833 10.71 80.4923 10.71 80.3717C10.71 80.3114 10.68 80.2812 10.62 80.2812C10.56 80.3416 10.5 80.432 10.44 80.5527C10.38 80.6733 10.32 80.814 10.26 80.9648C10.2 81.1155 10.17 81.2261 10.17 81.2764V81.3668H10.26V81.3568ZM12.15 75.6574C12.21 75.6574 12.33 75.5569 12.51 75.3458C12.69 75.1347 12.78 74.8432 12.78 74.4814L12.69 74.3909L12.6 74.5718C12.54 74.6321 12.45 74.7829 12.33 75.0242C12.21 75.2654 12.15 75.4463 12.15 75.567V75.6574ZM13.41 88.5941L14.94 88.5036C15.48 88.4433 15.96 88.3729 16.38 88.2825C16.8 88.192 17.05 88.1015 17.14 88.0111C17.23 87.9206 17.33 87.8804 17.45 87.8804L17.9 87.9709C18.26 87.9709 18.5 87.9106 18.62 87.7899C18.74 87.6693 19.08 87.5386 19.65 87.3778C20.22 87.227 20.61 87.0159 20.82 86.7445C21.03 86.4731 21.28 86.3324 21.59 86.3324L22.31 86.4229C22.61 86.4229 22.8 86.2922 22.89 86.0208C22.98 85.7494 23.14 85.6087 23.38 85.6087L24.1 85.6992C24.34 85.6992 24.7 85.6389 25.18 85.5182C26.68 85.0961 27.43 84.7643 27.43 84.5231C27.43 84.2819 27.59 84.1612 27.93 84.1612C28.27 84.1612 28.57 84.1009 28.87 83.9803C29.53 83.6787 29.86 83.4375 29.86 83.2566V83.0757C29.86 82.955 29.96 82.8244 30.17 82.6736C30.38 82.5228 30.66 82.4424 31.02 82.4424L31.38 82.5329C31.5 82.5329 31.62 82.3519 31.74 81.9901C31.86 81.6282 32.04 81.4473 32.28 81.4473L32.91 81.5377C33.27 81.5377 33.51 81.4975 33.63 81.397C33.75 81.3065 33.84 81.2362 33.9 81.1658L33.81 81.0753C33.81 80.8944 33.93 80.6532 34.17 80.3516C34.41 80.0501 34.62 79.8993 34.8 79.8993H34.89C34.89 80.0199 34.78 80.2109 34.58 80.4823C34.37 80.7537 34.27 80.9246 34.27 80.9849L35.08 80.623C35.86 80.3215 36.38 80.0098 36.65 79.6781C36.92 79.3464 37.22 79.1052 37.55 78.9544C37.88 78.8036 38.05 78.673 38.05 78.5523L37.96 78.3714C37.96 78.2508 37.99 78.1603 38.05 78.1C38.11 78.0397 38.23 77.9492 38.41 77.8286C38.59 77.708 38.71 77.6477 38.77 77.6477L38.68 78.0095C38.68 78.0699 38.71 78.1 38.77 78.1C39.01 78.1 39.88 77.5271 41.38 76.3812C41.98 75.8987 42.33 75.5971 42.42 75.4765C42.51 75.3559 42.7 75.195 43 74.9739C43.3 74.7628 43.63 74.5115 43.99 74.21L45.43 73.1244C45.31 73.1244 45.01 73.2751 44.53 73.5767C44.05 73.8783 43.75 74.029 43.63 74.029C43.57 74.029 43.54 73.9989 43.54 73.9386C43.54 73.8179 43.68 73.6672 43.95 73.4862C44.22 73.3053 44.5 73.1545 44.8 73.0339C45.1 72.9133 45.31 72.853 45.43 72.853H45.61C45.79 72.853 46.12 72.6721 46.6 72.3102C47.02 71.7674 47.3 71.496 47.45 71.496C47.6 71.496 48.21 71.0135 49.29 70.0485C52.95 66.7917 55.42 64.5201 56.72 63.2133C58.01 61.9166 58.83 61.1527 59.19 60.9115L61.8 58.1975L68.55 51.0507C69.81 49.7238 71.43 47.8542 73.41 45.4418C76.35 41.8231 78.33 39.1694 79.35 37.4807L80.16 36.1237C78.6 38.1743 77.49 39.5313 76.83 40.1947C75.99 41.0391 75.15 41.9739 74.31 42.9992C73.47 44.0244 72.99 44.5371 72.87 44.5371L72.78 44.4466C72.78 44.0244 73.83 42.5468 75.93 40.0138C76.77 38.8679 77.19 38.2045 77.19 38.0235C77.19 37.8426 77.4 37.5712 77.82 37.2093C78.24 36.8475 78.45 36.5761 78.45 36.3951C78.45 36.2142 78.68 35.8121 79.13 35.1789C79.58 34.5456 79.82 34.1737 79.85 34.0531C79.88 33.9324 79.89 33.842 79.89 33.7817L79.35 34.5054C78.03 36.375 76.14 38.7573 73.68 41.6522C69.9 46.1755 66.18 50.2767 62.52 53.9556C61.5 54.9809 60.87 55.4935 60.63 55.4935C60.57 55.4935 60.54 55.4634 60.54 55.4031C60.54 55.1618 62.49 52.8097 66.39 48.3467C69.57 44.7884 71.16 42.9489 71.16 42.8283L71.07 42.9188C69.21 44.7884 65.49 48.8292 59.91 55.0412C57.69 57.5743 55.74 59.655 54.06 61.2834C51.66 63.6958 49.05 65.9876 46.23 68.1588C39.33 73.9486 34.26 77.6577 31.02 79.2861C29.76 80.0702 29.11 80.4823 29.08 80.5024C29.05 80.5325 29.04 80.5828 29.04 80.6331V80.7235C29.28 80.7235 30.25 80.2008 31.97 79.1454C33.68 78.09 34.68 77.5673 34.98 77.5673C35.04 77.5673 35.07 77.5974 35.07 77.6577C35.07 77.718 34.9 77.9191 34.57 78.2407C34.24 78.5724 33.97 78.7433 33.76 78.7433C33.55 78.7433 33.37 78.8941 33.22 79.1957C33.07 79.4972 32.81 79.7686 32.45 80.0098C31.55 80.7336 30.92 81.0954 30.56 81.0954C30.2 81.0954 29.93 81.2462 29.75 81.5478C29.45 81.8493 29.09 82.0604 28.67 82.181C28.25 82.3017 27.93 82.4725 27.72 82.6836C27.51 82.8947 27.32 83.0656 27.14 83.1762C26.6 83.4777 26.27 83.6285 26.15 83.6285H25.97V83.538C25.97 83.3571 25.88 83.2666 25.7 83.2666C25.52 83.2666 25.43 83.3571 25.43 83.538V83.8094C25.43 84.1713 24.92 84.3522 23.9 84.3522C23.72 84.3522 23.48 84.4125 23.18 84.5332L20.48 85.7092C20.18 85.7092 20.03 85.7695 20.03 85.8901C19.67 86.252 18.02 86.7948 15.08 87.5185C13.82 87.8804 13.19 88.2121 13.19 88.5137C13.19 88.574 13.25 88.6041 13.37 88.6041L13.41 88.5941ZM14.76 84.3422L15.57 84.0708C18.21 83.4677 21.81 81.9901 26.37 79.6379C29.79 77.8889 33.09 75.9288 36.27 73.7576C39.63 71.4055 43.98 67.9678 49.32 63.4445C50.16 62.6605 50.99 61.9367 51.79 61.2733C52.6 60.6099 53.19 60.1274 53.55 59.8259C54.39 59.2831 55.26 58.4689 56.16 57.3833C57.9 55.5136 59.25 54.2773 60.21 53.6742L63.99 49.7841C66.75 46.5877 68.43 44.6879 69.03 44.0848C70.65 42.3358 71.85 40.8581 72.63 39.6519L75.33 35.8523C76.05 34.8874 76.41 34.2541 76.41 33.9526V33.7716C76.41 33.4098 76.65 32.867 77.13 32.1432C77.73 31.2386 78.15 30.7862 78.39 30.7862H78.48C78.72 30.7862 78.87 30.6556 78.93 30.3741C78.99 30.1027 79.68 28.8563 81 26.6248C83.34 22.7649 84.87 19.4177 85.59 16.5831C86.25 14.2913 86.58 12.4216 86.58 10.9742C86.58 10.1298 86.46 9.40609 86.22 8.80298C85.98 8.19987 85.86 7.7978 85.86 7.58671C85.86 7.37562 85.68 7.08412 85.32 6.73231C84.42 5.94827 83.46 5.37532 82.44 5.01345C80.7 4.28972 78.66 3.92786 76.32 3.92786L75.06 4.01833C70.92 4.62143 66.87 6.00858 62.91 8.17977C60.75 9.44629 58.01 11.3762 54.68 13.9696C51.35 16.563 48.51 18.9754 46.17 21.2069C45.63 21.81 44.22 23.167 41.94 25.2779C40.08 26.9666 38.67 28.5246 37.71 29.9419C36.75 31.3592 35.67 33.5203 34.47 36.4152C33.09 39.672 31.68 42.8383 30.24 45.9142C27.66 51.6437 25.36 56.8304 23.35 61.4744C21.34 66.1183 19.82 69.8877 18.81 72.7826C18.51 73.6873 18.24 74.411 18 74.9538C17.34 76.4013 16.86 77.6075 16.56 78.5724L15.93 80.4722C15.03 82.8243 14.58 84.0909 14.58 84.2718L14.76 84.3623V84.3422ZM15.57 69.2343C15.51 69.2343 15.48 69.2042 15.48 69.1439C15.48 68.6011 15.54 68.1688 15.66 67.8271C15.78 67.4954 15.87 67.3245 15.93 67.3245V67.415C15.93 67.9578 15.89 68.4 15.79 68.7217C15.7 69.0534 15.62 69.2243 15.57 69.2243V69.2343ZM23.94 85.6992L24.48 85.1564L25.2 84.7945C25.32 84.7945 25.38 84.885 25.38 85.0659C25.38 85.1865 24.9 85.3976 23.94 85.6992ZM25.74 82.5329C25.92 82.5329 26.44 82.2916 27.31 81.8091C28.18 81.3266 28.62 81.0251 28.62 80.9045L28.17 81.0854L25.65 82.5329H25.74ZM25.92 49.5127C26.04 49.5127 26.28 49.1006 26.64 48.2965C27 47.4823 27.39 46.6178 27.81 45.7132C28.71 43.542 29.16 42.3357 29.16 42.0945L28.17 44.2657L25.83 49.5127H25.92ZM29.34 41.7326L29.52 41.5517C29.64 41.4311 29.71 41.3205 29.75 41.2401C29.78 41.1496 29.79 41.0793 29.79 41.0089L29.7 40.9184C29.52 40.9184 29.41 41.029 29.39 41.2301C29.36 41.4411 29.35 41.5819 29.35 41.6321V41.7226L29.34 41.7326ZM29.88 40.4661C29.94 40.4661 30.03 40.3153 30.15 40.0138V39.8329C30.15 39.7725 30.12 39.7424 30.06 39.7424L29.97 39.8329C29.85 39.8932 29.79 40.0138 29.79 40.1947C29.79 40.3756 29.82 40.4661 29.88 40.4661ZM35.73 77.2858H35.55C35.49 77.2858 35.46 77.2557 35.46 77.1953C35.46 77.135 35.58 77.0044 35.82 76.7832C36.06 76.5721 36.36 76.3611 36.72 76.15C37.08 75.9389 37.49 75.6675 37.94 75.3358C38.39 75.0041 38.78 74.7226 39.11 74.4713C39.44 74.2301 39.72 74.019 39.96 73.8381C40.2 73.6571 40.35 73.5667 40.41 73.5667C40.47 73.5667 40.56 73.5063 40.68 73.3857C40.8 73.2651 40.93 73.1344 41.09 72.9837C41.24 72.8329 41.37 72.7022 41.5 72.5816C41.62 72.461 41.71 72.4007 41.77 72.4007C41.83 72.4007 41.86 72.461 41.86 72.5816C41.86 72.7022 41.8 72.8932 41.68 73.1646C41.56 73.436 41.39 73.5767 41.19 73.5767C40.99 73.5767 40.57 73.8381 39.97 74.3406C39.37 74.8533 38.99 75.1046 38.85 75.1046C38.71 75.1046 38.63 75.195 38.63 75.376C38.63 75.5569 38.4 75.7378 37.95 75.9188C37.5 76.0997 36.97 76.4314 36.38 76.9139C36.14 77.0948 35.93 77.2155 35.75 77.2758L35.73 77.2858ZM38.7 26.9867C38.76 26.9867 38.84 26.9264 38.93 26.8057C39.02 26.6851 39.14 26.5343 39.29 26.3534C39.44 26.1725 39.52 26.0518 39.52 25.9915V25.8106H39.43C39.19 25.8106 39.01 25.9915 38.89 26.3534L38.71 26.9867H38.7ZM43.74 106.959C43.98 106.959 44.1 106.929 44.1 106.868C44.04 106.868 43.75 106.838 43.25 106.778C42.74 106.717 42.17 106.677 41.54 106.647C40.91 106.617 40.44 106.607 40.14 106.607H39.42C39.42 106.667 39.79 106.738 40.54 106.838C41.29 106.929 42.08 106.979 42.93 106.979H43.74V106.959ZM49.41 107.411C50.43 107.411 51.44 107.401 52.43 107.371C53.42 107.341 54.03 107.311 54.27 107.28C54.51 107.25 54.75 107.15 54.99 106.969C55.23 106.788 56.13 106.697 57.69 106.697C58.17 106.697 58.8 106.717 59.58 106.738C60.36 106.768 61.14 106.818 61.92 106.878C62.7 106.939 63.12 107.029 63.18 107.15C63.24 107.27 63.3 107.331 63.36 107.331C63.42 107.331 63.51 107.24 63.63 107.059C63.75 106.878 63.96 106.788 64.26 106.788H64.8C65.16 106.788 65.37 106.748 65.43 106.657C65.49 106.567 65.64 106.496 65.88 106.436H66.69C66.93 106.496 67.14 106.587 67.32 106.707C67.5 106.828 67.68 106.858 67.86 106.798C67.92 106.798 67.96 106.758 68 106.667C68.03 106.577 68.79 106.476 70.29 106.356C72.03 106.235 73.74 106.054 75.42 105.813C77.94 105.451 79.2 105.18 79.2 104.999C77.64 104.999 76.44 105.089 75.6 105.27C73.68 105.511 72.09 105.632 70.83 105.632L66.24 105.994C64.74 106.114 62.22 106.175 58.68 106.175C55.14 106.175 51.73 106.134 48.28 106.044C44.83 105.954 42.44 105.813 41.13 105.632L40.5 105.541C40.38 105.541 40.32 105.572 40.32 105.632C40.32 105.692 40.36 105.752 40.46 105.813C40.55 105.873 41.4 105.994 43.02 106.175C44.4 106.175 45.09 106.295 45.09 106.537L45 106.808C45 106.929 45.15 107.019 45.45 107.079C46.05 107.321 47.37 107.441 49.41 107.441V107.411ZM40.5 24.8155C40.62 24.8155 41.01 24.4838 41.67 23.8204C43.17 22.3126 44.31 21.227 45.09 20.5636C45.87 19.9002 46.5 19.3574 46.98 18.9352C48.42 17.8496 49.5 16.9449 50.22 16.2212C50.7 15.799 51.26 15.3366 51.89 14.824C52.52 14.3114 53.12 13.8188 53.69 13.3263C54.26 12.8438 54.92 12.2708 55.67 11.6074C56.42 10.944 56.79 10.5821 56.79 10.5218C56.67 10.5218 56.19 10.8234 55.35 11.4265C53.25 12.9946 51.54 14.3415 50.22 15.4472C48.9 16.563 47.16 18.1813 45 20.2821L41.85 23.2675L40.5 24.8054V24.8155ZM44.91 107.592C45.15 107.592 45.27 107.562 45.27 107.501C45.27 107.381 45.15 107.321 44.91 107.321C44.67 107.321 44.55 107.381 44.55 107.501C44.55 107.562 44.67 107.592 44.91 107.592ZM54.99 108.768C55.77 108.768 56.76 108.708 57.96 108.587L60.39 108.406L53.01 108.135C51.45 108.135 50.67 108.195 50.67 108.316C50.67 108.376 51.09 108.466 51.93 108.587C53.19 108.708 54.21 108.768 54.99 108.768ZM57.33 10.2504C57.63 10.2504 58.95 9.52671 61.29 8.07925C64.05 6.51117 66.42 5.36527 68.4 4.64154C69.42 4.27967 69.93 4.03843 69.93 3.91781L69.84 3.82734C69.6 3.82734 68.92 4.02838 67.81 4.41035C66.7 4.80237 65.53 5.2748 64.3 5.8176C63.07 6.36039 62.12 6.84288 61.47 7.26505C60.51 7.86816 59.74 8.3406 59.18 8.67231C58.61 9.00401 58.2 9.27541 57.96 9.4865C57.72 9.69759 57.54 9.86847 57.42 9.98909L57.24 10.17L57.33 10.2605V10.2504ZM58.59 6.99366C58.71 6.93334 58.89 6.83283 59.13 6.672C59.37 6.52122 59.49 6.4207 59.49 6.36039C59.49 6.30008 59.43 6.26993 59.31 6.26993C59.25 6.33024 59.08 6.44081 58.81 6.58153C58.54 6.73231 58.4 6.87303 58.4 6.99366H58.58H58.59ZM59.85 53.4932C59.79 53.4932 59.76 53.4329 59.76 53.3123C59.76 53.252 59.82 53.1414 59.94 52.9906C60.06 52.8399 60.21 52.6489 60.39 52.4076C60.81 51.9252 61.11 51.6839 61.29 51.6839H61.38C61.38 51.8045 61.23 52.0759 60.93 52.4981C60.39 53.1615 60.03 53.4932 59.85 53.4932ZM66.96 51.1411C67.14 50.8999 67.3 50.6586 67.46 50.4174C67.61 50.1761 67.77 49.9651 67.95 49.7841L68.13 49.5127C68.25 49.5127 68.31 49.5429 68.31 49.6032C68.31 50.0254 67.86 50.538 66.96 51.1411ZM70.02 48.0653C69.96 48.0653 69.93 48.005 69.93 47.8843C69.93 47.6431 70.32 47.1305 71.1 46.3464C71.88 45.5624 72.3 45.1704 72.36 45.1704C72.42 45.1704 72.45 45.2005 72.45 45.2608C72.45 45.4417 72.09 45.9544 71.37 46.7987C70.65 47.6431 70.2 48.0653 70.02 48.0653ZM70.83 3.82734C71.19 3.82734 71.46 3.75698 71.64 3.6062C71.82 3.45543 71.91 3.35491 71.91 3.28455L71.37 3.37501C70.77 3.55594 70.47 3.67657 70.47 3.73688C70.47 3.79719 70.59 3.82734 70.83 3.82734ZM73.17 3.19408L73.44 3.10361C73.44 3.0433 73.41 3.0031 73.35 2.97294C73.29 2.94279 73.2 2.93273 73.08 2.93273C72.96 2.93273 72.87 2.96289 72.81 3.0232C72.81 3.14382 72.93 3.20413 73.17 3.20413V3.19408ZM78.84 102.345H78.57C78.39 102.345 78.3 102.315 78.3 102.254C78.3 102.074 78.78 101.923 79.74 101.802L81.9 101.44C84.48 100.958 86.52 100.717 88.02 100.717C87 101.078 85.32 101.41 82.98 101.712C81.96 101.893 81.06 102.023 80.28 102.114C79.5 102.204 79.02 102.285 78.84 102.345ZM80.91 104.788C81.33 104.788 81.54 104.757 81.54 104.697C81.54 104.637 81.33 104.607 80.91 104.607C80.37 104.607 80.1 104.667 80.1 104.788H80.91ZM83.34 104.607C84.06 104.607 85.05 104.446 86.31 104.114C87.57 103.782 88.47 103.561 89.01 103.431L89.37 103.25H89.19C89.01 103.25 88.59 103.29 87.93 103.38C87.27 103.471 86.46 103.611 85.5 103.792C84.54 103.973 83.73 104.124 83.07 104.245L81.99 104.516L83.34 104.607ZM88.29 100.717L88.2 100.626L88.29 100.445C88.35 100.385 89.08 100.113 90.5 99.631C91.91 99.1485 92.7 98.9072 92.89 98.9072C93.08 98.9072 93.16 98.9374 93.16 98.9977C93.16 99.1786 92.42 99.5103 90.96 99.9928C89.49 100.475 88.6 100.717 88.3 100.717H88.29Z" fill="#BBB573"/>
<path d="M96.3901 90.041C95.5501 90.041 94.9601 89.9405 94.6301 89.7193C94.3001 89.5082 94.0501 89.4077 93.8701 89.4077L93.6001 89.4982C93.3601 89.4982 92.7701 89.1665 91.8501 88.5031C90.9201 87.8396 89.9601 87.0255 88.9701 86.0605C87.9801 85.0955 87.2501 84.2411 86.7601 83.4772C86.2801 82.7233 85.8001 82.3011 85.3201 82.2106C84.8401 82.1202 84.6001 82.0197 84.6001 81.889C84.6001 81.7081 84.8101 81.5271 85.2301 81.3462C85.6501 81.1653 85.8601 80.9843 85.8601 80.8034L85.7701 80.532C85.5301 79.6273 85.4101 78.6925 85.4101 77.7275C85.4101 75.1945 86.1301 72.2996 87.5701 69.0428C88.5301 66.9922 89.7901 64.7306 91.3501 62.2578C92.9101 59.7851 94.2001 57.9758 95.2201 56.8299L97.3801 54.3873C99.4801 51.7939 101.01 50.3766 101.97 50.1354C102.21 50.0751 102.54 50.0449 102.96 50.0449L106.83 50.7686C108.81 51.1305 110.7 52.2764 112.5 54.2064C114.66 56.1966 115.74 58.0662 115.74 59.8153C115.74 63.0117 113.76 66.6907 109.8 70.8521C107.34 73.4455 103.59 76.1896 98.5501 79.0845C96.6301 80.2304 94.5001 81.2859 92.1601 82.2509C91.0201 82.7936 90.4501 83.1254 90.4501 83.246C90.5101 83.7888 91.0801 84.2109 92.1601 84.5125C92.8801 84.7537 93.6901 84.8744 94.5901 84.8744L95.6701 84.7839C101.43 84.2411 107.16 82.1001 112.86 78.3608C114.36 77.4561 115.2 77.0038 115.38 77.0038C115.56 77.0038 115.8 76.8832 116.1 76.642C116.88 76.0992 117.27 75.7574 117.27 75.5966C117.27 75.4357 117.51 75.1643 117.99 74.7422C119.19 73.6566 119.88 73.1138 120.06 73.1138H120.15L119.61 73.8375L119.7 73.928C119.82 73.928 120.69 73.2646 122.31 71.9377C122.97 71.3346 123.67 70.7315 124.42 70.1284C125.17 69.5253 125.78 69.0126 126.26 68.5905C128.3 67.0224 130.37 65.1226 132.47 62.8911L137.69 57.2822C141.47 53.1208 143.48 51.04 143.72 51.04C143.72 51.2813 143.15 52.0955 142.01 53.4826L140.75 55.111C140.81 55.111 141.11 54.8095 141.65 54.2064C142.49 53.362 143.03 52.9398 143.27 52.9398H143.36C143.36 53.0605 143.22 53.2916 142.95 53.6133C142.68 53.945 142.54 54.327 142.54 54.7391C142.54 54.92 142.55 55.0105 142.58 55.0105H142.72C142.78 55.0105 142.87 54.9502 142.99 54.8296C143.11 54.709 143.2 54.6486 143.26 54.6486C143.26 54.7693 142.81 55.3724 141.91 56.458C141.19 57.3023 140.5 58.2974 139.84 59.4433C139.54 60.1671 139 61.0114 138.22 61.9764L137.41 63.062C136.39 64.2682 134.86 65.9569 132.82 68.1281C128.02 73.1339 124.78 76.3907 123.1 77.8984C118.66 81.5171 114.04 84.5024 109.24 86.8546L107.98 87.5783C107.08 88.1211 105.7 88.6036 103.84 89.0258C101.14 89.6892 98.6501 90.0209 96.3701 90.0209L96.3901 90.041ZM90.5401 78.4613V78.3709C90.6001 78.3709 90.7201 78.3306 90.9001 78.2402C91.0801 78.1497 91.3501 77.9889 91.7101 77.7376C92.0701 77.4964 92.4101 77.2752 92.7401 77.0641C93.0701 76.853 93.4401 76.5615 93.8601 76.1997C96.5601 74.511 98.4201 73.154 99.4401 72.1287C99.4401 71.9478 100.13 71.3748 101.51 70.4098C102.65 69.3846 104 68.0778 105.56 66.4695C107.12 64.8713 108.2 63.6349 108.8 62.7604C109.4 61.8859 109.88 60.8606 110.24 59.6846C110.6 58.5085 110.78 57.5938 110.78 56.9203C110.78 56.1966 110.61 55.6739 110.29 55.3422C109.96 55.0105 109.44 54.7492 108.72 54.5682L107.82 54.4778C107.1 54.4778 106.27 54.7793 105.35 55.3824C104.42 55.9855 103.02 57.4631 101.16 59.8153C97.6801 64.1576 95.0201 68.1985 93.1901 71.9377C91.3601 75.677 90.4501 77.8482 90.4501 78.4513H90.5401V78.4613ZM127.08 72.581L127.71 71.9478C128.13 71.5859 128.53 71.1939 128.92 70.7717C129.31 70.3495 129.62 69.9877 129.87 69.6861C130.29 69.1433 130.5 68.8418 130.5 68.7815C130.44 68.7815 129.72 69.5353 128.34 71.0431C127.5 72.0081 127.08 72.5207 127.08 72.581Z" fill="#BBB573"/>
<path d="M142.29 99.6311H141.03C140.43 99.6311 140.04 99.4602 139.86 99.1285C139.68 98.7968 139.29 98.6259 138.69 98.6259H138.42C138 98.6259 137.58 98.4751 137.16 98.1736C136.14 97.3896 135.18 96.304 134.28 94.9168C133.38 93.5297 132.93 91.2982 132.93 88.2223C132.93 87.6192 133.01 86.1114 133.16 83.699C133.31 81.2866 134.28 76.1903 136.09 68.4102C136.69 65.9375 136.99 64.3996 136.99 63.7965C136.99 63.6155 136.91 63.4949 136.76 63.4346C136.61 63.3743 136.41 63.2034 136.18 62.932C135.94 62.6606 135.7 62.5199 135.46 62.5199L135.19 62.6104C135.01 62.6104 134.92 62.4596 134.92 62.158C134.92 61.2534 135.79 58.7806 137.53 54.7398C138.67 52.3274 139.99 49.2817 141.49 45.6027C142.57 43.13 143.25 41.773 143.51 41.5318C143.78 41.2905 144.21 41.1699 144.82 41.1699C145.36 41.1699 145.69 41.2604 145.81 41.4413C145.93 41.6222 146.08 41.6825 146.26 41.6222H146.71C146.95 41.6222 147.19 41.763 147.43 42.0344C147.67 42.3058 147.94 42.4364 148.24 42.4364C148.54 42.4364 148.78 42.4967 148.96 42.6174C149.26 42.9792 149.41 43.522 149.41 44.2458C149.41 44.8489 149.29 45.3313 149.05 45.6932C148.99 45.7535 148.91 45.9043 148.82 46.1455C148.73 46.3868 148.62 46.6582 148.51 46.9597C148.39 47.6231 148.18 48.367 147.88 49.1812C147.58 49.9954 147.34 50.5583 147.16 50.8598C146.38 52.4279 145.61 54.9811 144.87 58.4992C144.12 62.0274 143.65 64.098 143.47 64.7011C140.83 75.9792 139.51 84.7243 139.51 90.9363C139.51 92.1425 139.57 93.1678 139.69 94.0121C139.81 94.4946 139.9 94.9168 139.96 95.2787C140.02 95.6405 140.11 95.8215 140.23 95.8215C140.59 95.8215 141.25 95.4898 142.21 94.8263C143.59 93.8614 145.21 92.233 147.07 89.9412C148.57 88.1319 149.86 86.4432 150.94 84.8751C152.02 83.307 152.74 82.342 153.1 81.9802C153.46 81.6183 154.21 80.6232 155.35 78.9948C156.07 78.0901 157.03 76.7331 158.23 74.9238C159.25 73.597 159.76 72.8933 159.76 72.7928C159.76 72.6923 159.79 72.4511 159.85 72.0289C159.91 71.9686 160 71.8681 160.12 71.7072C160.24 71.5565 160.45 71.3454 160.75 71.074C161.05 70.8026 161.29 70.4005 161.47 69.8577C161.65 69.3149 161.81 69.0335 161.97 69.0033C162.12 68.9732 162.24 68.9329 162.33 68.8626C162.42 68.8023 162.47 68.7118 162.47 68.5912C162.47 68.4706 162.77 67.8976 163.37 66.8723L165.71 62.7109C165.77 62.5903 165.86 62.53 165.98 62.53C166.1 62.53 167 60.9619 168.68 57.8257C168.86 57.3432 169.07 56.9814 169.31 56.7401C169.55 56.4989 170.03 55.8053 170.75 54.6594C171.05 54.1769 171.44 53.4532 171.92 52.4882L173.45 49.5028C175.37 45.9445 176.33 43.5622 176.33 42.356C176.33 41.8735 176.22 41.582 176.01 41.5016C175.8 41.4111 175.7 41.3106 175.7 41.18C175.7 41.0493 175.88 40.999 176.24 40.999L176.87 41.0895C177.83 41.2704 178.31 41.5117 178.31 41.8132C178.31 41.8735 178.26 41.9238 178.17 41.9539C178.08 41.9841 178.03 42.0344 178.03 42.0846C178.03 42.1349 178.27 42.1751 178.75 42.1751C179.59 42.2354 180.11 42.4967 180.32 42.9491C180.53 43.4014 180.63 43.9341 180.63 44.5272C180.63 45.6128 180.39 46.7888 179.91 48.0554C179.13 50.0456 178.23 51.8851 177.21 53.5738C176.91 53.8754 176.31 54.9308 175.41 56.7401L174.24 58.6399C173.52 59.9667 172.83 61.173 172.17 62.2586C171.27 64.0679 170.77 65.0328 170.69 65.1535C170.6 65.2741 169.29 67.4151 166.77 71.5766L161.64 79.9899C155.76 89.2175 152.34 94.1629 151.38 94.8263C150.96 95.1279 150.75 95.3691 150.75 95.5501C150.75 95.731 150.18 96.1833 149.04 96.9071C148.62 97.2086 147.88 97.7414 146.83 98.4952C145.78 99.2491 144.27 99.6211 142.29 99.6211V99.6311ZM134.73 91.3987C134.79 91.3987 134.82 91.3685 134.82 91.3082L134.73 88.4133C134.73 87.6896 134.8 87.2574 134.96 87.0965C135.11 86.9457 135.18 86.8452 135.18 86.7849L135 86.8754C134.88 86.8754 134.79 86.8452 134.73 86.7849C134.73 86.2421 134.82 85.3978 135 84.2519C135.06 83.4678 135.14 82.7944 135.23 82.2214C135.32 81.6484 135.38 81.3469 135.41 81.3167C135.44 81.2866 135.6 80.3719 135.9 78.5625L137.25 72.5013C137.43 71.7776 137.58 71.3856 137.7 71.3253C137.76 71.3856 137.79 71.5062 137.79 71.6871C137.79 72.049 137.67 72.5315 137.43 73.1346C137.43 73.3758 137.46 73.4965 137.52 73.4965C137.64 73.4965 137.85 72.8531 138.15 71.5464C138.45 70.2497 138.72 68.7319 138.96 66.9829C139.2 65.2339 139.41 63.907 139.59 63.0024L139.68 62.2787C139.62 62.2787 139.56 62.3691 139.5 62.5501C139.44 62.731 139.2 63.6055 138.78 65.1736C138 67.8272 136.98 71.7776 135.72 77.0246C135.48 78.1705 135.24 79.6783 135 81.5479C134.64 84.3222 134.46 86.8553 134.46 89.1471C134.46 89.6899 134.49 90.1422 134.55 90.5041L134.73 91.4087V91.3987ZM134.91 92.2129C134.97 92.2129 135.01 92.1827 135.05 92.1224C135.08 92.0621 135.1 91.9716 135.1 91.851L135.01 91.6701L134.92 91.9415V92.2129H134.91ZM135.72 84.2519C135.78 84.2519 135.82 84.1815 135.86 84.0207C135.89 83.8699 135.9 83.7694 135.9 83.7091C135.84 83.5884 135.78 83.5281 135.72 83.5281L135.63 83.89C135.63 84.1312 135.66 84.2519 135.72 84.2519ZM135.72 82.9853C135.84 82.9853 135.9 82.7139 135.9 82.1711C135.84 82.1711 135.78 82.3219 135.72 82.6235V82.9853ZM136.26 79.6381C136.38 79.6381 136.44 79.5175 136.44 79.2762C136.44 79.1556 136.38 79.0953 136.26 79.0953C136.2 79.0953 136.17 79.2159 136.17 79.4572C136.17 79.5778 136.2 79.6381 136.26 79.6381ZM136.17 81.176L136.35 80.4523L136.26 80.1809C136.2 80.1809 136.17 80.3216 136.17 80.593V81.176ZM137.25 93.7508L137.34 93.5699L137.16 92.6652C136.98 91.8812 136.89 90.886 136.89 89.6798C136.89 86.9055 137.58 82.0807 138.96 75.2053C139.62 71.9485 139.95 69.8979 139.95 69.0536C139.95 68.5108 139.89 68.2394 139.77 68.2394C139.71 68.2394 139.62 68.6314 139.5 69.4154C139.44 69.9582 139.26 70.9835 138.96 72.4913L136.98 81.8997C136.68 83.4075 136.53 85.5485 136.53 88.3228C136.53 89.8909 136.6 91.1876 136.75 92.2129C136.9 93.2382 137.07 93.7508 137.25 93.7508ZM136.62 77.8288L136.71 77.7383V77.286C136.59 77.286 136.53 77.4066 136.53 77.6478C136.53 77.7685 136.56 77.8288 136.62 77.8288ZM136.98 76.6527L137.07 76.5622V75.8385L136.98 75.7481L136.89 76.2004C136.89 76.5019 136.92 76.6527 136.98 76.6527ZM137.16 75.4767C137.34 75.4767 137.43 75.2354 137.43 74.7529V74.572C137.37 74.572 137.28 74.6625 137.16 74.8434C137.04 75.0243 136.98 75.1751 136.98 75.2957C136.98 75.4163 137.04 75.4767 137.16 75.4767ZM157.23 78.5525C157.29 78.5525 157.42 78.4319 157.64 78.1906C157.85 77.9494 158.21 77.4971 158.72 76.8336C159.23 76.1702 159.78 75.4163 160.38 74.572C162.84 71.074 164.49 68.5409 165.33 66.9728C165.93 65.7666 166.65 64.5303 167.49 63.2637C169.71 59.7657 171.72 56.3582 173.52 53.0411C174.24 51.5936 174.7 50.7493 174.92 50.508C175.13 50.2668 175.44 49.7541 175.87 48.9701C177.43 46.1355 178.21 44.3262 178.21 43.5421C178.21 43.2406 178.15 43.0898 178.03 43.0898C177.91 43.0898 177.79 43.2607 177.67 43.5823C177.55 43.914 177.43 44.2156 177.31 44.487C177.19 44.7584 177.1 44.9996 177.04 45.2107C176.98 45.4218 176.83 45.653 176.59 45.8942C176.53 45.8942 176.47 45.9747 176.41 46.1154C176.35 46.2662 176.32 46.4471 176.32 46.6582C176.32 46.8693 176.26 47.0401 176.14 47.1608C175.96 47.1608 174.97 48.7288 173.17 51.865V52.0459C172.33 53.4331 171.67 54.5488 171.19 55.3932C170.71 56.2375 170.25 56.9914 169.79 57.6548C169.34 58.3183 169.12 58.8309 169.12 59.1928C169 59.434 168.88 59.5546 168.76 59.5546C168.64 59.5546 168.34 60.0371 167.86 61.0021L167.05 62.3591C166.39 63.2637 166.06 63.8467 166.06 64.1181C166.06 64.3895 165.95 64.6006 165.75 64.7514C165.54 64.9022 165.07 65.5555 164.35 66.7014C164.11 67.1839 163.66 67.968 163 69.0536C159.16 75.0243 157.24 78.1906 157.24 78.5525H157.23ZM163.17 74.1197C163.29 74.1197 163.77 73.4261 164.61 72.0389C164.97 71.4358 165.3 70.893 165.6 70.4105C165.9 69.9281 166.05 69.6265 166.05 69.5059V69.4154C165.99 69.4154 165.85 69.536 165.64 69.7773C165.43 70.0185 165.22 70.31 165.01 70.6317C164.8 70.9634 164.61 71.2348 164.43 71.4459C164.25 71.657 164.13 71.7575 164.07 71.7575H163.98C163.92 71.7575 163.83 71.8681 163.71 72.0691C163.59 72.2802 163.47 72.5516 163.35 72.8833C163.23 73.215 163.14 73.5065 163.08 73.7377C163.08 73.9789 163.11 74.0996 163.17 74.0996V74.1197ZM166.32 68.9631L166.41 68.7822C166.47 68.6615 166.5 68.4806 166.5 68.2394V68.1489C166.44 68.1489 166.35 68.2394 166.23 68.4203C166.11 68.6012 166.05 68.752 166.05 68.8726C166.05 68.9329 166.14 68.9631 166.32 68.9631ZM166.95 67.787L167.04 67.6966V67.3347L166.95 67.2442C166.89 67.2442 166.86 67.3649 166.86 67.6061C166.86 67.7267 166.89 67.787 166.95 67.787ZM167.76 66.3396C167.82 66.3396 167.94 66.219 168.12 65.9777C168.3 65.7365 168.54 65.4349 168.84 65.0731C169.14 64.7112 169.39 64.3192 169.6 63.897C169.81 63.4748 169.94 63.1733 170.01 62.9923L170.1 62.8114C170.1 62.7511 170.07 62.7209 170.01 62.7209C169.77 62.7209 169.65 62.8315 169.65 63.0325C169.65 63.2336 169.51 63.5351 169.24 63.8869C168.97 64.2488 168.75 64.6107 168.57 64.9725L167.76 66.3295V66.3396ZM169.2 62.9923C169.38 62.9923 169.47 62.9019 169.47 62.7209C169.47 62.6606 169.38 62.6305 169.2 62.6305L168.93 62.8114C168.93 62.8717 169.02 62.932 169.2 62.9923ZM170.46 62.1781C170.64 62.1781 170.89 61.8364 171.23 61.1428C171.56 60.4492 171.72 60.0472 171.72 59.9165C171.6 59.9165 171.21 60.4894 170.55 61.6353L170.28 61.9972L170.37 62.0877C170.37 62.148 170.4 62.1781 170.46 62.1781ZM171.72 59.7356C171.78 59.7356 171.88 59.6652 172.03 59.5144C172.18 59.3636 172.26 59.2631 172.26 59.1928H172.08C172.02 59.1928 171.94 59.2531 171.85 59.3737C171.76 59.4943 171.71 59.5848 171.71 59.6451V59.7356H171.72ZM172.44 58.7404C172.56 58.6801 172.68 58.5494 172.8 58.3384C172.92 58.1273 173.05 57.876 173.21 57.5644C173.36 57.2628 173.55 56.9009 173.79 56.4788C174.03 56.0566 174.25 55.6646 174.47 55.3027C174.68 54.9409 174.78 54.7298 174.78 54.6695L174.6 54.8504C174.24 55.2726 173.55 56.4185 172.53 58.2881L172.35 58.65C172.35 58.7103 172.38 58.7404 172.44 58.7404Z" fill="#BBB573"/>
<path d="M182.16 93.5692H180.63C177.93 93.5692 175.56 92.3026 173.52 89.7696C173.22 89.3474 172.95 88.9855 172.71 88.684C172.47 88.3824 172.35 88.1714 172.35 88.0507C172.35 87.8095 172.47 86.9953 172.71 85.6082C173.25 81.8086 173.73 79.3057 174.15 78.0995L174.33 77.3757C174.51 76.7726 174.68 76.1293 174.82 75.4357C174.97 74.7422 175.29 73.8275 175.77 72.6715C175.95 72.3096 176.43 71.013 177.21 68.7815C177.81 67.0928 178.62 65.2533 179.64 63.263L180.72 60.9109C181.56 59.1619 182.22 57.7949 182.7 56.7997C183.18 55.8046 183.9 54.5783 184.86 53.1308C185.7 52.0452 186.22 51.4522 186.43 51.3617C186.64 51.2712 186.92 51.231 187.28 51.231C187.58 51.231 187.88 51.2913 188.18 51.412C188.48 51.5326 188.95 51.804 189.58 52.2262C190.21 52.6483 190.8 53.0404 191.34 53.4022L191.43 54.4878C191.43 55.1512 191.25 55.8448 190.89 56.5685L188.1 61.9965C187.56 63.0821 187 64.1677 186.43 65.2533C185.86 66.3389 185.31 67.334 184.76 68.2387C184.58 68.4799 184.19 69.2941 183.59 70.6812C183.11 71.7668 182.78 72.4604 182.6 72.762C181.82 74.2697 181.01 76.2901 180.17 78.8232C179.33 81.3562 178.76 83.4973 178.46 85.2463C178.34 86.0906 178.19 86.5128 178.01 86.5128C177.83 86.5128 177.7 86.553 177.6 86.6535C177.51 86.744 177.46 86.8546 177.46 86.9651C177.46 87.0255 177.49 87.0556 177.55 87.0556L177.91 86.8747C178.09 86.8747 178.18 87.0255 178.18 87.327C178.18 87.5079 178.14 87.6587 178.04 87.7793C177.95 87.9 177.9 88.0809 177.9 88.3221L178.08 90.4029L179.25 90.1315C180.69 89.8299 183.03 88.292 186.27 85.5177C189.81 82.3815 193.62 78.401 197.7 73.5762C201.78 68.7513 205.14 64.2582 207.78 60.0967C208.74 58.408 209.32 57.5335 209.53 57.4732C209.74 57.4129 210.05 57.051 210.48 56.3876L211.2 55.3925V55.4829C211.2 55.7845 211.05 56.2067 210.75 56.7495C210.15 57.6541 209.79 58.1266 209.67 58.1467C209.55 58.1768 209.49 58.2874 209.49 58.4683V58.5588C209.49 58.981 208.83 60.2475 207.51 62.3584C207.21 62.7805 207.06 63.0218 207.06 63.0821H207.15C207.21 63.0821 207.29 63.0117 207.38 62.861C207.47 62.7102 207.65 62.4388 207.92 62.0468C208.19 61.6547 208.68 60.8405 209.4 59.6042C210.12 58.3678 210.57 57.7546 210.75 57.7546C210.87 57.7546 210.96 57.8451 211.02 58.026C211.02 58.1467 210.94 58.3176 210.79 58.5286C210.64 58.7397 210.08 59.574 209.12 61.0215C207.2 64.1576 205.73 66.3891 204.71 67.716C204.47 68.2588 204.35 68.6206 204.35 68.8016V68.892C204.41 68.892 204.59 68.7312 204.89 68.3995C205.19 68.0678 205.62 67.525 206.2 66.7711C206.77 66.0172 207.32 65.2332 207.86 64.419C208.4 63.6048 208.85 62.9012 209.21 62.2981C209.57 61.695 209.75 61.3632 209.75 61.3029L209.66 61.122H209.93C210.05 61.122 210.18 61.0014 210.34 60.7601C210.49 60.5189 210.57 60.2776 210.57 60.0364L210.48 59.8555C210.48 59.6745 210.69 59.2222 211.11 58.4985L211.2 59.4031C211.2 60.3078 210.45 62.087 208.95 64.7406C207.27 67.6356 205.38 70.6511 203.28 73.7872C202.26 75.2347 200.64 77.3154 198.42 80.0294C196.2 82.7434 194.79 84.2512 194.19 84.5527C193.95 84.6733 193.83 84.8241 193.83 85.005C193.83 85.186 193.47 85.6685 192.75 86.4525C190.95 88.3221 189.12 89.8601 187.26 91.0663C184.74 92.755 183.03 93.5993 182.13 93.5993L182.16 93.5692ZM194.85 43.5414C194.73 43.5414 194.64 43.5113 194.58 43.451C194.52 43.3906 194.38 43.3504 194.17 43.3203C193.96 43.2901 193.7 43.2801 193.4 43.2801C193.1 43.2801 192.84 43.2399 192.64 43.1494C192.43 43.0589 192.22 42.878 192.01 42.6066C191.8 42.3352 191.62 42.104 191.47 41.9331C191.32 41.7522 191.23 41.6115 191.2 41.521C191.17 41.4305 191.11 41.3401 191.02 41.2496C190.93 41.1591 190.85 41.0586 190.8 40.938C190.62 40.8777 190.53 40.7571 190.53 40.5761C190.53 40.4555 190.6 40.2444 190.75 39.9429C190.9 39.6413 191.12 39.1588 191.43 38.4954C192.27 36.9876 193.56 35.118 195.3 32.8865C198.78 28.3632 201.06 26.1016 202.14 26.1016C202.5 26.1016 202.86 26.5237 203.22 27.3681C203.46 27.7903 203.61 28.122 203.67 28.3632C203.67 28.6045 203.61 28.8558 203.49 29.1272C203.37 29.3985 203.31 29.7001 203.31 30.0318C203.31 30.3635 202.89 31.1375 202.05 32.3437C200.25 34.6958 198.78 37.048 197.64 39.4001C196.26 42.1744 195.33 43.5615 194.85 43.5615V43.5414ZM203.04 70.4098L203.58 70.2289L202.68 69.8671C202.5 69.8671 202.41 69.9575 202.41 70.1385C202.47 70.3194 202.68 70.4098 203.04 70.4098Z" fill="#BBB573"/>
<path d="M215.91 90.041C215.07 90.041 214.48 89.9405 214.16 89.7193C213.83 89.5082 213.58 89.4077 213.39 89.4077L213.12 89.4982C212.88 89.4982 212.29 89.1665 211.37 88.5031C210.44 87.8396 209.48 87.0255 208.49 86.0605C207.5 85.0955 206.77 84.2411 206.28 83.4772C205.8 82.7233 205.32 82.3011 204.84 82.2106C204.36 82.1202 204.12 82.0197 204.12 81.889C204.12 81.7081 204.33 81.5271 204.75 81.3462C205.17 81.1653 205.38 80.9843 205.38 80.8034L205.29 80.532C205.05 79.6273 204.93 78.6925 204.93 77.7275C204.93 75.1945 205.65 72.2996 207.09 69.0428C208.05 66.9922 209.31 64.7306 210.87 62.2578C212.43 59.7851 213.72 57.9758 214.74 56.8299L216.9 54.3873C219 51.7939 220.53 50.3766 221.49 50.1354C221.73 50.0751 222.06 50.0449 222.48 50.0449L226.35 50.7686C228.33 51.1305 230.22 52.2764 232.02 54.2064C234.18 56.1966 235.26 58.0662 235.26 59.8153C235.26 63.0117 233.28 66.6907 229.32 70.8521C226.86 73.4455 223.11 76.1896 218.07 79.0845C216.15 80.2304 214.02 81.2859 211.68 82.2509C210.54 82.7936 209.97 83.1254 209.97 83.246C210.03 83.7888 210.6 84.2109 211.68 84.5125C212.4 84.7537 213.21 84.8744 214.11 84.8744L215.19 84.7839C220.95 84.2411 226.68 82.1001 232.38 78.3608C233.88 77.4561 234.72 77.0038 234.9 77.0038C235.08 77.0038 235.32 76.8832 235.62 76.642C236.4 76.0992 236.79 75.7574 236.79 75.5966C236.79 75.4357 237.03 75.1643 237.51 74.7422C238.71 73.6566 239.4 73.1138 239.58 73.1138H239.67L239.13 73.8375L239.22 73.928C239.34 73.928 240.21 73.2646 241.83 71.9377C242.49 71.3346 243.19 70.7315 243.94 70.1284C244.69 69.5253 245.3 69.0126 245.78 68.5905C247.82 67.0224 249.89 65.1226 251.99 62.8911L257.21 57.2822C260.99 53.1208 263 51.04 263.24 51.04C263.24 51.2813 262.67 52.0955 261.53 53.4826L260.27 55.111C260.33 55.111 260.63 54.8095 261.17 54.2064C262.01 53.362 262.55 52.9398 262.79 52.9398H262.88C262.88 53.0605 262.74 53.2916 262.48 53.6133C262.21 53.945 262.07 54.327 262.07 54.7391C262.07 54.92 262.08 55.0105 262.11 55.0105H262.25C262.31 55.0105 262.4 54.9502 262.52 54.8296C262.64 54.709 262.73 54.6486 262.79 54.6486C262.79 54.7693 262.34 55.3724 261.44 56.458C260.72 57.3023 260.03 58.2974 259.37 59.4433C259.07 60.1671 258.53 61.0114 257.75 61.9764L256.94 63.062C255.92 64.2682 254.39 65.9569 252.35 68.1281C247.55 73.1339 244.31 76.3907 242.63 77.8984C238.19 81.5171 233.57 84.5024 228.77 86.8546L227.51 87.5783C226.61 88.1211 225.23 88.6036 223.37 89.0258C220.67 89.6892 218.18 90.0209 215.9 90.0209L215.91 90.041ZM210.06 78.4613V78.3709C210.12 78.3709 210.24 78.3306 210.42 78.2402C210.6 78.1497 210.87 77.9889 211.23 77.7376C211.59 77.4964 211.93 77.2752 212.26 77.0641C212.59 76.853 212.96 76.5615 213.38 76.1997C216.08 74.511 217.94 73.154 218.96 72.1287C218.96 71.9478 219.65 71.3748 221.03 70.4098C222.17 69.3846 223.52 68.0778 225.08 66.4695C226.64 64.8713 227.72 63.6349 228.32 62.7604C228.92 61.8859 229.4 60.8606 229.76 59.6846C230.12 58.5085 230.3 57.5938 230.3 56.9203C230.3 56.1966 230.13 55.6739 229.8 55.3422C229.47 55.0105 228.95 54.7492 228.23 54.5682L227.33 54.4778C226.61 54.4778 225.78 54.7793 224.85 55.3824C223.92 55.9855 222.52 57.4631 220.66 59.8153C217.18 64.1576 214.52 68.1985 212.7 71.9377C210.87 75.677 209.95 77.8482 209.95 78.4513H210.04L210.06 78.4613ZM246.6 72.581L247.23 71.9478C247.65 71.5859 248.05 71.1939 248.45 70.7717C248.84 70.3495 249.15 69.9877 249.39 69.6861C249.81 69.1433 250.02 68.8418 250.02 68.7815C249.96 68.7815 249.24 69.5353 247.86 71.0431C247.02 72.0081 246.6 72.5207 246.6 72.581Z" fill="#BBB573"/>
<path d="M256.41 96.8267C255.99 96.6458 255.72 96.2839 255.6 95.7411L254.97 95.1983V95.5602C254.97 95.9824 254.85 96.1934 254.61 96.1934C254.31 96.1934 253.95 96.0427 253.53 95.7411C253.11 95.4396 252.69 94.8968 252.27 94.1127L251.73 93.4795C251.25 92.7557 251.01 91.4289 251.01 89.499L251.1 87.1468C251.52 82.3823 252.33 77.286 253.53 71.8581C253.89 70.3503 254.07 69.2647 254.07 68.6013C254.07 68.1188 253.92 67.8775 253.62 67.8775C253.32 67.8775 253.17 67.777 253.17 67.5659C253.17 67.3549 253.05 67.2543 252.81 67.2543L252.36 67.3448H252.27C252.15 67.3448 252.09 67.2242 252.09 66.9829C252.09 65.8973 252.42 64.3896 253.08 62.4596C253.5 61.1328 254.01 59.806 254.61 58.4791C255.15 57.4538 255.51 56.5793 255.69 55.8556L255.78 55.6747L260.1 44.9092C260.16 44.668 260.24 44.4971 260.33 44.4066C260.42 44.3162 260.47 43.9744 260.47 43.3612V42.547C260.53 42.3661 260.75 42.1249 261.14 41.8233C261.53 41.5218 261.96 41.3408 262.45 41.2805C263.05 41.2805 263.39 41.3408 263.48 41.4614C263.57 41.5821 263.67 41.6625 263.79 41.6826C263.91 41.7127 264.03 41.7228 264.15 41.7228L264.33 41.6323C264.39 41.6323 264.47 41.6524 264.56 41.6725C264.65 41.7027 264.75 41.7932 264.87 41.9439C264.99 42.0947 265.3 42.2153 265.82 42.3058C266.33 42.3963 266.6 42.6275 266.63 42.9893C266.66 43.3512 266.76 43.5924 266.94 43.713C267.12 43.8337 267.21 44.1051 267.21 44.5272C267.21 45.07 267.1 45.3414 266.89 45.3414C266.68 45.3414 266.4 45.8842 266.04 46.9698C265.2 49.3219 264.3 52.5184 263.34 56.5592C260.4 68.9832 258.51 78.1203 257.67 83.9705C257.49 85.1767 257.34 86.1316 257.22 86.8151C257.1 87.5087 257.04 88.1018 257.04 88.5742C257.1 88.5742 257.18 88.5038 257.27 88.353C257.36 88.2023 257.5 88.0113 257.68 87.77L261.01 81.0755C262.93 77.3363 264.01 75.3159 264.25 75.0143C264.73 74.4112 265.22 73.5568 265.73 72.4411C266.24 71.3253 266.54 70.7624 266.63 70.7624C266.72 70.7624 266.85 70.5815 267.03 70.2196C267.39 69.6165 267.78 68.6817 268.2 67.4152C268.26 66.993 268.56 66.3597 269.1 65.5154C270.18 63.887 270.84 62.5903 271.08 61.6253C271.14 61.4444 271.27 61.173 271.49 60.8111C271.7 60.4493 272.17 59.5748 272.89 58.1876L274.15 55.8355C275.47 53.1818 276.49 51.2217 277.21 49.9552C278.41 47.9046 279.05 46.6482 279.14 46.1958C279.23 45.7435 279.39 45.4922 279.64 45.4319C280.18 45.251 280.75 45.1605 281.35 45.1605C281.47 45.2208 281.53 45.3314 281.53 45.4721C281.53 45.6128 281.58 45.6932 281.67 45.6932H281.9L282.62 45.6028C282.92 45.6028 283.12 45.7435 283.2 46.0149C283.29 46.2863 283.57 46.427 284.05 46.427C284.53 46.427 284.82 46.4572 284.9 46.5175C284.99 46.5778 285.04 46.8291 285.04 47.2814C285.04 47.7338 285.13 47.9549 285.31 47.9549C285.49 47.9549 285.58 47.9851 285.58 48.0454C285.58 48.166 285.46 48.357 285.22 48.6284C284.98 48.8998 284.86 49.1712 284.86 49.4426C284.86 49.714 284.77 49.9452 284.59 50.116C284.41 50.297 284.26 50.689 284.14 51.2921C283.9 52.8602 283.39 55.1218 282.61 58.0771C281.23 63.9272 280.54 67.2141 280.54 67.9379V68.1188C280.6 68.1188 280.75 67.6061 280.99 66.5809C281.05 66.1587 281.15 65.7265 281.3 65.2741C281.45 64.8218 281.58 64.6007 281.71 64.6007L281.62 65.8672C281.02 68.159 280.66 71.265 280.54 75.1852C280.42 78.442 280.3 80.0704 280.18 80.0704C280.12 80.0704 280.07 79.9497 280.04 79.7085C280.01 79.4673 280 79.1858 280 78.8541C280 78.5224 279.98 78.2711 279.95 78.0902C279.92 77.9092 279.87 77.8188 279.81 77.8188V78.1806C279.81 79.5075 279.87 80.9248 279.99 82.4325C280.17 85.9306 280.5 88.4636 280.98 90.0317C281.46 91.5998 282.03 92.5044 282.69 92.7457C283.41 92.7457 284.13 92.625 284.85 92.3838C288.63 91.1776 292.77 87.1971 297.27 80.4423L298.17 79.2662C299.07 78.06 299.88 76.9141 300.6 75.8285C301.68 74.0795 302.58 72.8431 303.3 72.1194C304.5 70.7323 306.45 67.385 309.15 62.0777C310.53 59.424 311.56 57.2729 312.25 55.6144C312.94 53.9558 313.61 52.1364 314.27 50.1361C315.17 47.4222 315.62 45.4621 315.62 44.2558C315.62 43.9543 315.58 43.8035 315.48 43.8035C315.38 43.8035 315.31 43.5924 315.25 43.1703L315.07 39.6421L312.55 39.1897C311.29 39.0088 310.57 38.7977 310.39 38.5565C310.21 38.3152 309.98 38.1946 309.71 38.1946C309.44 38.1946 309.3 38.1041 309.3 37.9232C309.3 37.3804 310.38 37.109 312.54 37.109L313.44 37.0186C313.74 37.0186 313.98 37.0487 314.16 37.109C315.78 37.4709 317.22 38.0137 318.48 38.7374C319.5 39.4611 320.19 40.6975 320.55 42.4465C320.73 43.1703 320.82 43.9241 320.82 44.7082C320.82 45.7938 320.67 46.9095 320.37 48.0554C320.07 49.5632 319.92 50.5583 319.92 51.0408C319.74 53.2723 317.49 58.3686 313.17 66.3296L311.01 70.4006C309.75 72.2702 308.82 73.8684 308.22 75.1953C306.84 77.668 304.93 80.6232 302.5 84.0609C300.07 87.4986 298.01 90.0618 296.33 91.7505C294.65 93.4392 293.12 94.6153 291.74 95.2787C290.36 95.9421 288.83 96.2739 287.15 96.2739C286.13 96.2739 285.36 96.2638 284.85 96.2336C284.34 96.2035 283.83 96.0226 283.32 95.6908C282.81 95.3591 282.46 95.1883 282.28 95.1883C282.22 95.1883 282.17 95.2184 282.14 95.2787C282.11 95.339 282.03 95.3692 281.92 95.3692C281.56 95.3692 280.9 94.947 279.94 94.1027C279.4 93.6805 278.95 93.198 278.59 92.6552C276.97 90.7253 275.9 88.5239 275.39 86.0512C274.88 83.5784 274.63 79.6884 274.63 74.3811V68.0484C274.57 67.8675 274.51 67.777 274.45 67.777C274.39 67.777 274.3 67.8373 274.18 67.958C273.88 68.3801 273.73 68.6817 273.73 68.8626C273.73 69.2848 273.65 69.6366 273.51 69.908C273.36 70.1794 273.2 70.5312 273.01 70.9534C272.59 71.7977 272.3 72.2601 272.16 72.3606C272.01 72.4511 271.92 72.5416 271.89 72.632C271.86 72.7225 271.85 72.8029 271.85 72.8532C271.91 72.9738 271.94 73.1246 271.94 73.3055C271.82 73.8483 271.64 74.1197 271.4 74.1197C271.16 74.1197 270.95 74.4514 270.77 75.1148C270.71 75.4164 270.68 75.7481 270.68 76.11C270.62 76.1703 270.54 76.2004 270.45 76.2004C270.36 76.2004 270.31 76.2306 270.31 76.2909V76.8337C270.31 76.894 270.27 76.9242 270.17 76.9242C270.07 76.9242 270.03 77.0146 270.03 77.1956C270.09 77.1956 270.12 77.2257 270.12 77.286C270.12 77.467 270 77.6479 269.76 77.8288L269.58 78.2812H269.67C269.43 78.4621 269.28 78.5827 269.22 78.643C269.16 78.7033 269.1 78.7938 269.04 78.9144C269.04 79.3366 268.98 79.5477 268.86 79.5477C268.74 79.5477 268.68 79.6683 268.68 79.9095C268.68 80.1508 268.29 81.1459 267.51 82.8949C265.53 87.4182 263.94 90.5845 262.74 92.3939C261.54 94.0826 260.52 95.1983 259.68 95.7411C258.66 96.2236 257.82 96.5252 257.16 96.6458L256.35 96.8267H256.41ZM255.24 85.6089C255.36 85.6089 255.42 85.3978 255.42 84.9756C255.42 84.5535 255.36 84.3424 255.24 84.3424V85.6089ZM255.96 79.9095C256.02 79.9095 256.06 79.8693 256.1 79.7688C256.13 79.6784 256.14 79.608 256.14 79.5376L256.05 79.2662C255.99 79.2662 255.96 79.3868 255.96 79.6281V79.8995V79.9095ZM256.23 78.643C256.29 78.643 256.33 78.6028 256.37 78.5023C256.4 78.4118 256.41 78.3415 256.41 78.2812L256.32 77.8288C256.26 77.8288 256.23 77.9796 256.23 78.2812V78.643ZM256.59 77.286L256.68 76.9242C256.68 76.6829 256.65 76.5623 256.59 76.5623C256.53 76.5623 256.5 76.8035 256.5 77.286H256.59ZM267.03 73.396C267.09 73.396 267.45 72.7326 268.11 71.4057C272.13 63.3241 274.68 58.3183 275.76 56.3884C277.26 53.6744 278.16 51.9455 278.46 51.1916C278.76 50.4377 278.91 49.8547 278.91 49.4325C278.91 49.3119 278.88 49.2516 278.82 49.2516C278.64 49.4325 278.55 49.7039 278.55 50.0658C278.43 50.488 278.29 50.7191 278.14 50.7392C277.99 50.7694 277.92 50.9101 277.92 51.1514C277.92 51.3926 277.74 51.7846 277.38 52.3274C277.08 52.629 276.93 52.9004 276.93 53.1416C276.93 53.3829 276.84 53.5035 276.66 53.5035C276.6 53.5035 276.51 53.594 276.39 53.7749C276.27 53.9558 275.64 55.1017 274.5 57.2126C274.08 58.0569 273.54 59.0521 272.88 60.198L272.07 61.7359L271.26 63.8166C271.14 64.0579 271.05 64.1785 270.99 64.1785C270.93 64.1785 270.84 64.3293 270.72 64.6308L269.82 66.5306C269.52 67.4353 269.34 67.9379 269.28 68.0283C269.22 68.1188 269.16 68.2495 269.1 68.4304C268.8 69.0335 268.44 69.8779 268.02 70.9634L267.03 73.406V73.396ZM273.6 64.8017C273.66 64.8017 273.7 64.7715 273.74 64.7112C273.77 64.6509 273.88 64.48 274.05 64.2086C274.23 63.9372 274.32 63.7061 274.32 63.5352V63.4447C274.26 63.4447 274.21 63.4749 274.18 63.5352C274.15 63.5955 274.04 63.7563 273.87 64.0378C273.69 64.3092 273.6 64.5705 273.6 64.8017ZM276.21 80.1809C276.33 80.1809 276.39 79.3064 276.39 77.5574V76.2909L276.3 75.0244C276.3 74.18 276.39 73.7578 276.57 73.7578H276.75C276.81 73.7578 276.87 73.6372 276.93 73.396C276.99 73.1547 277.03 72.813 277.07 72.3606C277.1 71.9083 277.13 71.3856 277.16 70.7825C277.19 70.1794 277.22 69.6266 277.25 69.1039C277.28 68.5912 277.29 68.1892 277.29 67.8775C277.29 67.6363 277.26 67.5157 277.2 67.5157V67.6062C277.08 68.0886 276.96 68.3299 276.84 68.3299C276.66 68.3299 276.57 67.7268 276.57 66.5206L276.39 67.4252C276.09 68.6314 275.94 70.6217 275.94 73.396L276.03 77.1956C276.09 79.1858 276.15 80.1809 276.21 80.1809ZM276.48 83.2568L276.57 83.1663V82.5331L276.48 82.4426C276.42 82.4426 276.39 82.5934 276.39 82.8949C276.39 83.1362 276.42 83.2568 276.48 83.2568ZM277.2 87.1468L277.65 86.8754C277.65 86.7548 277.56 86.6945 277.38 86.6945C277.2 86.6945 277.11 86.785 277.11 86.9659C277.11 87.0865 277.14 87.1468 277.2 87.1468ZM277.2 82.0807C277.26 82.0807 277.3 82.0305 277.34 81.94C277.37 81.8495 277.38 81.749 277.38 81.6284C277.38 81.3872 277.35 81.2665 277.29 81.2665C277.23 81.2665 277.2 81.4173 277.2 81.7189V82.0807ZM277.56 84.4328C277.62 84.4328 277.65 84.2519 277.65 83.89C277.65 83.5282 277.62 83.3473 277.56 83.3473C277.5 83.3473 277.47 83.5282 277.47 83.89C277.47 84.2519 277.5 84.4328 277.56 84.4328ZM278.28 84.3424C278.34 84.2821 278.37 83.7996 278.37 82.8949L278.1 78.5526L277.83 73.215C277.83 73.0341 277.8 72.9437 277.74 72.9437L277.83 76.2004C277.95 81.6284 278.1 84.3424 278.28 84.3424ZM278.1 70.5915V69.7773C278.1 69.1742 278.07 68.8727 278.01 68.8727V69.0536C278.01 70.0789 278.04 70.5915 278.1 70.5915ZM278.28 67.7871L278.37 67.6966V66.792L278.28 66.7015C278.22 66.7015 278.19 66.8824 278.19 67.2443C278.19 67.6062 278.22 67.7871 278.28 67.7871ZM278.55 65.7968L278.64 65.7064C278.64 65.4048 278.61 65.254 278.55 65.254C278.49 65.254 278.46 65.3445 278.46 65.5254C278.46 65.7064 278.49 65.7968 278.55 65.7968ZM278.55 85.6994L278.64 85.6089C278.64 85.0661 278.61 84.7947 278.55 84.7947C278.49 84.7947 278.46 84.9756 278.46 85.3375C278.46 85.5788 278.49 85.6994 278.55 85.6994ZM279.81 74.4816C279.87 74.4816 279.9 74.361 279.9 74.1197C279.9 73.9991 279.88 73.9086 279.86 73.8483C279.83 73.788 279.78 73.7578 279.72 73.7578V74.1197C279.72 74.361 279.75 74.4816 279.81 74.4816ZM280.35 69.325L280.44 68.9631C280.44 68.7219 280.41 68.6013 280.35 68.6013C280.29 68.6013 280.26 68.8425 280.26 69.325H280.35ZM301.5 76.7432L301.95 76.11C302.55 75.3862 303.27 74.3911 304.11 73.1246L305.19 71.5867C306.99 68.8727 308.7 65.9174 310.32 62.721C313.8 55.6646 315.9 50.0859 316.62 45.9848L316.98 43.904C316.98 43.8437 316.92 43.8136 316.8 43.8136L316.53 44.3564C316.41 44.7785 316.32 45.261 316.26 45.8038C316.08 46.7688 315.66 48.3067 315 50.4176L313.74 54.0362C313.38 55.1218 311.73 58.4691 308.79 64.078L308.61 64.6208C308.13 65.8873 306.51 68.6314 303.75 72.8532C302.97 73.9388 302.4 74.8133 302.04 75.4767C301.68 76.1401 301.5 76.5321 301.5 76.6528V76.7432ZM309.06 69.8678C309.24 69.8678 309.33 69.7472 309.33 69.5059C309.33 69.4456 309.3 69.4155 309.24 69.4155C308.94 69.4155 308.79 69.5361 308.79 69.7773C308.79 69.8376 308.82 69.8678 308.88 69.8678H309.06ZM310.23 67.6966C310.29 67.6966 310.5 67.385 310.86 66.7517C311.22 66.1185 311.4 65.7767 311.4 65.7164C311.34 65.7164 311.11 65.9878 310.72 66.5306C310.33 67.0734 310.14 67.4353 310.14 67.6162C310.14 67.6765 310.17 67.7067 310.23 67.7067V67.6966ZM311.85 64.8017C312.03 64.6208 312.12 64.47 312.12 64.3494C312.12 64.2891 312.1 64.2489 312.08 64.2187C312.05 64.1885 312 64.1785 311.94 64.1785L311.85 64.3594C311.73 64.4197 311.67 64.5102 311.67 64.6308C311.67 64.7514 311.7 64.8118 311.76 64.8118H311.85V64.8017ZM312.3 63.8066C312.36 63.8066 312.46 63.7161 312.62 63.5352C312.77 63.3542 312.87 63.1733 312.93 62.9924L312.84 62.8114C312.72 62.8114 312.6 62.9622 312.48 63.2638C312.36 63.5653 312.3 63.7463 312.3 63.8066ZM313.2 62.2687C313.26 62.2687 313.35 62.1882 313.47 62.0375C313.59 61.8867 313.65 61.6354 313.65 61.2735V61.0926C313.59 61.0926 313.5 61.2434 313.38 61.5449C313.26 61.8465 313.2 62.0576 313.2 62.1782V62.2687ZM314.01 60.2784C314.19 60.2784 314.51 59.7758 314.96 58.7907C315.41 57.7956 315.64 57.2126 315.64 57.0216L315.28 57.3835C314.92 58.1072 314.68 58.65 314.56 59.0119C314.2 59.615 314.02 59.9467 314.02 60.007V60.2784H314.01ZM316.26 55.3028C316.32 55.3028 316.42 55.2324 316.58 55.0816C316.73 54.9308 316.8 54.7097 316.8 54.4081L316.98 53.6844C316.86 53.9257 316.71 54.1971 316.53 54.4986C316.35 54.8002 316.26 55.0716 316.26 55.3128V55.3028ZM316.8 43.3612C316.92 43.3612 316.98 43.1803 316.98 42.8184C316.98 42.5772 316.95 42.4566 316.89 42.4566C316.83 42.4566 316.8 42.6074 316.8 42.9089V43.3612ZM318.33 43.7231C318.39 43.7231 318.43 43.6829 318.47 43.5824C318.5 43.4919 318.51 43.4215 318.51 43.3512C318.51 43.2306 318.48 43.1401 318.42 43.0798C318.36 43.0798 318.33 43.0999 318.33 43.12V43.703V43.7231Z" fill="#BBB573"/>
<path d="M324.89 108.135C324.17 108.135 323.63 108.104 323.27 108.044C322.55 108.044 321.83 107.833 321.11 107.411C320.21 106.808 319.69 106.406 319.54 106.185C319.39 105.973 319.26 105.662 319.13 105.24C318.77 104.395 318.59 103.762 318.59 103.34C318.59 102.918 318.47 102.425 318.23 101.852C317.99 101.279 317.87 100.807 317.87 100.445L317.96 99.3593C318.2 97.55 318.53 96.6454 318.95 96.6454C319.13 96.6454 319.25 96.4544 319.31 96.0624C319.37 95.6703 319.54 95.4291 319.81 95.3386C320.08 95.2482 320.38 94.9064 320.71 94.2932C321.04 93.6901 321.26 93.0267 321.39 92.303C321.45 91.8808 321.6 91.4888 321.84 91.1269C322.26 90.4032 323.79 88.805 326.43 86.3322C327.63 85.126 328.29 84.5229 328.41 84.5229C328.47 84.5229 328.5 84.5531 328.5 84.6134L328.32 85.518C328.32 85.6387 328.35 85.699 328.41 85.699C328.53 85.6387 328.75 85.4577 329.09 85.1562C329.42 84.8546 329.79 84.5229 330.21 84.161C330.63 83.7992 331 83.4574 331.33 83.1257C331.66 82.794 331.82 82.603 331.82 82.5427C331.82 82.4824 331.73 82.4522 331.55 82.4522H331.01C330.77 82.4522 330.6 82.412 330.52 82.3216C330.43 82.2311 330.16 82.0401 329.71 81.7386C329.26 81.437 328.73 81.0751 328.14 80.653C325.44 78.904 324.03 77.6374 323.91 76.8534C323.73 76.5518 323.55 76.3408 323.37 76.2201C322.95 75.9186 322.5 75.3155 322.02 74.4108C320.82 72.2396 320.22 70.6414 320.22 69.6161L320.31 69.3447C320.31 69.1035 320.2 68.7114 320 68.1686C319.8 67.6259 319.69 66.9323 319.69 66.0879V64.7309C319.69 62.1376 321.34 58.7903 324.64 54.6892C327.4 51.2515 330.4 48.3566 333.64 46.0045L334.18 45.5521C334.6 45.1903 335.59 44.4665 337.15 43.3809C342.49 39.8226 346.51 37.5308 349.21 36.5055L351.91 35.4199L353.26 35.5104C354.7 35.6913 355.42 36.1135 355.42 36.7769V37.2292C355.42 37.4102 355.54 37.5207 355.78 37.5509C356.02 37.5811 356.33 37.8424 356.73 38.3148C357.12 38.7973 357.31 39.4004 357.31 40.1242C357.31 40.5463 357.23 40.878 357.09 41.1193C356.94 41.3605 356.86 41.5415 356.86 41.6621C356.86 41.7827 356.89 41.8933 356.95 41.9837C357.01 42.0742 357.04 42.1848 357.04 42.2953C357.04 42.4059 356.77 42.7175 356.23 43.2C355.45 43.7428 354.55 44.1047 353.53 44.2856C353.29 44.2856 352.69 44.4062 351.73 44.6475C351.19 44.8284 350.44 45.13 349.48 45.5521C349.36 45.5521 349.27 45.5823 349.21 45.6426C347.47 46.3663 345.4 47.4519 343 48.8994C336.64 52.8196 331.54 57.0715 327.7 61.6551C325 64.8516 323.65 67.2338 323.65 68.8019C323.65 69.2844 323.95 69.9076 324.55 70.6615C325.15 71.4154 325.75 72.0386 326.35 72.5211C327.43 73.486 329.71 74.8129 333.19 76.5016C333.19 76.5619 333.22 76.592 333.28 76.592C334.78 77.3158 335.65 77.6776 335.89 77.6776C336.19 77.6776 336.49 77.5269 336.79 77.2253L342.73 72.702C344.05 71.7973 344.71 71.2747 344.71 71.1138C344.71 70.953 344.92 70.8324 345.34 70.7118C346.12 70.3499 347.53 69.3849 349.57 67.8168L351.91 66.0075L352 66.098L350.92 67.274C350.08 67.9375 349.45 68.4803 349.03 68.9024C348.25 69.6865 347.86 70.1086 347.86 70.169V70.2594C347.86 70.3197 347.89 70.3499 347.95 70.3499L356.5 64.2887C356.98 64.0474 357.58 63.6252 358.3 63.0221L359.56 62.1175C360.76 61.2731 361.46 60.7906 361.67 60.67C361.88 60.5494 362.62 60.0066 363.88 59.0416C365.62 57.8354 366.7 57.2323 367.12 57.2323C367.24 57.2323 367.31 57.2725 367.35 57.363C367.38 57.4534 367.45 57.4937 367.57 57.4937L368.92 56.7699C369.76 56.2271 370.28 55.8552 370.49 55.6441C370.7 55.433 371 55.2722 371.39 55.1415C371.78 55.0209 371.98 54.84 371.98 54.5987L372.88 53.9655C373.96 53.2417 374.77 52.8799 375.31 52.8799C376.09 52.8799 376.48 53.2116 376.48 53.875C376.48 54.2369 376.27 54.5987 375.85 54.9606L375.22 55.3225H375.04L371.71 57.6746C369.97 58.8808 369.02 59.5744 368.87 59.7553C368.72 59.9362 368.34 60.2277 367.75 60.6198C367.15 61.0118 366.5 61.4541 365.82 61.9265C365.13 62.409 364.54 62.801 364.06 63.1025C362.08 64.6706 360.46 65.8467 359.2 66.6307L346.96 75.5869C342.88 78.5421 340.84 80.1705 340.84 80.472C340.84 80.653 341.05 80.9545 341.47 81.3767C344.23 83.7288 345.61 86.7444 345.61 90.4233V91.328C345.49 93.3785 345.22 94.9165 344.8 95.9417C344.56 96.6052 344.29 96.9369 343.99 96.9369C343.69 96.9369 343.54 97.0173 343.54 97.158C343.54 97.2987 343.43 97.4897 343.23 97.7008C343.02 97.9119 342.92 98.0828 342.92 98.2034C342.74 98.5653 341.81 99.5805 340.13 101.239C338.45 102.898 336.17 104.446 333.29 105.903C331.73 106.687 330.32 107.26 329.06 107.622C327.8 107.984 326.42 108.165 324.92 108.165L324.89 108.135ZM323.27 101.892C324.17 101.892 325.22 101.772 326.42 101.531C329.48 100.867 331.43 100.174 332.27 99.4498C332.69 99.1483 333.15 98.9472 333.67 98.8568C334.18 98.7663 334.49 98.6658 334.62 98.5452C334.74 98.4245 334.86 98.1732 334.98 97.7712C335.1 97.3791 335.85 96.4544 337.23 95.0069C339.81 92.4136 341.28 90.3027 341.64 88.6743L341.91 87.8601C341.13 87.3776 340.35 86.9253 339.57 86.5031C338.79 86.0809 338.09 85.7191 337.46 85.4175C336.83 85.116 336.41 84.9049 336.2 84.7843C335.99 84.6636 335.73 84.5732 335.44 84.5129L333.01 86.7745C330.19 89.3679 327.22 92.2929 324.1 95.5497C323.44 96.2734 322.81 97.1178 322.21 98.0828C321.37 99.3493 320.98 100.284 321.04 100.887C321.04 101.008 321.05 101.128 321.09 101.249C321.12 101.37 321.31 101.51 321.67 101.651C322.03 101.802 322.57 101.882 323.29 101.882L323.27 101.892Z" fill="#BBB573"/>
</g>
</svg>
