<svg width="325" height="93" viewBox="0 0 325 93" fill="none" xmlns="http://www.w3.org/2000/svg">
<g clip-path="url(#clip0_35_44)">
<g opacity="0.44">
<path d="M17.25 92.5802C16.26 92.5802 15.47 92.4402 14.91 92.1502C13.87 91.6802 13.06 90.5602 12.5 88.8102C12.17 87.9602 12 87.3002 12 86.8202C12 85.9702 12.14 84.9702 12.43 83.8402C12.62 82.6602 12.86 81.8802 13.14 81.5002C13.28 81.3602 13.51 81.2802 13.81 81.2502C14.12 81.2302 14.32 81.0502 14.41 80.7202C14.46 80.5802 14.54 80.4002 14.66 80.1902C14.78 79.9802 15.17 79.3702 15.83 78.3802C14.88 79.4202 14.36 79.9402 14.27 79.9402C14.22 79.9402 14.2 79.9202 14.2 79.8702V79.8002C14.2 79.6602 14.39 79.3502 14.77 78.8802C15.48 78.1202 16.36 77.2702 17.4 76.3202L18.11 75.8202L18.18 76.1002C18.13 76.2002 18.05 76.3102 17.93 76.4502C17.81 76.5902 17.75 76.6902 17.75 76.7302C17.84 76.7302 18.58 76.1902 19.95 75.1002C20.94 74.2002 21.68 73.6302 22.15 73.4002C22.34 73.4002 23 73.0002 24.14 72.1902C25.09 71.5302 25.7 71.0102 25.99 70.6302C26.13 70.4402 26.27 70.3502 26.42 70.3502C26.85 70.3502 27.96 69.5702 29.76 68.0102L31.04 67.0202L31.89 66.6702C32.41 66.6702 33.38 66.1302 34.8 65.0402C35.08 64.7602 35.86 64.1902 37.14 63.3402C37.94 62.8202 38.35 62.4902 38.35 62.3502L38.28 62.2102C37.43 61.8802 32.01 61.3102 22.02 60.5102C18.19 60.2702 16.01 59.9902 15.49 59.6602C15.35 59.5202 15.14 59.3802 14.85 59.2302C12.29 58.4702 10.68 57.9502 10.02 57.6702C9.12002 57.2402 7.97002 56.5102 6.58002 55.4702C5.18002 54.4302 3.89002 52.8402 2.71002 50.7102C1.38002 48.3402 0.58002 45.8102 0.30002 43.1102C0.20002 42.7302 0.13002 42.4602 0.0900195 42.2902C0.0400195 42.1202 0.0200195 41.8302 0.0200195 41.4002C0.0200195 40.1702 0.0800195 39.0802 0.20002 38.1302C0.32002 37.1802 0.45002 36.4302 0.59002 35.8602C1.44002 32.7802 4.26002 29.0202 9.04002 24.5702C12.45 21.4002 14.37 19.8102 14.79 19.8102H14.86V19.8802C14.86 19.8802 14.82 20.0002 14.75 20.0902C14.68 20.1902 14.29 20.6302 13.58 21.4402C13.86 21.2002 14.14 20.9902 14.4 20.8002C14.66 20.6102 14.98 20.3302 15.36 19.9502C15.45 19.8602 15.81 19.6402 16.42 19.3102C18.12 18.2202 19.97 16.9902 21.96 15.6202C22.67 15.0502 23.95 14.2202 25.79 13.1302C30.1 10.5302 33.39 8.68023 35.66 7.59023C36.27 7.21023 36.58 7.00023 36.58 6.95023C36.58 6.90023 36.56 6.88023 36.51 6.88023L35.66 7.16023C35.38 7.30023 35.09 7.37023 34.81 7.37023C34.67 7.37023 34.6 7.32023 34.6 7.23023C34.6 7.18023 34.65 7.14023 34.74 7.09023C35.02 6.81023 35.81 6.36023 37.08 5.74023C38.36 5.13023 39.3 4.69023 39.92 4.43023C40.53 4.17023 41.02 4.02023 41.38 3.97023C41.73 3.92023 42.36 3.90023 43.26 3.90023C43.97 3.90023 44.47 3.83023 44.75 3.69023C45.03 3.55023 45.41 3.38023 45.89 3.19023C46.93 2.86023 48.23 2.41023 49.8 1.84023C53.02 0.610234 56.78 -0.00976562 61.09 -0.00976562C63.69 -0.00976562 65.85 0.0902344 67.55 0.270234C70.11 0.650234 72.16 1.67023 73.73 3.32023C74.58 4.22023 75.2 5.19023 75.58 6.23023C75.91 6.89023 76.08 7.63023 76.08 8.43023C76.08 9.76023 75.44 11.4702 74.16 13.5802C72.88 15.6902 69.64 19.4402 64.43 24.8302L59.18 30.3702C54.4 35.5302 49.78 39.8802 45.34 43.4302C44.16 44.3302 43.47 44.8002 43.28 44.8502C43.09 44.9002 42.81 44.9202 42.43 44.9202C41.86 44.9202 41.32 44.6102 40.8 44.0002C39.76 42.7702 39.24 41.6102 39.24 40.5202C39.24 39.6702 39.55 39.0102 40.16 38.5302L40.59 38.3902C40.68 38.3902 40.73 38.4402 40.73 38.5302C40.73 38.5802 40.71 38.6502 40.66 38.7402C40.61 38.8402 40.59 38.9302 40.59 39.0202C40.59 39.0702 40.64 39.0902 40.73 39.0902C40.87 39.0902 40.94 39.0202 40.94 38.8802C40.94 38.7402 40.96 38.6702 41.01 38.6702C41.06 38.6702 41.12 38.7202 41.19 38.8102C41.26 38.9102 41.34 38.9502 41.44 38.9502C42.43 38.9502 45.79 36.3002 51.52 31.0002L54.15 28.6602L55.43 27.8102C55.43 27.8102 55.52 27.6902 55.57 27.4602V27.1102C55.76 26.7802 56.47 25.9702 57.7 24.7002L60.33 22.0002C60.38 21.9102 60.44 21.8502 60.51 21.8202C60.58 21.8002 60.64 21.7802 60.69 21.7802C60.74 21.7802 60.76 21.8002 60.76 21.8502L60.62 22.2802L60.05 22.9902L60.62 22.4902C62.04 21.0702 63.65 19.3202 65.45 17.2402C67.44 14.9202 68.43 13.6702 68.43 13.4802C68.33 13.4802 67.86 14.0202 67.01 15.1102L65.02 17.4502C64.45 17.9202 63.32 19.2002 61.61 21.2802L61.33 21.4902H61.19V21.4202C61.19 21.1802 62.14 20.0202 64.03 17.9402C66.3 15.4302 68.23 13.0102 69.82 10.6602C71.41 8.32023 72.27 6.60023 72.41 5.51023C72.41 5.32023 72.33 5.08024 72.16 4.80023C71.99 4.52023 71.83 4.32023 71.66 4.20023C71.49 4.08023 71.36 4.02023 71.27 4.02023C71.22 4.02023 71.17 4.04023 71.13 4.09023C71.08 4.14023 71.01 4.16023 70.92 4.16023C70.78 4.16023 70.59 4.12023 70.35 4.05023C70.11 3.98023 69.5 3.94023 68.5 3.94023L66.44 4.01023C62.46 4.20023 59.48 4.51023 57.49 4.93023L53.73 5.57023C52.5 5.81023 51.79 6.02023 51.6 6.21023C51.22 6.40023 50.42 6.68023 49.19 7.06023C47.58 7.53023 45.49 8.34023 42.91 9.47023C40.33 10.6102 37.92 11.7702 35.67 12.9502C33.42 14.1302 31.97 15.0102 31.3 15.5802C30.92 15.9602 28.7 17.4002 24.63 19.9102L22.93 21.0502C19.66 23.2302 16.35 25.8302 12.99 28.8602C10.58 31.0402 8.68002 32.9802 7.31002 34.6802C6.69002 35.4902 6.06002 36.5002 5.39002 37.7302C4.06002 40.1002 3.40002 42.3002 3.40002 44.3302C3.40002 45.6102 3.59002 46.5802 3.97002 47.2402C5.34002 49.7002 7.40002 51.5702 10.15 52.8502C11.71 53.5102 12.8 53.9402 13.42 54.1302C15.27 54.6002 16.85 54.9602 18.18 55.1902C19.98 55.4702 23.17 55.8302 27.76 56.2602C29.04 56.3602 30.34 56.4902 31.67 56.6502C32.99 56.8202 34.04 56.9502 34.79 57.0402L38.06 57.6102C41.04 58.3202 42.77 58.7902 43.24 59.0302L43.52 59.1002C43.9 59.1002 44.73 58.8202 46 58.2502L49.34 56.9702L50.62 56.6202C50.62 56.6202 50.56 56.7602 50.44 56.9002C50.32 57.0402 50.26 57.1402 50.26 57.1802C50.26 57.2202 50.31 57.2502 50.4 57.2502C50.45 57.2502 50.52 57.2102 50.61 57.1402C50.7 57.0702 50.79 56.9302 50.86 56.7102C50.93 56.5002 51.08 56.3902 51.32 56.3902C51.56 56.3902 51.75 56.3302 51.89 56.2102C52.03 56.0902 52.43 55.9402 53.1 55.7502L57.57 54.4002C58.23 54.2602 58.66 54.1902 58.85 54.1902C59.18 54.2402 59.35 54.3102 59.35 54.4002L59.21 54.5402C59.07 54.6402 58.67 54.7802 58 54.9702C56.01 55.4402 55.02 55.8002 55.02 56.0302C55.3 56.0302 55.68 55.9602 56.16 55.8202C57.44 55.4402 59.17 55.0602 61.34 54.6802C65.41 53.9702 68.13 53.6102 69.51 53.6102C70.22 53.6102 70.58 53.7102 70.58 53.8902C70.58 53.9402 70.34 54.0102 69.87 54.1002L68.81 54.3102C68 54.4102 67.51 54.5502 67.32 54.7402C66.75 55.0202 65.99 55.2802 65.05 55.5202L55.18 59.1402C51.77 60.3702 49.76 61.2202 49.15 61.7002V61.7702C49.15 62.0102 49.46 62.5002 50.07 63.2602C51.06 64.4902 51.94 66.1002 52.7 68.0902C52.84 68.3702 52.91 68.9402 52.91 69.7902C52.91 70.8802 52.79 71.7802 52.56 72.4902C52.18 73.7702 51.35 75.1602 50.08 76.6802C48.14 78.8602 46.7 80.1602 45.75 80.5802C45.23 80.8202 44.18 81.4602 42.59 82.5002C41 83.5402 40.21 84.1102 40.21 84.2002C40.35 84.2502 40.42 84.3002 40.42 84.3402L40.35 84.4802C40.25 84.5802 39.12 85.1902 36.94 86.3302C34.76 87.4702 33.34 88.1502 32.68 88.3902L30.2 89.3802C29.16 89.8102 27.57 90.3302 25.44 90.9402C21.84 91.9802 19.14 92.5002 17.35 92.5002L17.25 92.5802ZM2.20002 36.4902C2.20002 36.4902 2.41002 36.2802 2.70002 35.8502C2.75002 35.8502 2.77002 35.8302 2.77002 35.7802L3.55002 34.6402C5.54002 31.6602 8.45002 28.4202 12.28 24.9102C16.11 21.4102 18.43 19.5102 19.24 19.2302C19.48 19.1402 20.33 18.5902 21.8 17.6002C23.41 16.4602 24.62 15.6802 25.42 15.2602L27.34 14.0502C29.42 12.7702 30.55 12.1302 30.71 12.1302C30.87 12.1302 31.18 11.9502 31.63 11.6002C32.08 11.2502 33.03 10.7102 34.47 10.0002C35.91 9.29023 36.64 8.86024 36.64 8.72023C36.64 8.67023 36.62 8.65023 36.57 8.65023L36 8.86023C34.01 9.81023 32.59 10.4002 31.74 10.6402C31.03 10.7402 30.43 10.9602 29.93 11.3102C29.43 11.6602 28.95 11.9602 28.47 12.2002C24.82 14.4302 22.59 15.8202 21.76 16.3902C20.93 16.9602 19.85 17.6902 18.53 18.5902C16.16 20.2502 13.68 22.2202 11.08 24.5202C8.48002 26.8202 6.49002 28.8202 5.12002 30.5202C3.37002 32.7502 2.45002 34.1702 2.35002 34.7802C2.40002 34.7802 2.47002 34.7102 2.56002 34.5702C3.36002 33.2002 4.29002 31.9202 5.33002 30.7402C6.18002 29.7002 7.70002 28.1802 9.87002 26.2002L7.81002 28.5402C5.49002 31.2402 3.88002 33.3402 2.98002 34.8602C2.46002 35.8502 2.20002 36.4002 2.20002 36.4902ZM8.02002 31.5902C8.21002 31.5902 8.63002 31.2102 9.30002 30.4502L10.36 29.3102C9.98002 29.6902 9.59002 30.0402 9.19002 30.3802C8.79002 30.7102 8.49002 30.9502 8.30002 31.0902C8.11002 31.2302 7.99002 31.3002 7.95002 31.3002H7.88002C8.02002 31.0202 8.13002 30.8402 8.20002 30.7702C8.27002 30.7002 8.31002 30.6402 8.31002 30.5902C8.26002 30.5902 8.14002 30.6702 7.96002 30.8402C7.77002 31.0102 7.68002 31.1402 7.68002 31.2302V31.3002C7.68002 31.3002 7.72002 31.4102 7.79002 31.4802C7.86002 31.5502 7.94002 31.5902 8.04002 31.5902H8.02002ZM12.28 26.9002C12.28 26.9002 12.45 26.8302 12.63 26.6902C12.82 26.5502 12.91 26.4302 12.91 26.3402V26.2702C12.77 26.2702 12.63 26.3202 12.48 26.4102C12.34 26.5102 12.27 26.6502 12.27 26.8402V26.9102L12.28 26.9002ZM17.46 88.7402C18.45 88.7402 19.54 88.6202 20.73 88.3902C24.37 87.5902 28.28 86.2802 32.44 84.4802C34 83.7702 34.78 83.3902 34.78 83.3402L33.93 83.5502C33.6 83.6502 33.27 83.6902 32.94 83.6902H32.8V83.5502L32.87 83.4102C33.2 83.3202 34.11 82.8802 35.6 82.1002C37.09 81.3202 37.84 80.9102 37.84 80.8602C37.79 80.8602 37.63 80.9202 37.34 81.0402C37.06 81.1602 36.68 81.3402 36.2 81.5702C35.73 81.8102 35.11 82.0902 34.35 82.4202C33.59 82.7502 32.89 83.0502 32.26 83.3102C31.62 83.5702 31.23 83.7002 31.09 83.7002C30.99 83.7002 30.95 83.6802 30.95 83.6302C30.95 83.3902 31.75 82.9202 33.36 82.2102C34.59 81.6002 35.39 81.1502 35.77 80.8602C36.38 80.3902 36.98 80.0302 37.54 79.8002C38.39 79.2302 39.05 78.7102 39.53 78.2402C40.52 77.2002 41.78 76.2102 43.29 75.2602C44.24 74.6502 45.23 73.7302 46.27 72.5302C47.31 71.3202 48.12 70.1502 48.68 69.0202C49.06 68.2602 49.25 67.6202 49.25 67.1002C49.25 66.8602 49.19 66.5602 49.07 66.1802C48.95 65.8002 48.37 65.3002 47.33 64.6902C46.29 64.0802 45.58 63.7702 45.2 63.7702C44.63 63.7702 43.78 64.1102 42.64 64.8002C41.5 65.4902 39.59 66.6602 36.89 68.3102L36.32 68.6702C34.28 69.9502 33.22 70.5902 33.12 70.5902C33.02 70.5902 32.17 71.1802 30.56 72.3602L27.79 74.2802L26.65 75.1302C25.04 76.3102 23.25 77.8402 21.29 79.7102C19.33 81.5802 17.82 83.1802 16.78 84.5002C16.35 85.1202 16.05 85.5802 15.86 85.8802C15.67 86.1902 15.58 86.4102 15.58 86.5502V86.6902C15.58 86.7902 15.66 86.8602 15.83 86.9002C16 86.9502 16.08 87.0002 16.08 87.0402C16.08 87.0802 15.96 87.1602 15.73 87.2502C15.49 87.3502 15.38 87.4202 15.38 87.4602C15.43 87.5102 15.85 87.5302 16.66 87.5302C17.37 87.5302 17.87 87.5102 18.15 87.4602C19.33 87.2202 20.02 87.1102 20.21 87.1102C20.35 87.1102 20.46 87.1202 20.53 87.1502C20.6 87.1702 20.64 87.2302 20.64 87.3302C20.59 87.4702 20.19 87.6402 19.43 87.8302C18.48 88.1102 17.11 88.4002 15.31 88.6802L17.44 88.7502L17.46 88.7402ZM16.04 23.4902C16.13 23.4902 16.38 23.3602 16.79 23.1002C17.19 22.8402 17.39 22.6602 17.39 22.5702C17.29 22.5702 17.05 22.7002 16.64 22.9602C16.24 23.2202 16.04 23.4002 16.04 23.4902ZM18.74 75.6002H18.46C18.46 75.5102 18.5 75.4102 18.57 75.3202C18.64 75.2302 18.7 75.1302 18.75 75.0402C19.65 74.2802 20.97 73.2402 22.73 71.9202C23.72 71.1602 24.32 70.7802 24.51 70.7802L24.58 70.8502C24.58 70.9502 23.82 71.5802 22.31 72.7702C22.03 73.0502 21.72 73.3102 21.39 73.5502L18.76 75.6102L18.74 75.6002ZM19.09 21.4302C19.09 21.4302 19.23 21.3702 19.37 21.2502C19.51 21.1302 19.61 21.0002 19.65 20.8602L19.72 20.7202C19.72 20.7202 19.59 20.7802 19.47 20.9002C19.35 21.0202 19.26 21.1302 19.19 21.2202C19.12 21.3202 19.08 21.3902 19.08 21.4302H19.09ZM22.07 75.6002C22.4 75.6002 22.9 75.3202 23.56 74.7502C26.4 72.7202 28.23 71.5302 29.06 71.2002C29.89 70.8702 30.3 70.5902 30.3 70.3502V70.2802C30.3 70.0402 30.56 69.9302 31.08 69.9302H31.58C31.86 69.9302 32.01 69.8402 32.01 69.6502V69.5802C32.01 69.4902 32.05 69.3802 32.12 69.2602C32.19 69.1402 32.3 69.0802 32.44 69.0802C32.49 69.0802 32.51 69.1002 32.51 69.1502L32.37 69.5002C32.37 69.5002 32.5 69.4402 32.62 69.3202C32.74 69.2002 32.8 69.0802 32.8 68.9702C32.8 68.8602 32.89 68.7202 33.08 68.5802C33.51 68.2002 33.81 68.0102 34 68.0102C34.19 68.0102 34.66 67.7002 35.42 67.0902C35.66 66.8502 35.9 66.6502 36.17 66.4902C36.43 66.3202 36.58 66.2402 36.63 66.2402C36.87 66.2402 36.98 66.1702 36.98 66.0302C36.98 65.8902 37.07 65.8202 37.26 65.8202C37.45 65.8202 37.65 65.7102 37.86 65.5002C38.07 65.2902 38.32 65.1802 38.61 65.1802C38.9 65.1802 39.12 65.0702 39.28 64.8602C39.45 64.6502 40 64.3302 40.95 63.9002C41.9 63.4702 42.37 63.1002 42.37 62.7602C42.37 62.7102 42.36 62.6802 42.33 62.6502C42.31 62.6302 42.27 62.6102 42.22 62.6102C42.03 62.6102 41.56 62.7802 40.8 63.1102C39.14 63.9202 37.37 64.9102 35.48 66.0902C33.35 67.5602 31.6 68.7202 30.23 69.5702C28.86 70.4202 27.39 71.3902 25.83 72.4802C23.27 74.3302 22 75.3702 22 75.6002H22.07ZM24.34 88.8802C24.72 88.8302 25 88.7602 25.19 88.6702C25.38 88.5802 25.47 88.5002 25.47 88.4602H25.19C25.05 88.5102 24.91 88.5602 24.76 88.6002C24.62 88.6502 24.48 88.7002 24.33 88.7402C24.19 88.7902 24.12 88.8402 24.12 88.8802H24.33H24.34ZM26.54 88.1702C27.11 88.1702 28.67 87.5802 31.23 86.4002C32.89 85.6402 33.71 85.1902 33.71 85.0502H33.64C33.45 85.0502 32.67 85.3602 31.3 85.9702C29.93 86.5902 29.17 86.8902 29.03 86.8902L28.75 86.8202C28.51 86.8202 28.4 86.8902 28.4 87.0302V87.1702C28.4 87.2702 28.33 87.3402 28.19 87.3802L27.27 87.3102C27.27 87.3102 27.2 87.3302 27.2 87.3802L27.27 87.5202C27.27 87.6602 27.14 87.7902 26.88 87.9102C26.62 88.0302 26.49 88.1102 26.49 88.1602H26.56L26.54 88.1702ZM29.04 14.9102C29.23 14.9102 29.41 14.8002 29.57 14.5902C29.74 14.3802 29.82 14.2502 29.82 14.2002C29.77 14.2002 29.67 14.2602 29.5 14.3802C29.33 14.5002 29.2 14.5902 29.11 14.6602C29.01 14.7302 28.94 14.7702 28.9 14.7702C28.9 14.8202 28.95 14.8702 29.04 14.9102ZM31.24 82.7902C31.24 82.7902 31.17 82.7702 31.17 82.7202C31.17 82.6702 31.32 82.5302 31.63 82.2902C31.94 82.0502 32.21 81.9402 32.45 81.9402C32.54 81.9402 32.59 81.9602 32.59 82.0102C32.59 82.0602 32.41 82.2002 32.06 82.4402C31.71 82.6802 31.43 82.7902 31.24 82.7902ZM32.94 12.6402C32.94 12.6402 33.03 12.5802 33.08 12.4602C33.13 12.3402 33.25 12.2802 33.43 12.2802C33.61 12.2802 33.83 12.1602 34.07 11.9302C34.31 11.7002 34.43 11.5302 34.43 11.4302C34.43 11.3802 34.33 11.3602 34.15 11.3602C33.77 11.3602 33.45 11.4702 33.19 11.6802C32.93 11.8902 32.8 12.1202 32.8 12.3502C32.8 12.5402 32.85 12.6302 32.94 12.6302V12.6402ZM34.43 84.8502C34.43 84.8502 34.52 84.7602 34.57 84.5702L34.64 84.3602C34.64 84.3602 34.62 84.2902 34.57 84.2902L34.43 84.3602C34.33 84.4602 34.29 84.5502 34.29 84.6402C34.29 84.7802 34.31 84.8502 34.36 84.8502H34.43ZM34.86 64.1902C34.86 64.1902 34.95 64.0502 35.14 63.9102C35.33 63.7702 35.54 63.6302 35.78 63.4802C36.02 63.3402 36.23 63.2102 36.42 63.0902C36.61 62.9702 36.75 62.9102 36.85 62.9102C36.9 62.9102 36.92 62.9302 36.92 62.9802C36.92 63.0302 36.88 63.1002 36.81 63.1902C36.74 63.2902 36.4 63.4702 35.78 63.7602L34.86 64.1902ZM36.49 83.2902L36.84 83.0802C37.08 82.9902 37.44 82.8002 37.94 82.5102C38.44 82.2302 38.97 81.9002 39.54 81.5202C40.11 81.1402 40.71 80.7302 41.35 80.2802C41.99 79.8302 42.52 79.4202 42.95 79.0402C43.38 78.6602 43.59 78.4502 43.59 78.4002H43.52C43.38 78.4002 42.74 78.8002 41.6 79.6102C41.32 79.8502 41.07 80.0302 40.85 80.1402C40.64 80.2602 40.2 80.5602 39.54 81.0302C38.88 81.5002 38.24 81.9502 37.62 82.3802C36.86 82.9002 36.48 83.2102 36.48 83.3002L36.49 83.2902ZM36.92 8.74023C37.06 8.74023 37.84 8.43023 39.26 7.82023C40.4 7.30023 41.34 6.94023 42.1 6.76023C42.34 6.76023 42.54 6.71023 42.7 6.62023C42.87 6.53023 42.95 6.45023 42.95 6.41023C42.95 6.37023 42.93 6.34023 42.88 6.34023L42.1 6.55023C40.73 6.93023 39.45 7.38023 38.27 7.90023C37.32 8.33023 36.85 8.59023 36.85 8.68023L36.92 8.75023V8.74023ZM40.4 8.53023L43.24 7.39023C44.23 7.01023 44.73 6.78023 44.73 6.68023L44.66 6.61023C44.66 6.61023 44.39 6.68023 43.99 6.82023C43.59 6.96023 43.13 7.14023 42.61 7.35023C42.09 7.56023 41.62 7.78023 41.19 7.99023C40.76 8.20023 40.53 8.33023 40.48 8.38023L40.41 8.52024L40.4 8.53023ZM43.95 78.1102C43.95 78.1102 44.08 78.0702 44.2 78.0002C44.32 77.9302 44.5 77.8002 44.73 77.6102C44.97 77.4202 45.21 77.2002 45.48 76.9402C45.74 76.6802 45.87 76.5302 45.87 76.4802L45.09 77.0502C45.09 77.0502 45.07 77.1202 45.02 77.1202C44.74 77.3602 44.49 77.5702 44.27 77.7602C44.06 77.9502 43.93 78.0402 43.88 78.0402C43.88 78.0902 43.9 78.1102 43.95 78.1102ZM44.23 6.05023C44.37 6.05023 44.44 5.98023 44.44 5.84023C44.44 5.75023 44.39 5.70023 44.3 5.70023L44.16 5.77023C44.06 5.82023 44.02 5.87023 44.02 5.91023C44.02 5.95023 44.09 6.01023 44.23 6.05023ZM45.15 5.62023C45.39 5.62023 45.5 5.53023 45.5 5.34023C45.5 5.29023 45.48 5.27023 45.43 5.27023L45.22 5.34023C45.03 5.39023 44.94 5.46023 44.94 5.55023C44.94 5.60023 45.01 5.62023 45.15 5.62023ZM45.22 6.61023C45.22 6.61023 45.35 6.59023 45.47 6.54023C45.59 6.49023 45.71 6.43023 45.82 6.36023C45.94 6.29023 46 6.23023 46 6.18023H45.93C45.69 6.18023 45.5 6.23023 45.36 6.32023C45.22 6.42023 45.15 6.49023 45.15 6.53023C45.15 6.57023 45.17 6.60023 45.22 6.60023V6.61023ZM56.37 57.2302C56.46 57.2302 56.61 57.1902 56.8 57.1202C56.99 57.0502 57.17 56.9702 57.33 56.8702C57.5 56.7802 57.67 56.6802 57.86 56.5902C57.43 56.6402 57.11 56.7102 56.9 56.8002C56.69 56.9002 56.51 56.9702 56.37 57.0102C56.23 57.0602 56.16 57.1102 56.16 57.1502C56.16 57.1902 56.23 57.2202 56.37 57.2202V57.2302ZM57.43 28.6202C57.57 28.5702 57.77 28.4202 58.03 28.1602C58.29 27.9002 58.57 27.6002 58.88 27.2702C59.19 26.9402 59.63 26.4802 60.19 25.8902C60.76 25.3002 61.31 24.7202 61.86 24.1502C62.4 23.5802 62.93 23.0502 63.42 22.5502C63.92 22.0502 64.31 21.6902 64.59 21.4502C64.87 21.2102 65.47 20.5602 66.37 19.5002C67.27 18.4402 68.17 17.3202 69.07 16.1602C69.97 15.0002 70.61 14.1602 70.99 13.6402L71.49 12.8602C71.35 13.0002 71.19 13.1702 71.03 13.3602C70.86 13.5502 70.59 13.8702 70.21 14.3202C69.83 14.7702 69.45 15.2602 69.07 15.7802C67.51 17.8202 65.66 19.9202 63.53 22.1002C59.46 26.3102 57.42 28.4902 57.42 28.6302L57.43 28.6202ZM62.68 53.7502L62.75 53.6102C62.99 53.4702 63.53 53.3302 64.38 53.1802C65.23 53.0402 66.18 52.9302 67.22 52.8602C68.26 52.7902 69.18 52.7502 69.99 52.7502C70.8 52.7502 71.22 52.7702 71.27 52.8202C71.32 52.8702 71.34 52.9202 71.34 52.9602C71.34 53.0602 71.24 53.1002 71.06 53.1002C70.21 53.1002 67.89 53.2902 64.1 53.6702L62.68 53.7402V53.7502ZM68.57 13.2102C68.57 13.2102 68.74 13.0302 68.93 12.8202C69.12 12.6102 69.36 12.3002 69.64 11.9002C69.92 11.5002 70.15 11.1802 70.31 10.9402C70.48 10.7002 70.56 10.5602 70.56 10.5102L69.5 11.7202C68.84 12.4802 68.51 12.9502 68.51 13.1402V13.2102H68.58H68.57ZM70.77 10.3002C70.77 10.3002 70.88 10.2502 70.95 10.1602C71.02 10.0702 71.09 9.96023 71.16 9.84023C71.23 9.72023 71.29 9.62024 71.34 9.52024C71.34 9.43023 71.32 9.38023 71.27 9.38023L71.2 9.52024C71.1 9.62024 71.02 9.72023 70.95 9.84023C70.88 9.96023 70.82 10.0702 70.77 10.1602V10.3002Z" fill="#BBB573"/>
<path d="M75.1201 71.7103C74.4601 71.7103 74.0001 71.6303 73.7401 71.4603C73.4801 71.2903 73.2801 71.2103 73.1401 71.2103L72.9301 71.2803C72.7401 71.2803 72.2801 71.0203 71.5501 70.5003C70.8201 69.9803 70.0601 69.3403 69.2801 68.5803C68.5001 67.8203 67.9201 67.1503 67.5401 66.5603C67.1601 65.9703 66.7801 65.6403 66.4001 65.5703C66.0201 65.5003 65.8301 65.4203 65.8301 65.3203C65.8301 65.1803 66.0001 65.0403 66.3301 64.8903C66.6601 64.7503 66.8301 64.6103 66.8301 64.4603L66.7601 64.2503C66.5701 63.5403 66.4801 62.8103 66.4801 62.0503C66.4801 60.0603 67.0501 57.7903 68.1801 55.2303C68.9401 53.6203 69.9301 51.8503 71.1601 49.9103C72.3901 47.9703 73.4101 46.5503 74.2101 45.6503L75.9101 43.7303C77.5701 41.7003 78.7701 40.5803 79.5301 40.3903C79.7201 40.3403 79.9801 40.3203 80.3101 40.3203L83.3601 40.8903C84.9201 41.1703 86.4101 42.0703 87.8301 43.5903C89.5301 45.1503 90.3901 46.6203 90.3901 47.9903C90.3901 50.5003 88.8301 53.3903 85.7001 56.6503C83.7601 58.6903 80.8001 60.8403 76.8201 63.1103C75.3001 64.0103 73.6301 64.8403 71.7801 65.5903C70.8801 66.0203 70.4301 66.2803 70.4301 66.3703C70.4801 66.8003 70.9301 67.1303 71.7801 67.3603C72.3501 67.5503 72.9901 67.6403 73.7001 67.6403L74.5501 67.5703C79.0901 67.1403 83.6101 65.4603 88.1101 62.5303C89.2901 61.8203 89.9601 61.4703 90.1001 61.4703C90.2401 61.4703 90.4301 61.3803 90.6701 61.1903C91.2801 60.7603 91.5901 60.4903 91.5901 60.3703C91.5901 60.2503 91.7801 60.0303 92.1601 59.7003C93.1101 58.8503 93.6501 58.4203 93.7901 58.4203H93.8601L93.4301 58.9903L93.5001 59.0603C93.5901 59.0603 94.2801 58.5403 95.5601 57.5003C96.0801 57.0303 96.6401 56.5503 97.2301 56.0803C97.8201 55.6103 98.3101 55.2003 98.6901 54.8703C100.3 53.6403 101.93 52.1503 103.59 50.4003L107.71 46.0003C110.69 42.7303 112.28 41.1003 112.47 41.1003C112.47 41.2903 112.02 41.9303 111.12 43.0203L110.13 44.3003C110.13 44.3003 110.41 44.0603 110.84 43.5903C111.5 42.9303 111.93 42.6003 112.12 42.6003H112.19C112.19 42.7003 112.08 42.8703 111.87 43.1303C111.66 43.3903 111.55 43.6903 111.55 44.0203C111.55 44.1603 111.56 44.2303 111.59 44.2303H111.7C111.7 44.2303 111.82 44.1803 111.91 44.0903C112 44.0003 112.08 43.9503 112.12 43.9503C112.12 44.0503 111.76 44.5203 111.05 45.3703C110.48 46.0303 109.94 46.8103 109.42 47.7103C109.18 48.2803 108.76 48.9403 108.14 49.7003L107.5 50.5503C106.69 51.5003 105.49 52.8203 103.88 54.5303C100.09 58.4603 97.5401 61.0203 96.2101 62.2003C92.7101 65.0403 89.0601 67.3803 85.2801 69.2303L84.2901 69.8003C83.5801 70.2303 82.4901 70.6103 81.0201 70.9403C78.8901 71.4603 76.9301 71.7203 75.1301 71.7203L75.1201 71.7103ZM70.5101 62.6203V62.5503C70.5101 62.5503 70.6501 62.5103 70.7901 62.4403C70.9301 62.3703 71.1401 62.2403 71.4301 62.0503C71.7101 61.8603 71.9901 61.6803 72.2501 61.5203C72.5101 61.3503 72.8101 61.1303 73.1401 60.8503C75.2701 59.5303 76.7401 58.4603 77.5401 57.6503C77.5401 57.5103 78.0801 57.0603 79.1701 56.3003C80.0701 55.5003 81.1301 54.4703 82.3701 53.2103C83.6001 51.9603 84.4501 50.9903 84.9301 50.3003C85.4001 49.6103 85.7801 48.8103 86.0701 47.8903C86.3501 46.9703 86.5001 46.2503 86.5001 45.7203C86.5001 45.1503 86.3701 44.7403 86.1101 44.4803C85.8501 44.2203 85.4401 44.0203 84.8701 43.8803L84.1601 43.8103C83.5901 43.8103 82.9401 44.0503 82.2101 44.5203C81.4801 44.9903 80.3801 46.1503 78.9101 48.0003C76.1601 51.4103 74.0701 54.5803 72.6301 57.5103C71.1901 60.4503 70.4601 62.1503 70.4601 62.6203H70.5301H70.5101ZM99.3401 58.0103L99.8401 57.5103C100.17 57.2303 100.49 56.9203 100.8 56.5903C101.11 56.2603 101.36 55.9803 101.55 55.7403C101.88 55.3103 102.05 55.0803 102.05 55.0303C102 55.0303 101.43 55.6203 100.35 56.8003C99.6901 57.5603 99.3601 57.9603 99.3601 58.0103H99.3401Z" fill="#BBB573"/>
<path d="M103.87 72.6302C103.59 72.6302 103.4 72.6202 103.3 72.5902C103.21 72.5702 103.09 72.4802 102.95 72.3402C102.81 72.2002 102.6 72.0602 102.31 71.9102C102.17 71.9102 101.98 71.7902 101.74 71.5602L100.82 69.8602L101.17 68.2302C101.79 65.3002 103.16 61.3702 105.29 56.4402L109.41 46.5702C110.26 44.6302 111.07 42.9502 111.82 41.5302C112.58 40.1102 113.07 39.1902 113.31 38.7602C113.69 37.9102 114.04 37.3202 114.38 36.9902C114.57 36.8002 114.66 36.6202 114.66 36.4602C114.66 36.3002 114.74 36.2102 114.91 36.2102C115.08 36.2102 115.18 36.1902 115.23 36.1402L116.65 35.9302C116.84 35.9302 117 36.0502 117.15 36.2802C117.39 36.5202 117.59 36.6302 117.75 36.6302C117.91 36.6302 118 36.7502 118 36.9902C118 37.2302 117.92 37.5502 117.75 37.9502C117.58 38.3502 117.5 38.6202 117.5 38.7702C117.5 38.9202 117.24 39.4102 116.72 40.2602C115.35 42.5802 114.38 44.5902 113.81 46.2902L111.89 51.0502C111.23 52.7102 110.79 53.8302 110.58 54.4202C110.37 55.0102 110.26 55.3302 110.26 55.3802C110.35 55.3802 110.63 55.0002 111.08 54.2402C111.53 53.4802 111.83 53.1002 111.97 53.1002V53.1702C111.97 53.2702 111.95 53.4002 111.9 53.5602C111.85 53.7302 111.77 53.8702 111.65 53.9902C111.53 54.1102 111.33 54.4202 111.05 54.9102C110.77 55.4102 110.46 55.9402 110.13 56.5102C109.47 57.6502 109.14 58.3102 109.14 58.5002C109.19 58.5002 110.18 56.9902 112.12 53.9602C113.35 52.0202 114.53 50.3402 115.67 48.9202C118.13 45.8002 119.81 43.8602 120.71 43.1002C121.37 42.5302 121.7 42.2002 121.7 42.1102L121.06 42.5402C120.25 43.1102 119.62 43.6302 119.14 44.1002C117.53 45.7102 115.59 48.1502 113.32 51.4102C112.66 52.4502 112.26 52.9702 112.11 52.9702V52.9002C112.11 52.6602 112.54 51.9802 113.39 50.8402C114.05 49.8902 115.52 48.0002 117.79 45.1602C119.92 42.7002 121.53 41.4702 122.62 41.4702C123.19 41.4702 123.8 41.5702 124.47 41.7502C124.9 41.8902 125.16 42.0502 125.25 42.2102C125.34 42.3802 125.43 42.5202 125.5 42.6402C125.57 42.7602 125.65 42.8402 125.75 42.8902C126.03 43.0802 126.34 43.4102 126.67 43.8802C127.28 44.8302 127.73 46.5502 128.02 49.0602C128.45 51.7602 128.92 53.2302 129.44 53.4602C129.53 53.5102 129.68 53.5302 129.87 53.5302L130.65 53.4602C131.36 53.3702 132.26 52.9602 133.35 52.2502C134.11 51.6802 135.08 50.9002 136.26 49.9102C137.02 49.0602 137.51 48.6302 137.75 48.6302C137.89 48.6302 137.96 48.7302 137.96 48.9102C137.96 49.1902 137.85 49.6702 137.64 50.3302C137.43 50.9902 137.15 51.5802 136.82 52.1002C135.59 53.7102 134.59 54.7402 133.84 55.1902C133.08 55.6402 132.06 55.8602 130.79 55.8602C130.32 55.8602 129.98 55.7902 129.8 55.6502C128.76 55.3202 127.69 54.3702 126.6 52.8102C125.7 51.5802 125.11 50.4702 124.82 49.4702C124.68 48.9002 124.55 47.8502 124.43 46.3102C124.31 44.7702 124.2 43.9402 124.11 43.8202C124.01 43.7002 123.92 43.6402 123.83 43.6402C123.73 43.6902 123.55 43.7802 123.26 43.9202C122.98 44.0602 122.83 44.2002 122.83 44.3502L122.9 44.4902H122.69C122.5 44.4902 122.31 44.5902 122.12 44.7702C121.93 44.9602 121.84 45.1502 121.84 45.3402L121.98 45.4802H121.77C121.67 45.4802 121.49 45.5802 121.2 45.7602C120.49 46.2802 119.85 46.9402 119.28 47.7502C119.04 48.0802 118.81 48.2702 118.57 48.3202C118.33 48.3702 118.07 48.7002 117.79 49.3102C117.79 49.6402 117.67 49.8102 117.44 49.8102C117.2 49.9102 117.09 50.0702 117.09 50.3102L117.16 50.4502C117.16 50.5902 117.06 50.7602 116.88 50.9502C116.36 51.5202 115.53 52.8002 114.4 54.7802L114.33 54.9202C114 55.4902 113.7 55.9802 113.44 56.4102C113.18 56.8402 113.01 57.0802 112.94 57.1602C112.87 57.2402 112.8 57.3702 112.73 57.5902C112.66 57.8002 112.58 58.0302 112.48 58.2602C111.77 60.0602 111.04 61.5702 110.28 62.8002C109.95 63.3702 109.65 63.8902 109.39 64.3602C109.13 64.8302 108.93 65.1702 108.79 65.3502L106.73 69.0402C106.45 69.5102 106.23 69.8802 106.09 70.1402C105.95 70.4002 105.73 70.7202 105.45 71.1002C104.79 72.0902 104.27 72.5902 103.89 72.5902L103.87 72.6302ZM102.95 68.5802L103.09 68.4402C103.14 68.3502 103.2 68.2402 103.27 68.1202C103.34 68.0002 103.38 67.9202 103.38 67.8702C103.33 67.8702 103.24 67.9402 103.1 68.0802C102.96 68.2202 102.89 68.3602 102.89 68.5102C102.89 68.5602 102.91 68.5802 102.96 68.5802H102.95ZM103.09 67.1602C103.33 67.1602 104.18 65.2202 105.65 61.3402L106.5 59.0702C106.74 58.3102 106.9 57.9102 107 57.8602C107.09 57.8102 107.14 57.6902 107.14 57.5102C107.14 57.3302 107.26 56.9902 107.49 56.5202C107.58 56.3802 107.7 56.1402 107.84 55.8102C107.98 55.4802 108.15 55.1202 108.34 54.7502C108.72 53.9902 108.91 53.5002 108.91 53.2602L108.84 53.1902H108.56C108.37 53.2402 108.21 53.4302 108.06 53.7602L107.92 54.2602H107.99C107.99 54.2602 107.97 54.3602 107.92 54.4002C107.87 54.4502 107.81 54.5302 107.74 54.6502C107.67 54.7702 107.56 54.9802 107.42 55.2902C107.28 55.6002 107.14 55.9302 106.99 56.2802C106.84 56.6302 106.72 56.9502 106.6 57.2402C106.48 57.5202 106.42 57.7102 106.42 57.8102C106.51 57.8102 106.59 57.7902 106.63 57.7402C106.68 57.6902 106.72 57.6702 106.77 57.6702V57.7402L106.7 57.8802C106.7 57.8802 106.6 57.9502 106.56 57.9502H106.42C106.32 57.9502 106.25 58.0202 106.21 58.1602C106.16 58.3002 106.06 58.5902 105.89 59.0102C105.72 59.4402 105.52 59.9302 105.29 60.5002C104.58 62.2502 104.22 63.2502 104.22 63.4802V63.5502L104.36 63.4802V63.5502C104.36 63.7902 104.29 63.9002 104.15 63.9002L104.01 63.8302L104.08 63.9702C104.13 64.0702 104.15 64.1802 104.15 64.3202C104.15 64.6002 104.08 64.7502 103.94 64.7502H103.87C103.87 64.7502 103.8 64.7702 103.8 64.8202L103.94 65.1002C103.94 65.1002 103.86 65.1802 103.69 65.2102C103.52 65.2302 103.44 65.2902 103.44 65.3902L103.58 65.6702C103.58 65.9502 103.5 66.2502 103.33 66.5602C103.16 66.8702 103.08 67.0502 103.08 67.0902V67.1602H103.09ZM108.41 52.9602C108.41 52.9602 108.5 52.9102 108.55 52.8202C108.6 52.7302 108.66 52.6202 108.73 52.5002C108.8 52.3802 108.84 52.3002 108.84 52.2502C108.74 52.2502 108.63 52.3902 108.49 52.6802L108.42 52.9602H108.41ZM108.84 52.0402C108.84 52.0402 108.93 51.9702 108.98 51.8302L109.05 51.6902C109.05 51.6902 109.03 51.6202 108.98 51.6202L108.84 51.7602C108.84 51.7602 108.77 51.8602 108.77 51.9002C108.77 52.0002 108.79 52.0402 108.84 52.0402Z" fill="#BBB573"/>
<path d="M142.92 79.24H141.93C141.46 79.24 141.15 79.11 141.01 78.85C140.87 78.59 140.56 78.46 140.09 78.46H139.88C139.55 78.46 139.22 78.34 138.89 78.11C138.08 77.5 137.33 76.64 136.62 75.55C135.91 74.46 135.56 72.71 135.56 70.3C135.56 69.83 135.62 68.64 135.74 66.75C135.86 64.86 136.63 60.86 138.05 54.75C138.52 52.81 138.76 51.6 138.76 51.13C138.76 50.99 138.7 50.89 138.58 50.85C138.46 50.8 138.31 50.67 138.12 50.46C137.93 50.25 137.74 50.14 137.55 50.14L137.34 50.21C137.2 50.21 137.13 50.09 137.13 49.86C137.13 49.15 137.82 47.21 139.19 44.04C140.09 42.15 141.13 39.76 142.31 36.87C143.16 34.93 143.69 33.86 143.91 33.67C144.12 33.48 144.47 33.39 144.94 33.39C145.37 33.39 145.63 33.46 145.72 33.6C145.81 33.74 145.93 33.79 146.07 33.74H146.42C146.61 33.74 146.8 33.85 146.99 34.06C147.18 34.27 147.39 34.38 147.63 34.38C147.87 34.38 148.06 34.43 148.2 34.52C148.44 34.8 148.55 35.23 148.55 35.8C148.55 36.27 148.45 36.65 148.27 36.94C148.22 36.99 148.16 37.11 148.09 37.29C148.02 37.48 147.94 37.69 147.84 37.93C147.74 38.45 147.58 39.03 147.34 39.67C147.1 40.31 146.91 40.75 146.77 40.98C146.15 42.21 145.55 44.21 144.96 46.98C144.37 49.75 144 51.37 143.86 51.84C141.78 60.69 140.74 67.56 140.74 72.43C140.74 73.38 140.79 74.18 140.88 74.84C140.97 75.22 141.05 75.55 141.09 75.83C141.14 76.11 141.21 76.26 141.3 76.26C141.58 76.26 142.1 76 142.86 75.48C143.95 74.72 145.23 73.45 146.69 71.65C147.87 70.23 148.89 68.91 149.74 67.67C150.59 66.44 151.16 65.68 151.44 65.4C151.72 65.12 152.32 64.34 153.22 63.06C153.79 62.35 154.54 61.29 155.49 59.86C156.29 58.82 156.7 58.26 156.7 58.19C156.7 58.12 156.72 57.92 156.77 57.59C156.82 57.54 156.89 57.46 156.98 57.34C157.07 57.22 157.24 57.06 157.48 56.84C157.72 56.63 157.91 56.31 158.05 55.88C158.19 55.45 158.32 55.23 158.44 55.21C158.56 55.19 158.65 55.15 158.72 55.1C158.79 55.05 158.83 54.98 158.83 54.89C158.83 54.8 159.07 54.35 159.54 53.54L161.39 50.27C161.44 50.18 161.51 50.13 161.6 50.13C161.69 50.13 162.4 48.9 163.73 46.44C163.87 46.06 164.04 45.78 164.23 45.59C164.42 45.4 164.8 44.86 165.37 43.96C165.61 43.58 165.91 43.01 166.29 42.26L167.5 39.92C169.01 37.13 169.77 35.26 169.77 34.31C169.77 33.93 169.69 33.71 169.52 33.64C169.35 33.57 169.27 33.49 169.27 33.39C169.27 33.29 169.41 33.25 169.7 33.25L170.2 33.32C170.96 33.46 171.34 33.65 171.34 33.89C171.34 33.94 171.3 33.97 171.23 34C171.16 34.02 171.12 34.06 171.12 34.11C171.12 34.16 171.31 34.18 171.69 34.18C172.35 34.23 172.77 34.43 172.93 34.78C173.1 35.13 173.18 35.55 173.18 36.02C173.18 36.87 172.99 37.8 172.61 38.79C171.99 40.35 171.28 41.8 170.48 43.12C170.24 43.36 169.77 44.18 169.06 45.6L168.14 47.09C167.57 48.13 167.03 49.08 166.51 49.93C165.8 51.35 165.41 52.11 165.34 52.2C165.27 52.3 164.24 53.98 162.25 57.24L158.2 63.84C153.56 71.08 150.86 74.96 150.11 75.48C149.78 75.72 149.61 75.91 149.61 76.05C149.61 76.19 149.16 76.55 148.26 77.12C147.93 77.36 147.35 77.77 146.52 78.36C145.69 78.95 144.5 79.25 142.93 79.25L142.92 79.24ZM136.96 72.78C136.96 72.78 137.03 72.76 137.03 72.71L136.96 70.44C136.96 69.87 137.02 69.53 137.14 69.41C137.26 69.29 137.32 69.21 137.32 69.16L137.18 69.23C137.08 69.23 137.01 69.21 136.97 69.16C136.97 68.73 137.04 68.07 137.18 67.17C137.23 66.56 137.29 66.02 137.36 65.57C137.43 65.12 137.48 64.88 137.5 64.86C137.52 64.84 137.65 64.11 137.89 62.69L138.96 57.93C139.1 57.36 139.22 57.05 139.31 57.01C139.36 57.06 139.38 57.15 139.38 57.29C139.38 57.57 139.28 57.95 139.1 58.43C139.1 58.62 139.12 58.71 139.17 58.71C139.26 58.71 139.43 58.2 139.67 57.18C139.91 56.16 140.12 54.97 140.31 53.59C140.5 52.22 140.66 51.18 140.81 50.47L140.88 49.9C140.88 49.9 140.78 49.97 140.74 50.11C140.69 50.25 140.5 50.94 140.17 52.17C139.55 54.25 138.75 57.35 137.76 61.47C137.57 62.37 137.38 63.55 137.19 65.02C136.91 67.2 136.76 69.19 136.76 70.98C136.76 71.41 136.78 71.76 136.83 72.05L136.97 72.76L136.96 72.78ZM137.1 73.42C137.1 73.42 137.18 73.4 137.21 73.35C137.23 73.3 137.25 73.23 137.25 73.14L137.18 73L137.11 73.21V73.42H137.1ZM137.74 67.17C137.74 67.17 137.82 67.11 137.85 66.99C137.87 66.87 137.89 66.79 137.89 66.74C137.84 66.65 137.79 66.6 137.75 66.6L137.68 66.88C137.68 67.07 137.7 67.16 137.75 67.16L137.74 67.17ZM137.74 66.18C137.83 66.18 137.88 65.97 137.88 65.54C137.83 65.54 137.78 65.66 137.74 65.89V66.17V66.18ZM138.17 63.55C138.26 63.55 138.31 63.46 138.31 63.27C138.31 63.18 138.26 63.13 138.17 63.13C138.12 63.13 138.1 63.23 138.1 63.41C138.1 63.51 138.12 63.55 138.17 63.55ZM138.1 64.76L138.24 64.19L138.17 63.98C138.17 63.98 138.1 64.09 138.1 64.3V64.76ZM138.95 74.63L139.02 74.49L138.88 73.78C138.74 73.17 138.67 72.38 138.67 71.44C138.67 69.26 139.21 65.48 140.3 60.08C140.82 57.52 141.08 55.92 141.08 55.25C141.08 54.82 141.03 54.61 140.94 54.61C140.89 54.61 140.82 54.92 140.73 55.53C140.68 55.96 140.54 56.76 140.3 57.94L138.74 65.32C138.5 66.5 138.39 68.18 138.39 70.36C138.39 71.59 138.45 72.61 138.57 73.41C138.69 74.22 138.82 74.62 138.96 74.62L138.95 74.63ZM138.45 62.13L138.52 62.06V61.71C138.42 61.71 138.38 61.81 138.38 61.99C138.38 62.09 138.4 62.13 138.45 62.13ZM138.73 61.21L138.8 61.14V60.57L138.73 60.5L138.66 60.85C138.66 61.09 138.68 61.2 138.73 61.2V61.21ZM138.87 60.29C139.01 60.29 139.08 60.1 139.08 59.72V59.58C139.08 59.58 138.96 59.65 138.87 59.79C138.77 59.93 138.73 60.05 138.73 60.14C138.73 60.23 138.78 60.28 138.87 60.28V60.29ZM154.7 62.7C154.7 62.7 154.85 62.61 155.02 62.42C155.19 62.23 155.47 61.88 155.87 61.35C156.27 60.83 156.71 60.24 157.18 59.58C159.12 56.84 160.42 54.85 161.09 53.62C161.56 52.67 162.13 51.7 162.79 50.71C164.54 47.97 166.13 45.29 167.55 42.69C168.12 41.55 168.48 40.89 168.65 40.7C168.82 40.51 169.06 40.11 169.4 39.49C170.63 37.27 171.25 35.85 171.25 35.23C171.25 34.99 171.2 34.88 171.11 34.88C171.02 34.88 170.92 35.01 170.83 35.27C170.73 35.53 170.64 35.77 170.55 35.98C170.45 36.19 170.38 36.38 170.34 36.55C170.29 36.72 170.17 36.89 169.99 37.08C169.94 37.08 169.89 37.14 169.85 37.26C169.8 37.38 169.78 37.52 169.78 37.69C169.78 37.86 169.73 37.99 169.64 38.08C169.5 38.08 168.72 39.31 167.3 41.77V41.91C166.64 43 166.12 43.87 165.74 44.54C165.36 45.2 164.99 45.79 164.64 46.31C164.29 46.83 164.11 47.23 164.11 47.52C164.01 47.71 163.92 47.8 163.83 47.8C163.74 47.8 163.5 48.18 163.12 48.94L162.48 50C161.96 50.71 161.7 51.17 161.7 51.38C161.7 51.59 161.62 51.76 161.45 51.88C161.28 52 160.92 52.51 160.35 53.41C160.16 53.79 159.81 54.4 159.29 55.26C156.26 59.95 154.75 62.43 154.75 62.72L154.7 62.7ZM159.39 59.22C159.48 59.22 159.86 58.68 160.53 57.59C160.81 57.12 161.07 56.69 161.31 56.31C161.55 55.93 161.66 55.7 161.66 55.6V55.53C161.66 55.53 161.51 55.63 161.34 55.81C161.17 56 161.01 56.22 160.84 56.48C160.67 56.74 160.52 56.95 160.38 57.12C160.24 57.29 160.14 57.37 160.1 57.37H160.03C160.03 57.37 159.91 57.45 159.82 57.62C159.72 57.79 159.63 58 159.54 58.26C159.44 58.52 159.37 58.75 159.33 58.93C159.33 59.12 159.35 59.21 159.4 59.21L159.39 59.22ZM161.87 55.17L161.94 55.03C161.99 54.94 162.01 54.79 162.01 54.6V54.53C162.01 54.53 161.89 54.6 161.8 54.74C161.7 54.88 161.66 55 161.66 55.09C161.66 55.14 161.73 55.16 161.87 55.16V55.17ZM162.37 54.25L162.44 54.18V53.9L162.37 53.83C162.37 53.83 162.3 53.93 162.3 54.11C162.3 54.21 162.32 54.25 162.37 54.25ZM163.01 53.11C163.01 53.11 163.15 53.02 163.29 52.83C163.43 52.64 163.62 52.4 163.86 52.12C164.1 51.84 164.3 51.53 164.46 51.2C164.63 50.87 164.73 50.63 164.78 50.49L164.85 50.35C164.85 50.35 164.83 50.28 164.78 50.28C164.59 50.28 164.5 50.36 164.5 50.53C164.5 50.7 164.39 50.92 164.18 51.2C163.97 51.48 163.79 51.77 163.65 52.05L163.01 53.11ZM164.15 50.48C164.29 50.48 164.36 50.41 164.36 50.27C164.36 50.22 164.29 50.2 164.15 50.2L163.94 50.34C163.94 50.34 164.01 50.44 164.15 50.48ZM165.14 49.84C165.28 49.84 165.48 49.57 165.74 49.02C166 48.48 166.13 48.16 166.13 48.06C166.03 48.06 165.73 48.51 165.21 49.41L165 49.69L165.07 49.76C165.07 49.76 165.09 49.83 165.14 49.83V49.84ZM166.13 47.92C166.13 47.92 166.26 47.86 166.38 47.74C166.5 47.62 166.56 47.54 166.56 47.49H166.42C166.42 47.49 166.31 47.54 166.24 47.63C166.17 47.73 166.13 47.8 166.13 47.84V47.91V47.92ZM166.7 47.14C166.79 47.09 166.89 46.99 166.98 46.82C167.07 46.65 167.18 46.45 167.3 46.22C167.42 45.98 167.57 45.7 167.76 45.37C167.95 45.04 168.13 44.73 168.29 44.45C168.46 44.17 168.54 44 168.54 43.95L168.4 44.09C168.12 44.42 167.57 45.32 166.77 46.79L166.63 47.07C166.63 47.07 166.65 47.14 166.7 47.14Z" fill="#BBB573"/>
<path d="M174.37 74.4803H173.16C171.03 74.4803 169.16 73.4903 167.55 71.5003C167.31 71.1702 167.1 70.8903 166.91 70.6503C166.72 70.4103 166.63 70.2503 166.63 70.1503C166.63 69.9603 166.73 69.3203 166.91 68.2303C167.34 65.2503 167.72 63.2803 168.05 62.3403L168.19 61.7703C168.33 61.3003 168.46 60.7903 168.58 60.2403C168.7 59.7003 168.95 58.9703 169.33 58.0703C169.47 57.7903 169.85 56.7703 170.47 55.0203C170.94 53.7003 171.58 52.2503 172.39 50.6903L173.24 48.8403C173.9 47.4703 174.42 46.3903 174.8 45.6103C175.18 44.8303 175.75 43.8703 176.5 42.7303C177.16 41.8803 177.58 41.4203 177.74 41.3503C177.91 41.2803 178.13 41.2403 178.41 41.2403C178.65 41.2403 178.88 41.2903 179.12 41.3803C179.36 41.4803 179.72 41.6903 180.22 42.0203C180.72 42.3503 181.18 42.6603 181.6 42.9403L181.67 43.7903C181.67 44.3103 181.53 44.8503 181.24 45.4203L179.04 49.6803C178.61 50.5303 178.18 51.3803 177.73 52.2403C177.28 53.0903 176.84 53.8703 176.42 54.5803C176.28 54.7703 175.97 55.4103 175.5 56.5003C175.12 57.3503 174.86 57.9003 174.72 58.1303C174.1 59.3103 173.47 60.9002 172.8 62.8903C172.14 64.8803 171.69 66.5603 171.45 67.9303C171.35 68.5903 171.24 68.9202 171.1 68.9202C170.96 68.9202 170.85 68.9603 170.78 69.0303C170.71 69.1003 170.67 69.1803 170.67 69.2803C170.67 69.3302 170.69 69.3503 170.74 69.3503L171.02 69.2103C171.16 69.2103 171.23 69.3302 171.23 69.5602C171.23 69.7002 171.19 69.8203 171.12 69.9103C171.05 70.0103 171.01 70.1502 171.01 70.3402L171.15 71.9703L172.07 71.7603C173.21 71.5203 175.05 70.3203 177.61 68.1403C180.4 65.6803 183.41 62.5603 186.63 58.7703C189.85 54.9803 192.5 51.4603 194.58 48.1903C195.34 46.8703 195.8 46.1803 195.96 46.1303C196.13 46.0803 196.37 45.8003 196.71 45.2803L197.28 44.5003V44.5703C197.28 44.8103 197.16 45.1403 196.93 45.5603C196.46 46.2703 196.17 46.6403 196.08 46.6603C195.98 46.6803 195.94 46.7703 195.94 46.9103V46.9803C195.94 47.3103 195.42 48.3103 194.38 49.9603C194.14 50.2903 194.03 50.4803 194.03 50.5303H194.1C194.1 50.5303 194.21 50.4703 194.28 50.3503C194.35 50.2303 194.49 50.0203 194.71 49.7103C194.92 49.4003 195.31 48.7603 195.88 47.7903C196.45 46.8203 196.8 46.3303 196.95 46.3303C197.04 46.3303 197.12 46.4003 197.16 46.5403C197.16 46.6403 197.1 46.7703 196.98 46.9303C196.86 47.1003 196.42 47.7503 195.67 48.8803C194.15 51.3403 193 53.0903 192.19 54.1303C192 54.5603 191.91 54.8403 191.91 54.9803V55.0503C191.91 55.0503 192.1 54.9203 192.34 54.6603C192.58 54.4003 192.92 53.9703 193.37 53.3803C193.82 52.7903 194.26 52.1703 194.68 51.5303C195.11 50.8903 195.46 50.3403 195.75 49.8603C196.03 49.3903 196.18 49.1303 196.18 49.0803L196.11 48.9403H196.32C196.41 48.9403 196.52 48.8503 196.64 48.6603C196.76 48.4703 196.82 48.2803 196.82 48.0903L196.75 47.9503C196.75 47.8103 196.92 47.4503 197.25 46.8903L197.32 47.6003C197.32 48.3103 196.73 49.7103 195.54 51.7903C194.21 54.0603 192.72 56.4303 191.07 58.8903C190.26 60.0303 188.99 61.6603 187.24 63.7903C185.49 65.9203 184.38 67.1002 183.9 67.3402C183.71 67.4402 183.62 67.5503 183.62 67.6903C183.62 67.8303 183.34 68.2103 182.77 68.8303C181.35 70.3003 179.91 71.5002 178.44 72.4502C176.45 73.7803 175.1 74.4403 174.39 74.4403L174.37 74.4803ZM184.38 35.2203C184.28 35.2203 184.21 35.2003 184.17 35.1503C184.12 35.1003 184.02 35.0703 183.85 35.0403C183.68 35.0203 183.48 35.0003 183.25 35.0003C183.02 35.0003 182.81 34.9603 182.65 34.8903C182.48 34.8203 182.32 34.6803 182.15 34.4603C181.98 34.2503 181.84 34.0703 181.72 33.9303C181.6 33.7903 181.53 33.6803 181.51 33.6103C181.49 33.5403 181.44 33.4703 181.37 33.4003C181.3 33.3303 181.24 33.2503 181.19 33.1503C181.05 33.1003 180.98 33.0103 180.98 32.8703C180.98 32.7803 181.04 32.6103 181.16 32.3703C181.28 32.1303 181.46 31.7603 181.69 31.2303C182.35 30.0503 183.37 28.5803 184.74 26.8303C187.48 23.2803 189.28 21.5103 190.14 21.5103C190.42 21.5103 190.71 21.8403 190.99 22.5003C191.18 22.8303 191.3 23.0903 191.34 23.2803C191.34 23.4703 191.29 23.6703 191.2 23.8803C191.1 24.0903 191.06 24.3303 191.06 24.5903C191.06 24.8503 190.73 25.4503 190.07 26.4003C188.65 28.2503 187.49 30.0903 186.59 31.9403C185.5 34.1203 184.77 35.2103 184.39 35.2103L184.38 35.2203ZM190.84 56.3103L191.27 56.1702L190.56 55.8903C190.42 55.8903 190.35 55.9603 190.35 56.1003C190.4 56.2402 190.56 56.3103 190.85 56.3103H190.84Z" fill="#BBB573"/>
<path d="M204.27 79.5204H203.42C201.34 79.5204 199.21 78.8604 197.03 77.5304C195.61 76.6804 194.55 75.7304 193.83 74.6904C193.74 74.4504 193.48 74.0304 193.05 73.4104C191.35 71.1904 190.49 68.7704 190.49 66.1704C190.49 65.0304 190.63 63.8504 190.92 62.6204C192.39 56.4204 196.1 49.8204 202.07 42.8104C203.16 41.5804 204.28 40.3804 205.44 39.2204C206.6 38.0604 207.62 37.1104 208.49 36.3804C209.37 35.6504 209.93 35.2804 210.19 35.2804C210.45 35.2804 210.82 35.0704 211.29 34.6404C212.09 33.9304 213.25 33.2304 214.77 32.5504C216.28 31.8604 217.78 31.3604 219.24 31.0204C220.42 30.7804 221.51 30.6704 222.51 30.6704C224.36 30.6704 225.87 31.1004 227.05 31.9504C228.61 32.9404 229.49 34.2204 229.68 35.7804L229.75 36.9904C229.75 37.2304 229.7 37.4904 229.61 37.7704C229.04 39.6204 228.62 40.8704 228.33 41.5304C228.05 42.1904 227.55 43.0904 226.84 44.2304C226.65 44.5604 226.56 44.7504 226.56 44.8004C226.56 44.8504 226.37 45.1804 225.99 45.7904C223.1 50.4304 220.52 53.4804 218.25 54.9504C217.54 55.3304 216.76 55.5204 215.91 55.5204C215.77 55.5204 215.39 55.5004 214.77 55.4504C214.15 55.4004 213.42 55.0704 212.57 54.4604C211.48 53.5604 210.94 52.6604 210.94 51.7604L211.01 50.7004C212.48 50.7004 213.33 50.7504 213.57 50.8404C213.81 50.9404 214.09 51.1004 214.42 51.3404C215.03 51.8104 215.37 52.0504 215.41 52.0504C215.6 52.0504 216.06 51.7304 216.79 51.0904C217.52 50.4504 218.25 49.7104 218.96 48.8504C221.09 46.4404 223.08 43.4304 224.92 39.8304C225.35 38.9804 225.65 38.3304 225.84 37.8804C226.03 37.4304 226.15 37.0604 226.19 36.7804C226.24 36.5004 226.26 36.1404 226.26 35.7204C226.26 34.8204 226.21 34.1804 226.12 33.8004C225.93 33.0404 224.94 32.6604 223.14 32.6604C221.58 32.6604 220.09 33.1604 218.67 34.1504C218.34 34.3404 217.95 34.5804 217.5 34.8604C217.05 35.1404 216.62 35.3904 216.22 35.6104C215.82 35.8204 215.39 36.0704 214.94 36.3604C214.49 36.6404 214.13 36.8804 213.88 37.0704C213.62 37.2604 213.38 37.4104 213.17 37.5304C212.96 37.6504 212.82 37.7104 212.74 37.7104C212.66 37.7104 212.05 38.2704 210.89 39.3804C209.73 40.4904 208.48 41.7404 207.13 43.1104C205.78 44.4804 204.69 45.6404 203.86 46.5904C203.03 47.5404 202.11 48.7204 201.09 50.1404C200.07 51.5604 199.17 52.9004 198.39 54.1504C197.61 55.4004 197.15 56.2904 197.01 56.8104C196.96 57.0004 196.86 57.3204 196.69 57.7704C196.52 58.2204 196.32 58.7204 196.09 59.2604C195.85 59.8004 195.6 60.4804 195.34 61.2804C195.08 62.0904 194.85 62.8204 194.67 63.4804C194.43 64.4304 194.27 65.2004 194.17 65.7904C194.08 66.3804 194.03 67.1704 194.03 68.1704C194.03 69.4004 194.14 70.4104 194.35 71.1904C194.56 71.9704 194.91 72.7204 195.38 73.4304C195.71 73.8604 196.33 74.3204 197.23 74.8104C198.13 75.3104 199.04 75.6704 199.96 75.9104C200.88 76.1504 201.89 76.2604 202.98 76.2604C204.92 76.2604 207.05 75.9104 209.37 75.2004C219.83 71.7504 229.63 65.6904 238.76 57.0204C240.27 55.5104 241.46 54.2504 242.31 53.2604C242.69 52.6504 243.33 51.8204 244.23 50.7804C244.8 50.0204 245.2 49.4404 245.44 49.0404C245.68 48.6404 245.87 48.4404 246.01 48.4404C246.15 48.4404 246.39 48.2004 246.72 47.7304C247.05 47.2604 247.26 47.0204 247.36 47.0204V47.0904C247.36 47.3304 247.12 47.9204 246.65 48.8704L247.29 48.2304V48.7304C247.29 48.9204 247.34 49.0104 247.43 49.0104C247.52 49.0104 247.57 49.1104 247.57 49.2904C247.57 49.6204 247.31 50.3104 246.79 51.3504C246.13 52.5304 245.26 53.7404 244.2 54.9704C243.14 56.2004 242.54 57.0204 242.43 57.4204C242.31 57.8204 241.8 58.5004 240.9 59.4404C238.3 62.1404 236.02 64.2204 234.08 65.6904C232.33 67.1104 230.33 68.5504 228.08 70.0204C225.83 71.4904 224.4 72.4804 223.78 73.0004C222.26 74.0904 220.04 75.2404 217.11 76.4404C214.17 77.6504 211.65 78.4604 209.55 78.8904C207.44 79.3204 205.68 79.5304 204.26 79.5304L204.27 79.5204ZM191.56 65.3904L191.84 63.9004C191.94 63.1004 192.12 62.2704 192.41 61.4104C192.84 60.0904 193.64 58.1904 194.82 55.7304C195.58 54.3604 195.96 53.5504 195.96 53.3204L195.89 53.2504L195.82 53.3204C195.35 53.7904 194.54 55.3804 193.41 58.0804C192.56 60.1204 192.04 61.6304 191.85 62.6204C191.76 63.0504 191.66 63.9704 191.57 65.3904H191.56ZM197.17 51.1204C197.26 51.1204 197.43 50.9504 197.67 50.6204L198.17 49.8404C198.17 49.8404 197.94 50.0204 197.64 50.3704C197.33 50.7204 197.18 50.9704 197.18 51.1204H197.17ZM198.38 49.3504C198.47 49.3504 198.66 49.1604 198.95 48.7804C199.23 48.4004 199.38 48.1404 199.38 48.0004L199.1 48.3504C198.86 48.5904 198.69 48.7904 198.57 48.9504C198.45 49.1204 198.39 49.2204 198.39 49.2704V49.3404L198.38 49.3504ZM200.58 46.3004C200.58 46.3004 200.73 46.2304 200.9 46.0904C201.07 45.9504 201.28 45.7204 201.54 45.4204C201.8 45.1104 202.02 44.7904 202.21 44.4604L202.28 44.3204C202.28 44.3204 202.04 44.5104 201.71 44.8904C201.38 45.2704 201.11 45.5804 200.89 45.8104C200.68 46.0504 200.57 46.2104 200.57 46.3104L200.58 46.3004ZM227.7 69.6604C227.79 69.6604 228.5 69.2104 229.83 68.3104C230.3 67.9304 230.85 67.5204 231.46 67.0704C232.07 66.6204 232.6 66.2104 233.02 65.8304L235.01 64.3404C236.48 63.0604 237.9 61.6704 239.27 60.1504C241.12 58.1604 242.11 56.8804 242.25 56.3204C242.25 56.2704 242.23 56.2504 242.18 56.2504C241.99 56.2504 241.3 56.8904 240.12 58.1704C238.56 59.7304 237.42 60.8904 236.71 61.6504C236 62.4104 235.65 62.8304 235.65 62.9304V63.1404L235.51 63.0704C235.37 63.0704 235.11 63.2104 234.73 63.5004C234.54 63.6904 233.9 64.2104 232.81 65.0604C232.57 65.2004 232.36 65.3704 232.17 65.5604C229.66 67.5004 228.41 68.5504 228.41 68.7204C228.41 68.8904 228.29 69.0704 228.06 69.2904C227.82 69.5004 227.71 69.6304 227.71 69.6804L227.7 69.6604ZM242.89 55.6704C243.08 55.6704 243.32 55.4304 243.6 54.9604C243.74 54.7204 243.92 54.4504 244.13 54.1404C244.34 53.8304 244.45 53.6104 244.45 53.4704L243.67 54.3904C243.15 55.1504 242.89 55.5504 242.89 55.6004V55.6704Z" fill="#BBB573"/>
<path d="M250.13 71.7103C249.47 71.7103 249.01 71.6303 248.75 71.4603C248.49 71.2903 248.29 71.2103 248.15 71.2103L247.94 71.2803C247.75 71.2803 247.29 71.0203 246.56 70.5003C245.83 69.9803 245.07 69.3403 244.29 68.5803C243.51 67.8203 242.93 67.1503 242.55 66.5603C242.17 65.9703 241.79 65.6403 241.41 65.5703C241.03 65.5003 240.84 65.4203 240.84 65.3203C240.84 65.1803 241.01 65.0403 241.34 64.8903C241.67 64.7503 241.84 64.6103 241.84 64.4603L241.77 64.2503C241.58 63.5403 241.49 62.8103 241.49 62.0503C241.49 60.0603 242.06 57.7903 243.19 55.2303C243.95 53.6203 244.94 51.8503 246.17 49.9103C247.4 47.9703 248.42 46.5503 249.22 45.6503L250.92 43.7303C252.58 41.7003 253.78 40.5803 254.54 40.3903C254.73 40.3403 254.99 40.3203 255.32 40.3203L258.37 40.8903C259.93 41.1703 261.42 42.0703 262.84 43.5903C264.54 45.1503 265.4 46.6203 265.4 47.9903C265.4 50.5003 263.84 53.3903 260.71 56.6503C258.77 58.6903 255.81 60.8403 251.83 63.1103C250.31 64.0103 248.64 64.8403 246.79 65.5903C245.89 66.0203 245.44 66.2803 245.44 66.3703C245.49 66.8003 245.94 67.1303 246.79 67.3603C247.36 67.5503 248 67.6403 248.71 67.6403L249.56 67.5703C254.1 67.1403 258.62 65.4603 263.12 62.5303C264.3 61.8203 264.97 61.4703 265.11 61.4703C265.25 61.4703 265.44 61.3803 265.68 61.1903C266.29 60.7603 266.6 60.4903 266.6 60.3703C266.6 60.2503 266.79 60.0303 267.17 59.7003C268.12 58.8503 268.66 58.4203 268.8 58.4203H268.87L268.44 58.9903L268.51 59.0603C268.6 59.0603 269.29 58.5403 270.57 57.5003C271.09 57.0303 271.65 56.5503 272.24 56.0803C272.83 55.6103 273.32 55.2003 273.7 54.8703C275.31 53.6403 276.94 52.1503 278.6 50.4003L282.72 46.0003C285.7 42.7303 287.29 41.1003 287.48 41.1003C287.48 41.2903 287.03 41.9303 286.13 43.0203L285.14 44.3003C285.14 44.3003 285.42 44.0603 285.85 43.5903C286.51 42.9303 286.94 42.6003 287.13 42.6003H287.2C287.2 42.7003 287.09 42.8703 286.88 43.1303C286.67 43.3903 286.56 43.6903 286.56 44.0203C286.56 44.1603 286.57 44.2303 286.6 44.2303H286.71C286.71 44.2303 286.83 44.1803 286.92 44.0903C287.01 44.0003 287.09 43.9503 287.13 43.9503C287.13 44.0503 286.77 44.5203 286.06 45.3703C285.49 46.0303 284.95 46.8103 284.43 47.7103C284.19 48.2803 283.77 48.9403 283.15 49.7003L282.51 50.5503C281.7 51.5003 280.5 52.8203 278.89 54.5303C275.1 58.4603 272.55 61.0203 271.22 62.2003C267.72 65.0403 264.07 67.3803 260.29 69.2303L259.3 69.8003C258.59 70.2303 257.5 70.6103 256.03 70.9403C253.9 71.4603 251.94 71.7203 250.14 71.7203L250.13 71.7103ZM245.52 62.6203V62.5503C245.52 62.5503 245.66 62.5103 245.8 62.4403C245.94 62.3703 246.15 62.2403 246.44 62.0503C246.72 61.8603 247 61.6803 247.26 61.5203C247.52 61.3503 247.82 61.1303 248.15 60.8503C250.28 59.5303 251.75 58.4603 252.55 57.6503C252.55 57.5103 253.09 57.0603 254.18 56.3003C255.08 55.5003 256.14 54.4703 257.38 53.2103C258.61 51.9603 259.46 50.9903 259.94 50.3003C260.41 49.6103 260.79 48.8103 261.08 47.8903C261.36 46.9703 261.51 46.2503 261.51 45.7203C261.51 45.1503 261.38 44.7403 261.12 44.4803C260.86 44.2203 260.45 44.0203 259.88 43.8803L259.17 43.8103C258.6 43.8103 257.95 44.0503 257.22 44.5203C256.49 44.9903 255.39 46.1503 253.92 48.0003C251.17 51.4103 249.08 54.5803 247.64 57.5103C246.2 60.4503 245.47 62.1503 245.47 62.6203H245.54H245.52ZM274.35 58.0103L274.85 57.5103C275.18 57.2303 275.5 56.9203 275.81 56.5903C276.12 56.2603 276.37 55.9803 276.56 55.7403C276.89 55.3103 277.06 55.0803 277.06 55.0303C277.01 55.0303 276.44 55.6203 275.36 56.8003C274.7 57.5603 274.37 57.9603 274.37 58.0103H274.35Z" fill="#BBB573"/>
<path d="M284.07 85.9103C283.5 85.9103 283.08 85.8903 282.79 85.8403C282.22 85.8403 281.65 85.6703 281.09 85.3403C280.38 84.8703 279.97 84.5503 279.85 84.3803C279.73 84.2103 279.63 83.9703 279.53 83.6303C279.25 82.9703 279.1 82.4703 279.1 82.1403C279.1 81.8103 279.01 81.4203 278.82 80.9703C278.63 80.5203 278.54 80.1503 278.54 79.8703L278.61 79.0203C278.8 77.6003 279.06 76.8903 279.39 76.8903C279.53 76.8903 279.63 76.7403 279.67 76.4303C279.72 76.1203 279.85 75.9303 280.06 75.8603C280.27 75.7903 280.51 75.5203 280.77 75.0403C281.03 74.5703 281.21 74.0503 281.3 73.4803C281.35 73.1503 281.47 72.8403 281.66 72.5603C281.99 71.9903 283.2 70.7403 285.28 68.8003C286.23 67.8503 286.75 67.3803 286.84 67.3803C286.89 67.3803 286.91 67.4003 286.91 67.4503L286.77 68.1603C286.77 68.2603 286.79 68.3003 286.84 68.3003C286.93 68.2503 287.11 68.1103 287.37 67.8703C287.63 67.6303 287.93 67.3703 288.26 67.0903C288.59 66.8103 288.89 66.5303 289.15 66.2703C289.41 66.0103 289.54 65.8603 289.54 65.8103C289.54 65.7603 289.47 65.7403 289.33 65.7403H288.9C288.71 65.7403 288.58 65.7003 288.51 65.6303C288.44 65.5603 288.23 65.4103 287.87 65.1703C287.52 64.9303 287.1 64.6503 286.63 64.3203C284.5 62.9503 283.39 61.9503 283.29 61.3403C283.15 61.1003 283.01 60.9403 282.86 60.8403C282.53 60.6003 282.17 60.1303 281.8 59.4203C280.85 57.7203 280.38 56.4603 280.38 55.6603L280.45 55.4503C280.45 55.2603 280.37 54.9503 280.2 54.5303C280.03 54.1103 279.95 53.5603 279.95 52.9003V51.8403C279.95 49.8103 281.25 47.1803 283.86 43.9603C286.04 41.2603 288.4 38.9903 290.96 37.1403L291.39 36.7903C291.72 36.5103 292.5 35.9403 293.73 35.0903C297.94 32.3003 301.11 30.5003 303.24 29.6903L305.37 28.8403L306.43 28.9103C307.57 29.0503 308.13 29.3803 308.13 29.9003V30.2503C308.13 30.3903 308.22 30.4803 308.41 30.5003C308.6 30.5203 308.85 30.7303 309.16 31.1003C309.47 31.4803 309.62 31.9503 309.62 32.5203C309.62 32.8503 309.56 33.1103 309.44 33.3003C309.32 33.4903 309.26 33.6303 309.26 33.7303C309.26 33.8303 309.28 33.9103 309.33 33.9803C309.38 34.0503 309.4 34.1303 309.4 34.2303C309.4 34.3303 309.19 34.5603 308.76 34.9403C308.14 35.3703 307.43 35.6503 306.63 35.7903C306.44 35.7903 305.97 35.8903 305.21 36.0703C304.78 36.2103 304.19 36.4503 303.44 36.7803C303.34 36.7803 303.27 36.8003 303.23 36.8503C301.86 37.4203 300.22 38.2703 298.33 39.4103C293.31 42.4903 289.29 45.8203 286.26 49.4203C284.13 51.9303 283.06 53.8003 283.06 55.0303C283.06 55.4103 283.3 55.8903 283.77 56.4903C284.24 57.0803 284.72 57.5703 285.19 57.9503C286.04 58.7103 287.84 59.7503 290.59 61.0703C290.59 61.1203 290.61 61.1403 290.66 61.1403C291.84 61.7103 292.53 61.9903 292.72 61.9903C292.96 61.9903 293.19 61.8703 293.43 61.6403L298.12 58.0903C299.16 57.3803 299.68 56.9703 299.68 56.8503C299.68 56.7303 299.85 56.6303 300.18 56.5303C300.79 56.2503 301.91 55.4903 303.52 54.2603L305.37 52.8403L305.44 52.9103L304.59 53.8303C303.93 54.3503 303.43 54.7803 303.1 55.1103C302.48 55.7303 302.18 56.0603 302.18 56.1003V56.1703C302.18 56.1703 302.2 56.2403 302.25 56.2403L308.99 51.4803C309.37 51.2903 309.84 50.9603 310.41 50.4903L311.4 49.7803C312.35 49.1203 312.9 48.7403 313.07 48.6403C313.24 48.5503 313.82 48.1203 314.81 47.3603C316.18 46.4103 317.03 45.9403 317.37 45.9403C317.46 45.9403 317.52 45.9803 317.55 46.0503C317.57 46.1203 317.63 46.1603 317.73 46.1603L318.79 45.5903C319.45 45.1603 319.87 44.8703 320.03 44.7003C320.2 44.5303 320.43 44.4003 320.74 44.3103C321.05 44.2203 321.2 44.0703 321.2 43.8803L321.91 43.3803C322.76 42.8103 323.4 42.5303 323.83 42.5303C324.44 42.5303 324.75 42.7903 324.75 43.3103C324.75 43.5903 324.58 43.8803 324.25 44.1603L323.75 44.4403H323.61L320.98 46.2903C319.61 47.2403 318.86 47.7803 318.74 47.9203C318.62 48.0603 318.33 48.2903 317.85 48.5903C317.38 48.9003 316.87 49.2403 316.32 49.6203C315.78 50.0003 315.31 50.3103 314.94 50.5403C313.38 51.7703 312.1 52.6903 311.11 53.3103L301.45 60.3403C298.23 62.6603 296.62 63.9403 296.62 64.1703C296.62 64.3103 296.79 64.5503 297.12 64.8803C299.3 66.7303 300.39 69.0903 300.39 71.9803V72.6903C300.29 74.3003 300.08 75.5103 299.75 76.3103C299.56 76.8303 299.35 77.0903 299.11 77.0903C298.87 77.0903 298.76 77.1503 298.76 77.2703C298.76 77.3903 298.68 77.5303 298.51 77.7003C298.34 77.8703 298.26 78.0003 298.26 78.0903C298.12 78.3703 297.38 79.1703 296.06 80.4703C294.73 81.7703 292.94 82.9903 290.66 84.1303C289.43 84.7503 288.32 85.2003 287.32 85.4803C286.32 85.7603 285.24 85.9103 284.05 85.9103H284.07ZM282.79 81.0103C283.5 81.0103 284.33 80.9203 285.27 80.7303C287.68 80.2103 289.22 79.6703 289.88 79.1003C290.21 78.8603 290.58 78.7103 290.98 78.6403C291.38 78.5703 291.63 78.4903 291.73 78.3903C291.82 78.3003 291.92 78.1003 292.01 77.7903C292.1 77.4803 292.7 76.7603 293.79 75.6203C295.82 73.5903 296.98 71.9303 297.27 70.6503L297.48 70.0103C296.86 69.6303 296.25 69.2803 295.63 68.9503C295.01 68.6203 294.46 68.3403 293.96 68.1003C293.46 67.8603 293.13 67.7003 292.97 67.6003C292.8 67.5103 292.6 67.4303 292.37 67.3903L290.45 69.1603C288.22 71.2003 285.88 73.4903 283.42 76.0503C282.9 76.6203 282.4 77.2803 281.93 78.0403C281.27 79.0303 280.96 79.7703 281.01 80.2403C281.01 80.3403 281.02 80.4303 281.05 80.5203C281.07 80.6203 281.23 80.7203 281.51 80.8403C281.79 80.9603 282.22 81.0203 282.79 81.0203V81.0103Z" fill="#BBB573"/>
</g>
</g>
<defs>
<clipPath id="clip0_35_44">
<rect width="324.75" height="92.58" fill="white"/>
</clipPath>
</defs>
</svg>
