<svg width="46" height="47" viewBox="0 0 46 47" fill="none" xmlns="http://www.w3.org/2000/svg">
<g clip-path="url(#clip0_8_98)">
<path d="M22.9999 46.5674C18.2756 46.5674 13.5513 46.5674 8.82694 46.5674C4.5792 46.5674 1.29496 44.0291 0.238203 39.9264C0.0724372 39.2633 0.0102751 38.5795 0.0102751 37.8958C0.0102751 28.3539 0.0102751 18.8016 0.0102751 9.25973C-8.52747e-05 4.35927 3.79181 0.577743 8.6819 0.567383C18.2238 0.567383 27.776 0.567383 37.3179 0.567383C42.208 0.567383 45.9896 4.34891 45.9896 9.239C45.9896 18.7809 45.9896 28.3331 45.9896 37.875C45.9896 42.7651 42.208 46.5363 37.3179 46.5467C32.5418 46.5467 27.776 46.5467 22.9999 46.5467V46.5674ZM4.20622 23.5674C4.20622 28.2399 4.20622 32.9228 4.20622 37.5953C4.20622 38.0615 4.22694 38.5174 4.34091 38.9629C4.86928 41.0868 6.55802 42.3507 8.86838 42.3507C18.286 42.3507 27.7035 42.3507 37.1211 42.3507C37.5666 42.3507 38.0121 42.3196 38.4472 42.2057C40.5607 41.6669 41.804 39.9989 41.804 37.6989C41.804 28.2606 41.804 18.8327 41.804 9.39441C41.804 8.95928 41.7729 8.5345 41.6693 8.12009C41.1305 6.00657 39.4625 4.75297 37.1729 4.75297C27.7346 4.75297 18.3067 4.75297 8.86838 4.75297C8.43325 4.75297 8.00847 4.78405 7.59406 4.88765C5.48055 5.41603 4.21658 7.09441 4.21658 9.37369C4.21658 14.098 4.21658 18.8223 4.21658 23.5467L4.20622 23.5674Z" fill="#BBB573"/>
<path d="M25.3726 19.496C25.3726 20.6667 25.3726 21.5059 25.3726 22.3451C25.3726 22.4591 25.3726 22.573 25.4036 22.6766C25.5072 23.0392 25.5694 23.464 25.9942 23.5883C26.3879 23.7023 26.6469 23.3915 26.8852 23.1428C28.0766 21.8582 28.9262 20.3559 29.6825 18.7915C29.9415 18.2528 30.1798 17.6933 30.4077 17.1338C30.6045 16.6573 30.9154 16.4086 31.4541 16.4086C32.9771 16.4086 34.5104 16.3982 36.0334 16.3879C37.2144 16.3879 37.5045 16.8023 37.0487 17.8901C36.5203 19.1852 35.6708 20.273 34.8419 21.3919C34.2514 22.1793 33.6298 22.946 33.0599 23.7541C32.3347 24.7694 32.3762 25.1838 33.2672 26.0645C34.2825 27.0694 35.3703 28.0122 36.2613 29.1311C36.5928 29.5455 36.8933 29.9703 37.1108 30.4469C37.3906 31.0582 37.2144 31.4933 36.5928 31.7523C36.3131 31.8663 36.0126 31.9284 35.7122 31.9284C34.4379 31.9492 33.1635 31.9699 31.8996 31.9699C31.019 31.9699 30.3041 31.5555 29.7032 30.9649C29.0712 30.3433 28.4807 29.6699 27.8798 29.0172C27.6622 28.7789 27.4343 28.5613 27.1649 28.3852C26.6262 28.0329 26.1703 28.1262 25.8388 28.6753C25.4865 29.2658 25.4036 29.9289 25.3829 30.6023C25.3415 31.5865 25.0203 31.8973 24.0568 31.9284C21.9847 32.0113 20.0059 31.7316 18.1721 30.7059C16.5145 29.7735 15.2194 28.4577 14.1005 26.9555C11.9248 24.0338 10.2672 20.8325 8.77526 17.5275C8.46445 16.8334 8.74418 16.4293 9.56265 16.3879C10.2775 16.3568 10.9924 16.3775 11.7072 16.3775C12.246 16.3775 12.7847 16.3879 13.3338 16.3672C14.059 16.3361 14.5253 16.6469 14.805 17.3307C15.5509 19.1645 16.4834 20.8843 17.6437 22.4901C17.8924 22.8424 18.1721 23.1739 18.514 23.4329C19.0113 23.8059 19.4154 23.6919 19.6329 23.1118C19.8298 22.573 19.8608 21.9928 19.8919 21.423C19.9541 20.387 19.9126 19.3613 19.7676 18.3356C19.664 17.5482 19.2185 17.0613 18.4518 16.9059C18.0167 16.823 18.1099 16.6676 18.3172 16.4293C18.6901 16.0046 19.1874 15.8491 19.7054 15.787C21.2077 15.6109 22.7203 15.5591 24.2226 15.8284C25.041 15.9735 25.3208 16.3154 25.4036 17.1442C25.4865 18.0352 25.3415 18.9262 25.3726 19.4856V19.496Z" fill="#BBB573"/>
</g>
<defs>
<clipPath id="clip0_8_98">
<rect width="46" height="46" fill="white" transform="translate(0 0.567383)"/>
</clipPath>
</defs>
</svg>
